<?xml version="1.0" standalone="no"?>
<!DOCTYPE svg PUBLIC "-//W3C//DTD SVG 1.1//EN" "http://www.w3.org/Graphics/SVG/1.1/DTD/svg11.dtd" >
<svg xmlns="http://www.w3.org/2000/svg">
<metadata>
<json>
<![CDATA[
{
	"fontFamily": "FocialMix",
	"majorVersion": 1,
	"minorVersion": 0,
	"description": "An icon font focused around social and brand icons\nFont generated by IcoMoon.",
	"designer": "Essem",
	"designerURL": "https://theessemcraft.github.io",
	"version": "Version 1.0",
	"fontId": "FocialMix",
	"psName": "FocialMix",
	"subFamily": "Regular",
	"fullName": "FocialMix"
}
]]>
</json>
</metadata>
<defs>
<font id="FocialMix" horiz-adv-x="1024">
<font-face units-per-em="1024" ascent="960" descent="-64" />
<missing-glyph horiz-adv-x="1024" />
<glyph unicode="&#x20;" horiz-adv-x="512" d="" />
<glyph unicode="&#xe900;" glyph-name="gmail, google-mail" data-tags="gmail, google-mail" d="M960.283 687.266v21.388c0 40.577-33.201 73.779-73.78 73.779l-0.022-0.020-0.043-0.033 0.065 0.052-752.927-0.020c-40.577 0-73.78-33.201-73.78-73.78v-504.005c0-40.577 33.201-73.777 73.78-73.777l724.423 0.018c77.398 0.899 100.645 20.050 102.404 73.701l-0.119 482.696zM831.533 764.373l-322.688-237.691-320.59 237.691h643.278zM178.086 579.687l299.207-206.099-299.378-208.172 0.172 414.27zM185.812 148.911l307.292 213.675 5.391-3.751c3.099-2.156 6.707-3.236 10.316-3.236 3.579 0 15.844 7.043 15.844 7.043l307.375-213.731h-646.218zM839.74 165.545l-299.196 208.042 299.196 206.089v-414.131z" />
<glyph unicode="&#xe901;" glyph-name="wine" data-tags="wine" horiz-adv-x="636" d="M244.232 734.261l-47.889-252.852 56.509-184.85 129.3 43.1 78.537 84.284 103.44 258.599-30.649 29.691-173.357-56.509-115.891 78.537zM353.802 941.919c-28.287 0.065-50.039-4.561-59.028-14.516-14.261-15.795-47.085-133.582-88.060-313.584-29.562-129.528-9.052-205.067 11.148-245.494 25.825-51.685 45.952-82.762 5.133-185.905-29.563-74.7-59.726-88.997-87.739-92.551-67.512 16.235-118.459 16.816-125.113-1.444-9.102-24.978 67.93-75.608 171.95-113.083s195.89-47.675 204.992-22.697c6.676 18.319-33.104 50.461-95.759 81.083-27.505 28.34-52.178 48.080-30.396 135.86 42.611 171.723 107.611 112.703 184.221 219.429 64.985 90.531 82.193 159.991 119.82 266.105 39.867 112.431 57.371 164.479 52.211 174.757-34.757 69.226-178.517 111.845-263.378 112.040zM359.657 918.34c31.615-0.277 71.805-7.177 104.421-18.847 69.901-25.011 132.985-59.968 129.283-80.922-9.356-52.96-29.774-96.221-34.967-111.158-68.357 66.115-156.137-131.194-296.902 32.080 0 0 26.917 103.722 45.474 162.887 3.546 11.304 24.796 16.204 52.692 15.96zM256.68 713.187c142.413-155.832 241.839 38.908 294.015-28.712-17.868-58.686-125.556-414.027-269.073-350.556-118.886 51.822-50.038 316.048-24.942 379.268z" />
<glyph unicode="&#xe902;" glyph-name="pi, raspberry-pi" data-tags="pi, raspberry-pi" d="M842.831 486.119l-7.877 11.815c0 94.523-43.323 129.969-90.585 157.538 15.754 3.938 31.508 7.877 35.446 27.569 27.569 7.877 31.508 19.692 35.446 31.508 7.877 3.938 27.569 15.754 27.569 39.385 11.815 7.877 19.692 19.692 15.754 35.446 11.815 15.754 15.754 27.569 11.815 39.385 15.754 19.692 7.877 31.508 3.938 43.323 11.815 23.631 0 47.262-31.508 43.323-11.815 19.692-43.323 15.754-47.262 15.754-3.938 7.877-11.815 11.815-31.508 7.877-19.692 11.815-35.446 11.815-51.2 3.938-19.692 15.754-31.508 3.938-43.323 0-23.631 7.877-27.569-3.938-39.385-7.877-23.631 3.938-31.508-7.877-43.323-19.692h-11.815c-35.446-19.692-55.138-66.954-63.015-86.646-7.877 23.631-23.631 66.954-63.015 86.646h-11.815c-11.815 11.815-19.692 23.631-43.323 19.692-11.815 3.938-15.754 15.754-39.385 7.877-7.877 3.938-15.754 7.877-27.569 7.877v0c-3.938 0-7.877-3.938-15.754-7.877-15.754 7.877-31.508 7.877-43.323-3.938-19.692 3.938-27.569-3.938-31.508-7.877-3.938 0-35.446 3.938-47.262-15.754-35.446 3.938-47.262-19.692-35.446-43.323-7.877-11.815-11.815-19.692 3.938-43.323-7.877-7.877-3.938-23.631 11.815-35.446-3.938-15.754 0-27.569 15.754-39.385-3.938-19.692 19.692-31.508 23.631-39.385 3.938-11.815 7.877-23.631 35.446-31.508 3.938-19.692 19.692-23.631 35.446-27.569-51.2-27.569-90.585-66.954-90.585-157.538l-7.877-11.815c-55.138-35.446-106.338-145.723-27.569-236.308 3.938-27.569 11.815-47.262 19.692-70.892 11.815-90.585 86.646-133.908 106.338-137.846 27.569-23.631 59.077-43.323 102.4-59.077 39.385-39.385 82.708-55.138 126.031-55.138 0 0 0 0 0 0 43.323 0 86.646 15.754 126.031 55.138 43.323 15.754 74.831 35.446 102.4 59.077 19.692 3.938 94.523 47.262 106.338 137.846 7.877 23.631 15.754 43.323 23.631 70.892 86.646 90.585 35.446 200.862-23.631 236.308zM791.631 501.872c-3.938-39.385-192.985 129.969-161.477 133.908 90.585 15.754 165.415-35.446 161.477-133.908zM582.892 891.78c0-7.877 3.938-11.815 3.938-15.754 11.815 11.815 19.692 23.631 31.508 35.446 0-7.877-3.938-11.815 3.938-19.692 7.877 11.815 15.754 19.692 31.508 27.569-7.877-11.815 0-15.754 3.938-19.692 11.815 7.877 19.692 15.754 39.385 23.631-3.938-7.877-11.815-11.815-3.938-19.692 11.815 7.877 19.692 11.815 47.262 19.692-3.938-7.877-15.754-11.815-11.815-19.692 11.815 3.938 27.569 7.877 43.323 11.815-7.877-7.877-15.754-11.815-7.877-15.754 15.754 3.938 31.508 11.815 51.2 3.938l-11.815-11.815c0 0 27.569 0 47.262 0-7.877-11.815-15.754-19.692-19.692-35.446 0 0 11.815 0 19.692 0-7.877-23.631-23.631-27.569-27.569-35.446 3.938-3.938 11.815-3.938 23.631 0-7.877-15.754-19.692-23.631-31.508-35.446 3.938-3.938 7.877-3.938 19.692 0-11.815-11.815-23.631-19.692-35.446-31.508 3.938-3.938 11.815-3.938 19.692-3.938-11.815-11.815-31.508-19.692-47.262-27.569 3.938-7.877 11.815-3.938 15.754-3.938-11.815-7.877-31.508-15.754-47.262-19.692 3.938-3.938 7.877-7.877 15.754-7.877-19.692-11.815-47.262-3.938-55.138-11.815 0-3.938 7.877-7.877 11.815-11.815-31.508 0-114.215 0-129.969 63.015 31.508 35.446 86.646 74.831 185.108 126.031-74.831-27.569-145.723-59.077-200.862-106.338-63.015 31.508-19.692 110.277 15.754 141.785zM512 663.349c47.262 0 106.338-35.446 106.338-70.892 0-31.508-43.323-55.138-106.338-55.138s-106.338 31.508-106.338 59.077c0 27.569 51.2 66.954 106.338 66.954v0zM271.754 686.98c7.877 0 11.815 3.938 15.754 7.877-19.692 7.877-39.385 11.815-51.2 23.631 7.877 0 11.815 0 19.692 3.938-15.754 7.877-31.508 15.754-47.262 27.569 7.877 0 15.754 0 19.692 3.938-11.815 7.877-23.631 19.692-35.446 27.569 11.815 0 15.754 0 19.692 0-11.815 15.754-23.631 23.631-31.508 39.385 7.877-3.938 15.754-3.938 23.631 0-3.938 7.877-23.631 11.815-31.508 31.508 7.877 0 19.692 0 19.692 0-3.938 15.754-11.815 27.569-15.754 35.446 19.692 0 47.262 0 47.262 0l-11.815 15.754c19.692 3.938 39.385 0 51.2-3.938 7.877 3.938 0 11.815-7.877 15.754 15.754-3.938 31.508-7.877 43.323-11.815 7.877 7.877-3.938 11.815-11.815 19.692 27.569-3.938 35.446-11.815 47.262-19.692 7.877 7.877 0 11.815-3.938 19.692 19.692-7.877 27.569-15.754 39.385-23.631 3.938 3.938 7.877 7.877 3.938 19.692 7.877-7.877 19.692-15.754 27.569-27.569 7.877 3.938 3.938 11.815 3.938 19.692 11.815-11.815 23.631-23.631 31.508-35.446 3.938 0 3.938 7.877 3.938 15.754 31.508-31.508 78.769-110.277 11.815-141.785-55.138 47.262-126.031 82.708-200.862 106.338 98.462-51.2 153.6-90.585 185.108-126.031-15.754-63.015-98.462-66.954-129.969-63.015 7.877 3.938 11.815 7.877 11.815 11.815-3.938 3.938-27.569 0-47.262 7.877zM382.031 639.719c31.508-3.938-157.538-173.292-161.477-133.908-3.938 94.523 70.892 149.662 161.477 133.908zM181.169 265.565c-47.262 39.385-63.015 145.723 23.631 196.923 51.2 15.754 19.692-212.677-23.631-196.923zM362.338 68.642c-27.569-15.754-90.585-7.877-133.908 55.138-31.508 55.138-27.569 110.277-3.938 126.031 31.508 19.692 82.708-7.877 118.154-51.2 31.508-35.446 47.262-106.338 19.692-129.969zM311.138 308.888c-47.262 31.508-55.138 102.4-19.692 161.477 39.385 55.138 106.338 78.769 153.6 47.262s55.138-102.4 19.692-161.477c-35.446-59.077-106.338-78.769-153.6-47.262zM512-41.635c-59.077-3.938-114.215 47.262-114.215 63.015 0 23.631 70.892 43.323 118.154 43.323 47.262 3.938 110.277-15.754 110.277-39.385 0-15.754-59.077-66.954-114.215-66.954zM630.154 210.426c0-59.077-51.2-106.338-114.215-106.338s-118.154 47.262-118.154 106.338c0 0 0 0 0 0 0 59.077 51.2 106.338 114.215 106.338 66.954 0 118.154-47.262 118.154-106.338 0 0 0 0 0 0zM559.262 360.088c-39.385 55.138-27.569 129.969 19.692 161.477s118.154 11.815 153.6-47.262 27.569-129.969-19.692-161.477c-47.262-27.569-118.154-7.877-153.6 47.262zM795.569 123.78c-51.2-70.892-118.154-70.892-141.785-51.2-27.569 23.631-7.877 102.4 31.508 145.723v0c39.385 47.262 86.646 78.769 114.215 55.138 19.692-27.569 31.508-102.4-3.938-149.662zM831.015 269.503c-43.323-19.692-78.769 208.738-23.631 196.923 86.646-47.262 70.892-157.538 23.631-196.923z" />
<glyph unicode="&#xe903;" glyph-name="office" data-tags="office" horiz-adv-x="853" d="M7.96 129.69v612.856l542.137 200.356 294.631-94.286v-824.992l-294.631-88.813-542.137 194.883 542.137-65.242v713.445l-353.574-82.499v-483.215z" />
<glyph unicode="&#xe904;" glyph-name="sharepoint" data-tags="sharepoint" d="M590.769 950.857l-590.769-113.231v-797.538l590.769-113.231v1024zM669.538 793.319c-13.903 0-27.018-2.974-39.385-7.385v-221.538c12.367-4.411 25.482-7.385 39.385-7.385 43.699 0 81.713 23.811 102.154 59.077 31.154-17.899 57.178-43.923 75.077-75.077-35.265-20.442-59.077-58.458-59.077-102.154s23.811-81.711 59.077-102.154c-17.899-31.154-43.923-57.178-75.077-75.077-20.441 35.266-58.454 59.077-102.154 59.077-13.903 0-27.018-2.974-39.385-7.385v-221.538c12.367-4.372 25.482-7.385 39.385-7.385 63.562 0 115.499 50.323 118.154 113.231 53.328 26.274 96.803 69.749 123.077 123.077 62.903 2.655 113.231 54.598 113.231 118.154s-50.328 115.499-113.231 118.154c-26.274 53.328-69.749 96.803-123.077 123.077-2.655 62.908-54.592 113.231-118.154 113.231zM290.462 640.703c20.283 0 38.479-1.25 54.154-3.692 15.636-2.442 29.844-5.996 43.077-11.077v-81.231c-6.538 4.529-13.204 8.881-20.923 12.308s-16.423 6.37-24.615 8.615c-8.192 2.245-15.35 3.82-23.385 4.923-8.034 1.063-16.098 1.231-23.385 1.231-9.964 0-18.964-0.571-27.077-2.462-8.153-1.93-15.33-5.189-20.923-8.615s-9.236-7.542-12.308-12.308c-3.072-4.805-4.923-10.014-4.923-16 0-6.538 1.497-12.032 4.923-17.231 3.426-5.159 8.428-10.122 14.769-14.769 6.341-4.608 14.326-9.088 23.385-13.538 9.058-4.411 19.387-8.852 30.769-13.538 15.596-6.538 29.44-13.558 41.846-20.923 12.406-7.326 23.099-15.36 32-24.615 8.862-9.216 14.966-20.106 19.692-32 4.726-11.855 7.385-26.053 7.385-41.846 0-21.662-4.076-39.385-12.308-54.154-8.231-14.73-19.092-26.594-33.231-35.692-14.1-9.137-30.523-15.714-49.231-19.692-18.747-4.017-39.513-6.154-60.308-6.154-21.386 0-41.009 1.26-60.308 4.923-19.259 3.623-36.362 9.984-50.462 17.231v86.154c15.754-13.194 33.221-22.922 51.692-29.538s36.519-9.846 55.385-9.846c11.028 0 21.307 0.453 29.538 2.462s15.409 5.071 20.923 8.615c5.514 3.545 9.63 7.503 12.308 12.308s3.692 10.407 3.692 16c0 7.562-1.782 14.937-6.154 20.923s-10.939 10.919-18.462 16c-7.522 5.081-16.719 10.082-27.077 14.769-10.319 4.726-21.258 9.886-33.231 14.769-30.405 12.682-52.726 27.264-67.692 45.538-14.927 18.314-22.154 40.546-22.154 66.462 0 20.283 4.194 38.351 12.308 52.923 8.153 14.572 19.21 26.279 33.231 35.692 14.1 9.374 29.489 16.473 48 20.923s38.4 6.154 59.077 6.154z" />
<glyph unicode="&#xe905;" glyph-name="sway" data-tags="sway" d="M594.64 950.857c-1.495 0.047-3.020-0.063-4.52-0.36l-573.44-108.56c-9.687-1.823-16.68-10.269-16.68-20.12v-763.88c0-9.81 6.954-18.256 16.6-20.12l573.44-110.6c1.29-0.246 2.59-0.36 3.88-0.36 4.71 0 9.333 1.628 13.040 4.68 4.71 3.891 7.44 9.697 7.44 15.8v983.040c0 6.103-2.71 11.869-7.4 15.76-3.517 2.918-7.875 4.578-12.36 4.72zM655.36 827.977v-155.36l26.48 26.48c8.008 8.008 20.973 8.008 28.96 0l170.72-178.32h-226.16v-102.4h61.44v-40.96h-61.44v-61.44h61.44v-40.96h-61.44v-61.44h61.44v-40.96h-61.44v-122.88h307.2c22.63 0 40.96 18.33 40.96 40.96v696.32c0 22.63-18.33 40.96-40.96 40.96h-307.2zM880.64 725.577c11.305 0 20.48-9.175 20.48-20.48s-9.175-20.48-20.48-20.48c-11.305 0-20.48 9.175-20.48 20.48s9.175 20.48 20.48 20.48zM798.080 684.617c5.238 0 10.476-1.996 14.48-6l150.92-157.84h-49.52l-141.24 146.96 10.88 10.88c4.004 4.004 9.242 6 14.48 6zM299 635.457c20.48 0 36.864-2.032 51.2-4.080s28.672-6.144 40.96-10.24v-79.88c-6.144 4.096-12.288 8.184-20.48 12.28s-14.328 6.152-22.52 8.2c-8.192 2.048-16.376 4.080-22.52 4.080-8.192 2.048-14.328 2.080-22.52 2.080-10.24 0-18.448-0.032-26.64-2.080s-14.336-4.064-20.48-8.16c-6.144-4.096-10.232-8.224-12.28-12.32s-4.12-10.216-4.12-16.36c0-6.144 2.072-12.304 4.12-16.4 4.096-4.096 8.176-10.224 14.32-14.32s14.328-8.184 22.52-12.28c8.192-4.096 18.44-8.224 28.68-12.32 14.336-6.144 28.672-12.288 40.96-20.48 12.288-6.144 22.528-14.32 30.72-24.56 8.192-8.192 14.336-18.432 20.48-30.72 4.096-12.288 6.16-24.584 6.16-38.92-2.048-22.528-6.136-38.904-12.28-53.24-8.192-14.336-18.464-26.608-32.8-34.8s-28.648-14.344-47.080-18.44c-18.432-4.096-36.88-6.16-57.36-6.16s-40.968 2.064-59.4 6.16c-18.432 2.048-34.792 8.176-47.080 14.32v83.96c14.336-12.288 30.728-22.496 49.16-28.64s34.808-10.24 53.24-10.24c10.24 0 20.488-0.008 28.68 2.040s14.336 4.104 20.48 8.2c6.144 4.096 10.232 8.184 12.28 12.28s4.080 10.224 4.080 14.32c0 8.192-2.024 14.336-6.12 20.48s-10.256 10.256-16.4 16.4c-8.192 4.096-16.4 10.224-26.64 14.32s-20.472 8.216-32.76 14.36c-28.672 12.288-51.184 26.608-65.52 45.040s-22.52 38.904-22.52 63.48c0 20.48 4.088 36.864 12.28 51.2s18.424 24.6 32.76 34.84c14.336 8.192 28.688 16.384 47.12 20.48s36.84 6.12 57.32 6.12zM757.76 418.377h163.84v-40.96h-163.84v40.96zM757.76 315.977h163.84v-40.96h-163.84v40.96zM757.76 213.577h163.84v-40.96h-163.84v40.96z" />
<glyph unicode="&#xe906;" glyph-name="visio" data-tags="visio" d="M590.080 950.857l-573.44-109.44c-9.769-1.884-16.824-10.527-16.64-20.48v-764.16c-0.184-9.953 6.871-18.596 16.64-20.48l573.44-109.44h3.84c11.305 0 20.48 9.175 20.48 20.48v983.040c0 6.083-2.99 12.109-7.68 16-4.669 4.055-10.557 5.565-16.64 4.48zM655.36 827.977v-163.84h53.12l90.24 90.24 110.72-110.72-90.24-90.24v-298.88h-81.92v-61.44c0-11.305-9.175-20.48-20.48-20.48h-61.44v-122.88h307.2c22.63 0 40.96 18.33 40.96 40.96v696.32c0 22.63-18.33 40.96-40.96 40.96h-307.2zM798.72 696.777l-53.12-53.12 53.12-53.12 53.12 53.12-53.12 53.12zM449.28 651.977l-117.12-422.4-81.92 7.040-99.2 387.84 68.48 6.4 70.4-302.080h4.48l74.24 316.16 80.64 7.040zM655.36 623.177v-245.76h61.44c11.305 0 20.48-9.175 20.48-20.48v-61.44h40.96v257.92l-69.76 69.76h-53.12zM655.36 336.457v-122.88h40.96v122.88h-40.96z" />
<glyph unicode="&#xe907;" glyph-name="publisher" data-tags="publisher" d="M590.769 950.857l-590.769-113.231v-797.538l590.769-113.231v1024zM748.308 832.703c-28.633 0-21.465-24.94 0-35.692s196.923-107.077 196.923-107.077v-448h78.769v590.769h-275.692zM630.154 675.165v-77.538h158.769v-119.385h-158.769v-78.769h157.538v-39.385h-157.538v-78.769h157.538v-39.385h-157.538v-78.769h157.538v-39.385h-157.538v-78.769h242.462c18.156 0 33.231 15.596 33.231 34.462v561.231c0 18.865-15.074 34.462-33.231 34.462h-242.462zM152.615 638.242h140.308c100.588 0 151.385-41.974 151.385-126.769 0.039-40.054-14.247-73.689-43.077-98.462-28.869-24.734-67.407-36.923-115.692-36.923h-43.077v-136.615h-89.846v398.769zM242.462 569.319v-124.308h35.692c47.852 0 71.385 20.825 71.385 62.769 0 41.039-23.532 61.538-71.385 61.538h-35.692z" />
<glyph unicode="&#xe908;" glyph-name="project" data-tags="project" d="M590.080 950.857l-573.44-108.8c-10.24-2.048-16.64-12.288-16.64-20.48v-763.52c0-10.24 6.4-18.432 16.64-20.48l573.44-108.8h3.84c4.096 0 10.112 2.432 12.16 4.48 4.096 4.096 8.32 9.856 8.32 16v981.12c0 6.144-2.176 12.544-8.32 16.64-4.096 4.096-9.856 3.84-16 3.84zM655.36 827.977v-143.36h163.84v-204.8h81.92l-102.4-102.4-102.4 102.4h81.92v163.84h-122.88v-256l92.16-92.16-92.16-92.16v-153.6h307.2c22.528 0 40.96 18.432 40.96 40.96v696.32c0 22.528-18.432 40.96-40.96 40.96h-307.2zM188.16 629.577h135.68c96.256 0 145.28-40.96 145.28-122.88-2.048-36.864-14.208-67.584-42.88-92.16s-65.664-35.2-110.72-35.2h-40.96v-131.2h-86.4v381.44zM272.64 563.657v-118.4h34.56c45.056 0 69.76 19.968 69.76 58.88s-22.656 59.52-69.76 59.52h-34.56z" />
<glyph unicode="&#xe909;" glyph-name="access" data-tags="access" d="M590.080 950.217l-573.44-108.8c-9.667-1.843-16.64-10.65-16.64-20.48v-764.16c0-9.83 6.973-18.657 16.64-20.48l573.44-108.8c1.27-0.246 2.57-0.64 3.84-0.64 4.71 0 9.093 1.428 12.8 4.48 4.69 3.912 7.68 9.897 7.68 16v983.040c0 6.103-2.99 12.109-7.68 16-4.71 3.891-10.66 4.987-16.64 3.84zM750.72 807.497c-32.891 0-64.824-1.659-95.36-5.12v-131.84c32.707-4.014 67.983-6.4 103.68-6.4 171.561 0 264.96 44.324 264.96 67.2v7.68c-1.249 24.474-104.893 68.48-273.28 68.48zM1024 674.377c-55.849-33.894-160.717-51.2-264.96-51.2-35.615 0-70.769 1.889-103.68 5.76v-169.6c32.707-4.014 67.983-5.76 103.68-5.76 171.561 0 264.96 44.324 264.96 67.2v153.6zM335.36 646.857c39.997-133.673 78.254-268.104 117.76-401.92-27.587 1.802-55.219 3.901-82.56 6.4-7.291 29.839-15.155 59.884-23.040 89.6-36.639 0.123-73.564 1.418-110.080 3.2-7.025-28.283-13.829-56.32-21.12-84.48-23.388 1.802-47.135 2.924-70.4 4.48 34.877 125.686 71.629 251.254 106.24 376.96 27.812 2.028 55.265 3.61 83.2 5.76zM290.56 575.817c-8.008-56.709-25.697-111.171-37.76-167.040 26.255-0.225 52.321-0.517 78.72-0.64-13.619 55.869-30.208 111.094-40.96 167.68zM1024 463.817c-55.849-33.894-160.717-51.2-264.96-51.2-35.615 0-70.769 1.889-103.68 5.76v-157.44c32.727-4.035 67.983-6.4 103.68-6.4 171.561 0 264.96 44.324 264.96 67.2v142.080zM1024 264.777c-55.849-33.894-160.717-51.2-264.96-51.2-35.574 0-70.728 1.889-103.68 5.76v-144c30.556-3.441 62.49-5.12 95.36-5.12 169.411 0 273.28 44.769 273.28 69.12v125.44z" />
<glyph unicode="&#xe90a;" glyph-name="onenote" data-tags="onenote" d="M590.769 950.857l-590.769-113.231v-797.538l590.769-113.231v1024zM630.154 832.703v-116.923h158.769v-80h-158.769v-78.769h157.538v-78.769h-157.538v-78.769h157.538v-78.769h-157.538v-78.769h157.538v-78.769h-157.538v-118.154h242.462c18.156 0 33.231 15.596 33.231 34.462v516.923h84.923c18.156 0 33.231 15.596 33.231 34.462v167.385c0 18.865-15.074 34.462-33.231 34.462h-360.615zM118.154 638.242h84.923l139.077-241.231c6.341-10.831 11.874-22.558 17.231-33.231h1.231c-1.3 9.177-2.462 28.288-2.462 55.385v219.077h75.077v-396.308h-80l-144 248.615c-8.468 14.572-14.001 25.866-17.231 33.231h-1.231c1.3-13.982 2.462-35.249 2.462-64v-217.846h-75.077v396.308zM945.231 557.011v-236.308h45.538c18.156 0 33.231 15.596 33.231 34.462v167.385c0 18.865-15.074 34.462-33.231 34.462h-45.538zM945.231 281.319v-236.308h45.538c18.156 0 33.231 15.596 33.231 34.462v167.385c0 18.865-15.074 34.462-33.231 34.462h-45.538z" />
<glyph unicode="&#xe90b;" glyph-name="powerpoint" data-tags="powerpoint" d="M590.769 950.857l-590.769-113.231v-797.538l590.769-113.231v1024zM630.154 832.703v-167.385c23.631 12.603 50.137 20.923 78.769 20.923v-168.615h168.615c0-92.908-75.707-168.615-168.615-168.615-28.633 0-55.138 8.281-78.769 20.923v-128h196.923v-78.769h-196.923v-118.154h360.615c18.156 0 33.231 15.596 33.231 34.462v718.769c0 18.865-15.074 34.462-33.231 34.462h-360.615zM748.308 725.626c92.908 0 168.615-75.668 168.615-168.615h-168.615v168.615zM152.615 638.242h140.308c100.588 0 151.385-41.974 151.385-126.769 0.039-40.054-14.247-73.689-43.077-98.462-28.869-24.734-67.407-36.923-115.692-36.923h-43.077v-136.615h-89.846v398.769zM242.462 569.319v-124.308h35.692c47.852 0 71.385 20.825 71.385 62.769 0 41.039-23.532 61.538-71.385 61.538h-35.692z" />
<glyph unicode="&#xe90c;" glyph-name="word" data-tags="word" d="M590.769 950.857l-590.769-113.231v-797.538l590.769-113.231v1024zM630.154 832.703v-116.923h276.923v-80h-276.923v-78.769h275.692v-78.769h-275.692v-78.769h275.692v-78.769h-275.692v-78.769h275.692v-78.769h-275.692v-118.154h360.615c18.156 0 33.231 15.596 33.231 34.462v718.769c0 18.865-15.074 34.462-33.231 34.462h-360.615zM77.538 638.242h75.077l44.308-265.846c1.851-11.303 2.826-26.476 3.692-45.538h1.231c0.551 14.257 2.57 29.913 6.154 46.769l56.615 264.615h73.846l51.692-268.308c1.851-9.846 3.466-23.060 4.923-41.846 0.591 14.651 2.442 29.302 4.923 44.308l43.077 265.846h70.154l-82.462-398.769h-76.308l-51.692 256c-2.718 13.351-4.372 27.806-4.923 44.308h-1.231c-1.3-18.156-2.481-32.61-4.923-44.308l-52.923-256h-80l-81.231 398.769z" />
<glyph unicode="&#xe90d;" glyph-name="excel" data-tags="excel" d="M590.769 950.857l-590.769-113.231v-797.538l590.769-113.231v1024zM630.154 832.703v-116.923h119.385v-80h-119.385v-78.769h118.154v-78.769h-118.154v-78.769h118.154v-78.769h-118.154v-78.769h118.154v-78.769h-118.154v-118.154h360.615c18.156 0 33.231 15.596 33.231 34.462v718.769c0 18.865-15.074 34.462-33.231 34.462h-360.615zM787.692 714.549h157.538v-78.769h-157.538v78.769zM121.846 638.242h108.308l57.846-120.615c4.45-9.452 8.763-20.273 12.308-33.231 2.245 7.798 7.434 19.062 13.538 34.462l62.769 119.385h99.692l-119.385-198.154 123.077-201.846h-105.846l-68.923 130.462c-2.599 4.844-5.819 14.119-8.615 27.077h-1.231c-1.3-6.105-3.771-15.862-8.615-28.308l-68.923-129.231h-107.077l126.769 199.385-115.692 200.615zM787.692 557.011h157.538v-78.769h-157.538v78.769zM787.692 399.472h157.538v-78.769h-157.538v78.769zM787.692 241.934h157.538v-78.769h-157.538v78.769z" />
<glyph unicode="&#xe90e;" glyph-name="outlook" data-tags="outlook" horiz-adv-x="1013" d="M0 835.477v-783.624l596.131-124.995v1024zM398.908 311.189c-25.191-33.153-58.036-49.767-98.573-49.767-39.499 0-71.651 16.076-96.535 48.19-24.845 32.153-37.306 73.997-37.306 125.611 0 54.498 12.615 98.573 37.883 132.226s58.729 50.498 100.381 50.498c39.345 0 71.19-16.076 95.458-48.306 24.307-32.23 36.46-74.69 36.46-127.418 0.038-54.19-12.576-97.881-37.768-131.034zM303.065 551.064c-21.768 0-39.114-10.23-51.921-30.653s-19.23-47.46-19.23-81.112c0-34.153 6.423-61.152 19.23-80.997 12.807-19.884 29.614-29.768 50.383-29.768 21.422 0 38.422 9.653 50.96 28.96s18.845 46.114 18.845 80.382c0 35.729-6.077 63.536-18.269 83.42-12.192 19.845-28.845 29.768-49.998 29.768zM633.822 458.722l63.882-43.883c9-6.615 19.845 0 19.845 0-10.807-6.615 295.258 196.685 295.258 196.685v-368.14c0-40.075-25.653-56.882-54.498-56.882h-324.526v272.221zM633.822 733.75v-200.3l69.997-44.075c1.846-0.538 5.846-0.577 7.692 0l301.258 203.108c0 24.038-22.422 41.268-35.076 41.268z" />
<glyph unicode="&#xe90f;" glyph-name="terminal, cmd" data-tags="terminal, cmd" d="M11.52 950.857c-7.68 0-11.52-5.12-11.52-11.52v-999.68c0-6.4 5.12-11.52 11.52-11.52h999.68c6.4 0 11.52 5.12 11.52 11.52v999.68c0 7.68-5.12 11.52-11.52 11.52h-999.68zM192 851.017l220.16-220.16-220.16-220.16-92.16 92.16 128 128-128 128 92.16 92.16zM512 566.857h384v-128h-384v128z" />
<glyph unicode="&#xe910;" glyph-name="magento" data-tags="magento" horiz-adv-x="865" d="M489.533 644.434v-581.929l-57.226-34.975-57.27 35.161v581.294l-148.287-91.302v-497.654l205.557-125.776 207.297 126.672v497.076l-150.072 91.433zM432.307 950.857l-432.307-261.921v-497.718l112.278-66.144v497.765l320.117 194.648 321.735-195.118-0.142-496.552 111.173 65.401v497.718l-432.855 261.921z" />
<glyph unicode="&#xe911;" glyph-name="seamonkey" data-tags="seamonkey" d="M447.336 22.76c-30.606 5.689-64.659 14.143-84.337 20.936-26.976 9.313-78.006 34.021-91.29 44.201l-9.627 7.378 69.627 35.040c173.175 87.151 270.716 144.885 308.161 182.397 42.396 42.472 67.345 100.806 67.396 157.582 0.045 50.055-14.85 82.199-47.491 102.49l-19.052 11.844 17.307 17.307c14.545 14.545 17.307 19.818 17.307 33.048 0 12.521-2.66 18.307-13 28.281-17.278 16.665-30.246 21.038-62.26 20.991-29.69-0.043-59.863-11.42-75.549-28.486-10.852-11.806-12.639-16.087-53.237-127.475-34.757-95.361-56.655-141.508-99.516-209.716-52.852-84.106-101.752-142.271-144.142-171.451l-17.705-12.187-23.018 24.489c-150.828 160.467-147.157 409.196 8.339 565.017 120.309 120.561 291.72 161.451 457.584 109.156 124.914-39.384 232.451-142.881 273.587-263.309 21.163-61.956 27.319-144.097 15.44-206-25.226-131.446-110.081-241.104-232.521-300.485-64.674-31.366-103.172-40.072-184-41.612-37.4-0.713-72.5-0.459-78 0.563zM87.336 35.567c0 5.735 6.795 11.983 23 21.146 101.296 57.281 154.419 93.825 189.242 130.183 41.456 43.283 99.828 130.043 148.958 221.399 17.044 31.692 53.554 135.435 68.807 195.509 8.211 32.339 14.855 42.314 36.72 55.128 25.749 15.090 61.301 17.030 85.269 4.655 31.371-16.198 31.473-40.663 0.257-62.258-22.645-15.666-21.237-24.29 6.384-39.127 30.533-16.401 37.363-29.756 37.363-73.055 0-62.026-20.851-124.596-53.224-159.717-26.092-28.306-73.23-56.766-209.043-126.211-70.253-35.922-169.132-88.973-219.732-117.89s-96.95-53.775-103-55.239c-9.269-2.243-11-1.381-11 5.478zM544.897 276.387c51.195 29.507 76.132 49.604 92.905 74.874 37.421 56.377 52.358 161.26 27.023 189.741-8.267 9.293-51.777 31.284-61.908 31.289-5.296 0.003-6.819-6.818-8.711-38.997-2.951-50.2-12.289-76.371-44.463-124.613-46.020-69.003-126.287-151.365-224.487-230.348-20.856-16.775-37.921-31.291-37.921-32.257 0-2.778 218.115 107.575 257.561 130.31z" />
<glyph unicode="&#xe912;" glyph-name="haiku" data-tags="haiku" horiz-adv-x="2819" d="M740.113 248.074c289.285-277.258 589.353-357.718 884.86-306.912-48.525 35.668-71.544 79.424-90.829 115.299 330.137-188.294 494.999 46.037 597.026 121.52-35.046 28.41-77.765 6.221-148.064 91.866 90-12.235 148.686-7.673 232.050-7.465 52.051 48.318 130.852 86.267 179.377 143.917 59.723 70.714 135.829 167.557 198.041 248.225-39.816 24.47-47.903 46.037-63.249 76.521 36.705-9.124 73.41-13.687 110.322-13.064 49.147 93.318 127.119 152.004 179.585 176.682-218.571 75.898-498.524 65.53-701.335 24.055-67.396-57.857-65.322-132.926-87.511-256.728-42.304 55.369-61.382 124.838-36.29 220.852-142.673-44.793-281.612-105.345-415.575-168.179-51.843-24.263-179.377-115.299-254.032-144.331-35.253-52.673-64.7-103.272-88.963-151.797-1.244 44.585-8.502 88.548-4.977 134.378-245.115-38.157-379.077-103.894-532.119-239.723-327.442-1.037-694.699 139.355-691.796 189.953l-6.636-118.617c0 0 408.939-155.115 741.565-136.451h-0.622z" />
<glyph unicode="&#xe913;" glyph-name="eclipse" data-tags="eclipse" d="M83.463 425.477c-6.497 240.023 173.146 451.856 406.672 490.11-183.55-2.999-329.663-78.1-421.711-238.66-97.182-169.42-90.503-342.339 17.855-504.853 95.273-142.842 235.071-208.811 405.764-209.947-240.296 41.117-402.765 247.815-408.58 463.35zM131.576 583.971c-4.998-13.266-4.362-13.494 10.086-13.494h865.538c-0.881 2.611-0.998 3.308-4.306 12.449-34.347 102.315-98.817 181.596-187.821 240.796-100.998 67.196-213.4 86.459-330.981 64.424-175.19-32.803-290.091-138.98-352.516-304.175zM122.899 518.91c-5.906 0.909-7.451-1.999-8.178-7.315-1.772-13.312-3.317-26.624-4.225-40.072-0.363-5.497 0.681-7.042 6.27-6.997l900.213-0.045c6.724-0.045 7.36 2.817 6.815 7.905-1.363 12.221-3.453 24.443-3.907 36.71-0.318 8.632-3.68 9.95-11.585 9.95l-885.402-0.136zM1017.069 413.187c-46.342-0.273-900.076 0-900.076 0-5.179 0.045-6.951-0.863-6.497-6.724 1-13.766 2.317-27.442 4.452-41.117 0.636-4.089 1.363-6.588 6.588-6.588l891.035 0.091c3.771 0 6.361 0.591 6.77 5.27 1.318 14.13 2.862 28.214 4.543 42.298 0.681 5.588-1.636 6.815-6.815 6.77zM261.379 379.476c-0.045 0.091-0.045 0.182-0.091 0.273 0.045-0.045 0.091-0.091 0.136-0.091 0-0.045-0.045-0.091-0.045-0.182zM130.224 304.786c-1.199-4.651 0.579-7.998 1.942-12.178 60.562-181.233 259.696-358.422 537.156-299.859 112.174 23.671 198.815 87.459 267.692 177.053 30.213 39.345 55.1 82.144 66.969 130.575 1.479 6.037-5.043 6.86-8.405 6.86l-856.233 0.136c0 0-8.383 0.276-9.121-2.588z" />
<glyph unicode="&#xe914;" glyph-name="jquery" data-tags="jquery" d="M68.634 698.749c-89.754-128.992-78.572-296.818-10.020-433.89 1.632-3.288 3.34-6.518 5.026-9.76 1.074-2.040 2.088-4.144 3.206-6.16 0.628-1.214 1.338-2.398 1.996-3.558 1.172-2.19 2.364-4.262 3.58-6.398 2.13-3.752 4.316-7.482 6.544-11.212 1.236-2.050 2.456-4.1 3.73-6.148 2.472-3.992 5.004-7.952 7.598-11.886 1.080-1.682 2.13-3.364 3.238-4.988 3.574-5.336 7.228-10.662 10.996-15.888 0.098-0.13 0.206-0.272 0.316-0.402 0.596-0.846 1.258-1.67 1.86-2.506 3.258-4.5 6.626-8.936 10.020-13.338 1.252-1.596 2.522-3.2 3.78-4.804 3.032-3.818 6.122-7.604 9.262-11.386 1.176-1.41 2.354-2.83 3.542-4.218 4.212-4.958 8.512-9.902 12.912-14.75 0.076-0.088 0.178-0.186 0.26-0.272 0.178-0.206 0.336-0.336 0.494-0.532 4.29-4.686 8.676-9.274 13.124-13.85 1.376-1.408 2.788-2.83 4.202-4.24 3.444-3.458 6.942-6.854 10.476-10.27 1.436-1.356 2.858-2.754 4.284-4.066 4.722-4.448 9.49-8.806 14.354-13.058 0.086-0.086 0.146-0.152 0.228-0.184 0.824-0.738 1.68-1.444 2.494-2.126 4.29-3.718 8.65-7.406 13.042-11.030 1.79-1.442 3.6-2.874 5.402-4.304 3.59-2.876 7.216-5.706 10.872-8.492 1.93-1.474 3.866-2.95 5.812-4.426 4.030-2.95 8.090-5.886 12.196-8.74 1.498-1.084 2.944-2.124 4.448-3.156 0.412-0.292 0.792-0.596 1.214-0.876 3.894-2.668 7.868-5.262 11.842-7.832 1.708-1.136 3.406-2.308 5.13-3.414 6.1-3.852 12.288-7.668 18.544-11.368 1.704-0.964 3.416-1.92 5.124-2.884 4.598-2.656 9.224-5.26 13.92-7.808 2.532-1.366 5.14-2.656 7.694-3.958 3.318-1.746 6.604-3.502 9.966-5.172 0.764-0.39 1.556-0.76 2.31-1.118 1.344-0.65 2.71-1.292 4.072-1.974 5.216-2.494 10.476-4.934 15.78-7.308 1.134-0.498 2.224-0.998 3.346-1.486 6.080-2.656 12.212-5.226 18.416-7.668 1.486-0.596 2.988-1.17 4.486-1.768 5.732-2.202 11.54-4.38 17.368-6.432 0.742-0.26 1.454-0.498 2.184-0.746 6.404-2.246 12.868-4.316 19.38-6.346 1.55-0.456 3.112-0.956 4.674-1.41 6.626-1.994 13.166-4.37 20.010-5.638 434.042-79.148 560.122 260.836 560.122 260.836-105.884-137.952-293.848-174.348-471.934-133.828-6.752 1.518-13.292 3.622-19.876 5.574-1.674 0.498-3.312 0.996-4.96 1.506-6.426 1.974-12.798 4.044-19.136 6.224-0.868 0.304-1.746 0.628-2.63 0.946-5.676 1.994-11.284 4.098-16.876 6.258-1.578 0.628-3.156 1.224-4.728 1.854-6.126 2.418-12.216 4.946-18.22 7.58-1.242 0.522-2.424 1.074-3.638 1.618-5.166 2.332-10.276 4.684-15.378 7.136-1.464 0.714-2.94 1.408-4.436 2.134-3.992 1.942-7.95 4.014-11.886 6.042-2.64 1.388-5.324 2.71-7.932 4.154-4.816 2.58-9.544 5.26-14.246 7.992-1.6 0.9-3.21 1.758-4.816 2.68-6.258 3.686-12.44 7.504-18.556 11.376-1.686 1.072-3.34 2.222-5.004 3.328-4.436 2.864-8.856 5.77-13.2 8.786-1.442 0.954-2.84 2.016-4.256 2.982-4.204 2.96-8.356 5.974-12.484 9.022-1.866 1.378-3.714 2.81-5.53 4.188-3.78 2.894-7.542 5.8-11.262 8.806-1.676 1.334-3.362 2.678-5.022 4.024-4.734 3.892-9.408 7.796-14.028 11.81-0.482 0.434-1.008 0.846-1.534 1.29-4.99 4.392-9.902 8.894-14.744 13.416-1.41 1.344-2.776 2.646-4.154 4.002-3.594 3.404-7.124 6.854-10.594 10.378-1.388 1.388-2.788 2.766-4.154 4.142-4.418 4.534-8.752 9.11-13.002 13.762-0.212 0.228-0.434 0.434-0.64 0.684-4.496 4.914-8.888 9.934-13.188 15.010-1.166 1.388-2.298 2.732-3.454 4.1-3.204 3.862-6.382 7.778-9.484 11.734-1.172 1.41-2.336 2.876-3.488 4.328-3.73 4.848-7.384 9.672-10.964 14.598-98.878 134.846-134.4 320.862-55.378 473.626zM347.234 807.429c-64.908-93.41-61.382-218.43-10.752-317.22 8.492-16.56 18.036-32.622 28.712-47.924 9.722-13.936 20.498-30.518 33.402-41.708 4.686-5.152 9.572-10.184 14.566-15.12 1.264-1.302 2.554-2.528 3.844-3.806 4.842-4.686 9.776-9.316 14.874-13.806 0.21-0.174 0.396-0.378 0.608-0.52 0.054-0.064 0.108-0.088 0.14-0.152 5.64-4.936 11.462-9.696 17.378-14.37 1.312-0.998 2.614-2.050 3.942-3.080 5.926-4.544 11.974-9.024 18.176-13.276 0.184-0.128 0.342-0.26 0.526-0.412 2.734-1.876 5.526-3.642 8.292-5.456 1.334-0.868 2.598-1.79 3.938-2.602 4.424-2.832 8.91-5.598 13.47-8.254 0.644-0.402 1.28-0.726 1.904-1.096 3.93-2.266 7.916-4.5 11.914-6.658 1.394-0.792 2.814-1.474 4.236-2.212 2.76-1.444 5.52-2.906 8.334-4.316 0.406-0.196 0.846-0.39 1.252-0.564 5.72-2.818 11.496-5.532 17.384-8.090 1.254-0.552 2.554-1.050 3.84-1.582 4.702-1.996 9.462-3.95 14.234-5.782 2.028-0.77 4.078-1.496 6.106-2.246 4.332-1.606 8.694-3.078 13.080-4.554 1.984-0.628 3.93-1.28 5.916-1.886 6.24-1.93 12.406-4.38 18.912-5.464 335.12-55.528 412.494 202.5 412.494 202.5-69.75-100.424-204.81-148.372-348.936-110.956-6.398 1.68-12.706 3.514-18.972 5.488-1.92 0.584-3.806 1.214-5.706 1.844-4.458 1.442-8.888 2.98-13.28 4.574-2.012 0.728-4.020 1.464-5.992 2.224-4.816 1.854-9.572 3.764-14.29 5.77-1.286 0.552-2.592 1.042-3.85 1.626-5.916 2.57-11.74 5.292-17.488 8.112-2.956 1.456-5.856 2.982-8.762 4.468-1.682 0.878-3.374 1.746-5.060 2.614-3.736 2.030-7.44 4.122-11.1 6.258-0.862 0.498-1.768 0.964-2.646 1.498-4.542 2.656-9.012 5.388-13.438 8.198-1.366 0.878-2.678 1.822-4.044 2.712-2.922 1.896-5.84 3.816-8.704 5.758-6.176 4.25-12.19 8.718-18.112 13.252-1.366 1.074-2.738 2.126-4.078 3.2-63.092 49.812-113.086 117.886-136.86 195.060-24.916 80.058-19.552 169.9 23.616 242.822zM581.548 888.625c-38.262-56.308-42.020-126.238-15.47-188.434 27.996-66.014 85.368-117.8 152.336-142.342 2.76-1.030 5.514-1.952 8.318-2.896 1.218-0.38 2.428-0.792 3.664-1.15 3.944-1.246 7.864-2.69 11.942-3.458 185.040-35.756 235.23 94.96 248.592 114.2-43.972-63.302-117.85-78.498-208.508-56.504-7.164 1.758-15.038 4.338-21.936 6.79-8.85 3.146-17.568 6.746-26.048 10.812-16.094 7.734-31.436 17.124-45.67 27.862-81.116 61.556-131.518 178.976-78.582 274.61z" />
<glyph unicode="&#xe915;" glyph-name="visual-studio" data-tags="visual-studio" horiz-adv-x="993" d="M924.98 800.983l-179.332 71.887-388.894-378.715-237.403 180.718-51.361-25.831-0.081-420.837 50.924-25.544 237.195 180.558 389.855-378.377 179.178 71.601-0.081 724.54zM144.905 339.887l-0.131 197.522 109.879-98.094-109.749-99.427zM496.442 439.388l219.676 164.222 0.087-329.729-219.763 165.507z" />
<glyph unicode="&#xe916;" glyph-name="nodejs" data-tags="nodejs" horiz-adv-x="930" d="M423.152 937.857c25.28 14.47 58.208 14.536 83.467 0 127.074-71.803 254.188-143.494 381.24-215.341 23.897-13.461 39.882-40.056 39.638-67.591v-431.997c0.178-28.676-17.386-55.906-42.598-69.062-126.656-71.408-253.248-142.902-379.882-214.31-25.803-14.754-59.392-13.617-84.389 2.346-37.972 22.012-76.008 43.916-113.984 65.906-7.76 4.626-16.507 8.308-21.987 15.832 4.844 6.529 13.504 7.342 20.542 10.193 15.85 5.040 30.408 13.13 44.969 20.981 3.682 2.52 8.177 1.554 11.707-0.701 32.47-18.617 64.654-37.775 97.233-56.215 6.95-4.012 13.987 1.314 19.928 4.626 124.289 70.246 248.73 140.226 372.997 210.494 4.604 2.215 7.15 7.103 6.776 12.146 0.087 142.507 0.022 285.039 0.044 427.545 0.527 5.723-2.785 10.984-7.96 13.327-126.217 71.081-252.369 142.271-378.564 213.37-2.082 1.448-4.665 2.314-7.449 2.314-2.771 0-5.341-0.857-7.461-2.32-126.151-71.092-252.281-142.347-378.477-213.424-5.156-2.346-8.617-7.52-8.003-13.265 0.022-142.507 0-285.039 0-427.567-0.030-0.321-0.048-0.694-0.048-1.071 0-4.795 2.792-8.938 6.838-10.892 33.748-19.128 67.467-38.090 101.165-57.121 18.984-10.218 42.293-16.29 63.208-8.461 18.457 6.62 31.395 25.455 31.043 45.052 0.174 141.675-0.087 283.372 0.131 425.025-0.461 6.289 5.505 11.486 11.62 10.894 16.181 0.109 32.383 0.218 48.564-0.044 6.754 0.153 11.402-6.62 10.567-12.956-0.065-142.572 0.174-285.148-0.109-427.72 0.044-37.997-15.567-79.342-50.713-97.934-43.298-22.43-96.815-17.673-139.591 3.835-37.031 18.483-72.37 40.295-108.744 60.096-25.277 13.083-42.754 40.423-42.576 69.076v432.001c-0.265 28.106 16.355 55.183 40.996 68.448 126.635 71.466 253.248 142.986 379.86 214.484zM533.627 638.61c55.231 3.555 114.358 2.106 164.058-25.103 38.48-20.85 59.813-64.61 60.492-107.36-1.075-5.766-7.103-8.947-12.608-8.551-16.025 0.022-32.053-0.218-48.077 0.109-6.798-0.261-10.748 6.006-11.602 12.016-4.604 20.455-15.759 40.713-35.012 50.579-29.554 14.797-63.822 14.053-96.049 13.744-23.527-1.249-48.825-3.286-68.757-17.121-15.302-10.48-19.95-31.635-14.489-48.673 5.149-12.234 19.271-16.181 30.825-19.819 66.56-17.408 137.093-15.676 202.382-38.585 27.031-9.339 53.473-27.495 62.725-55.797 12.103-37.932 6.798-83.271-20.19-113.722-21.885-25.059-53.76-38.698-85.551-46.105-42.293-9.43-86.183-9.67-129.133-5.483-40.386 4.604-82.414 15.215-113.591 42.732-26.66 23.149-39.682 59.218-38.389 94.030 0.309 5.879 6.162 9.979 11.794 9.496 16.137 0.131 32.274 0.174 48.411-0.022 6.445 0.461 11.224-5.109 11.554-11.184 2.978-19.489 10.302-39.943 27.296-51.498 32.797-21.159 73.95-19.71 111.503-20.302 31.112 1.38 66.037 1.797 91.426 22.361 13.396 11.729 17.364 31.352 13.744 48.233-3.922 14.252-18.831 20.894-31.635 25.237-65.707 20.785-137.027 13.243-202.098 36.748-26.417 9.336-51.963 26.987-62.112 54.127-14.162 38.411-7.673 85.922 22.143 115.345 29.071 29.268 71.037 40.539 110.937 44.573z" />
<glyph unicode="&#xe917;" glyph-name="python" data-tags="python" horiz-adv-x="1029" d="M518.391-73.143c261.316 0 244.997 113.322 244.997 113.322l-0.291 117.401h-249.367v35.249h348.415c0 0 167.216-18.964 167.216 244.706s-145.95 254.319-145.95 254.319h-87.104v-122.353c0 0 4.695-145.95-143.619-145.95s-247.328 0-247.328 0c0 0-138.958 2.246-138.958-134.297s0-225.77 0-225.77c0 0-21.098-136.627 251.989-136.627zM655.892 5.804c-24.81 0-44.863 20.053-44.863 44.863s20.053 44.863 44.863 44.863c24.81 0 44.863-20.053 44.863-44.863s-20.053-44.863-44.863-44.863zM510.969 950.857c-261.316 0-244.997-113.322-244.997-113.322l0.291-117.401h249.367v-35.249h-348.415c0 0-167.216 18.964-167.216-244.706s145.95-254.319 145.95-254.319h87.104v122.353c0 0-4.695 145.95 143.619 145.95s247.328 0 247.328 0c0 0 138.958-2.246 138.958 134.297s0 225.77 0 225.77c0 0 21.098 136.627-251.989 136.627zM373.468 871.91c24.81 0 44.863-20.053 44.863-44.863s-20.053-44.863-44.863-44.863c-24.81 0-44.863 20.053-44.863 44.863s20.053 44.863 44.863 44.863z" />
<glyph unicode="&#xe918;" glyph-name="javascript, js" data-tags="javascript, js" d="M609.524 105.439c28.178-55.68 85.918-98.294 175.277-98.294 91.418 0 159.468 47.425 159.468 134.038 0 80.419-46.056 116.159-127.854 151.217l-24.056 10.309c-41.238 17.873-59.112 29.56-59.112 58.431 0 23.367 17.873 41.238 46.056 41.238 27.494 0 45.361-11.685 61.859-41.238l74.925 48.114c-31.616 55.678-75.607 76.989-136.783 76.989-85.925 0-140.914-54.993-140.914-127.167 0-78.36 46.056-115.478 115.484-145.030l24.052-10.317c43.993-19.241 70.111-30.927 70.111-63.921 0-27.496-25.425-47.431-65.298-47.431-47.427 0-74.234 24.745-94.86 58.429l-78.354-45.367zM269.247 95.136c22.682-48.114 67.367-87.983 144.347-87.983 85.238 0 143.661 45.367 143.661 145.036v328.554h-96.23v-327.192c0-48.112-19.935-60.481-51.556-60.481-32.987 0-46.74 22.678-61.859 49.483l-78.364-47.425zM0 950.857h1024v-1024h-1024z" />
<glyph unicode="&#xe919;" glyph-name="php" data-tags="php" d="M314.982 515.555h-52.838l-21.709-111.718h49.357c0 0 60.109-1.536 62.874 72.397 2.867 42.496-37.683 39.322-37.683 39.322zM766.054 515.555h-52.838l-21.709-111.718h49.357c0 0 60.109-1.536 62.874 72.397 2.97 42.496-37.683 39.322-37.683 39.322zM512 703.151c-277.094 0-501.76-118.374-501.76-264.294s224.666-264.294 501.76-264.294c277.094 0 501.76 118.272 501.76 264.294 0 145.92-224.666 264.294-501.76 264.294zM287.334 362.364l-53.453 0.41-15.053-70.246h-57.242l51.61 264.294c0 0 73.318-0.922 121.446 0s95.437-33.075 73.318-110.080c-26.624-91.955-120.627-84.378-120.627-84.378zM544.666 362.364c0 0 13.722 61.44 19.763 104.038 2.458 17.51 13.312 47.309-15.36 47.309-23.962 0.102-59.802 0.205-59.802 0.205l-30.208-151.654h-56.627l52.838 265.523h57.958l-14.541-70.963h59.802c0 0 79.258 6.246 69.837-59.187s-27.034-135.27-27.034-135.27h-56.627zM858.931 446.639c-26.419-91.853-120.525-84.275-120.525-84.275l-53.453 0.41-15.053-70.246h-57.242l51.61 264.294c0 0 73.318-0.922 121.446 0 48.026 0.922 95.334-33.075 73.216-110.182z" />
<glyph unicode="&#xe91a;" glyph-name="playstation" data-tags="playstation" horiz-adv-x="1327" d="M496.182 950.194v-954.163l215.956-68.51v800.329c0 37.469 16.814 62.513 43.622 53.813 35.313-9.759 42.211-44.328 42.211-81.797v-319.622c134.512-64.904 240.451 0.039 240.451 171.667 0 175.939-61.965 254.012-244.841 316.761-71.881 24.222-205.648 64.552-297.4 81.522zM753.094 67.049l347.214 123.773c39.272 14.070 45.386 33.981 13.443 44.445-32.021 10.504-89.988 7.447-129.377-6.663l-231.28-81.444v129.73l13.326 4.468c0 0 66.864 23.634 160.889 34.020 93.986 10.386 209.097-1.333 299.398-35.588 101.864-32.256 113.347-79.641 87.519-112.289-25.946-32.648-89.361-55.968-89.361-55.968l-471.771-169.433v124.949zM100.25 80.1c-104.607 29.434-122.048 90.733-74.467 126.046 44.171 32.648 118.991 57.301 118.991 57.301l309.549 109.977v-125.34l-222.697-79.759c-39.429-14.188-45.425-34.059-13.483-44.563 32.021-10.504 89.949-7.525 129.338 6.663l106.841 38.684v-112.172c-6.82-1.254-14.384-2.43-21.321-3.606-106.92-17.48-220.698-10.229-332.752 26.769z" />
<glyph unicode="&#xe91b;" glyph-name="xbox" data-tags="xbox" d="M231.070 860.43c-0.512-0.394-0.906-0.827-1.378-1.221 2.875 3.033 7.010 6.302 9.728 8.074 79.321 51.554 170.969 79.124 272.66 79.124 95.114 0 184.202-26.27 260.254-71.956 5.514-3.269 20.559-13.588 28.318-22.961v-0.039c-73.374 80.896-289.044-92.672-289.044-92.672-74.594 57.502-143.202 96.689-194.284 110.631-42.693 11.697-72.231 1.93-86.252-8.98zM883.751 783.945c-2.245 2.481-4.687 4.805-6.932 7.365-18.55 20.362-41.354 25.285-61.913 23.946-18.708-5.868-105.157-37.022-211.692-137.61 0 0 119.926-116.618 193.378-235.835 73.374-119.217 117.248-212.913 90.27-342.961 81.881 89.994 131.82 209.566 131.82 340.874 0 132.884-51.161 253.834-134.932 344.222zM700.692 390.887c-32.532 36.51-80.935 88.812-144.857 152.379-13.982 13.903-28.751 28.396-44.268 43.402 0 0-23.355-23.355-53.76-54.075v0.039c-38.912-39.306-89.364-90.585-117.366-120.517-49.861-53.209-192.709-220.318-200.743-314.014 0 0-31.783 74.319 37.967 245.721 45.568 112.049 183.257 280.3 240.758 335.124 0 0-52.539 57.817-118.469 97.753l-0.394 0.118c0 0-0.748 0.591-1.93 1.339-31.705 18.905-66.324 33.477-99.643 35.407-34.028-2.402-55.572-27.294-55.572-27.294-85.031-90.663-137.058-212.519-137.058-346.585 0-279.828 226.855-506.722 506.722-506.722 148.519 0 282.151 64.039 374.863 165.849-0.039 0.158-10.673 66.954-78.848 162.777-16.030 22.449-74.594 92.514-107.402 129.3z" />
<glyph unicode="&#xe91c;" glyph-name="osvr" data-tags="osvr" d="M549.905 382.529v-169.901h39.407v71.834h77.576l36.48-69.357 1.239-2.477h42.56l-3.378 6.643-35.241 67.105c11.544 2.086 21.004 5.867 27.135 12.273 7.305 7.633 10.471 17.952 10.471 29.161v11.372c0 12.452-3.997 23.747-13.173 31.526s-22.947 11.822-41.884 11.822h-136.687zM589.312 349.765h101.783c6.283 0 10.328-1.281 12.498-2.927s3.040-3.631 3.040-7.431v-11.822c0-3.8-0.871-5.785-3.040-7.431s-6.214-2.927-12.498-2.927h-101.783zM238.251 382.529l4.729-6.981 108.313-162.92h27.022l1.351 2.027 110.903 167.874h-44.474l-1.351-2.027-79.49-123.738-81.629 125.765h-36.93zM601.697 656.915c-18.935 0-32.708-4.044-41.884-11.822s-13.173-19.076-13.173-31.526v-9.345c0-12.452 3.997-23.749 13.173-31.526s22.95-11.935 41.884-11.935h94.69c6.281 0 10.215-1.282 12.385-2.927s3.153-3.631 3.153-7.431v-20.267c0-3.8-0.983-5.786-3.153-7.431s-6.104-2.927-12.385-2.927h-144.455v-32.764h148.959v0.563c16.34 0.675 29.046 4.196 37.38 11.259 9.177 7.777 13.061 19.074 13.061 31.526v19.816c0 12.45-3.884 23.748-13.061 31.526s-22.949 11.935-41.884 11.935h-94.69c-6.284 0-10.329 1.17-12.498 2.815s-3.153 3.631-3.153 7.431v9.908c0 3.8 0.984 5.786 3.153 7.431s6.214 2.927 12.498 2.927h140.74v32.764h-4.504zM310.985 656.915c-18.935 0-32.708-4.044-41.884-11.822s-13.173-19.076-13.173-31.526v-83.205c0-12.452 3.997-23.749 13.173-31.526s22.95-11.822 41.884-11.822h106.287c18.937 0 32.707 4.045 41.884 11.822s13.061 19.074 13.061 31.526v83.205c0 12.45-3.884 23.748-13.061 31.526s-22.947 11.822-41.884 11.822zM310.985 624.151h106.287c6.281 0 10.328-1.282 12.498-2.927s3.040-3.631 3.040-7.431v-83.656c0-3.8-0.87-5.786-3.040-7.431s-6.216-2.927-12.498-2.927h-106.287c-6.282 0-10.329 1.282-12.498 2.927s-3.153 3.631-3.153 7.431v83.656c0 3.8 0.984 5.786 3.153 7.431s6.216 2.927 12.498 2.927zM905.058 130.614c0-24.77-20.267-45.037-45.037-45.037h-696.043c-24.77 0-45.037 20.267-45.037 45.037v616.485c0 24.77 20.267 45.037 45.037 45.037h696.043c24.77 0 45.037-20.267 45.037-45.037z" />
<glyph unicode="&#xe91d;" glyph-name="vive, htc-vive" data-tags="vive, htc-vive" horiz-adv-x="1173" d="M505.141 949.826c-26.513 0-51.013-14.144-64.271-37.104l-427.812-741.021c-13.323-23.070-13.26-51.511 0.166-74.521l77.375-132.5c13.304-22.782 37.701-36.789 64.083-36.792h863.979c26.382 0.002 50.78 14.010 64.083 36.792l77.354 132.5c13.433 23.006 13.504 51.447 0.188 74.521l-427.833 741.021c-13.258 22.96-37.758 37.104-64.271 37.104zM586.662 681.473c141.269 0 376.079-363.452 292.375-506.751-41.852-71.65-167.12-97.225-292.388-97.434s-250.534 24.95-292.383 97.434c-83.698 144.969 151.127 506.751 292.396 506.751z" />
<glyph unicode="&#xe91e;" glyph-name="oculus, oculus-rift, gear-vr" data-tags="oculus, oculus-rift, gear-vr" d="M773.76 355.657c-13.632-9.408-28.8-15.104-45.056-17.728-16.32-2.56-32.512-2.112-48.768-2.112h-335.872c-16.32 0-32.512-0.512-48.832 2.112-16.256 2.688-31.36 8.32-45.12 17.792-27.392 19.2-43.84 49.92-43.84 83.2 0 33.92 16.512 64.64 43.904 83.2 13.44 9.6 28.8 15.36 44.8 17.92s32 2.56 48.64 2.56h336c16 0 32.64 0.64 48.64-1.92s31.36-8.32 44.8-17.28c27.52-18.56 43.52-49.92 43.52-83.2s-16.64-64-44.16-83.2zM909.184 678.025c-36.032 28.928-77.312 48.896-122.24 59.712-25.6 6.208-51.392 8.96-77.76 9.792-19.2 0.64-38.4 0.448-58.24 0.448h-277.184c-19.52 0-39.040 0.192-58.56-0.448-26.368-0.896-52.096-3.584-77.824-9.792-44.8-10.88-86.4-30.848-122.24-59.776-72.896-58.24-115.136-146.112-115.136-239.104 0-93.056 42.24-180.928 114.752-239.168 36.096-28.928 77.44-48.896 122.24-59.712 25.728-6.208 51.456-8.96 77.824-9.792 19.2-0.64 38.4-0.448 58.24-0.448h277.12c19.2 0 39.040-0.192 58.24 0.448 26.24 0.832 51.84 3.584 77.44 9.792 44.8 10.88 85.76 30.848 122.24 59.776 73.664 58.24 115.904 146.112 115.904 239.104 0 93.056-42.24 180.928-114.816 239.168z" />
<glyph unicode="&#xe91f;" glyph-name="yandex, yandex-browser" data-tags="yandex, yandex-browser" d="M512 950.857c-282.77 0-512-229.23-512-512s229.23-512 512-512c282.77 0 512 229.23 512 512s-229.23 512-512 512zM512 926.060c0.001 0 0.002 0 0.003 0 269.073 0 487.2-218.127 487.2-487.2 0-0.001 0-0.002 0-0.003s0-0.002 0-0.004c0-269.073-218.127-487.2-487.2-487.2-0.001 0-0.002 0-0.003 0s-0.002 0-0.004 0c-269.073 0-487.2 218.127-487.2 487.2 0 0.001 0 0.002 0 0.003s0 0.002 0 0.004c0 269.073 218.127 487.2 487.2 487.2 0.001 0 0.002 0 0.003 0zM841.6 650.057l-274-268v-333.2c0-6-26-10.8-55.6-11.2v0c-28.4 0.4-55.6 5.2-55.6 11.2v333.2l-274 268c-4.4 4.4 9.6 25.2 31.2 46.8s42.8 35.6 46.8 31.2l251.2-245.2 251.2 245.2c4.4 4.4 25.2-9.6 46.8-31.2s36-42.4 32-46.8z" />
<glyph unicode="&#xe920;" glyph-name="vivaldi" data-tags="vivaldi" d="M791.235 767.244c-14.827-0.002-29.845-3.115-41.856-9.173-17.557-8.832-35.242-27.562-43.093-45.632-8.341-19.2-9.536-53.077-2.517-71.061 2.965-7.616 8.085-20.693 11.392-29.056 7.424-18.901 10.112-60.501 5.397-83.861-5.312-26.304-21.802-56.682-41.13-75.775-58.005-57.301-145.684-58.303-203.283-2.325-19.882 19.328-22.698 23.936-112.426 184.062-30.464 54.357-57.791 99.882-63.487 105.77-17.834 18.858-42.624 25.621-65.322 25.728-48.81 0.789-82.645-37.397-90.666-78.399-5.931-32.81-8.661-27.157 149.012-308.136 99.519-177.342 146.815-259.091 154.58-267.133 27.477-28.458 66.623-35.52 103.252-18.602 9.621 4.437 20.522 12.437 27.498 20.16 13.632 15.125 295.72 515.835 300.37 533.093 4.8 18.048 3.605 43.712-2.859 61.461-8.021 22.080-30.186 44.736-52.031 53.205-9.813 3.797-21.226 5.675-32.768 5.653zM63.605 950.709h896.759c35.243 0 63.615-28.372 63.615-63.615v-896.759c0-35.243-28.372-63.615-63.615-63.615h-896.759c-35.243 0-63.615 28.372-63.615 63.615v896.759c0 35.243 28.372 63.615 63.615 63.615z" />
<glyph unicode="&#xe921;" glyph-name="java" data-tags="java" d="M504.533 419.688c-21.291 34.325-36.736 62.784-58.133 116.373-36.181 90.517 220.053 172.309 116.16 329.472 45.035-108.565-161.643-175.68-180.843-266.091-17.557-83.157 122.709-179.755 122.816-179.755zM509.397 582.419c-4.096-53.675 47.552-82.283 49.045-121.493 1.195-31.915-30.869-58.517-30.869-58.517s58.197 11.435 76.352 60.117c20.16 54.059-39.125 91.072-33.024 134.357 5.696 41.344 128.661 118.251 128.661 118.251s-180.928-11.989-190.165-132.715zM684.459 416.339c37.419 8.405 68.971-15.424 68.971-42.88 0-61.888-85.781-120.384-85.781-120.384s132.8 15.829 132.8 117.44c0 67.2-65.216 83.989-115.989 45.824zM621.419 366.419c0 0 41.408 29.504 52.437 40.576-101.611-21.568-333.611-24.469-333.611-5.739 0 17.259 74.816 34.944 74.816 34.944s-165.824 2.389-165.824-46.528c0-50.987 217.067-54.635 372.181-23.253zM595.947 319.997c-96.192-31.979-273.365-21.76-220.885 21.184-25.557 0-63.445-20.544-63.445-40.299 0-39.616 191.616-70.208 333.44-12.203zM398.635 252.413c-34.901 0-57.493-22.485-57.493-38.869 0-51.008 208.213-56.149 290.709-4.373l-52.437 34.816c-61.632-27.093-216.448-30.827-180.779 8.427zM773.995 169.363c0 19.968-22.507 29.376-30.571 33.877 47.531-114.624-476.096-105.728-476.096-38.059 0 15.381 38.549 30.443 74.176 23.317l-30.293 17.899c-70.997 11.136-119.211-20.075-119.211-45.248 0-117.397 581.995-111.744 581.995 8.213zM832 127.293c-88.448-87.36-312.725-119.189-538.261-65.216 225.536-96.064 537.195-41.963 538.261 65.216z" />
<glyph unicode="&#xe922;" glyph-name="blackberry" data-tags="blackberry" d="M756.49 623.893l-34.162-161.546 169.698 1.352c0 0 76.616 11.018 86.344 69.816 0 0 14.972 68.486-56.278 87.634l-165.6 2.744zM709.898 369.389l-34.222-161.628 169.718 1.434c0 0 76.678 10.936 86.24 69.734 0 0 15.052 68.526-56.034 87.674l-165.704 2.784zM122.388 769.343l-34.18-161.526 169.778 1.332c0 0 76.636 10.956 86.2 69.836 0 0 15.094 68.444-56.156 87.612l-165.642 2.744zM78.582 523.009l-34.284-161.506 169.738 1.394c0 0 76.76 10.916 86.262 69.774 0 0 15.052 68.506-56.094 87.634l-165.622 2.702zM453.632 768.237l-34.242-161.526 169.76 1.352c0 0 76.678 10.956 86.282 69.816 0 0 15.012 68.486-56.198 87.612l-165.6 2.744zM409.764 521.985l-34.284-161.628 169.82 1.434c0 0 76.616 10.956 86.222 69.734 0 0 15.114 68.486-56.034 87.654l-165.724 2.806zM362.436 269.957l-34.262-161.586 169.76 1.372c0 0 76.718 10.976 86.262 69.856 0 0 15.094 68.384-56.054 87.614l-165.704 2.744z" />
<glyph unicode="&#xe923;" glyph-name="amiga-classic" data-tags="amiga-classic" d="M197.781 372.938l183.872-263.067h99.947l-183.872 263.067zM288.648 372.938l183.872-263.067h9.081l-183.872 263.067zM842.022 767.844l-460.063-657.974h99.947l460.063 657.974zM932.888 767.844l-460.063-657.974h9.081l460.063 657.974zM82.031 372.938l183.872-263.067h99.947l-183.872 263.067zM172.897 372.938l183.872-263.067h9.081l-183.872 263.067zM726.271 767.844l-460.063-657.974h99.947l460.063 657.974zM817.138 767.844l-460.063-657.974h9.081l460.063 657.974z" />
<glyph unicode="&#xe924;" glyph-name="amiga, amiga-os" data-tags="amiga, amiga-os" d="M903.907 736.991c-51.532 89.626-131.070 158.975-231.413 191.617-100.396 32.599-205.492 23.211-299.855-18.986l75.591-24.544c73.617 48.918 152.462 66.842 224.265 43.525 71.803-23.36 125.042-84.174 155.822-167.020zM715.917 798.082c0.112 72.87-14.083 120.988-43.423 130.531-29.34 9.501-69.136-21.066-111.866-80.072zM639.313 401.085c24.486 75.372 43.317 148.242 56.12 214.497l-225.492 73.297c-28.593-61.187-56.173-131.177-80.712-206.607zM333.11 267.769c-13.496-69.621-20.431-132.030-20.485-182.5l155.289-50.46c29.607 40.863 60.707 95.435 90.687 159.663zM87.827 158.304c61.667-92.928 153.955-166.438 268.221-203.561 114.266-37.134 232.165-31.901 336.664 7.036l-36.808 11.944c-94.363-42.191-199.459-51.585-299.855-18.986-100.343 32.642-179.881 101.991-231.413 191.617zM200.226 121.757c30.78-82.84 84.019-143.66 155.822-167.020 71.803-23.317 150.648-5.393 224.265 43.525l-112.399 36.547c-42.73-59.006-82.526-89.573-111.866-80.072-29.34 9.544-43.53 57.661-43.423 130.531zM60.092 356.429c6.508-76.071 28.801-147.922 64.548-210.069l75.591-24.598c-21.338 57.459-31.901 125.527-30.354 199.038zM655.904-26.277c65.46 29.233 125.735 74.316 175.72 132.030l-109.785 35.694c-41.983-60.387-90.474-109.204-141.526-143.185zM27.333 599.898c-24.486-75.436-30.562-152.408-20.645-226.084l53.399-17.391c-6.188 72.497 1.974 148.786 26.459 224.211zM885.023 88.416c51.318 53.772 91.648 119.606 116.187 195.037l-59.214 19.258c-24.539-75.431-62.788-141.953-110.367-196.957zM208.281 541.117c-24.486-75.436-36.915-150.381-38.409-220.322l163.237-53.020c12.803 66.255 31.634 139.125 56.12 214.497zM721.844 141.452c39.897 57.453 73.884 125.415 98.423 200.787l-180.948 58.845c-24.539-75.436-52.119-145.425-80.712-206.607zM941.996 302.71c24.486 75.431 32.647 151.715 26.459 224.211l-109.785 35.635c-1.494-69.936-13.923-144.887-38.409-220.322zM196.918 777.597c-47.584-55.005-85.833-121.527-110.367-196.957l121.729-39.524c24.544 75.372 58.525 143.334 98.423 200.787zM858.67 562.556c1.547 73.505-9.015 141.579-30.354 199.038l-112.399 36.488c-0.053-50.524-6.988-112.879-20.485-182.5zM448.235 885.083c-51.052-33.928-99.543-82.798-141.526-143.185l163.237-53.020c29.98 64.228 61.027 118.801 90.687 159.663zM1021.854 509.536c-10.402 77.404-38.409 151.123-81.139 215.511l-36.808 11.944c35.742-62.142 58.040-133.999 64.548-210.069zM335.83 921.572c-72.443-26.993-138.432-70.144-192.311-126.637l53.399-17.337c49.985 57.715 110.265 102.797 175.72 132.030z" />
<glyph unicode="&#xe925;" glyph-name="gimp" data-tags="gimp" d="M512 950.147c-282.377 0-511.29-228.912-511.29-511.29s228.912-511.29 511.29-511.29c282.377 0 511.29 228.912 511.29 511.29s-228.912 511.29-511.29 511.29zM721.551 712.234c0.419-0.010 0.839-0.031 1.258-0.064l0.018-0.002c3.355-0.263 6.667-1.263 8.892-2.936 8.909-6.698 8.509-12.691 9.925-19.036s2.353-13.409 3.29-20.558c3.078-23.546 6.507-84.285 0.421-151.63-5.979-66.173-20.527-138.121-57.65-185.404 32.709-15.606 60.75-32.279 79.46-47.017 0.521 0.421 0.973 0.91 1.52 1.331 8.531 6.218 19.301 8.766 30.104 7.424s21.627-6.571 30.266-15.908c7.177-7.764 9.077-16.354 11.177-25.996s3.384-20.275 4.242-30.375c1.719-20.201 1.684-38.342 1.684-38.342l-0.028-18.247-17.594 4.841c0 0-15.609 4.293-32.55 12.4s-37.265 19.104-43.945 40.763c-2.621 8.414-3.41 16.59-2.989 24.31-25.713 4.939-59.94 16.151-96.809 32.959-4.465 2.034-8.994 4.402-13.514 6.744-28.711-18.793-61.363-29.606-96.21-32.958-55.756-5.361-117.075 7.73-179.803 35.188-29.678 12.989-59.362 32.578-78.317 47.344-9.593-0.126-19.381 1.573-28.769 4.977-20.883 7.573-40.623 22.853-55.556 44.081-14.934 21.236-22.532 44.807-22.217 66.732 0.312 21.925 9.139 42.983 27.329 55.094 9.094 6.053 19.356 9.152 29.967 9.789s21.565-1.189 32.006-4.977c8.287-3.005 16.287-7.54 23.985-12.862 2.228 9.847 6.384 18.979 12.019 27.003v134.443l25.507-38.26c0 0 46.198-65.56 104.858-70.322 15.674 12.99 35.746 20.83 57.595 20.83 16.487 0 31.934-4.523 45.277-12.291 66.447 13.732 131.722 55.13 153.696 111.574 5.285 13.575 9.386 22.448 14.059 29.070 2.336 3.312 4.671 6.38 9.491 8.811 2.11 1.054 4.977 1.548 7.906 1.479zM717.347 665.491c-0.545-1.317-0.705-1.235-1.287-2.731-24.398-62.668-87.101-105.418-153.723-124.083 12.040-15.371 19.307-34.636 19.307-55.582 0-49.817-40.683-90.5-90.5-90.5-29.265 0-55.307 14.103-71.872 35.787-13.826-13.485-32.691-21.864-53.435-21.864-7.322 0-14.368 1.19-21.102 3.126 0.167-2.569 0.247-5.138 0.211-7.669-0.309-21.774-9.044-42.693-26.976-54.849 16.431-11.229 36.793-23.53 55.91-31.897 59.572-26.076 116.511-37.715 165.988-32.958 25.79 2.48 49.499 9.377 71.001 20.966-11.698 7.172-22.573 14.393-32.17 21.075-57.468-7.554-150.215 26.513-150.215 26.513s165.199-9.131 165.199 23.087c0 16.011-12.047 32.605-12.047 32.605s44.014-20.071 41.551-47.371c12.092-4.052 24.964-8.948 38.261-14.549 0.905 1.063 1.878 1.984 2.773 3.074 31.557 38.602 47.576 107.993 53.436 172.84 5.814 64.523 2.288 124.862-0.311 144.98zM331.007 578.623v-27.438c6.465 3.326 13.448 5.779 20.803 7.152-7.852 6.68-14.801 13.635-20.803 20.286zM491.121 545.747l0.002-0.014c-34.767 0-62.653-27.887-62.653-62.654s27.886-62.654 62.653-62.654c3.926 0 7.728 0.463 11.448 1.142-18.514 4.285-32.333 20.809-32.333 40.627 0 14.995 7.976 28.040 19.852 35.406-3.65-3.759-5.928-8.868-5.928-14.521 0-11.528 9.356-20.885 20.885-20.885s20.883 9.356 20.883 20.885c0 10.344-7.532 18.863-17.404 20.531 1.168 0.105 2.279 0.368 3.479 0.368 19.818 0 36.344-13.819 40.627-32.333 0.668 3.72 1.142 7.523 1.142 11.448 0 34.767-27.886 62.654-62.654 62.654zM365.813 531.87c-27.072 0-48.73-21.659-48.73-48.731 0-2.996 0.453-5.855 0.979-8.702 1.531-1.938 3.21-3.658 4.652-5.71 5.443-7.738 9.558-15.822 13.026-23.985 0.21-0.158 0.263-0.157 0.526-0.368 0.258-0.205 0.521-0.416 0.732-0.574h0.027l0.158-0.158 0.211-0.157c8.015-5.759 17.736-9.137 28.416-9.137 2.576 0 5.076 0.284 7.533 0.652-16.165 3.007-28.417 17.117-28.417 34.155 0 12.503 6.634 23.364 16.533 29.504-3.031-3.133-4.921-7.396-4.921-12.101 0-9.607 7.796-17.404 17.404-17.404s17.404 7.797 17.404 17.404c0 8.618-6.266 15.71-14.494 17.105 0.973 0.105 1.894 0.315 2.884 0.315 8.353 0 15.92-3.063 21.918-7.967 0.779 5.367 1.995 10.584 3.673 15.609-8.834 12.23-23.157 20.204-39.512 20.204l-0.001 0.045zM239.509 490.081c-0.801 0.004-1.592-0.013-2.373-0.053l0.024 0.022c-0.263-0.053-0.525-0.137-0.789-0.157 14.126-1.838 25.044-16.641 25.044-34.631 0-0.005 0-0.010 0-0.015 0-19.223-12.467-34.806-27.846-34.806 0 0 0 0 0 0-14.769 0.021-26.844 14.411-27.76 32.586-0.057-0.157-0.105-0.315-0.109-0.579-0.214-15.072 5.278-33.45 17.132-50.307 11.854-16.851 27.543-28.592 42.286-33.938 14.732-5.344 27.647-4.42 37.038 1.821 9.395 6.26 14.718 17.261 14.928 32.333 0.214 15.072-5.279 33.458-17.132 50.308s-27.542 28.59-42.285 33.937c-6.45 2.339-12.55 3.449-18.158 3.479zM794.142 267.735c-3.303 0.021-6.299-1.318-9.062-3.33-6.339-4.603-11.828-15.257-6.444-32.713 1.869-6.062 14.997-16.999 29.368-23.877 4.842-2.315 5.237-1.999 9.41-3.588-0.205 6.244 0.010 7.394-0.679 15.473-0.8 9.377-2.021 19.132-3.7 26.84s-4.825 13.444-4.404 12.971c-4.873 5.268-9.175 7.657-13.053 8.131h-0.001c-0.485 0.061-0.963 0.091-1.435 0.094z" />
<glyph unicode="&#xe926;" glyph-name="xfce" data-tags="xfce" horiz-adv-x="1980" d="M1531.041 613.238c13.323-57.513 34.141-75.787 96.549-73.953-79.433-72.839-127.73 51.909-96.549 73.953zM1866.652 794.155c-4.962 5.761-31.294-127.921-19.118-133.84 10.454-7.821 28.661 126.886 19.118 133.84zM1632.797 599.223c0-19.72-14.041-35.707-31.362-35.707s-31.362 15.987-31.362 35.707c0 0 0 0 0 0 0 19.721 14.041 35.707 31.362 35.707s31.362-15.987 31.362-35.707c0 0 0 0 0 0zM1957.035 776.774c-10.026 8.293-88.649-115.757-71.264-128.63 10.454-7.821 75.742 124.208 71.264 128.63zM1632 331.806c-10.578 6.392 71.894 102.558 92.126 92.126 29.538-29.347-93.51-94.411-92.126-92.126zM1574.645 397.86c-1.902 6.639 118.188 79.276 135.573 62.577 31.294-11.343-134.47-71.005-135.573-62.577zM273.789 803.189c173.191-71.297 412.413-251.949 393.655-281.116-56.252-79.231-89.381-174.012-66.481-336.322 4.13-28.571-84.677-78.128-78.218-121.237 5.401-32.802 99.238 32.453 109.5 19.557 6.279-23.147-50.21-140.243-27.378-148.615 16.699-4.962 163.547 139.298 172.077 136.89 242.092-73.188 557.056-17.971 563.155-15.653-0.574 1.272 226.642-106.777 246.39-93.859 49.816 53.946-94.444 129.969-70.397 160.34 10.544 15.9 175.678-59.741 183.814-39.103 11.838 35.727-76.642 110.738-89.954 132.962-11.579 20.491-14.055 53.608 15.641 74.313 29.707 20.705 333.419 136.912 320.681 226.822-22.022 163.367-385.215 173.967-391.078 187.718-2.757 6.459 16.024 233.596-89.943 191.634-65.243-24.283-12.040-169.005-7.821-187.718 3.893-17.228-28.998-15.383-35.199-7.821-13.841 16.902-59.516 167.722-113.416 140.783-75.596-41.68-4.467-171.773-19.546-175.993-28.008-15.653-26.399-53.867-48.848-85.015-37.022-53.057-314.109 24.857-403.659 30.281-65.559 3.871-128.203-49.872-134.121-43.031-79.827 79.94-244.984 219.102-425.916 265.34-101.466 27.535-252.422 107.216-258.476 106.203-10.296-5.638 82.359-66.065 255.539-137.362z" />
<glyph unicode="&#xe927;" glyph-name="gnu" data-tags="gnu" d="M320.675 708.514c-21.412-0.257-46.64-3.27-71.662-16.778-28.596-15.437-48.113-31.853-64.699-62.067s-19.068-54.872-16.394-91.455 13.969-63.802 35.694-90.578c21.725-26.775 43.424-39.87 82.573-44.741l8.224 36.352-14.694-21.109 0.384 23.467-13.324-16.504-5.812 22.425-10.801-17.984-5.373 25.002-15.626-12.611 4.935 20.616-20.671-2.303 9.54 14.365-18.861-0.219 10.966 19.135-16.723 2.632 13.324 17.436-20.451 6.086 16.942 16.229-16.778 13.652 13.104 10.143-12.227 16.284 13.049 15.243-4.88 20.068 11.13 9.65 3.29 22.973 12.446 6.251 10.692 17.874 19.793 2.138 9.76 16.12 19.903-1.042 18.752 10.198 19.519-4.496 22.096 6.634 16.394-3.838 21.383-3.125 20.671-16.504-31.691 11.075-15.901-7.676-13.214 8.060-9.047-6.141-16.065-1.645-14.365 0.932-10.472-12.775-21.383-0.219-7.676-17.271-18.971-6.689-1.809-19.793-13.598-10.692 4.496-18.642-11.733-19.41 8.992-16.942-8.882-15.517 11.843-7.731-2.687-24.947 16.449-4.112 3.728-18.532 17.929 1.864 11.13-12.665 13.762 13.433c25.092 12.511 35.384 19.534 54.939 40.683 22.26 24.077 35.047 46.35 64.699 62.835 21.266 11.824 38.616 16.081 62.505 11.953 22.429-3.875 29.921-17.353 46.44-31.527 1.751 3.17 2.104 4.026 4.989 6.36-0.906-4.116-2.32-8.378-2.687-12.337-0.613-6.655 0.486-17.061 1.864-23.576 1.651-7.8 3.266-11.859 9.595-16.559 11.59-8.604 18.992-7.183 27.908-12.172 4.242-2.374 9.617-6.321 11.185-10.527s-1.060-8.787-4.277-10.582c5.627-0.837 11.954 5.494 9.321 12.008-1.297 3.205-7.483 4.661-9.376 7.895-1.889 3.233-1.877 6.53-0.987 9.815 1.608 5.92 13.297 11.331 17.436 16.010 6.369 7.201 8.816 13.207 5.209 22.48-5.065 13.027-24.64 23.508-36.352 28.621-5.363 2.34-8.373 2.475-12.556 3.728 8.565-5.019 17.599-9.012 21.932-20.232 3.617-9.37 0.482-12.895 0.603-21.054 0.056-3.783 5.081-5.67 7.292-8.060 1.925-2.078 1.758-3.602 0.219-6.47-0.17 2.587-1.304 4.516-3.29 5.922-3.279 2.325-6.806 1.813-8.554 6.579-2.651 7.246 2.622 14.071-3.29 22.206-4.422 6.086-10.324 12.925-18.258 13.104-3.755 0.086-6.571-0.458-10.582-1.645l-5.318 6.415-0.166 0.055c-10.877 9.927-18.297 18.125-33.556 24.947s-22.749 7.845-40.245 7.457c-17.496-0.387-34.895-1.825-55.158-19.3-1.267-1.092-2.669-2.386-4.167-3.838-0.020-0.018-0.038-0.038-0.054-0.055-22.499-21.822-69.064-81.054-80.928-88.988-12.664-8.469-15.483-11.346-31.308-11.35-15.825 0-40.484 22.414-41.451 50.388-0.969 27.975-1.352 37.906 18.094 71.607s54.679 44.043 80.818 47.537c26.14 3.494 41.799-5.714 61.135-5.757 19.334-0.044 38.448 3.32 44.083 18.697-2.758-1.642-6.442-3.506-16.833-2.961s-24.806 12.555-41.012 20.616c-16.207 8.059-34.22 8.994-57.351 9.431-2.892 0.055-5.878 0.091-8.937 0.055zM710.402 705.115c-1.693 0.010-3.375-0.032-5.044-0.055-14.79-0.202-24.713-3.035-33.556-6.251-15.463-5.623-27.814-17.899-43.534-23.96-5.127-1.975-9.231-2.047-13.269 0.11 3.954-7.91 8.234-11.432 18.094-14.311 7.133-2.082 24.142-0.752 35.858 0.329 12.577 1.162 19.179 4.896 36.297 4.66 16.717-0.23 29.931-6.605 37.174-10.747 14.944-8.545 25.67-17.991 34.981-33.007 5.114-8.246 8.717-17.592 11.24-27.086s3.622-20.094 3.783-29.388c0.162-9.294-0.578-17.625-2.851-25.989-5.317-19.581-17.026-39.485-41.122-36.407-14.746 1.885-36.967 29.542-44.412 39.696-15.022 20.493-30.525 43.191-49.401 60.257-6.474 5.851-14.289 10.682-22.645 14.036-0.106 0.043-0.221 0.067-0.329 0.11l-7.457 2.522c-0.24 0.067-0.472 0.154-0.713 0.219-3.833 1.033-7.701 1.729-11.569 2.083-29.030 2.657-37.638-2.824-59.49-20.835 4.446-1.417 8.767-2.224 13.323-4.277 10.111-4.556 19.349-10.431 27.415-17.984 8.452-7.916 12.256-12.954 12.556-24.289 0.2-7.528-6.002-13.542-11.679-18.971-3.473-3.325-8.043-6.357-10.856-8.937-3.728-3.425-8.357-7.21-3.674-12.665 1.762-2.050 4.823-3.568 7.402-5.483 4.094-3.039 2.213-14.331-3.18-17.326-6.901-3.829-15.144-3.426-20.835 1.7 7.184 1.075 11.755 2.019 11.569 7.895-0.106 3.406-4.468 6.287-8.718 8.224-10.25 4.673-17.981 3.955-28.182 11.295-10.304 7.417-10.538 11.493-13.323 23.138-4.968-0.52-9.532-0.651-16.175-2.851-6.643-2.198-13.981-7.422-20.013-8.718-15.189-3.268-18.225-2.317-26.537-0.164-14.635 3.788-33.651-2.663-52.581-8.718-3.147-1.007-15.884-0.064-24.454-3.070-13.236-4.644-31.821-15.859-42.547-24.893-16.252-13.689-37.607-54.686-49.675-101.708-1.268-14.294 2.809-23.942-6.196-30.924s-8.79-24.865-11.843-29.882c-3.053-5.015-6.587-2.77-13.159-9.814s-9.925-5.87-9.76-19.19c5.664 3.724 13.968 8.073 21.219 8.334 6.421 0.232 6.438-8.233 22.919 8.060 8.814 8.717 25.754 8.986 37.503 12.83 11.75 3.845 32.965 11.767 54.171 35.475s31.308 48.628 35.42 84.711c0.655-6.397 1.807-13.605-0.932-31.253s-8.655-37.448 3.783-61.189l7.786-14.804c-4.614 6.297-13.626 16.587-16.339 23.906l-6.25 16.887c-14.001-21.983-17.231-25.921-36.681-41.67-0.775-9.771-1-19.984 2.193-29.334 2.852-8.349-0.896-17.806 0-24.125l0.768-2.522c2.516-5.57 7.859-2.414 9.65-8.499 1.835-6.233-0.927-18.542 1.919-24.618s9.83-2.424 13.214-4.386c3.384-1.964 4.495-4.656 6.305-7.237s-0.72-8.656 2.961-10.637c3.679-1.982 9.385-0.346 13.214-2.248s4.426-6.43 3.509-10.527c-0.919-4.096-5.002-5.978-6.799-10.143s-1.61-7.086 0.548-10.911c2.158-3.826 6.971-5.91 11.733-7.841s11.425-0.839 16.339-3.509c4.914-2.67 9.358-8.031 11.953-11.898 2.595-3.865 3.313-6.572 3.18-10.637s-1.778-8.74-3.948-12.666c-2.17-3.926-6.98-8.732 0.493-16.229 7.474-7.496 7.178-4.238 11.46-9.102-0.466 8.412-3.912 15.27-1.371 21.603 2.543 6.333 10.178 7.405 14.201 10.253s6.314 6.762 9.485 10.143c-0.044-4.351 0.44-9.006-0.056-12.282-1.008-6.661-2.964-12.584 6.963-13.652 4.472-0.48 8.727 2.426 13.433 4.167-2.465-4.414-6.758-7.986-7.402-13.269-0.644-5.281 0.126-11.043 3.783-16.284 3.658-5.239 9.956-9.147 14.585-12.227 4.627-3.080 7.136-3.324 10.692-4.989 0.176-5.192-0.866-10.681-0.274-15.571s2.107-9.226 4.935-13.269c2.781-3.973 7.252-6.296 11.459-9.211l0.108 0.055c-2.374 5.375-7.027 10.517-6.963 16.175 0.066 5.735 1.808 9.77 7.402 14.859s18.717 9.526 24.892 14.475c6.176 4.95 8.146 7.97 10.363 12.775s1.619 12.568 2.029 16.887c2.033-6.051 2.3-7.925 2.961-14.256 0.664-6.332-3.695-15.216-5.538-19.903 7.639 3.69 12.52 9.588 14.968 15.352 1.638-0.971 0.768-3.64 1.371-8.773 2.722 2.709 5.813 4.79 8.553 7.347 2.743 2.554 5.766 4.822 7.128 8.389 1.359 3.566 0.793 7.316-0.219 11.459s-5.621 8.956-8.115 13.488c-2.491 4.531 0.443 9.014 0.274 14.475-4.989 0.857-9.234 3.348-14.968 2.522-5.737-0.824-12.285-7.217-18.148-7.292s-9.175 5.399-13.982 6.908c-4.807 1.509-9.697 1.357-14.53 2.029 6.122 5.865 29.914 8.645 46.166 11.295 14.301 2.333 28.497 3.69 42.986 3.893 6.471 0.091 14.752-2.059 19.245-0.768 4.497 1.289 3.546 4.338 4.88 7.676 3.73 9.33 1.921 17.635-0.108 27.031-13.008 1.525-26.59 3.419-39.696 2.412-12.813-0.984-27.96-7.1-41.177-7.512-11.491-0.357-28.514 2.21-38.381 8.224-12.057 7.349-21.416 23.114-24.728 28.182-5.393 8.255-12.199 24.451-16.339 31.856-4.137 7.404-5.001 9.52-8.444 12.611s-8.204 3.324-12.282 4.99c4.702-0.48 9.875 0.969 14.146-1.48 6.417-3.682 13.607-18.91 17.6-25.55 4.231 14.181 3.221 19.747 15.462 27.743-9.865-11.057-10.097-19.441-12.501-32.459 8.204-13.464 19.618-34.897 34.542-40.848 5.391-2.151 14.623-3.501 20.451-4.222 18.137-2.246 35.646 3.497 53.459 7.895 13.021 3.216 26.218 1.917 42.054 0.987 5.376-0.315 18.046 2.896 20.671 8.334 1.418 2.934 1.323 6.469-0.713 9.595-2.038 3.127-7.453 4.643-10.363 7.457s-4.617 6.188-6.908 9.266c-12.096-2.321-22.055-3.21-31.033-3.454 6.439 2.653 12.653 4.123 19.355 6.744s14.329 6.957 19.739 10.527c5.409 3.572 8.861 5.659 12.775 9.815 3.911 4.158 8.904 8.406 11.788 13.488 2.886 5.082 3.348 10.762 3.509 17.052 0.118 4.567-0.042 10.466-1.042 15.297l-1.042 3.674c-0.158 0.413-0.259 0.831-0.439 1.206-2.423 5.065-7.102 6.642-10.856 7.841s-6.348-1.838-10.253-2.248c-3.908-0.41-7.565-2.876-13.214-0.219s-12.326 8.038-18.039 16.065c-5.709 8.028-9.805 21.159-15.626 31.253-10.035 17.4-22.528 33.663-34.487 49.785-0.984 3.976-2.469 9.465-2.961 14.859-0.858 9.398-1.052 19.185 1.864 28.347 2.235 7.018 5.536 14.393 12.885 17.271 2.94 1.152 6.638 1.632 9.266 0.658 2.63-0.973 5.2-3.973 4.167-7.402-1.135-3.77-3.763-3.854-5.538-5.757-3.012-3.229-4.18-5.569-5.318-9.595 3.255 0.053 7.634 0.265 10.308-0.439 3.489-0.919 6.728-3.226 8.498-8.17-4.163 3.692-6.208 5.407-11.404 5.538-2.381 0.060-5.261-0.81-7.896-1.206-0.984-3.203-1.571-7.117-2.961-9.595s-4.083-1.875-5.099-4.77c-1.016-2.89-1.115-7.605-0.603-11.404 7.23 3.079 13.519 5.539 21.384 6.031 3.153 0.198 8.056-0.294 11.24-0.439 2.712 3.993 6.19 7.176 7.457 11.733 0.839 3.023 0.443 17.028-1.042 20.671-4.325 10.6-8.577 11.089-14.53 17.161-4.32 4.404-4.465 11.073-5.757 18.587-0.474 2.76-1.832 6.253-2.467 9.101-7.781 1.311-16.16 1.764-25.112 1.316 4.341 4.164 8.569 7.95 9.814 14.201 1.243 6.251 0.209 13.969-3.344 19.574s-9.211 10.457-14.42 15.023c-5.212 4.566-12.717 8.327-17.655 12.062 6.422 2.299 13.009 5.689 19.3 6.908 16.389 3.179 30.523-1.683 46.331-11.24 9.191-5.559 16.765-10.832 26.373-20.89 9.606-10.057 21.515-28.537 30.814-39.477s16.834-19.574 24.947-26.099c8.115-6.526 15.466-8.365 23.193-12.556l12.008-12.775 9.759 12.008 15.681-1.755 3.235 17.6 14.42 3.948-2.358 23.741 10.363 7.347-7.786 14.749 7.895 16.175-10.308 18.423 3.948 17.765-11.898 10.143-1.535 18.861-16.668 6.36-6.689 16.449-18.697 0.165-9.156 12.227-12.611-0.877-14.036 1.48-7.95 5.867-11.514-7.621-13.927 7.237-27.744-10.472 18.094 15.681 18.697 3.016 14.365 3.619 19.355-6.36 17.052 4.331 16.449-9.705 17.381 0.932 8.553-15.297 17.326-2.029 9.321-17.052 10.911-5.922 2.906-21.822 9.705-9.211-4.277-19.135 11.405-14.475-10.692-15.462 11.459-9.705-14.639-12.994 14.804-15.462-17.874-5.757 11.624-16.558-14.585-2.522 9.595-18.258-16.504 0.219 8.279-13.653-18.094 2.193 4.332-19.629-13.653 12.008-4.715-23.796-9.431 17.107-5.099-21.329-11.624 15.736 0.329-22.37-12.885 20.122c2.714-11.401 2.162-23.903 9.65-34.652 23.201 3.14 38.37 8.994 56.145 26.099 8.095 7.789 16.992 19.817 24.509 32.459 0.108 0.184 0.221 0.364 0.329 0.548l7.237 13.433c0.054 0.109 0.11 0.221 0.166 0.329 3.866 7.879 6.916 15.439 8.553 21.877 5.979 23.508 6.162 66.754 0.274 90.688-5.668 23.044-13.047 34.051-26.209 52.855-12.58 13.361-24.936 27.482-40.903 37.010-21.973 13.111-49.774 17.27-75.171 17.436zM641.646 529.387c-3.274-1.466-7.757-3.080-8.553-6.908s0.73-9.462 3.509-12.337c4.651-4.805 11.546-10.017 14.256-17.655 1.741-4.901 2.276-21.311 0.768-25.77-1.565-4.629-5.201-7.444-8.224-10.527 1.595-0.629 2.202-0.766 4.222-2.303s4.815-3.071 6.415-6.744c1.603-3.674 1.493-9.365 1.151-11.679-1.405 0.412-3.313 0.124-4.77 1.371-1.453 1.246-2.303 4.056-4.167 5.264-1.866 1.206-3.421 0.945-5.483 1.206 1.059-3.014 1.589-5.985 1.097-8.718-1.068-5.966-4.575-8.991-10.253-9.705-2.479-0.311-6.45 0.485-8.608 0.877 1-2.234 2.727-4.181 3.728-6.415 4.802 0.695 8.329 0.602 10.911 1.809s5.35 3.898 8.663 5.044c3.314 1.146 6.298 1.134 9.924 1.7-2.856-2.461-4.769-4.941-7.621-7.402 2.092-6.081 4.215-12.123 6.306-18.203 4.435-2.775 8.557-4.25 14.146-7.676 5.592-3.427 12.293-9.542 19.574-12.885s11.637-5.2 19.245-6.634c7.606-1.435 13.678-7.607 21.164-8.608s21.427-1.166 27.195-0.603c6.55 0.639 15.082 4.004 15.846 11.185-5.492-1.355-13.858-0.135-18.093 10.198-1.88 4.589-0.961 12.997-3.838 18.423-2.876 5.428-6.888 7.186-11.679 13.872s-12.652 17.25-17.052 26.209c-4.397 8.957-5.437 19.114-9.156 27.14-3.72 8.025-9.304 14.485-13.653 20.671-9.495 13.52-17.145 22.788-32.788 29.608-7.524 3.28-16.135 4.118-24.18 6.196zM469.976 522.698c0.451-9.558 0.364-16.448-3.071-25.441-3.868-10.121-7.773-16.091-18.752-22.315-3.783-2.144-7.556-2.878-10.692-4.003 1.829 2.494 4.442 3.607 5.483 7.512 1.038 3.908 0.26 11.658 0.494 14.968s0.577 3.205 0.877 4.825c-7.567 2.024-10.587-2.89-15.023-12.008-1.66-3.412-0.028-5.43-1.809-7.676-1.779-2.246-4.623-1.901-7.512-4.057s-5.742-6.321-8.444-8.553c-5.543-4.582-13.035-7.389-19.464-10.472 4.391 3.239 12.87 8.178 15.626 12.885 1.462 2.495 1.288 7.187 3.564 9.431 2.275 2.244 3.039 3.814 5.976 4.386s1.794 3.983 2.741 6.689c0.948 2.707 2.817 4.643 4.825 7.347s4.533 6.75 8.499 8.224c3.965 1.475 10.157-0.136 13.159 0.713 3.001 0.849 1.274 3.022 3.454 4.331 2.183 1.31 6.406 0.738 9.321 2.138 5.168 2.485 7.638 6.635 10.747 11.075zM514.278 510.8c4.169-2.244 9.423-5.171 13.104-5.264 3.682-0.091 4.688 2.395 6.854 3.838 3.408-11.111 7.303-23.309 13.104-33.391 2.431-4.224 3.964-2.28 5.812-6.525 1.846-4.244 2.69-12.891 4.441-18.313 1.754-5.422 4.011-9.385 6.031-14.091-5.129 7.268-11.726 16.541-14.584 22.59-2.856 6.047-1.032 6.522-3.345 12.282s-6.978 14.782-10.472 22.151c-2.502-0.332-5.609-0.806-7.512-0.219s-1.517 2.586-3.235 3.893c-1.721 1.307-4.608 0.819-7.018 2.906s-2.962 6.355-3.18 10.143zM504.189 482.453c2.066 0.012 3.914-0.169 5.318-0.548 2.565-0.692 3.105-1.719 4.661-3.893 5.347-7.466 5.302-13.947 6.689-22.645 1.364-2.125 2.843-3.565 3.948-5.757 1.102-2.192 1.72-5.624 2.029-8.444-1.399 2.029-0.565 4.575-4.441 6.086-3.879 1.511-9.798 0.108-15.023-0.439 3.809-2.748 5.666-5.374 5.812-11.185 0.17-6.823-5.592-11.76-11.624-12.227-8.373-0.65-12.678 1.178-16.065 8.334-1.483 3.134-0.425 6.923-0.548 9.979-10.061-0.699-9.863-0.394-17.216-6.525 3.997-5.855 6.499-9.217 13.104-12.72 3.704-1.966 7.911-3.879 12.501-4.661 4.592-0.781 12.12-1.508 16.942-0.767 4.824 0.74 7.555 2.122 11.13 5.428 3.577 3.308 3.922 8.045 5.318 11.788-0.317-3.603-0.746-8.188-2.083-10.801-4.069-7.945-11.117-10.337-19.519-10.363-8.064-0.026-18.048 1.824-25.551 4.934-5.998 2.486-15.953 9.565-18.313 15.681-1.613 4.179-0.324 9.272-0.493 13.926 8.306 5.524 10.35 4.195 20.177 5.812 4.111 0.677 6.933 2.177 10.856 2.522 3.923 0.344 8.827-0.702 12.501-0.493s6.282 1.173 9.431 1.755c-0.584 5.534-0.044 15.715-5.154 19.41-3.3 2.386-16.831 0.562-20.452-0.219-8.146-1.756-17.618-6.61-25.495-9.65 7.55 5.274 14.082 10.162 23.138 12.885 4.082 1.228 12.225 2.761 18.423 2.796zM620.701 446.814c-5.22-0.34-6.46 0.314-10.637-2.632 2.264-3.523 4.537-7.059 6.799-10.582-0.2 6.954 0.47 8.394 3.838 13.214zM534.729 425.047c-0.664-6.317 0.617-13.244-2.467-17.819s-8.507-3.768-12.995-5.099c3.492 2.662 7.612 3.786 10.308 7.786s3.492 10.145 5.154 15.133zM644.881 417.316c-1.453-1.253-2.542-2.578-4.88-3.619-2.335-1.041-5.509-1.309-8.608-2.083 4.346-6.765 8.886-13.558 13.049-20.671 4.166-7.112 7.812-14.923 11.788-22.37-0.188 4.269 0.020 8.841-0.603 12.83-0.62 3.988-2.43 7.447-4.222 13.433-1.789 5.987-3.989 14.157-6.525 22.48zM559.457 368.902c7.137-0.036 17.128-1.124 23.796-4.167 6.827-3.116 11.496-7.969 17.49-11.514 5.993-3.547 10.248-5.892 15.955-9.869 8.76-6.105 13.885-12.858 19.958-16.887 2.92-1.936 7.033-1.612 10.911-2.796-3.015-0.895-6.945-1.917-10.198-0.877-4.056 1.297-9.739 5.018-12.885 7.676-5.56 4.697-8.462 6.985-14.53 10.527-3.623 2.111-9.562 4.586-13.543 7.183-3.984 2.596-10.922 8.325-14.749 10.253-4.866 2.449-13.609 3.778-19.026 3.619-7.463-0.218-18.24-1.449-24.015-6.689-5.737-5.208-7.929-9.795-6.634-16.558 2.161 2.489 3.593 5.661 5.757 7.511 4.484 3.83 9.606 4.016 15.188 3.29 6.27-0.816 9.443-4.465 11.514-10.417-1.394 1.024-3.954 3.251-5.977 3.948-4.747 1.638-8.328 1.179-12.775-1.206-5.25-2.817-3.849-6.987-4.606-11.624-0.347-2.138-1.124-3.881-1.7-5.812-1.974 0.522-3.825 1.37-5.319 2.851 0.062-2.166-0.224-4.089 0.219-6.525 0.441-2.435 1.6-5.342 2.413-8.005-3.655 3.657-7.398 7.067-9.76 11.788-2.364 4.724-3.927 10-3.673 15.188 0.474 9.641 3.916 17.752 12.556 22.48 4.468 2.444 11.385 5.617 17.71 6.36 1.519 0.178 3.542 0.286 5.922 0.274zM566.201 331.837c1.577 0.057 3.099 0.002 4.386-0.055 3.776-0.168 8.369-1.129 11.021-2.851 2.653-1.722 5.488-3.142 7.896-5.593 6.006-6.117 10.51-13.455 12.501-21.932 1.269-5.404 1.457-12.352 1.919-18.697-1.818 5.865-3.057 11.962-5.647 17.217-4.083 8.285-11.014 16.398-19.629 20.122-2.843 1.231-4.741 0.986-6.305 0.768 0.7-1.175 1.868-2.172 1.919-3.893s-0.317-5.055-3.235-6.47c-4.704-2.282-9.964-0.69-13.598 2.522-3.663 3.237-4.879 8.728-2.961 13.433 1.714 4.206 7.004 5.258 11.733 5.428zM471.017 317.636c4.195-0.016 9.452-1.003 13.817-1.316-5.019-1.285-10.059-2.553-15.078-3.838-0.467-1.708-0.225-3.698-1.371-5.154-1.147-1.457-3.327-1.964-4.989-2.961 0.162 4.487-1.815 9.098 1.645 11.898 1.298 1.050 3.46 1.38 5.976 1.371zM1024 438.857c0-282.77-229.23-512-512-512s-512 229.23-512 512c0 282.77 229.23 512 512 512s512-229.23 512-512z" />
<glyph unicode="&#xe928;" glyph-name="google-play" data-tags="google-play" d="M145.92 909.897l443.52-440.32 121.6 121.6-537.6 310.4c-8.97 5.181-18.55 8.074-27.52 8.32zM108.8 889.417c-3.973-7.086-6.4-15.539-6.4-24.96v-855.68c0-6.861 1.403-13.010 3.84-18.56l453.76 450.56-451.2 448.64zM748.16 570.057l-129.92-129.28 129.92-128.64 158.72 90.88c22.569 13.046 25.723 29.635 25.6 38.4-0.205 14.582-9.416 28.124-24.96 36.48-13.537 7.311-113.935 65.761-159.36 92.16zM589.44 411.977l-447.36-443.52c7.455 0.389 15.483 2.017 23.040 6.4 17.531 10.138 371.84 215.040 371.84 215.040l174.72 100.48-122.24 121.6z" />
<glyph unicode="&#xe929;" glyph-name="inkscape" data-tags="inkscape" d="M568.793 852.474l139.553-141.732c13.233-13.522 13.049-39.726 5.645-47.262l-69.291 55.427-13.627-82.078-57.895 30.562-92.711-58.578-30.694 123.484-49.808-86.174h-76.144c-31.035 0-34.685 39.385-6.485 67.584 49.257 53.169 105.787 107.362 136.507 138.765 30.878 31.56 84.677 30.667 114.951 0zM343.959 324.379c9.426-5.855 151.998-34.816 186.841-40.592 12.078-2.547 3.518-14.992-13.128-23.394-37.547-9.977-219.661 63.987-173.712 63.987zM428.373 877.785l-352.729-360.947c-119.178-147.587 81.106-130.416 166.965-172.925 30.799-31.481-118.049-54.718-87.25-86.226 30.799-31.481 186.237-60.652 217.088-92.134 30.799-31.481-63.042-64.88-32.243-96.361s102.032-1.654 115.371-74.332c9.505-51.935 128.368-22.318 186.499 20.217 30.799 31.508-58.919 28.541-28.121 60.022 76.59 78.323 147.902 28.462 174.106 106.942 12.944 38.781-112.745 59.786-81.894 91.267 88.615 51.751 394.896 85.438 249.567 230.768l-365.621 373.707c-44.715 42.929-119.335 43.402-161.739 0zM833.536 182.043c0-17.907 131.938-29.643 131.938 4.227-18.8 54.403-116.342 50.727-131.938-4.227zM239.196 86.89c31.245-27.018 79.504 6.722 93.972 44.426-30.274 40.225-143.596-1.444-93.972-44.426zM816.994 145.258c-40.277-36.129 4.516-72.783 44.216-49.441 8.848 8.98-0.236 40.461-44.216 49.441z" />
</font>
</defs>
</svg>
