<!-- Generated by IcoMoon.io -->
<svg version="1.1" xmlns="http://www.w3.org/2000/svg" width="32" height="32" viewBox="0 0 32 32">
<title>access</title>
<path d="M18.432 0.032l-17.92 3.392c-0.288 0.064-0.512 0.32-0.512 0.64v23.872c0 0.32 0.224 0.576 0.512 0.64l17.92 3.392c0.064 0.032 0.096 0.032 0.128 0.032 0.16 0 0.288-0.032 0.416-0.128 0.128-0.128 0.224-0.32 0.224-0.512v-30.72c0-0.192-0.096-0.384-0.224-0.512-0.16-0.128-0.352-0.16-0.544-0.096zM23.456 4.48c-1.024 0-2.016 0.032-2.976 0.16v4.128c1.024 0.128 2.112 0.192 3.232 0.192 5.376 0 8.288-1.376 8.288-2.112v-0.224c-0.032-0.768-3.264-2.144-8.544-2.144zM32 8.64c-1.728 1.056-5.024 1.6-8.288 1.6-1.088 0-2.208-0.064-3.232-0.192v5.312c1.024 0.128 2.112 0.192 3.232 0.192 5.376 0 8.288-1.408 8.288-2.112v-4.8zM10.496 9.504c1.248 4.16 2.432 8.384 3.68 12.544-0.864-0.064-1.728-0.128-2.592-0.192-0.224-0.928-0.48-1.856-0.736-2.784-1.12-0.032-2.272-0.064-3.424-0.128-0.224 0.896-0.448 1.76-0.672 2.656-0.736-0.064-1.472-0.096-2.176-0.128 1.088-3.936 2.24-7.872 3.296-11.808 0.864-0.064 1.728-0.096 2.624-0.16zM9.088 11.712c-0.256 1.792-0.8 3.488-1.184 5.216 0.832 0 1.632 0.032 2.464 0.032-0.416-1.76-0.96-3.488-1.28-5.248zM32 15.232c-1.728 1.056-5.024 1.6-8.288 1.6-1.088 0-2.208-0.064-3.232-0.192v4.928c1.024 0.128 2.112 0.192 3.232 0.192 5.376 0 8.288-1.376 8.288-2.112v-4.416zM32 21.44c-1.728 1.056-5.024 1.6-8.288 1.6-1.088 0-2.208-0.064-3.232-0.192v4.512c0.96 0.096 1.952 0.16 2.976 0.16 5.312 0 8.544-1.408 8.544-2.176v-3.904z"></path>
</svg>
