<!-- Generated by IcoMoon.io -->
<svg version="1.1" xmlns="http://www.w3.org/2000/svg" width="32" height="32" viewBox="0 0 32 32">
<title>amazon</title>
<path d="M27.712 26.368c0.512-0.288 0.928 0.128 0.384 0.832s-4.992 4.8-12.48 4.8-13.152-5.12-14.912-7.232c-0.48-0.544 0.064-0.8 0.384-0.576 5.248 3.168 13.408 8.416 26.624 2.176zM31.392 24.288c0.256 0.384 0 1.952-0.448 3.072-0.48 1.152-1.152 1.92-1.536 2.24s-0.672 0.192-0.448-0.288 1.376-3.328 0.896-3.936c-0.448-0.576-2.656-0.288-3.424-0.224s-0.928 0.16-0.992 0c-0.16-0.416 1.536-1.12 2.656-1.248 1.152-0.128 2.944-0.064 3.296 0.384zM24.352 16.384c0 1.984 2.304 3.776 2.304 3.776l-4.032 4c-1.6-1.504-2.816-2.752-2.816-2.752-0.16-0.192-0.32-0.384-0.416-0.576-3.232 5.024-13.12 4.704-13.12-3.104 0-7.296 8.608-8.256 12.096-8.384v-2.272c0-0.48 0.192-2.688-2.528-2.688 0 0-2.72 0-3.872 3.552l-5.248-0.48c0-3.52 3.328-7.456 9.632-7.456 6.272 0 8 4.064 8 5.856v10.528zM12.352 16.768c0 3.616 6.016 4.48 6.016-1.248v-2.88c-2.4 0.064-6.016 0.736-6.016 4.128z"></path>
</svg>
