<!-- Generated by IcoMoon.io -->
<svg version="1.1" xmlns="http://www.w3.org/2000/svg" width="32" height="32" viewBox="0 0 32 32">
<title>amiga</title>
<path d="M28.256 6.688c-1.632-2.816-4.096-4.992-7.232-5.984-3.136-1.024-6.432-0.736-9.376 0.576l2.368 0.768c2.304-1.536 4.768-2.080 7.008-1.344 2.24 0.704 3.904 2.624 4.864 5.216zM22.368 4.768c0-2.272-0.448-3.776-1.344-4.064-0.928-0.32-2.176 0.64-3.488 2.496zM19.968 17.184c0.768-2.368 1.376-4.64 1.76-6.72l-7.040-2.272c-0.896 1.888-1.76 4.096-2.528 6.432zM10.4 21.344c-0.416 2.176-0.64 4.128-0.64 5.696l4.864 1.6c0.928-1.28 1.888-3.008 2.848-4.992zM2.752 24.768c1.92 2.912 4.8 5.184 8.384 6.368 3.552 1.152 7.232 0.992 10.528-0.224l-1.152-0.384c-2.976 1.312-6.24 1.632-9.376 0.608s-5.632-3.2-7.232-5.984zM6.272 25.92c0.96 2.592 2.624 4.48 4.864 5.216s4.704 0.16 7.008-1.376l-3.52-1.12c-1.344 1.824-2.592 2.784-3.488 2.496-0.928-0.32-1.376-1.824-1.376-4.096zM1.888 18.56c0.192 2.4 0.896 4.64 2.016 6.592l2.368 0.768c-0.672-1.824-1.024-3.936-0.96-6.24zM20.512 30.528c2.048-0.896 3.904-2.304 5.472-4.128l-3.424-1.12c-1.312 1.888-2.816 3.424-4.416 4.48zM0.864 10.976c-0.768 2.336-0.96 4.736-0.64 7.040l1.664 0.544c-0.192-2.24 0.064-4.64 0.832-7.008zM27.648 26.944c1.6-1.664 2.88-3.744 3.648-6.080l-1.856-0.608c-0.768 2.336-1.952 4.416-3.456 6.144zM6.496 12.8c-0.736 2.368-1.152 4.704-1.184 6.88l5.088 1.664c0.416-2.080 0.992-4.352 1.76-6.72zM22.56 25.28c1.248-1.792 2.304-3.904 3.072-6.272l-5.664-1.824c-0.768 2.336-1.632 4.544-2.496 6.464zM29.44 20.256c0.768-2.368 1.024-4.736 0.832-7.008l-3.424-1.12c-0.064 2.176-0.448 4.544-1.216 6.88zM6.144 5.408c-1.472 1.728-2.656 3.808-3.424 6.144l3.776 1.248c0.768-2.368 1.856-4.48 3.104-6.272zM26.848 12.128c0.032-2.304-0.288-4.416-0.96-6.208l-3.52-1.152c0 1.568-0.224 3.52-0.64 5.696zM14.016 2.048c-1.6 1.056-3.104 2.592-4.416 4.48l5.088 1.664c0.928-2.016 1.92-3.712 2.848-4.992zM31.936 13.792c-0.32-2.432-1.216-4.736-2.528-6.752l-1.152-0.352c1.12 1.92 1.792 4.192 2.016 6.56zM10.496 0.896c-2.272 0.864-4.32 2.208-6.016 3.968l1.664 0.544c1.568-1.792 3.456-3.2 5.504-4.128z"></path>
</svg>
