<!-- Generated by IcoMoon.io -->
<svg version="1.1" xmlns="http://www.w3.org/2000/svg" width="25" height="32" viewBox="0 0 25 32">
<title>android</title>
<path d="M8.8 8.608c0.384 0 0.704-0.32 0.704-0.672s-0.32-0.704-0.704-0.704c-0.384 0-0.672 0.32-0.672 0.704s0.288 0.672 0.672 0.672zM16.352 8.608c0.352 0 0.672-0.32 0.672-0.672s-0.32-0.704-0.672-0.704c-0.416 0-0.704 0.32-0.704 0.704s0.288 0.672 0.704 0.672zM1.856 11.904c0.992 0 1.792 0.832 1.792 1.824v7.68c0 1.024-0.8 1.824-1.792 1.824s-1.856-0.8-1.856-1.824v-7.68c0-0.992 0.832-1.824 1.856-1.824zM20.768 12.256v11.872c0 1.088-0.864 1.984-1.952 1.984h-1.344v4.064c0 0.992-0.8 1.824-1.824 1.824s-1.856-0.832-1.856-1.824v-4.064h-2.464v4.064c0 0.992-0.8 1.824-1.824 1.824-0.992 0-1.824-0.832-1.824-1.824l-0.032-4.064h-1.312c-1.088 0-1.952-0.896-1.952-1.984v-11.872h16.384zM16.64 5.024c2.496 1.28 4.192 3.744 4.192 6.592h-16.512c0-2.848 1.696-5.312 4.192-6.592l-1.248-2.336c-0.096-0.128-0.064-0.288 0.064-0.384 0.128-0.032 0.288 0 0.384 0.128l1.28 2.336c1.088-0.48 2.304-0.736 3.584-0.736s2.496 0.256 3.584 0.736l1.28-2.336c0.064-0.128 0.256-0.16 0.352-0.128 0.128 0.096 0.16 0.256 0.096 0.384zM25.152 13.728v7.68c0 1.024-0.832 1.824-1.856 1.824-0.992 0-1.824-0.8-1.824-1.824v-7.68c0-1.024 0.832-1.824 1.824-1.824 1.024 0 1.856 0.8 1.856 1.824z"></path>
</svg>
