<!-- Generated by IcoMoon.io -->
<svg version="1.1" xmlns="http://www.w3.org/2000/svg" width="23" height="32" viewBox="0 0 23 32">
<title>angellist</title>
<path d="M17.024 6.752l-2.048 5.856 2.112 0.384c0.512-1.472 2.944-8.064 2.944-9.248 0-0.448-0.16-1.024-0.704-1.024-0.992 0-2.048 3.264-2.304 4.032zM11.68 19.008c0.192 0.512 0.416 1.056 0.576 1.568 0.416-0.448 0.832-0.832 1.28-1.184-0.608-0.128-1.248-0.192-1.856-0.384zM6.464 3.008c0 1.824 2.176 7.52 2.848 9.312 0.256-0.16 0.576-0.192 0.864-0.192 0.448 0 0.928 0.064 1.344 0.096l-2.176-6.272c-0.224-0.672-1.248-3.936-2.176-3.936-0.48 0-0.704 0.576-0.704 0.992zM5.056 16.576c0 1.28 3.488 6.112 4.8 6.112 0.352 0 0.672-0.416 0.672-0.736 0-0.416-0.416-1.408-0.576-1.824-0.48-1.184-2.176-4.896-3.616-4.896-0.48 0-1.28 0.864-1.28 1.344zM2.24 22.56c0 0.64 0.224 1.248 0.448 1.856 1.408 3.488 4.576 5.504 8.288 5.504 2.72 0 4.992-1.024 6.816-3.040 1.952-2.144 2.72-4.768 2.72-7.616 0-0.992 0.032-2.592-0.768-3.296-1.504-1.344-6.592-1.824-8.608-1.824-0.256 0-0.672 0-0.864 0.192-0.224 0.096-0.224 0.416-0.224 0.64 0 2.72 5.76 2.464 7.52 2.464 0.32 0 0.48 0.096 0.704 0.352 0.224 0.288 0.288 0.608 0.352 0.96-0.48 0.48-1.12 0.736-1.728 0.992-0.576 0.192-1.152 0.416-1.664 0.8-1.376 0.992-2.72 2.72-2.72 4.48 0 1.12 0.64 2.080 0.64 3.168 0 0-0.128 0.384-0.128 0.448-2.016-0.128-2.528-2.176-2.592-3.872-0.224 0.064-0.512 0.064-0.736 0.064 0.032 0.096 0.032 0.224 0.032 0.352 0 1.312-1.152 2.272-2.4 2.272-1.92 0-4.48-2.272-4.48-4.256 0-0.512 0.224-0.832 0.576-1.184 0.352 0.448 0.736 0.896 1.088 1.344 0.512 0.704 1.408 1.856 2.368 1.856 0.256 0 0.736-0.192 0.736-0.512 0-0.8-2.944-4.576-3.648-4.576-1.12 0-1.728 1.504-1.728 2.432zM0.192 22.72c0-2.336 0.896-3.872 3.2-4.48-0.192-0.544-0.512-1.312-0.512-1.856 0-1.472 1.824-3.296 3.296-3.296 0.416 0 0.832 0.128 1.248 0.256-0.768-2.112-2.912-8.096-2.912-10.112 0-1.792 0.896-3.232 2.848-3.232 2.496 0 5.344 8.992 5.952 10.784 0.768-1.952 3.232-10.208 6.016-10.208 1.76 0 2.752 1.408 2.752 3.072 0 1.888-2.112 7.776-2.848 9.824 3.008 0.736 3.424 3.136 3.424 5.856 0 7.136-4.544 12.672-11.936 12.672-1.344 0-2.688-0.256-3.968-0.736-3.392-1.312-6.56-4.8-6.56-8.544z"></path>
</svg>
