<!-- Generated by IcoMoon.io -->
<svg version="1.1" xmlns="http://www.w3.org/2000/svg" width="25" height="32" viewBox="0 0 25 32">
<title>apple</title>
<path d="M24.864 21.696c-0.448 1.408-1.152 2.912-2.176 4.448-1.536 2.368-3.072 3.52-4.608 3.52-0.608 0-1.408-0.192-2.496-0.576-1.056-0.384-1.952-0.576-2.688-0.576-0.704 0-1.568 0.192-2.528 0.608-0.992 0.384-1.792 0.608-2.368 0.608-1.824 0-3.616-1.568-5.376-4.64-1.728-3.072-2.624-6.048-2.624-8.992 0-2.72 0.672-4.928 2.016-6.656s3.008-2.592 5.088-2.592c0.864 0 1.888 0.192 3.136 0.544s2.080 0.544 2.464 0.544c0.544 0 1.376-0.192 2.56-0.608s2.208-0.608 3.104-0.608c1.408 0 2.688 0.384 3.808 1.152 0.608 0.416 1.248 1.024 1.856 1.792-0.928 0.768-1.632 1.472-2.048 2.112-0.768 1.088-1.152 2.336-1.152 3.68 0 1.472 0.416 2.816 1.216 4s1.76 1.92 2.816 2.24zM18.176 0.736c0 0.736-0.192 1.568-0.544 2.432-0.352 0.896-0.896 1.728-1.664 2.464-0.64 0.64-1.28 1.088-1.92 1.28-0.416 0.128-1.024 0.256-1.856 0.32 0.032-1.76 0.512-3.296 1.408-4.608s2.368-2.144 4.448-2.624c0.032 0.16 0.064 0.288 0.096 0.384 0 0.128 0.032 0.224 0.032 0.352z"></path>
</svg>
