<!-- Generated by IcoMoon.io -->
<svg version="1.1" xmlns="http://www.w3.org/2000/svg" width="32" height="32" viewBox="0 0 32 32">
<title>beastie</title>
<path d="M16 0c-8.832 0-16 7.168-16 16s7.168 16 16 16c8.832 0 16-7.168 16-16s-7.168-16-16-16zM12.544 1.568c0.128 0 0.224 0.032 0.224 0.16-0.128 0.576-1.248 1.024-1.312 1.792-0.032 0.288 0.192 0.544 0.416 0.8 0.672-0.448 2.144-0.608 3.232-0.416 1.056 0.16 2.432 1.184 2.624 1.696 0.512-0.032 1.344-0.128 1.76-0.576 0.064-0.608-0.16-1.696-0.448-2.208-0.096-0.16-0.16-0.544 0.384-0.32 1.312 0.832 2.016 2.176 2.112 2.688 0.288 1.696-0.8 3.136-2.944 4.224 0.384 2.112-0.736 2.944-1.344 3.488-0.352 0.32-0.8 0.64-0.896 1.088-0.064 0.384 0.192 0.736 0.32 1.152 0.256 0.768 0.992 2.4 0.096 3.456 0.256 1.056 0.512 2.304 1.28 3.072 1.12 1.12 2.72 1.376 4.416 1.824 0.8 0.224 2.4 0.672 2.816 0.832 1.664 0.448 1.76 2.24 0.224 2.496 0.096 0.192 0.256 0.32 0.416 0.512-1.248 0.192-2.496 0.16-3.168 0.224-1.024 0.064-3.232 0.128-3.296-0.224 1.024-0.48 3.2-1.056 3.296-1.888 0.384-0.192 0.544 0.512 0.704 0.928 0.64-0.032 1.504-0.256 1.824-0.576 0.064-0.128-0.128-0.288-0.224-0.416-0.32-0.32-0.704-0.48-1.152-0.608-2.304-0.544-3.808-0.832-4.608-0.992-1.088-0.224-2.528-1.088-2.784-1.472 0 0.448 0.352 1.216 0.608 1.824 0.128 0.256 0.32 0.512 0.256 0.8-0.096 0.288-1.024 0.608-1.6 0.8-0.704 0.224-1.664 0.416-2.176 0.448-1.184 0.096-3.648 0.416-5.216-0.224-0.288-0.128-0.448-0.288-0.48-0.544-0.64 0.064-2.464 0.192-3.008-0.384-0.16-0.16-0.288-0.416-0.256-0.672 0.16-0.832 2.656-1.024 4.192-1.152 0.64-0.064 1.504-0.064 1.952-0.544 0.224-0.288-0.192-1.024-0.16-1.12 0.064-0.128 0.416 0.16 0.576 0.16-0.224-0.256-0.416-0.48-0.608-0.736-0.576-0.672-0.768-1.632-0.256-2.528-0.224-0.256-0.544-0.448-0.416-0.928-0.224 0-0.576-0.224-0.544-0.448-0.576 0.16-1.216 0-1.152-0.512-1.12-0.32-1.056-1.344-0.48-1.888-0.288-0.256-0.64-0.64-0.928-0.832 0 0-0.608 0.544-0.832 0.544-1.152 0.448-2.784-0.832-2.88-1.376 0.352 0 0.512 0.096 0.8 0.096 0.256 0.032 0.64 0.032 0.768 0-0.032 0.224-0.288 0.352-0.288 0.512 0.512 0.256 1.792 0.128 1.888-0.256-0.256-0.256-0.608-0.608-0.864-0.864-0.128 0-0.16 0.128-0.224 0.32-0.128-0.16-0.544-1.088-0.704-1.376 0.48 0.128 0.992 0.256 1.44 0.416-0.096 0.096-0.352 0.256-0.224 0.352 0.448 0.224 0.96 0.544 1.248 0.608 0.032-0.096 0.16-0.32 0.128-0.512-0.032-0.352-0.224-0.64-0.384-0.896-0.16 0.096-0.288 0.352-0.448 0.288-0.064-0.384-0.096-0.512-0.192-0.768-0.128-0.256-0.416-0.48-0.448-0.736 0.192-0.16 1.344 0.736 1.664 1.216 0.224 0.352 0.384 0.608 0.384 1.088 0 0.256-0.16 0.48-0.224 0.736 0.192 0.192 0.448 0.384 0.608 0.544 0.224-0.352 0.768-0.48 1.376-0.32 0.32 0.128 0.512 0.48 0.544 0.8 0 0.224-0.096 0.48-0.256 0.64 0 0.032 0.032 0.064 0.064 0.096 0.224-0.096 0.576-0.128 0.864 0.16 0.384 0.416 1.088-0.096 1.056-0.992-0.064-0.064-0.128-0.16-0.16-0.224-0.544-0.224-1.248-0.64-1.536-0.96-0.608-0.352-1.088-0.416-1.568-0.832-0.672-0.608-0.896-1.824-0.448-2.432 0.16-0.224 0.448-0.448 0.64-0.768 0.16-0.256 0.256-0.512 0.256-0.768 0.032-0.32 0.288-1.056 0.32-1.216-1.12-1.952 0.064-3.2 1.568-4.352 0.416-0.352 1.344-0.992 1.792-1.024zM13.632 4.8c-0.256-0.032-0.512 0.064-0.672 0.288 0.416-0.448 1.952 0.096 1.696 1.088 0.416-0.672-0.352-1.376-1.024-1.376zM11.808 5.408c-0.672 0-0.896 0.256-1.248 0.544-0.352 0.32-0.64 0.768-0.928 1.248s-0.544 1.088-0.448 1.632c0.032 0.192 0.16 0.416 0.32 0.576-0.032-0.032-0.032-0.032-0.064-0.064-0.224-0.576 0.288-1.44 0.64-1.536l0.032-0.032v0.096c-0.064 0.224-0.064 0.48-0.064 0.576 0.032-0.064 0.16-0.416 0.288-0.64v-0.032h0.032c0.256 0.032 0.48 0.224 0.512 0.544 0 0.128-0.032 0.256-0.064 0.384 0.128-0.352 0.224-0.736 0.32-1.024 0.192-0.608 0.48-1.184 0.704-1.792 0.032-0.128 0.192-0.48-0.032-0.48zM13.216 5.76c-0.416 0-0.96 0.48-1.184 0.896-0.256 0.416-0.544 0.928-0.768 1.472 0 0 0.032-0.032 0.032-0.032 0.192-0.16 0.384-0.224 0.544-0.256h0.064c-0.064 0.192-0.128 0.512-0.064 0.736 0.032-0.224 0.16-0.512 0.256-0.672 0.064-0.032 0.096 0 0.192 0.032 0.64 0.48 0.192 2.72-0.736 2.624 0.352 0.192 0.768 0.256 1.152 0.224 0.544 0 1.376-0.192 1.76 0.032-0.16-0.16-0.704-0.16-0.864-0.16 0.352-0.416 0.672-1.088 0.768-1.568 0.224-1.152 0.064-2.88-0.896-3.296-0.096-0.032-0.16-0.032-0.256-0.032zM9.92 9.792c-0.064 0-0.096 0-0.128 0-0.384 0.128-0.672 0.416-0.672 0.736-0.032 0.384 0.352 0.768 0.704 0.928 0.352 0.128 0.704-0.128 1.088-0.064 0.16 0.032 0.256 0.192 0.384 0.224 0.032 0 0.064 0 0.128 0 0.096 0 0.192-0.032 0.288-0.096 0.096-0.096 0.16-0.32 0.096-0.48-0.032-0.064-0.128-0.16-0.192-0.128-0.032 0.032 0.064 0.128 0.096 0.224 0.032 0.128 0 0.224-0.096 0.288-0.096 0.096-0.16 0.064-0.288 0.064-0.16-0.032-0.256-0.192-0.384-0.224-0.32-0.096-0.768 0.192-1.088 0.032-0.352-0.128-0.608-0.416-0.608-0.8 0.032-0.32 0.256-0.48 0.544-0.544 0.256-0.064 0.64-0.032 0.864 0.16 0.064 0.096 0.128 0.032 0.064-0.096-0.128-0.16-0.544-0.256-0.8-0.224zM9.088 11.616c-0.064 0-0.096 0.032-0.128 0.064-0.032 0.128 0.288 0.096 0.384 0.192 0.224 0.288 0.544 0.672 0.8 0.896 0.512 0.48 1.344 0.992 1.952 0.96 0.096 0 0.192-0.032 0.256-0.032 0.576-0.128 1.024-0.832 1.632-0.96 0.384-0.192 0.544 0.032 0.8-0.032 0.064 0 0.16-0.032 0.16-0.096 0-0.032-0.064-0.064-0.128-0.096-0.288-0.064-0.608 0-0.864 0.064-0.64 0.16-1.024 0.896-1.6 0.992-1.152 0.192-2.368-0.896-3.008-1.856-0.032-0.064-0.16-0.096-0.256-0.096zM11.744 13.984c0 0.032 0.032 0.096 0.032 0.128 0.448 0.288 1.536 0.128 2.080-0.096 0.032-0.032-1.568 0.416-2.112-0.032zM11.808 15.552c-0.128 0-0.224 0-0.32 0.032-0.128 0.032-0.64 0.224-0.48 0.32 0.192-0.352 1.152-0.352 1.632-0.128 0.64 0.288 1.056 0.896 1.6 0.96 0.448 0.032 0.736-0.16 0.768-0.16 0-0.032 0.032-0.128-0.064-0.128-0.128 0.064-0.192 0.224-0.736 0.192-0.48-0.064-1.024-0.768-1.568-0.96-0.288-0.096-0.512-0.128-0.736-0.128-0.032 0-0.064 0-0.096 0zM14.912 19.264c-0.256 0.064-0.544 0.096-0.832 0.096l-0.128 0.128 1.696 1.344c0.864 0.384 0.896-0.224 0.48-0.608zM11.008 22.336c0.032 0.064 0.032 0.192 0 0.288 0.48 0.032 0.96 0.128 1.376 0.256 0.096-0.096 0.096-0.192 0.032-0.352-0.448-0.128-0.896-0.192-1.408-0.192zM13.12 22.592c-0.064 0-0.128 0-0.192 0-0.032 0.096 0 0.16 0 0.224 0.48-0.096 1.184 0.032 1.472 0.224 0.032-0.064 0.032-0.128 0-0.192-0.384-0.192-0.832-0.256-1.28-0.256zM15.776 22.72c-0.224 0-0.416 0.224-0.416 0.512s0.192 0.544 0.416 0.544c0.256 0 0.448-0.256 0.448-0.544s-0.192-0.512-0.448-0.512zM10.912 22.848c-0.032 0.064-0.128 0.128-0.224 0.16 0.416 0.064 0.832 0.16 1.152 0.288 0.16-0.032 0.256-0.096 0.32-0.192-0.352-0.128-0.768-0.224-1.248-0.256zM12.96 23.040c-0.064 0.064-0.064 0.16-0.064 0.224 0.576 0 0.928 0.064 1.312 0.224 0.096-0.064 0.16-0.16 0.16-0.256-0.48-0.128-0.96-0.192-1.408-0.192zM10.432 23.104c-0.096 0.032-0.256 0.064-0.416 0.096 0.288 0.096 0.576 0.224 0.928 0.288 0.16 0 0.32 0 0.416-0.032-0.352-0.096-0.64-0.224-0.928-0.352zM9.536 23.264l-0.48 0.064c0.352 0.096 0.704 0.192 0.96 0.288 0.224 0 0.32-0.032 0.384-0.064-0.256-0.096-0.544-0.224-0.864-0.288zM7.744 23.36c-0.992 0.16-2.688 0.288-2.976 0.896-0.16 0.288 0.032 0.608 0.32 0.832 0.672 0.384 1.696 0.352 2.784 0.256-0.064-0.256 0-0.608 0.192-0.8-0.992 0.16-2.848 0-2.784-0.16 0 0 0-0.032 0-0.032 0 0.224 2.272 0.32 2.912 0.064 0.128-0.128 0.32-0.32 0.544-0.416-0.192-0.288-0.48-0.512-0.992-0.64zM12.576 23.424c-0.16 0.064-0.288 0.096-0.32 0.128 0.416 0.032 0.8 0.096 1.152 0.16 0.192-0.032 0.32-0.064 0.352-0.096-0.352-0.096-0.736-0.16-1.184-0.192zM11.84 23.648c-0.192 0.032-0.384 0.064-0.576 0.096 0.448 0.032 0.864 0.096 1.152 0.224 0.224-0.032 0.352-0.096 0.384-0.16-0.192-0.096-0.512-0.128-0.96-0.16zM10.432 23.808c-0.576 0.032-1.184 0.064-1.568 0.256-0.608 0.288-1.024 0.672-0.896 1.312 0.128 0.448 0.672 0.64 1.312 0.704 3.424 0.384 6.112-0.096 7.904-1.088l0.032-0.192c-0.032-0.16-0.064-0.288-0.128-0.416-1.44 0.704-3.008 1.024-4.64 1.024-1.024 0.288-3.552 0.064-4.192-0.384 0.864 0.288 3.232 0.64 4.16 0.224-0.096-0.896-0.992-1.376-1.984-1.44zM32 16c0 8.832-7.168 16-16 16s-16-7.168-16-16c0-8.832 7.168-16 16-16s16 7.168 16 16z"></path>
</svg>
