<!-- Generated by IcoMoon.io -->
<svg version="1.1" xmlns="http://www.w3.org/2000/svg" width="27" height="32" viewBox="0 0 27 32">
<title>behance-square</title>
<path d="M22.272 2.272c2.848 0 5.152 2.304 5.152 5.152v17.152c0 2.848-2.304 5.152-5.152 5.152h-17.12c-2.848 0-5.152-2.304-5.152-5.152v-17.152c0-2.848 2.304-5.152 5.152-5.152h17.12zM8.928 8.832h-6.656v14.048h6.848c2.528 0 4.928-1.216 4.928-4.064 0-1.76-0.832-3.072-2.56-3.584 1.248-0.608 1.92-1.504 1.92-2.912 0-2.816-2.080-3.488-4.48-3.488zM8.512 14.528h-3.136v-3.296h2.912c1.12 0 2.112 0.288 2.112 1.6 0 1.184-0.768 1.696-1.888 1.696zM8.672 20.512h-3.296v-3.904h3.36c1.376 0 2.24 0.608 2.24 2.016s-1.024 1.888-2.304 1.888zM20.288 21.056c-1.632 0-2.496-0.96-2.496-2.592h7.328c0.032-0.16 0.032-0.352 0.032-0.512 0-3.008-1.76-5.536-4.96-5.536-3.104 0-5.216 2.336-5.216 5.408 0 3.168 1.984 5.344 5.216 5.344 2.432 0 4-1.088 4.768-3.424h-2.464c-0.288 0.864-1.376 1.312-2.208 1.312zM20.096 14.528c1.408 0 2.112 0.832 2.24 2.176h-4.544c0.096-1.344 0.992-2.176 2.304-2.176zM17.216 9.792h5.696v1.376h-5.696v-1.376z"></path>
</svg>
