<!-- Generated by IcoMoon.io -->
<svg version="1.1" xmlns="http://www.w3.org/2000/svg" width="37" height="32" viewBox="0 0 37 32">
<title>behance</title>
<path d="M32.992 6.048h-9.12v2.208h9.12v-2.208zM28.512 13.664c-2.144 0-3.584 1.344-3.712 3.488h7.264c-0.192-2.176-1.312-3.488-3.552-3.488zM28.8 24.096c1.344 0 3.104-0.736 3.52-2.112h3.936c-1.216 3.712-3.712 5.472-7.616 5.472-5.152 0-8.32-3.488-8.32-8.544 0-4.896 3.36-8.64 8.32-8.64 5.12 0 7.936 4.032 7.936 8.864 0 0.256-0.032 0.544-0.032 0.832h-11.744c0 2.592 1.376 4.128 4 4.128zM4.96 23.2h5.28c2.016 0 3.648-0.704 3.648-2.976 0-2.304-1.376-3.2-3.552-3.2h-5.376v6.176zM4.96 13.632h4.992c1.792 0 3.040-0.768 3.040-2.688 0-2.080-1.6-2.56-3.392-2.56h-4.64v5.248zM0 4.544h10.624c3.84 0 7.168 1.088 7.168 5.568 0 2.272-1.056 3.712-3.072 4.672 2.784 0.8 4.128 2.88 4.128 5.728 0 4.544-3.84 6.528-7.936 6.528h-10.912v-22.496z"></path>
</svg>
