<!-- Generated by IcoMoon.io -->
<svg version="1.1" xmlns="http://www.w3.org/2000/svg" width="27" height="32" viewBox="0 0 27 32">
<title>bitbucket-square</title>
<path d="M15.136 15.52c0-0.992-1.248-1.696-2.112-1.184-0.992 0.48-0.992 2.112 0.032 2.56 0.928 0.544 2.24-0.288 2.080-1.376zM16.576 15.232c0.192 1.6-1.024 3.136-2.624 3.264s-3.040-1.152-3.104-2.72c-0.064-1.184 0.672-2.336 1.728-2.816 1.696-0.736 3.776 0.48 4 2.272zM19.648 8.256c-0.8 0.8-1.984 0.928-3.040 1.056-1.92 0.224-3.872 0.224-5.792 0-1.056-0.16-2.208-0.288-3.040-1.056 0.512-0.704 1.408-0.864 2.208-0.96 2.4-0.448 4.864-0.416 7.296-0.032 0.832 0.128 1.824 0.256 2.368 0.992zM20.384 21.6c0-0.448 0.448-1.184-0.16-1.344-3.84 2.528-9.184 2.528-13.056 0l-0.192 0.096-0.096 0.224c0.224 1.248 0.416 2.496 0.736 3.744 0.736 1.28 2.304 1.696 3.648 1.92 2.528 0.48 5.312 0.32 7.616-0.928 1.344-0.768 1.152-2.464 1.504-3.712zM22.72 9.216c0.064-0.448 0.16-0.96-0.16-1.344-0.672-0.864-1.728-1.28-2.752-1.568-2.816-0.832-5.792-0.928-8.704-0.64-1.376 0.128-2.752 0.352-4.032 0.8-0.96 0.384-2.272 0.896-2.432 2.048 0.32 2.656 0.832 5.28 1.28 7.936 0.16 0.768 0.16 1.664 0.832 2.176 1.44 1.12 3.296 1.6 5.056 1.792 2.656 0.288 5.472 0.096 7.872-1.12 0.672-0.352 1.472-0.832 1.6-1.632 0.512-2.816 0.992-5.6 1.44-8.448zM27.424 7.424v17.152c0 2.848-2.304 5.152-5.152 5.152h-17.12c-2.848 0-5.152-2.304-5.152-5.152v-17.152c0-2.848 2.304-5.152 5.152-5.152h17.12c2.848 0 5.152 2.304 5.152 5.152z"></path>
</svg>
