<!-- Generated by IcoMoon.io -->
<svg version="1.1" xmlns="http://www.w3.org/2000/svg" width="25" height="32" viewBox="0 0 25 32">
<title>bitbucket</title>
<path d="M14.56 15.328c0.192 1.504-1.632 2.688-2.912 1.92-1.408-0.64-1.408-2.88-0.032-3.552 1.216-0.704 2.944 0.256 2.944 1.632zM16.544 14.976c-0.32-2.56-3.2-4.224-5.536-3.168-1.504 0.64-2.496 2.208-2.432 3.872 0.096 2.176 2.176 3.968 4.352 3.776s3.872-2.304 3.616-4.48zM20.8 5.28c-0.768-1.024-2.112-1.216-3.296-1.408-3.328-0.544-6.784-0.544-10.112 0.032-1.12 0.192-2.368 0.384-3.040 1.376 1.12 1.088 2.752 1.248 4.224 1.408 2.624 0.352 5.344 0.352 8 0.032 1.472-0.192 3.136-0.32 4.224-1.44zM21.824 23.776c-0.512 1.728-0.224 4.096-2.080 5.12-3.2 1.76-7.072 1.952-10.592 1.344-1.856-0.352-4.032-0.928-5.056-2.688-0.448-1.728-0.704-3.456-0.992-5.216l0.096-0.288 0.32-0.16c5.312 3.52 12.768 3.52 18.112 0 0.832 0.256 0.224 1.28 0.192 1.888zM25.056 6.592c-0.608 3.936-1.312 7.808-1.984 11.712-0.192 1.152-1.312 1.792-2.24 2.272-3.328 1.664-7.232 1.952-10.88 1.568-2.496-0.288-5.024-0.928-7.040-2.496-0.96-0.736-0.96-1.984-1.12-3.040-0.64-3.648-1.344-7.296-1.792-11.008 0.224-1.6 2.016-2.304 3.36-2.816 1.792-0.64 3.68-0.96 5.6-1.12 4.032-0.384 8.16-0.256 12.064 0.896 1.376 0.416 2.88 0.96 3.84 2.176 0.416 0.544 0.288 1.248 0.192 1.856z"></path>
</svg>
