<!-- Generated by IcoMoon.io -->
<svg version="1.1" xmlns="http://www.w3.org/2000/svg" width="24" height="32" viewBox="0 0 24 32">
<title>bitcoin</title>
<path d="M20.832 11.424c0.256 2.368-0.768 3.808-2.336 4.608 2.624 0.64 4.256 2.176 3.936 5.664-0.416 4.32-3.616 5.504-8.224 5.76v4.544h-2.752v-4.48c-0.704 0-1.44 0-2.176-0.032v4.512h-2.752v-4.544c-0.64 0-1.28-0.032-1.952-0.032h-3.584l0.576-3.264c2.016 0.032 1.984 0 1.984 0 0.768 0 0.96-0.544 1.024-0.928v-7.168h0.288c-0.128 0-0.224 0-0.288 0v-5.152c-0.096-0.544-0.48-1.216-1.6-1.216 0 0 0.032-0.032-1.984 0v-2.912h3.808c0.544 0 1.12 0 1.728 0v-4.512h2.752v4.416c0.736 0 1.44-0.032 2.176-0.032v-4.384h2.752v4.512c3.52 0.288 6.336 1.376 6.624 4.64zM16.992 21.152c0-3.52-5.824-3.008-7.68-3.008v6.016c1.856 0 7.68 0.416 7.68-3.008zM15.744 12.672c0-3.232-4.864-2.752-6.432-2.752v5.472c1.568 0 6.432 0.352 6.432-2.72z"></path>
</svg>
