<!-- Generated by IcoMoon.io -->
<svg version="1.1" xmlns="http://www.w3.org/2000/svg" width="32" height="32" viewBox="0 0 32 32">
<title>blackberry</title>
<path d="M23.648 10.208l-1.088 5.056 5.312-0.032c0 0 2.4-0.352 2.688-2.208 0 0 0.48-2.112-1.728-2.72l-5.184-0.096zM22.176 18.176l-1.056 5.056 5.312-0.064c0 0 2.4-0.352 2.688-2.176 0 0 0.48-2.144-1.76-2.752l-5.184-0.064zM3.84 5.664l-1.088 5.056 5.312-0.032c0 0 2.4-0.352 2.688-2.208 0 0 0.48-2.112-1.76-2.72l-5.152-0.096zM2.464 13.376l-1.088 5.024 5.312-0.032c0 0 2.4-0.352 2.688-2.176 0 0 0.48-2.144-1.728-2.752l-5.184-0.064zM14.176 5.696l-1.056 5.056 5.28-0.032c0 0 2.4-0.352 2.72-2.208 0 0 0.448-2.112-1.76-2.72l-5.184-0.096zM12.8 13.408l-1.056 5.056 5.312-0.064c0 0 2.368-0.352 2.688-2.176 0 0 0.48-2.144-1.76-2.752l-5.184-0.064zM11.328 21.28l-1.056 5.056 5.28-0.064c0 0 2.4-0.32 2.72-2.176 0 0 0.448-2.144-1.76-2.752l-5.184-0.064z"></path>
</svg>
