<!-- Generated by IcoMoon.io -->
<svg version="1.1" xmlns="http://www.w3.org/2000/svg" width="27" height="32" viewBox="0 0 27 32">
<title>bluetooth</title>
<path d="M15.008 18.784l2.656 2.656-2.656 2.656zM15.008 7.904l2.656 2.656-2.656 2.624v-5.28zM12.672 29.76l8.288-8.288-5.472-5.472 5.472-5.472-8.288-8.288v10.912l-4.544-4.544-1.664 1.664 5.728 5.728-5.728 5.728 1.664 1.664 4.544-4.544v10.912zM25.504 16c0 12.672-4.8 16-11.776 16v0c-7.008 0-11.808-3.328-11.808-16s4.8-16 11.808-16 11.776 3.328 11.776 16z"></path>
</svg>
