<!-- Generated by IcoMoon.io -->
<svg version="1.1" xmlns="http://www.w3.org/2000/svg" width="32" height="32" viewBox="0 0 32 32">
<title>cast</title>
<path d="M1.312 13.312c8.064 0 14.688 6.56 14.688 14.688h-2.688c0-6.624-5.376-12-12-12v-2.688zM1.312 18.688c5.184 0 9.376 4.128 9.376 9.312h-2.688c0-3.68-3.008-6.688-6.688-6.688v-2.624zM1.312 24c2.176 0 4 1.824 4 4h-4v-4zM28 4c1.44 0 2.688 1.248 2.688 2.688v18.624c0 1.44-1.248 2.688-2.688 2.688h-9.312v-2.688h9.312v-18.624h-24v4h-2.688v-4c0-1.44 1.248-2.688 2.688-2.688h24z"></path>
</svg>
