<!-- Generated by IcoMoon.io -->
<svg version="1.1" xmlns="http://www.w3.org/2000/svg" width="41" height="32" viewBox="0 0 41 32">
<title>cc-amex</title>
<path d="M2.112 12.16h1.6l-0.8-1.92zM13.216 21.568l1.312-1.408-1.248-1.408h-2.912v0.864h2.56v0.992h-2.56v0.96h2.848zM16.032 20.16l1.76 1.984v-3.872zM21.184 19.328c0-0.416-0.32-0.576-0.704-0.576h-1.504v1.216h1.472c0.416 0 0.736-0.192 0.736-0.64zM26.336 19.264c0-0.448-0.384-0.512-0.736-0.512h-1.472v1.088h1.44c0.384 0 0.768-0.096 0.768-0.576zM21.376 10.944c0-0.448-0.384-0.512-0.736-0.512h-1.472v1.056h1.44c0.384 0 0.768-0.096 0.768-0.544zM29.568 12.16h1.6l-0.8-1.92zM12.48 9.408v4.832h-1.184v-3.776l-1.664 3.776h-1.024l-1.664-3.776v3.776h-2.368l-0.448-1.056h-2.4l-0.448 1.056h-1.248l2.048-4.832h1.728l1.952 4.576v-4.576h1.888l1.536 3.296 1.376-3.296h1.92zM22.4 19.328c0 1.952-2.112 1.632-3.424 1.632v1.632h-2.272l-1.408-1.6-1.504 1.6h-4.544v-4.832h4.64l1.408 1.568 1.472-1.568h3.712c1.088 0 1.92 0.352 1.92 1.568zM17.216 13.248v0.992h-3.872v-4.832h3.872v1.024h-2.72v0.864h2.656v0.992h-2.656v0.96h2.72zM41.152 23.232v4.096c0 1.312-1.056 2.4-2.368 2.4h-36.416c-1.312 0-2.368-1.088-2.368-2.4v-12.128h1.984l0.448-1.088h0.992l0.448 1.088h3.872v-0.8l0.352 0.8h2.016l0.352-0.832v0.832h9.664v-1.76h0.192c0.16 0 0.16 0.096 0.16 0.224v1.536h4.992v-0.416c1.152 0.608 2.752 0.416 3.968 0.416l0.448-1.088h0.992l0.448 1.088h4.064v-1.024l0.576 1.024h3.264v-6.752h-3.2v0.8l-0.448-0.8h-3.328v0.8l-0.384-0.8h-4.448c-0.672 0-1.376 0.096-1.952 0.416v-0.416h-3.072v0.416c-0.352-0.32-0.832-0.416-1.312-0.416h-11.2l-0.768 1.76-0.768-1.76h-3.552v0.8l-0.384-0.8h-3.008l-1.408 3.2v-6.976c0-1.312 1.056-2.4 2.368-2.4h36.416c1.312 0 2.368 1.088 2.368 2.4v12.096h-2.144c-0.512 0-1.056 0.096-1.44 0.416v-0.416h-3.168c-0.448 0-1.056 0.096-1.408 0.416v-0.416h-5.632v0.416c-0.416-0.32-1.056-0.416-1.568-0.416h-3.712v0.416c-0.384-0.352-1.152-0.416-1.632-0.416h-4.192l-0.96 1.056-0.896-1.056h-6.208v6.752h6.112l0.992-1.056 0.928 1.056h3.744v-1.568h0.384c0.544 0 1.088-0.032 1.6-0.256v1.824h3.136v-1.76h0.128c0.192 0 0.224 0.032 0.224 0.224v1.536h9.44c0.512 0 1.152-0.096 1.568-0.416v0.416h3.008c0.576 0 1.184-0.032 1.696-0.288zM27.616 19.040c0 0.544-0.288 1.088-0.832 1.28 0.64 0.256 0.768 0.672 0.768 1.312v0.96h-1.152v-0.8c0-0.832-0.288-0.96-1.056-0.96h-1.216v1.76h-1.152v-4.832h2.752c0.896 0 1.888 0.16 1.888 1.28zM22.656 10.72c0 0.544-0.288 1.088-0.8 1.28 0.64 0.256 0.768 0.672 0.768 1.312v0.928h-1.184c0-1.024 0.256-1.728-1.024-1.728h-1.248v1.728h-1.152v-4.832l2.72 0.032c0.96 0 1.92 0.128 1.92 1.28zM32.096 21.6v0.992h-3.84v-4.832h3.84v0.992h-2.688v0.864h2.656v0.992h-2.656v0.96zM24.512 9.408v4.832h-1.184v-4.832h1.184zM36.864 21.056c0 1.152-0.768 1.536-1.824 1.536h-2.24v-1.056h2.24c0.288 0 0.608-0.064 0.608-0.448 0-1.024-2.976 0.416-2.976-1.888 0-0.992 0.768-1.44 1.664-1.44h2.304v0.992h-2.112c-0.32 0-0.64 0.064-0.64 0.448 0 1.056 2.976-0.48 2.976 1.856zM41.152 20.16v1.792c-0.352 0.512-0.992 0.64-1.568 0.64h-2.24v-1.056h2.24c0.288 0 0.576-0.064 0.576-0.448 0-0.992-2.976 0.416-2.976-1.888 0-0.992 0.768-1.44 1.664-1.44h2.304v0.992h-2.112c-0.32 0-0.64 0.064-0.64 0.448 0 0.864 2.016 0 2.752 0.96zM38.208 9.44v4.8h-1.664l-2.176-3.616v3.616h-2.336l-0.48-1.056h-2.4l-0.448 1.056h-1.312c-1.6 0-2.304-0.8-2.304-2.368 0-1.632 0.704-2.464 2.368-2.464h1.12v1.056c-1.216-0.032-2.336-0.288-2.336 1.376 0 0.832 0.224 1.376 1.152 1.376h0.512l1.632-3.776h1.728l1.952 4.544v-4.544h1.76l2.048 3.328v-3.328h1.184z"></path>
</svg>
