<!-- Generated by IcoMoon.io -->
<svg version="1.1" xmlns="http://www.w3.org/2000/svg" width="41" height="32" viewBox="0 0 41 32">
<title>cc-diners-club</title>
<path d="M15.328 22.144v-12.352c-2.496 0.96-4.256 3.36-4.256 6.176s1.76 5.248 4.256 6.176zM24.32 15.968c0-2.816-1.76-5.216-4.256-6.176v12.384c2.496-0.96 4.256-3.392 4.256-6.208zM28.16 15.968c0 5.792-4.672 10.464-10.464 10.464-5.76 0-10.464-4.672-10.464-10.464 0-5.76 4.704-10.464 10.464-10.464 5.792 0 10.464 4.704 10.464 10.464zM35.008 16.096c0-6.816-5.696-11.52-11.968-11.52h-5.344c-6.336 0-11.552 4.704-11.552 11.52 0 6.24 5.216 11.328 11.552 11.328h5.344c6.272 0 11.968-5.088 11.968-11.328zM41.152 4.576v22.848c0 1.248-1.056 2.304-2.304 2.304h-36.576c-1.248 0-2.272-1.056-2.272-2.304v-22.848c0-1.248 1.024-2.304 2.272-2.304h36.576c1.248 0 2.304 1.056 2.304 2.304z"></path>
</svg>
