<!-- Generated by IcoMoon.io -->
<svg version="1.1" xmlns="http://www.w3.org/2000/svg" width="41" height="32" viewBox="0 0 41 32">
<title>cc-discover</title>
<path d="M5.6 13.856c0 0.576-0.256 1.152-0.64 1.504-0.384 0.32-0.864 0.48-1.6 0.48h-0.32v-3.936h0.32c0.736 0 1.216 0.128 1.6 0.48s0.64 0.928 0.64 1.472zM37.312 12.704c0 0.608-0.384 0.928-1.152 0.928h-0.352v-1.792h0.384c0.736 0 1.12 0.288 1.12 0.864zM6.784 13.856c0-1.728-1.312-2.976-3.2-2.976h-1.696v5.952h1.696c0.896 0 1.568-0.192 2.144-0.672 0.672-0.576 1.056-1.408 1.056-2.304zM7.328 16.832h1.152v-5.952h-1.152v5.952zM13.024 15.040c0-0.96-0.384-1.376-1.696-1.856-0.704-0.256-0.896-0.448-0.896-0.768 0-0.352 0.352-0.64 0.864-0.64 0.352 0 0.64 0.128 0.928 0.48l0.608-0.8c-0.48-0.448-1.088-0.672-1.728-0.672-1.056 0-1.856 0.736-1.856 1.728 0 0.8 0.352 1.248 1.44 1.632 0.448 0.16 0.704 0.256 0.8 0.32 0.256 0.16 0.352 0.384 0.352 0.608 0 0.48-0.384 0.864-0.896 0.864-0.544 0-0.992-0.288-1.248-0.8l-0.768 0.704c0.544 0.8 1.184 1.152 2.048 1.152 1.216 0 2.048-0.8 2.048-1.952zM18.016 16.64v-1.376c-0.48 0.48-0.896 0.672-1.408 0.672-1.184 0-1.984-0.864-1.984-2.080 0-1.12 0.832-2.048 1.92-2.048 0.576 0 0.96 0.192 1.472 0.704v-1.376c-0.512-0.256-0.928-0.384-1.44-0.384-1.76 0-3.168 1.376-3.168 3.104 0 1.76 1.376 3.136 3.136 3.136 0.512 0 0.928-0.096 1.472-0.352zM40 27.424v-9.408c-2.848 1.792-12.896 7.488-29.152 10.56h28c0.64 0 1.152-0.512 1.152-1.152zM24.8 13.92c0-1.792-1.44-3.232-3.232-3.232s-3.232 1.44-3.232 3.232 1.44 3.232 3.232 3.232 3.232-1.472 3.232-3.232zM27.52 16.992l2.56-6.112h-1.248l-1.632 4-1.568-4h-1.28l2.528 6.112h0.64zM30.624 16.832h3.264v-0.992h-2.112v-1.6h2.048v-1.024h-2.048v-1.312h2.112v-1.024h-3.264v5.952zM37.6 16.832h1.408l-1.856-2.496c0.864-0.192 1.344-0.768 1.344-1.664 0-1.152-0.768-1.792-2.112-1.792h-1.728v5.952h1.152v-2.368h0.16zM41.152 4.672v22.656c0 1.312-1.056 2.4-2.368 2.4h-36.416c-1.312 0-2.368-1.088-2.368-2.4v-22.656c0-1.312 1.056-2.4 2.368-2.4h36.416c1.312 0 2.368 1.088 2.368 2.4z"></path>
</svg>
