<!-- Generated by IcoMoon.io -->
<svg version="1.1" xmlns="http://www.w3.org/2000/svg" width="41" height="32" viewBox="0 0 41 32">
<title>cc-jcb</title>
<path d="M34.848 17.824c0 0.64-0.448 1.088-0.96 1.216-0.096 0-0.256 0.032-0.32 0.032h-2.752v-2.496h2.752c0.064 0 0.224 0 0.32 0.032 0.512 0.096 0.96 0.576 0.96 1.216zM34.528 14.016c0 0.608-0.448 1.024-0.96 1.12-0.064 0.032-0.16 0.032-0.256 0.032h-2.496v-2.304h2.496c0.096 0 0.192 0 0.256 0 0.512 0.096 0.96 0.512 0.96 1.152zM12.992 16.928v-5.472h-4.064v5.472c0 1.344-0.896 2.368-2.56 2.368-1.376 0-2.752-0.416-4.096-1.056v1.984c2.144 0.608 4.864 0.608 4.864 0.608 4.544 0 5.856-1.76 5.856-3.904zM25.76 20.224v-2.016c-0.928 0.48-2.112 0.96-3.584 1.056-2.56 0.192-4.096-1.056-4.096-3.264s1.536-3.456 4.096-3.264c1.472 0.096 2.624 0.544 3.584 1.024v-1.984c-1.92-0.48-3.712-0.576-3.712-0.576-6.304-0.288-8.096 2.208-8.096 4.8s1.792 5.056 8.096 4.768c0 0 1.792-0.064 3.712-0.544zM38.848 18.176c0-1.312-1.152-2.176-2.688-2.272v-0.064c1.376-0.192 2.144-1.12 2.144-2.176 0-1.344-1.12-2.144-2.656-2.208-0.096 0-0.288 0-0.448 0h-8.128v9.088h8.768c1.728 0 3.008-0.928 3.008-2.368zM41.152 4.576v22.848c0 1.248-1.056 2.304-2.304 2.304h-36.576c-1.248 0-2.272-1.056-2.272-2.304v-22.848c0-1.248 1.024-2.304 2.272-2.304h36.576c1.248 0 2.304 1.056 2.304 2.304z"></path>
</svg>
