<!-- Generated by IcoMoon.io -->
<svg version="1.1" xmlns="http://www.w3.org/2000/svg" width="41" height="32" viewBox="0 0 41 32">
<title>cc-mastercard</title>
<path d="M19.968 6.080c-1.472-0.992-3.232-1.504-4.992-1.504-5.024 0-9.088 4.064-9.088 9.056 0 5.024 4.064 9.088 9.088 9.088 1.76 0 3.52-0.512 4.992-1.504-4.768-3.904-4.736-11.232 0-15.136zM20.576 6.528c-4.608 3.616-4.64 10.656 0 14.24 4.608-3.584 4.608-10.624 0-14.24zM21.152 6.080c4.736 3.904 4.8 11.264 0 15.136 1.504 0.992 3.264 1.504 5.024 1.504 5.024 0 9.088-4.064 9.088-9.088 0-4.992-4.064-9.056-9.088-9.056-1.792 0-3.52 0.512-5.024 1.504zM34.4 18.976h0.128v-0.064h-0.32v0.064h0.128v0.32h0.064v-0.32zM34.912 19.296h0.064v-0.384h-0.096l-0.096 0.256-0.096-0.256h-0.096v0.384h0.064v-0.288l0.096 0.224h0.064l0.096-0.224v0.288zM34.784 27.136v0.032h-0.096v-0.032h0.096zM34.784 27.296h0.032l-0.064-0.096c0.032 0 0.032 0 0.064 0 0-0.032 0-0.032 0-0.064s0-0.032 0-0.032c-0.032 0-0.032-0.032-0.096-0.032h-0.096v0.224h0.064v-0.096zM12.224 26.080c0-0.416 0.288-0.768 0.736-0.768s0.736 0.352 0.736 0.768c0 0.448-0.288 0.768-0.736 0.768s-0.736-0.32-0.736-0.768zM20.672 25.312c0.352 0 0.576 0.192 0.64 0.544h-1.248c0.032-0.32 0.256-0.544 0.608-0.544zM27.040 26.080c0-0.416 0.256-0.768 0.704-0.768s0.736 0.352 0.736 0.768c0 0.448-0.288 0.768-0.736 0.768s-0.704-0.32-0.704-0.768zM31.904 26.080c0-0.416 0.288-0.768 0.736-0.768 0.416 0 0.704 0.352 0.704 0.768 0 0.448-0.288 0.768-0.704 0.768-0.448 0-0.736-0.32-0.736-0.768zM34.72 27.36c-0.032 0-0.032 0-0.064 0s-0.032-0.032-0.064-0.032-0.032-0.032-0.032-0.064-0.032-0.064-0.032-0.064 0-0.064 0.032-0.064c0-0.032 0-0.064 0.032-0.096s0.032 0 0.064-0.032 0.032 0 0.064 0 0.064 0 0.064 0 0.064 0.032 0.064 0.032 0.032 0.064 0.032 0.096c0 0 0.032 0.032 0.032 0.064 0 0-0.032 0.032-0.032 0.064s0 0.032-0.032 0.064-0.032 0.032-0.064 0.032c0 0-0.032 0-0.064 0zM10.688 27.296h0.544v-1.504c0-0.576-0.384-0.96-0.96-0.96-0.32 0-0.64 0.064-0.832 0.416-0.16-0.256-0.448-0.416-0.8-0.416-0.256 0-0.512 0.064-0.704 0.352v-0.288h-0.544v2.4h0.544v-1.344c0-0.416 0.224-0.64 0.576-0.64s0.544 0.224 0.544 0.64v1.344h0.512v-1.344c0-0.416 0.256-0.64 0.608-0.64s0.512 0.224 0.512 0.64v1.344zM13.664 27.296h0.512v-2.4h-0.512v0.288c-0.192-0.224-0.416-0.352-0.768-0.352-0.672 0-1.184 0.512-1.184 1.248s0.512 1.28 1.184 1.28c0.352 0 0.576-0.128 0.768-0.352v0.288zM16.832 26.56c0-0.416-0.32-0.64-0.832-0.704l-0.256-0.032c-0.224-0.032-0.416-0.096-0.416-0.256s0.16-0.256 0.448-0.256c0.32 0 0.608 0.096 0.768 0.192l0.224-0.448c-0.256-0.16-0.576-0.224-0.992-0.224-0.608 0-0.992 0.288-0.992 0.768 0 0.384 0.288 0.64 0.832 0.704l0.256 0.032c0.288 0.064 0.416 0.128 0.416 0.256 0 0.192-0.192 0.288-0.544 0.288s-0.64-0.128-0.8-0.256l-0.256 0.416c0.288 0.224 0.64 0.32 1.056 0.32 0.672 0 1.088-0.32 1.088-0.8zM19.168 27.168l-0.16-0.448c-0.16 0.096-0.32 0.128-0.448 0.128-0.288 0-0.352-0.16-0.352-0.384v-1.088h0.864v-0.48h-0.864v-0.736h-0.512v0.736h-0.512v0.48h0.512v1.088c0 0.544 0.192 0.896 0.832 0.896 0.192 0 0.48-0.064 0.64-0.192zM20.704 24.832c-0.704 0-1.216 0.512-1.216 1.248 0 0.768 0.544 1.28 1.248 1.28 0.352 0 0.704-0.096 0.992-0.352l-0.256-0.384c-0.192 0.16-0.48 0.256-0.704 0.256-0.352 0-0.64-0.16-0.736-0.576h1.824v-0.224c0-0.736-0.48-1.248-1.152-1.248zM23.552 24.832c-0.32 0-0.512 0.128-0.64 0.352v-0.288h-0.544v2.4h0.544v-1.344c0-0.416 0.16-0.64 0.512-0.64 0.128 0 0.224 0.032 0.32 0.064l0.16-0.48c-0.128-0.064-0.256-0.064-0.352-0.064zM24.064 26.080c0 0.736 0.512 1.28 1.28 1.28 0.384 0 0.608-0.064 0.864-0.288l-0.256-0.448c-0.192 0.16-0.384 0.256-0.608 0.224-0.416 0-0.736-0.288-0.736-0.768s0.32-0.768 0.736-0.768c0.224 0 0.416 0.064 0.608 0.224l0.256-0.448c-0.256-0.192-0.48-0.256-0.864-0.256-0.768 0-1.28 0.512-1.28 1.248zM28.448 27.296h0.544v-2.4h-0.544v0.288c-0.16-0.224-0.416-0.352-0.736-0.352-0.704 0-1.216 0.512-1.216 1.248s0.512 1.28 1.216 1.28c0.32 0 0.576-0.128 0.736-0.352v0.288zM30.816 24.832c-0.288 0-0.48 0.128-0.608 0.352v-0.288h-0.512v2.4h0.512v-1.344c0-0.416 0.16-0.64 0.512-0.64 0.096 0 0.224 0.032 0.32 0.064l0.16-0.48c-0.096-0.064-0.256-0.064-0.384-0.064zM33.312 27.296h0.544v-3.392h-0.544v1.28c-0.16-0.224-0.384-0.352-0.768-0.352-0.64 0-1.184 0.512-1.184 1.248s0.544 1.28 1.184 1.28c0.384 0 0.608-0.128 0.768-0.352v0.288zM34.72 26.944c-0.032 0-0.064 0.032-0.096 0.032s-0.064 0.032-0.064 0.032-0.064 0.064-0.064 0.096c0 0.032 0 0.064 0 0.096 0 0 0 0.064 0 0.096 0 0 0.032 0.032 0.064 0.064 0 0 0.032 0.032 0.064 0.064s0.064 0 0.096 0c0.032 0 0.064 0 0.096 0 0.032-0.032 0.064-0.064 0.064-0.064s0.064-0.064 0.064-0.064c0.032-0.032 0.032-0.096 0.032-0.096 0-0.032 0-0.064-0.032-0.096 0-0.032-0.032-0.064-0.064-0.096s-0.032-0.032-0.064-0.032-0.064-0.032-0.096-0.032zM41.152 4.576v22.848c0 1.248-1.056 2.304-2.304 2.304h-36.576c-1.248 0-2.272-1.056-2.272-2.304v-22.848c0-1.248 1.024-2.304 2.272-2.304h36.576c1.248 0 2.304 1.056 2.304 2.304z"></path>
</svg>
