<!-- Generated by IcoMoon.io -->
<svg version="1.1" xmlns="http://www.w3.org/2000/svg" width="41" height="32" viewBox="0 0 41 32">
<title>cc-paypal</title>
<path d="M13.312 16.16c0 0.896-0.704 1.536-1.568 1.536-0.672 0-1.152-0.352-1.152-1.056 0-0.864 0.672-1.568 1.568-1.568 0.64 0 1.152 0.416 1.152 1.088zM27.328 13.504c0 1.088-0.64 1.28-1.568 1.28l-0.576 0.032 0.288-1.92c0.032-0.128 0.128-0.192 0.256-0.192h0.32c0.608 0 1.28 0.032 1.28 0.8zM33.6 16.16c0 0.896-0.704 1.536-1.568 1.536-0.64 0-1.152-0.352-1.152-1.056 0-0.864 0.672-1.568 1.536-1.568 0.672 0 1.184 0.416 1.184 1.088zM9.152 13.12c0-1.504-1.152-1.984-2.464-1.984h-2.88c-0.16 0-0.352 0.128-0.352 0.32l-1.184 7.296c0 0.128 0.096 0.288 0.256 0.288h1.344c0.192 0 0.384-0.16 0.384-0.352l0.32-1.952c0.096-0.512 0.96-0.352 1.312-0.352 2.016 0 3.264-1.216 3.264-3.264zM14.688 18.688l0.736-4.672c0-0.128-0.096-0.256-0.256-0.256h-1.344c-0.256 0-0.288 0.384-0.32 0.576-0.384-0.608-0.992-0.704-1.696-0.704-1.728 0-3.072 1.536-3.072 3.232 0 1.376 0.864 2.304 2.272 2.304 0.64 0 1.44-0.288 1.888-0.8-0.032 0.096-0.064 0.256-0.064 0.384 0 0.16 0.064 0.288 0.224 0.288h1.216c0.224 0 0.384-0.16 0.416-0.352zM22.656 13.984c0-0.128-0.096-0.224-0.224-0.224h-1.376c-0.128 0-0.256 0.064-0.32 0.16l-1.888 2.784-0.8-2.688c-0.032-0.16-0.192-0.256-0.384-0.256h-1.344c-0.128 0-0.224 0.096-0.224 0.224 0 0.096 1.376 4.128 1.504 4.512-0.192 0.256-1.44 1.92-1.44 2.144 0 0.128 0.096 0.224 0.224 0.224h1.376c0.128 0 0.256-0.064 0.32-0.16l4.544-6.592c0.032-0.032 0.032-0.064 0.032-0.128zM29.44 13.12c0-1.504-1.152-1.984-2.464-1.984h-2.848c-0.192 0-0.384 0.128-0.384 0.32l-1.184 7.296c0 0.128 0.096 0.288 0.256 0.288h1.44c0.16 0 0.256-0.128 0.288-0.256l0.32-2.048c0.096-0.512 0.96-0.352 1.312-0.352 2.016 0 3.264-1.216 3.264-3.264zM34.976 18.688l0.736-4.672c0-0.128-0.096-0.256-0.256-0.256h-1.344c-0.256 0-0.288 0.384-0.32 0.576-0.384-0.608-0.992-0.704-1.696-0.704-1.728 0-3.072 1.536-3.072 3.232 0 1.376 0.864 2.304 2.272 2.304 0.64 0 1.44-0.288 1.888-0.8-0.032 0.096-0.064 0.256-0.064 0.384 0 0.16 0.064 0.288 0.224 0.288h1.216c0.224 0 0.384-0.16 0.416-0.352zM38.848 11.392v-0.032c0-0.128-0.096-0.224-0.224-0.224h-1.312c-0.128 0-0.224 0.064-0.224 0.192l-1.184 7.424v0.032c0 0.128 0.096 0.256 0.256 0.256h1.152c0.192 0 0.384-0.16 0.384-0.352zM7.008 13.792c-0.16 0.896-0.768 0.992-1.536 0.992l-0.608 0.032 0.32-1.92c0-0.128 0.128-0.192 0.224-0.192h0.352c0.8 0 1.408 0.128 1.248 1.088zM41.152 4.576v22.848c0 1.248-1.056 2.304-2.304 2.304h-36.576c-1.248 0-2.272-1.056-2.272-2.304v-22.848c0-1.248 1.024-2.304 2.272-2.304h36.576c1.248 0 2.304 1.056 2.304 2.304z"></path>
</svg>
