<!-- Generated by IcoMoon.io -->
<svg version="1.1" xmlns="http://www.w3.org/2000/svg" width="41" height="32" viewBox="0 0 41 32">
<title>cc-stripe</title>
<path d="M28.512 16.128c0 0.8-0.128 1.44-0.352 1.888-0.224 0.384-0.576 0.608-0.96 0.608-0.256 0-0.512-0.032-0.704-0.16v-4c0.448-0.48 0.864-0.512 0.992-0.512 0.704 0 1.024 0.736 1.024 2.176zM36.352 15.488h-1.984c0.096-1.216 0.416-1.76 1.024-1.76s0.928 0.576 0.96 1.76zM8.512 17.888c0-1.504-0.928-2.112-2.4-2.656v0c-0.8-0.288-1.216-0.512-1.216-0.864 0-0.32 0.256-0.48 0.672-0.48 0.832 0 1.632 0.32 2.208 0.576l0.32-1.984c-0.448-0.224-1.376-0.576-2.656-0.576-0.896 0-1.664 0.224-2.176 0.672-0.576 0.48-0.864 1.152-0.864 1.952 0 1.472 0.896 2.112 2.336 2.624 0.96 0.352 1.28 0.576 1.28 0.96 0 0.352-0.32 0.544-0.864 0.544-0.672 0-1.824-0.352-2.528-0.768l-0.352 2.016c0.64 0.352 1.792 0.736 3.008 0.736 0.96 0 1.76-0.224 2.304-0.672 0.608-0.48 0.928-1.184 0.928-2.080zM13.76 14.048l0.352-1.984h-1.728v-2.4l-2.304 0.352-0.32 2.048-0.8 0.16-0.32 1.824h1.12v3.904c0 1.024 0.256 1.728 0.768 2.144 0.448 0.352 1.088 0.544 1.984 0.544 0.704 0 1.12-0.128 1.408-0.192v-2.112c-0.16 0.032-0.512 0.128-0.768 0.128-0.512 0-0.768-0.288-0.768-0.896v-3.52h1.376zM19.424 14.496v-2.496c-0.192-0.032-0.352-0.032-0.512-0.032-0.736 0-1.344 0.384-1.6 1.088l-0.16-0.992h-2.336v8.416h2.656v-5.472c0.352-0.416 0.832-0.544 1.472-0.544 0.16 0 0.288 0 0.48 0.032zM20.064 20.48h2.688v-8.416h-2.688v8.416zM31.168 16.032c0-1.44-0.256-2.528-0.8-3.2-0.48-0.608-1.12-0.928-1.984-0.928-0.768 0-1.44 0.32-2.080 0.992l-0.128-0.832h-2.368v11.52l2.688-0.448v-2.688c0.384 0.128 0.832 0.192 1.216 0.192 0.64 0 1.632-0.192 2.368-0.992s1.088-2.016 1.088-3.616zM22.816 9.824c0-0.8-0.608-1.408-1.408-1.408s-1.408 0.608-1.408 1.408 0.64 1.408 1.408 1.408 1.408-0.64 1.408-1.408zM38.848 16.192c0-1.344-0.288-2.4-0.832-3.136-0.608-0.768-1.472-1.152-2.592-1.152-2.272 0-3.68 1.696-3.68 4.384 0 1.504 0.352 2.656 1.12 3.36 0.64 0.672 1.632 0.992 2.88 0.992 1.12 0 2.176-0.256 2.848-0.704l-0.288-1.856c-0.672 0.352-1.44 0.544-2.272 0.544-0.544 0-0.896-0.096-1.152-0.32s-0.416-0.64-0.48-1.184h4.416c0.032-0.128 0.032-0.736 0.032-0.928zM41.152 4.576v22.848c0 1.248-1.056 2.304-2.304 2.304h-36.576c-1.248 0-2.272-1.056-2.272-2.304v-22.848c0-1.248 1.024-2.304 2.272-2.304h36.576c1.248 0 2.304 1.056 2.304 2.304z"></path>
</svg>
