<!-- Generated by IcoMoon.io -->
<svg version="1.1" xmlns="http://www.w3.org/2000/svg" width="41" height="32" viewBox="0 0 41 32">
<title>cc-visa</title>
<path d="M35.264 17.664h-2.464c0 0 0.256-0.64 1.184-3.2-0.032 0.032 0.256-0.64 0.384-1.088l0.224 0.992c0.544 2.72 0.672 3.296 0.672 3.296zM9.472 16.512l-1.024-5.28c-0.128-0.704-0.704-0.96-1.344-0.96h-4.768l-0.064 0.256c3.296 0.832 5.984 2.624 7.2 5.984zM12.672 10.272l-2.88 7.84-0.32-1.6c-0.608-1.664-2.144-3.2-3.84-3.904l2.4 9.12h3.136l4.64-11.456h-3.136zM15.168 21.76h2.944l1.856-11.488h-2.944zM28.864 10.56c-0.576-0.224-1.504-0.48-2.656-0.48-2.912 0-4.96 1.568-4.992 3.776-0.032 1.664 1.472 2.56 2.592 3.136 1.152 0.544 1.536 0.928 1.536 1.408 0 0.768-0.928 1.12-1.76 1.12-1.216 0-1.856-0.16-2.784-0.608l-0.416-0.192-0.416 2.592c0.704 0.32 1.984 0.608 3.328 0.608 3.104 0 5.12-1.536 5.152-3.936 0-1.28-0.8-2.272-2.496-3.104-1.024-0.512-1.664-0.896-1.664-1.408 0-0.48 0.544-0.992 1.696-0.992 0.96-0.032 1.664 0.192 2.208 0.416l0.288 0.16zM36.48 10.272h-2.304c-0.704 0-1.248 0.224-1.536 0.96l-4.416 10.528h3.104c0.512-1.44 0.64-1.728 0.64-1.728h3.776c0 0 0.096 0.384 0.352 1.728h2.752zM41.152 4.576v22.848c0 1.248-1.056 2.304-2.304 2.304h-36.576c-1.248 0-2.272-1.056-2.272-2.304v-22.848c0-1.248 1.024-2.304 2.272-2.304h36.576c1.248 0 2.304 1.056 2.304 2.304z"></path>
</svg>
