<!-- Generated by IcoMoon.io -->
<svg version="1.1" xmlns="http://www.w3.org/2000/svg" width="34" height="32" viewBox="0 0 34 32">
<title>chrome</title>
<path d="M15.936 0c2.752-0.032 5.536 0.672 8.064 2.144 2.816 1.632 4.928 3.968 6.272 6.624l-13.248-0.672c-3.744-0.224-7.296 1.888-8.544 5.408l-4.928-7.552c3.072-3.84 7.68-5.952 12.384-5.952zM2.624 7.232l6.016 11.84c1.696 3.328 5.28 5.376 8.992 4.672l-4.128 8.064c-7.648-1.184-13.504-7.808-13.504-15.808 0-3.232 0.96-6.24 2.624-8.768zM30.944 10.24c2.784 7.232 0 15.616-6.944 19.616-2.816 1.632-5.888 2.272-8.896 2.112l7.232-11.104c2.048-3.168 2.016-7.296-0.416-10.144zM16 10.592c2.976 0 5.408 2.432 5.408 5.408s-2.432 5.376-5.408 5.376-5.376-2.4-5.376-5.376 2.4-5.408 5.376-5.408z"></path>
</svg>
