<!-- Generated by IcoMoon.io -->
<svg version="1.1" xmlns="http://www.w3.org/2000/svg" width="32" height="32" viewBox="0 0 32 32">
<title>codepen</title>
<path d="M3.872 20.864l10.752 7.2v-6.432l-5.952-3.968zM2.752 18.304l3.456-2.304-3.456-2.304v4.608zM17.376 28.064l10.784-7.2-4.832-3.2-5.952 3.968v6.432zM16 19.232l4.864-3.232-4.864-3.264-4.864 3.264zM8.672 14.336l5.952-3.968v-6.432l-10.752 7.2zM25.792 16l3.456 2.304v-4.608zM23.328 14.336l4.832-3.2-10.784-7.2v6.432zM32 11.136v9.728c0 0.448-0.224 0.896-0.608 1.152l-14.624 9.76c-0.224 0.128-0.512 0.224-0.768 0.224s-0.544-0.096-0.768-0.224l-14.624-9.76c-0.384-0.256-0.608-0.704-0.608-1.152v-9.728c0-0.448 0.224-0.896 0.608-1.152l14.624-9.76c0.224-0.128 0.512-0.224 0.768-0.224s0.544 0.096 0.768 0.224l14.624 9.76c0.384 0.256 0.608 0.704 0.608 1.152z"></path>
</svg>
