<!-- Generated by IcoMoon.io -->
<svg version="1.1" xmlns="http://www.w3.org/2000/svg" width="31" height="32" viewBox="0 0 31 32">
<title>codiepie</title>
<path d="M28.288 23.040l-3.904-1.984c-1.728 2.848-4.832 4.608-8.192 4.608-5.344 0-9.632-4.32-9.632-9.6 0-5.344 4.288-9.632 9.632-9.632 3.104 0 6.048 1.504 7.84 4.096l3.84-2.24c-2.624-4.032-7.072-6.464-11.872-6.464-7.808 0-14.144 6.336-14.144 14.176s6.336 14.176 14.144 14.176c5.088 0 9.76-2.72 12.288-7.136zM18.4 15.936l12.384 6.304c-2.72 5.92-8.16 9.76-14.784 9.76-8.832 0-16-7.168-16-16s7.168-16 16-16c6.272 0 11.456 3.456 14.4 8.928zM27.552 16h-0.704v2.848h-1.696v-6.272h2.432c1.984 0 2.144 3.424-0.032 3.424z"></path>
</svg>
