<!-- Generated by IcoMoon.io -->
<svg version="1.1" xmlns="http://www.w3.org/2000/svg" width="37" height="32" viewBox="0 0 37 32">
<title>connectdevelop</title>
<path d="M36.576 15.968c0 0.512-0.352 0.928-0.832 1.024l-3.648 6.336c0.032 0.128 0.064 0.224 0.064 0.32 0 0.48-0.352 0.896-0.832 0.992l-3.424 6.016c0.032 0.096 0.032 0.192 0.032 0.288 0 0.544-0.448 1.024-0.992 1.024-0.288 0-0.576-0.128-0.736-0.32h-7.168c-0.16 0.224-0.448 0.352-0.768 0.352s-0.576-0.128-0.768-0.352h-7.104c-0.192 0.224-0.448 0.352-0.768 0.352-0.544 0-1.024-0.448-1.024-1.024 0-0.128 0.032-0.256 0.064-0.352l-3.424-5.984c-0.48-0.096-0.832-0.512-0.832-0.992 0-0.128 0.032-0.192 0.064-0.32l-3.68-6.336c-0.448-0.128-0.8-0.544-0.8-1.024s0.352-0.896 0.832-0.992l3.552-6.144c0-0.032 0-0.064 0-0.096 0-0.416 0.256-0.768 0.608-0.928l3.712-6.464c-0.032-0.096-0.064-0.224-0.064-0.32 0-0.576 0.48-1.024 1.024-1.024 0.32 0 0.576 0.128 0.8 0.384h7.040c0.192-0.256 0.448-0.384 0.768-0.384s0.608 0.128 0.768 0.384h7.136c0.192-0.256 0.448-0.384 0.768-0.384 0.544 0 1.024 0.448 1.024 1.024 0 0.096-0.032 0.192-0.064 0.32l3.68 6.4c0.544 0 0.992 0.448 0.992 0.992 0 0.16-0.064 0.32-0.128 0.48l3.328 5.792c0.448 0.064 0.8 0.48 0.8 0.96zM18.976 30.24h6.944l-6.112-6.304h-2.528l-6.112 6.304h6.432c0.16-0.16 0.416-0.288 0.672-0.288s0.544 0.128 0.704 0.288zM2.016 15.744c0 0.064 0 0.16 0 0.224s0 0.192-0.032 0.288l3.712 6.432c0.096 0 0.192 0.064 0.256 0.096l3.36-3.552v-6.208l-3.328-3.456c-0.16 0.096-0.352 0.16-0.512 0.192zM17.6 1.76h-6.912l3.392 3.552 9.888-3.552h-4.992c-0.192 0.16-0.416 0.256-0.704 0.256s-0.48-0.096-0.672-0.256zM30.176 23.392c0-0.064 0.032-0.16 0.064-0.192l-1.12-1.216-0.32 1.408h1.376zM28.256 23.392l0.416-1.888-4.512-4.736-5.28 5.472 1.12 1.152h8.256zM26.688 29.952l0.288-0.48 1.184-5.536h-7.648l5.952 6.112c0.064-0.032 0.16-0.064 0.224-0.096zM10.336 30.24h0.064l6.112-6.304h-6.656v5.984l0.064 0.096c0.16 0.064 0.288 0.128 0.416 0.224zM9.856 23.392h7.168l1.152-1.184-5.504-5.728-2.816 2.976v3.936zM6.4 23.392h2.912v-3.392l-2.976 3.168c0.032 0.064 0.064 0.16 0.064 0.224zM6.4 8.672c0 0 0 0.032 0 0.064 0 0.192-0.032 0.352-0.128 0.512l3.040 3.168v-4.8zM9.856 7.392v5.568l2.72 2.816 5.312-5.632-3.968-4.192zM9.92 1.984l-0.064 0.128v4.736l3.648-1.344-3.392-3.584c-0.064 0.032-0.096 0.032-0.192 0.064zM25.856 1.76h-0.288l-11.104 4 3.808 4zM18.272 10.528l-5.312 5.632 5.568 5.696 5.28-5.472zM12.288 16.096l-2.432-2.496v5.056zM18.528 22.592l-0.736 0.8h1.504zM24.544 16.384l4.256 4.48 2.336-11.136-0.032-0.096h-0.032zM30.688 9.248c-0.096-0.16-0.16-0.32-0.16-0.512v-0.032l-3.84-6.72c-0.096-0.032-0.16-0.064-0.224-0.096l-7.808 8.256 5.536 5.856zM9.312 7.040v-4l-2.912 5.056zM9.312 23.936h-2.912l2.912 5.056v-5.056zM28.704 23.936l-0.864 4.032 2.336-4.032h-1.472zM30.88 22.688l3.68-6.464c0-0.096-0.032-0.16-0.032-0.256s0.032-0.192 0.064-0.288l-3.040-5.28-2.304 10.944 1.376 1.44c0.064-0.032 0.16-0.064 0.256-0.096z"></path>
</svg>
