<!-- Generated by IcoMoon.io -->
<svg version="1.1" xmlns="http://www.w3.org/2000/svg" width="32" height="32" viewBox="0 0 32 32">
<title>contao</title>
<path d="M2.464 2.272h3.52c-0.832 0.768-1.6 1.664-2.24 2.656-2.784 4.288-1.664 8.96-0.576 13.984 0.864 4.096 1.6 8 4.16 10.816h-4.864c-1.152 0-2.080-0.928-2.080-2.080v-23.296c0-1.152 0.928-2.080 2.080-2.080zM24.032 2.272h5.504c1.152 0 2.080 0.928 2.080 2.080v23.296c0 1.152-0.928 2.080-2.080 2.080h-3.168c2.336-2.368 3.68-5.76 3.488-10.112l-8.384 1.824c-0.096 1.952-0.768 3.872-3.488 4.448-1.504 0.32-2.784-0.032-3.552-0.704-0.96-0.832-1.728-1.888-3.008-8-1.312-6.144-1.056-7.424-0.512-8.576 0.448-0.928 1.44-1.76 2.944-2.080 2.72-0.576 4.128 0.896 5.024 2.656l8.384-1.792c-0.832-2.080-1.92-3.808-3.232-5.12z"></path>
</svg>
