<!-- Generated by IcoMoon.io -->
<svg version="1.1" xmlns="http://www.w3.org/2000/svg" width="32" height="32" viewBox="0 0 32 32">
<title>creative-cloud</title>
<path d="M20.16 4.8c-3.136 0-5.984 1.312-8.032 3.392-0.608-0.128-1.248-0.192-1.888-0.192-5.312 0-9.6 4.288-9.6 9.6s4.288 9.6 9.6 9.6h9.92c6.176 0 11.2-5.024 11.2-11.2s-5.024-11.2-11.2-11.2zM10.24 25.152c-2.016 0-3.904-0.768-5.344-2.208s-2.208-3.328-2.208-5.344 0.768-3.936 2.208-5.344c1.44-1.44 3.328-2.24 5.344-2.24s3.936 0.8 5.344 2.24l3.008 2.976c0.448 0.448 0.448 1.152 0 1.6s-1.152 0.448-1.6 0l-2.976-3.008c-2.016-2.016-5.536-2.016-7.552 0-0.992 1.024-1.536 2.336-1.536 3.776s0.544 2.752 1.536 3.776c1.28 1.248 3.104 1.696 4.8 1.408 0.512 0.672 1.088 1.312 1.76 1.856-0.864 0.32-1.824 0.512-2.784 0.512zM26.72 22.528c-1.76 1.76-4.096 2.72-6.56 2.72s-4.8-0.96-6.528-2.72l-4.352-4.32c-0.448-0.448-0.448-1.152 0-1.6s1.152-0.416 1.6 0l4.32 4.352c1.312 1.312 3.104 2.048 4.96 2.048s3.648-0.736 4.96-2.048 2.048-3.104 2.048-4.96-0.736-3.648-2.048-4.96-3.072-2.048-4.96-2.048c-1.408 0-2.72 0.384-3.872 1.152-0.608-0.48-1.28-0.896-1.984-1.248 1.632-1.376 3.68-2.144 5.856-2.144 2.464 0 4.8 0.96 6.56 2.688 1.728 1.76 2.688 4.096 2.688 6.56s-0.96 4.8-2.688 6.528z"></path>
</svg>
