<!-- Generated by IcoMoon.io -->
<svg version="1.1" xmlns="http://www.w3.org/2000/svg" width="27" height="32" viewBox="0 0 27 32">
<title>dribbble</title>
<path d="M18.272 26.784c-0.16-1.024-0.832-4.608-2.496-8.896 0 0-0.032 0.032-0.064 0.032 0 0-6.944 2.4-9.184 7.296-0.128-0.064-0.288-0.192-0.288-0.192 2.048 1.664 4.64 2.688 7.488 2.688 1.6 0 3.136-0.352 4.544-0.928zM14.976 15.936c-0.288-0.64-0.608-1.312-0.928-1.984-6.048 1.824-11.84 1.664-12.032 1.664 0 0.128 0 0.256 0 0.384 0 3.008 1.12 5.76 2.976 7.808v0c3.2-5.696 9.536-7.712 9.536-7.712 0.16-0.064 0.32-0.096 0.448-0.16zM13.088 12.16c-2.048-3.616-4.224-6.528-4.384-6.752-3.264 1.536-5.696 4.544-6.464 8.192 0.32 0 5.216 0.032 10.848-1.44zM25.28 17.856c-0.256-0.064-3.52-1.12-7.296-0.512 1.536 4.224 2.176 7.68 2.272 8.352 2.624-1.76 4.48-4.576 5.024-7.84zM10.912 4.608c-0.032 0-0.032 0-0.032 0.032 0 0 0-0.032 0.032-0.032zM21.44 7.2c-2.048-1.824-4.768-2.912-7.712-2.912-0.96 0-1.888 0.128-2.784 0.32 0.192 0.256 2.4 3.168 4.384 6.848 4.416-1.664 6.080-4.192 6.112-4.256zM25.44 15.872c-0.032-2.784-1.024-5.312-2.656-7.328-0.064 0.032-1.92 2.752-6.56 4.64 0.288 0.576 0.544 1.12 0.8 1.696 0.096 0.192 0.16 0.416 0.256 0.608 4.032-0.512 8 0.352 8.16 0.384zM27.424 16c0 7.552-6.144 13.728-13.696 13.728s-13.728-6.176-13.728-13.728 6.144-13.728 13.728-13.728 13.696 6.144 13.696 13.728z"></path>
</svg>
