<!-- Generated by IcoMoon.io -->
<svg version="1.1" xmlns="http://www.w3.org/2000/svg" width="27" height="32" viewBox="0 0 27 32">
<title>drupal</title>
<path d="M20.832 28.32c-0.032-0.128-0.128-0.288-0.416-0.096-0.608 0.448-1.952 0.992-3.904 0.992s-2.816-0.384-3.424-0.864c-0.096-0.064-0.064-0.064-0.256-0.064s-0.288 0.096-0.448 0.224c-0.16 0.128-0.224 0.416 0 0.64 1.312 1.216 3.52 1.088 5.152 0.96 1.632-0.16 3.040-1.12 3.168-1.28 0.224-0.192 0.16-0.384 0.128-0.512zM20.16 26.272c-0.128-0.32-0.352-0.832-0.704-1.088s-0.896-0.288-1.376-0.288-0.736-0.032-1.248 0.192-1.056 0.704-1.408 0.992-0.384 0.544-0.224 0.8c0.192 0.224 0.384 0.096 0.896-0.352 0.512-0.416 0.864-0.768 1.92-0.768s1.216 0.384 1.44 0.768 0.224 0.448 0.448 0.352c0.256-0.128 0.352-0.32 0.256-0.608zM26.496 21.248c0-0.928-0.416-2.496-1.952-2.496-1.408 0-4.32 2.944-5.824 2.976-1.76 0.032-4.224-3.488-7.744-3.456-2.784 0-4.992 2.24-5.024 4.576-0.032 1.312 0.416 2.304 1.312 2.944 0.608 0.416 1.152 0.64 2.976 0.64 3.008 0 6.784-3.712 8.544-3.648 1.408 0.064 3.552 3.456 4.64 3.52 0.864 0.096 1.312-0.32 2.048-1.376 0.704-1.056 1.024-2.72 1.024-3.68zM27.424 18.4c0 8-6.304 13.28-13.568 13.28-7.296 0-13.856-5.728-13.856-13.536 0-7.776 6.080-11.392 7.2-12 1.344-0.704 2.304-1.088 3.808-2.304 0.768-0.576 1.376-1.44 1.568-3.52 1.12 1.312 2.4 2.816 3.328 3.456 1.536 0.992 3.040 1.376 4.64 2.368 0.96 0.608 6.88 4.224 6.88 12.256z"></path>
</svg>
