<!-- Generated by IcoMoon.io -->
<svg version="1.1" xmlns="http://www.w3.org/2000/svg" width="32" height="32" viewBox="0 0 32 32">
<title>eclipse</title>
<path d="M2.624 16.416c-0.224-7.488 5.408-14.112 12.704-15.328-5.76 0.096-10.304 2.464-13.184 7.456-3.040 5.312-2.848 10.72 0.544 15.776 2.976 4.48 7.36 6.528 12.704 6.592-7.52-1.312-12.608-7.776-12.768-14.496zM4.128 11.456c-0.16 0.416-0.16 0.416 0.288 0.416h27.072c-0.032-0.064-0.032-0.096-0.16-0.384-1.056-3.2-3.072-5.664-5.856-7.52-3.168-2.112-6.656-2.688-10.336-2.016-5.472 1.024-9.056 4.352-11.008 9.504zM3.84 13.504c-0.192-0.032-0.224 0.064-0.256 0.224-0.064 0.416-0.096 0.832-0.128 1.248 0 0.16 0.032 0.224 0.192 0.224h28.128c0.224 0 0.224-0.096 0.224-0.256-0.032-0.384-0.128-0.768-0.128-1.152 0-0.256-0.128-0.288-0.352-0.288h-27.68zM31.776 16.8c-1.44 0-28.128 0-28.128 0-0.16 0-0.192 0.032-0.192 0.224 0.032 0.416 0.064 0.832 0.128 1.28 0.032 0.128 0.064 0.192 0.224 0.192h27.84c0.128 0 0.192-0.032 0.224-0.16 0.032-0.448 0.064-0.896 0.128-1.312 0.032-0.192-0.064-0.224-0.224-0.224zM8.16 17.856c0 0 0 0 0 0s0 0 0 0 0 0 0 0zM4.064 20.192c-0.032 0.128 0.032 0.256 0.064 0.384 1.888 5.664 8.128 11.2 16.8 9.376 3.488-0.736 6.208-2.752 8.352-5.536 0.96-1.248 1.728-2.592 2.112-4.096 0.032-0.192-0.16-0.224-0.288-0.224h-26.752c0 0-0.256 0-0.288 0.096z"></path>
</svg>
