<!-- Generated by IcoMoon.io -->
<svg version="1.1" xmlns="http://www.w3.org/2000/svg" width="32" height="32" viewBox="0 0 32 32">
<title>edge</title>
<path d="M1.248 14.208v0c0.928-7.424 5.984-14.24 15.008-14.208 5.504 0 10.016 2.56 12.672 7.296 1.344 2.464 1.856 5.056 1.856 7.904v3.36h-20.096c0.096 8.288 12.16 8 17.376 4.352v6.72c-3.040 1.856-9.952 3.424-15.328 1.376-4.544-1.728-7.712-6.464-7.776-11.072-0.064-5.952 2.944-9.92 7.776-12.16-0.992 1.28-1.792 2.688-2.208 5.088h11.36c0.64-6.752-6.432-6.752-6.432-6.752-6.656 0.224-11.488 4.128-14.208 8.096z"></path>
</svg>
