<!-- Generated by IcoMoon.io -->
<svg version="1.1" xmlns="http://www.w3.org/2000/svg" width="31" height="32" viewBox="0 0 31 32">
<title>eercast</title>
<path d="M23.936 13.984c0.64-0.96-0.096-3.392-2.272-4.832-2.176-1.472-4.928-1.344-5.568-0.384-0.64 0.928 0.704 0.32 3.168 1.248 4.032 1.504 4.064 4.96 4.672 3.968zM30.432 24.256c-5.056 12.416-27.808 9.28-27.328-6.848 0.032-2.048 0.608-3.424 1.216-5.408-3.776 15.456 17.248 24.416 25.856 12.256 0.32-0.448 0.416-0.416 0.256 0zM26.176 16.224c0 5.056-4.096 9.152-9.088 9.152s-9.12-4.096-9.12-9.152 4.096-9.152 9.12-9.152 9.088 4.096 9.088 9.152zM31.296 11.072c-6.368-14.4-32.608-9.088-29.696 10.528-6.048-19.648 18.816-28.672 28.032-14.688 0.736 1.152 1.6 3.168 1.664 4.16zM30.176 17.184c0.32-6.016-3.872-10.144-9.504-11.712-0.096 0-0.48-0.16 0.256-0.224 13.76 0.448 14.272 22.496-0.736 22.752 4.896-1.376 9.696-4.768 9.984-10.816z"></path>
</svg>
