<!-- Generated by IcoMoon.io -->
<svg version="1.1" xmlns="http://www.w3.org/2000/svg" width="27" height="32" viewBox="0 0 27 32">
<title>envelope-square</title>
<path d="M22.272 2.272c2.848 0 5.152 2.304 5.152 5.152v17.152c0 2.848-2.304 5.152-5.152 5.152h-17.12c-2.848 0-5.152-2.304-5.152-5.152v-17.152c0-2.848 2.304-5.152 5.152-5.152h17.12zM22.848 21.152v-7.808c-0.32 0.384-0.704 0.736-1.12 0.992-1.696 1.12-3.424 2.144-5.088 3.296-0.832 0.576-1.856 1.216-2.912 1.216v0 0 0 0c-1.056 0-2.112-0.64-2.944-1.216-1.664-1.152-3.392-2.176-5.056-3.328-0.416-0.256-0.736-0.64-1.152-0.96v7.808c0 0.928 0.768 1.696 1.696 1.696h14.88c0.928 0 1.696-0.768 1.696-1.696zM22.848 10.912c0-0.96-0.704-1.76-1.696-1.76h-14.88c-0.928 0-1.696 0.768-1.696 1.696 0 0.96 0.992 2.016 1.76 2.528 1.568 1.056 3.168 2.016 4.768 3.072 0.672 0.448 1.792 1.248 2.624 1.248s1.92-0.8 2.624-1.248c1.568-1.056 3.168-2.048 4.768-3.104 0.672-0.48 1.728-1.536 1.728-2.432z"></path>
</svg>
