<!-- Generated by IcoMoon.io -->
<svg version="1.1" xmlns="http://www.w3.org/2000/svg" width="34" height="32" viewBox="0 0 34 32">
<title>envira</title>
<path d="M16 14.56c-2.272-4.288-4.352-8.448-10.304-11.264-3.552-1.696-0.384 0.64-0.384 0.64 3.232 2.24 4.736 5.248 6.464 8.576 2.24 4.288 5.632 9.952 10.304 11.968 4.64 1.984 2.432 0.896 0.416-0.608s-4.864-6.208-6.496-9.312zM9.792 24.256c-6.432-5.088-6.080-11.2-9.792-24.256 34.112 0 26.208 22.656 26.24 26.144l5.76 5.856h-1.856l-5.024-5.088c-2.784 0.288-8.896 2.464-15.328-2.656z"></path>
</svg>
