<!-- Generated by IcoMoon.io -->
<svg version="1.1" xmlns="http://www.w3.org/2000/svg" width="27" height="32" viewBox="0 0 27 32">
<title>etsy</title>
<path d="M9.248 3.264v11.712c4.16 0.032 6.336-0.192 6.336-0.192 1.664-0.064 1.92-0.48 2.304-2.112l0.608-2.56h1.824l-0.256 5.76 0.128 5.696h-1.824l-0.512-2.272c-0.384-1.696-1.12-2.112-2.304-2.112 0 0-1.536-0.16-6.304-0.16v9.952c0 1.856 1.024 2.72 3.168 2.72h6.368c2.144 0 4.064-0.224 5.408-3.264l1.664-3.872h1.568c-0.128 0.768-0.96 7.872-1.088 9.44-5.888-0.224-8.416-0.224-8.416-0.224h-11.2l-6.72 0.224v-1.824l2.272-0.448c1.6-0.288 2.080-0.768 2.080-2.080 0.128-4.32 0.16-11.488 0.16-11.488s0.032-7.168-0.16-11.488c-0.032-1.504-0.48-1.856-2.080-2.144l-2.272-0.448v-1.824l6.72 0.224h12.544s2.464 0 6.656-0.48c-0.224 2.72-0.544 9.024-0.544 9.024h-1.664l-0.576-2.208c-0.672-2.752-1.632-4.256-3.328-4.256h-9.792c-0.736 0-0.768 0.256-0.768 0.704z"></path>
</svg>
