<!-- Generated by IcoMoon.io -->
<svg version="1.1" xmlns="http://www.w3.org/2000/svg" width="32" height="32" viewBox="0 0 32 32">
<title>excel</title>
<path d="M18.464 0l-18.464 3.52v24.928l18.464 3.552v-32zM19.68 3.68v3.648h3.744v2.528h-3.744v2.432h3.712v2.464h-3.712v2.464h3.712v2.464h-3.712v2.464h3.712v2.464h-3.712v3.712h11.296c0.544 0 1.024-0.512 1.024-1.088v-22.464c0-0.608-0.48-1.088-1.024-1.088h-11.296zM24.608 7.392h4.928v2.464h-4.928v-2.464zM3.808 9.76h3.392l1.792 3.776c0.16 0.288 0.288 0.64 0.384 1.024 0.096-0.224 0.256-0.576 0.448-1.056l1.952-3.744h3.104l-3.712 6.208 3.84 6.304h-3.328l-2.144-4.096c-0.064-0.128-0.192-0.416-0.256-0.832h-0.032c-0.064 0.192-0.128 0.48-0.288 0.896l-2.144 4.032h-3.36l3.968-6.24-3.616-6.272zM24.608 12.288h4.928v2.464h-4.928v-2.464zM24.608 17.216h4.928v2.464h-4.928v-2.464zM24.608 22.144h4.928v2.464h-4.928v-2.464z"></path>
</svg>
