<!-- Generated by IcoMoon.io -->
<svg version="1.1" xmlns="http://www.w3.org/2000/svg" width="32" height="32" viewBox="0 0 32 32">
<title>expeditedssl</title>
<path d="M16 1.152c-8.192 0-14.848 6.656-14.848 14.848s6.656 14.848 14.848 14.848 14.848-6.656 14.848-14.848-6.656-14.848-14.848-14.848zM16 0c8.832 0 16 7.168 16 16s-7.168 16-16 16-16-7.168-16-16 7.168-16 16-16zM8.864 14.848c0.16 0 0.288 0.128 0.288 0.288v8.576c0 0.16-0.128 0.288-0.288 0.288h-0.576c-0.16 0-0.288-0.128-0.288-0.288v-8.576c0-0.16 0.128-0.288 0.288-0.288h0.576zM16 16c1.28 0 2.272 1.024 2.272 2.272 0 0.864-0.448 1.568-1.12 1.984v2.016c0 0.32-0.256 0.576-0.576 0.576h-1.152c-0.32 0-0.576-0.256-0.576-0.576v-2.016c-0.672-0.416-1.12-1.12-1.12-1.984 0-1.248 0.992-2.272 2.272-2.272zM16 2.272c7.584 0 13.728 6.144 13.728 13.728s-6.144 13.728-13.728 13.728-13.728-6.176-13.728-13.728 6.144-13.728 13.728-13.728zM9.728 10.848v1.728c0 0.32 0.224 0.576 0.544 0.576h1.152c0.32 0 0.576-0.256 0.576-0.576v-1.728c0-2.208 1.792-4 4-4s4 1.792 4 4v1.728c0 0.32 0.256 0.576 0.576 0.576h1.152c0.32 0 0.544-0.256 0.544-0.576v-1.728c0-3.456-2.816-6.272-6.272-6.272s-6.272 2.816-6.272 6.272zM25.152 24v-9.152c0-0.608-0.512-1.152-1.152-1.152h-16c-0.608 0-1.152 0.544-1.152 1.152v9.152c0 0.608 0.544 1.152 1.152 1.152h16c0.64 0 1.152-0.544 1.152-1.152z"></path>
</svg>
