<!-- Generated by IcoMoon.io -->
<svg version="1.1" xmlns="http://www.w3.org/2000/svg" width="27" height="32" viewBox="0 0 27 32">
<title>facebook-official</title>
<path d="M25.92 2.272c0.832 0 1.504 0.704 1.504 1.536v24.384c0 0.832-0.672 1.536-1.504 1.536h-6.976v-10.656h3.552l0.512-4.128h-4.064v-2.656c0-1.184 0.32-1.984 2.048-1.984l2.176-0.032v-3.68c-0.384-0.064-1.696-0.16-3.2-0.16-3.136 0-5.312 1.92-5.312 5.472v3.040h-3.584v4.128h3.584v10.656h-13.152c-0.832 0-1.504-0.704-1.504-1.536v-24.384c0-0.832 0.672-1.536 1.504-1.536h24.416z"></path>
</svg>
