<!-- Generated by IcoMoon.io -->
<svg version="1.1" xmlns="http://www.w3.org/2000/svg" width="31" height="32" viewBox="0 0 31 32">
<title>firefox</title>
<path d="M16.128 32c-6.88 0-12.384-4.032-14.88-9.792-2.848-6.432-0.576-16.704 4.448-21.216l-0.224 4.992c0.256-0.32 2.176-0.384 2.464 0 1.056-1.984 4.384-3.456 7.072-3.52-1.024 0.864-3.392 4-3.2 5.6 1.312 0.384 3.328 0.416 4.384 0.48 0.32 0.192 0.256 1.28-0.384 2.176 0 0-0.832 1.152-3.104 1.568l0.256 3.36-2.464-1.184c-0.8 2.048 1.12 3.84 3.104 3.488 2.208-0.352 3.008-1.824 4.576-1.728 1.536 0.096 2.144 0.96 1.92 1.76 0 0-0.224 0.96-1.888 0.8-1.408 2.24-3.296 3.2-6.336 2.944 4.608 3.808 10.816 0.352 12.384-2.752 1.6-3.136 0.224-7.744-1.376-9.056 1.856 0.8 3.168 1.632 3.84 3.424 0.352-4-1.472-8.512-4.768-11.2 6.176 1.824 9.952 6.592 10.048 14.24s-6.752 15.616-15.872 15.616z"></path>
</svg>
