<!-- Generated by IcoMoon.io -->
<svg version="1.1" xmlns="http://www.w3.org/2000/svg" width="27" height="32" viewBox="0 0 27 32">
<title>flickr</title>
<path d="M22.272 2.272c2.848 0 5.152 2.304 5.152 5.152v17.152c0 2.848-2.304 5.152-5.152 5.152h-17.12c-2.848 0-5.152-2.304-5.152-5.152v-17.152c0-2.848 2.304-5.152 5.152-5.152h17.12zM12.48 16c0-2.080-1.696-3.776-3.808-3.776s-3.776 1.696-3.776 3.776 1.696 3.776 3.776 3.776 3.808-1.696 3.808-3.776zM22.528 16c0-2.080-1.696-3.776-3.776-3.776s-3.776 1.696-3.776 3.776 1.696 3.776 3.776 3.776 3.776-1.696 3.776-3.776z"></path>
</svg>
