<!-- Generated by IcoMoon.io -->
<svg version="1.1" xmlns="http://www.w3.org/2000/svg" width="27" height="32" viewBox="0 0 27 32">
<title>forumbee</title>
<path d="M16.672 2.688c-7.552 2.848-13.504 8.896-16.32 16.48-0.224-1.056-0.352-2.112-0.352-3.168 0-7.552 6.112-13.664 13.664-13.664 1.024 0 2.048 0.128 3.008 0.352zM21.472 4.8c1.12 0.768 2.112 1.696 2.944 2.752-9.248 2.72-16.48 9.984-19.136 19.232-1.056-0.8-1.984-1.76-2.752-2.88 2.656-9.184 9.792-16.384 18.944-19.104zM8.384 28.64c2.752-8.512 9.408-15.168 17.856-17.984 0.48 1.12 0.8 2.272 0.96 3.488-6.976 2.848-12.512 8.416-15.328 15.424-1.216-0.16-2.368-0.48-3.488-0.928zM27.424 29.664c-2.208-0.576-4.416-1.248-6.56-2.048-1.568 0.96-3.328 1.632-5.152 1.888 2.592-4.864 6.624-8.896 11.456-11.52-0.224 1.792-0.864 3.52-1.792 5.056 0.8 2.176 1.472 4.384 2.048 6.624z"></path>
</svg>
