<!-- Generated by IcoMoon.io -->
<svg version="1.1" xmlns="http://www.w3.org/2000/svg" width="23" height="32" viewBox="0 0 23 32">
<title>foursquare</title>
<path d="M17.856 7.744l0.672-3.456c0.128-0.576-0.32-1.024-0.8-1.024h-12.704c-0.576 0-0.96 0.512-0.96 0.96v19.68c0 0.032 0.032 0.064 0.096 0 4.672-5.632 5.184-6.272 5.184-6.272 0.544-0.64 0.768-0.736 1.536-0.736h4.288c0.576 0 0.928-0.512 0.992-0.8s0.544-2.88 0.64-3.392-0.384-1.056-0.864-1.056h-5.248c-0.672 0-1.184-0.512-1.184-1.216v-0.736c0-0.704 0.512-1.184 1.184-1.184h6.176c0.448 0 0.928-0.384 0.992-0.768zM21.92 3.776c-0.672 3.232-2.656 13.376-2.816 14.112-0.224 0.832-0.544 2.304-2.592 2.304h-4.832c-0.192 0-0.224-0.032-0.384 0.192 0 0-0.128 0.128-7.616 8.8-0.576 0.704-1.568 0.576-1.92 0.416s-0.96-0.576-0.96-1.728v-25.184c0-1.056 0.64-2.688 2.816-2.688h15.84c2.336 0 2.944 1.312 2.464 3.776zM21.92 3.776l-2.816 14.112c0.16-0.736 2.144-10.88 2.816-14.112z"></path>
</svg>
