<!-- Generated by IcoMoon.io -->
<svg version="1.1" xmlns="http://www.w3.org/2000/svg" width="32" height="32" viewBox="0 0 32 32">
<title>freebsd</title>
<path d="M24.8 12.992c0.16 0.544 0.128 0.992-0.128 1.248-0.608 0.608-2.272-0.032-3.744-1.44-0.096-0.096-0.192-0.192-0.32-0.288-0.512-0.544-0.928-1.12-1.216-1.632-0.512-0.96-0.64-1.76-0.256-2.176 0.224-0.192 0.576-0.256 0.992-0.192 0.256-0.16 0.576-0.352 0.928-0.544-1.408-0.768-3.040-1.184-4.768-1.184-5.728 0-10.4 4.64-10.4 10.4 0 5.728 4.672 10.368 10.4 10.368s10.368-4.64 10.368-10.368c0-1.856-0.48-3.616-1.344-5.12-0.192 0.352-0.352 0.64-0.512 0.928zM10.496 7.872c-1.728-0.992-4.224-2.080-4.992-1.28-0.8 0.8 0.32 3.328 1.312 5.088 0.896-1.568 2.176-2.848 3.68-3.808zM26.528 6.688c-1.12-1.152-6.144 2.016-6.688 2.56-0.544 0.512-0.032 1.888 1.088 3.040 1.152 1.12 2.496 1.632 3.040 1.088s3.712-5.568 2.56-6.688zM32 16c0 8.832-7.168 16-16 16s-16-7.168-16-16c0-8.832 7.168-16 16-16s16 7.168 16 16z"></path>
</svg>
