<!-- Generated by IcoMoon.io -->
<svg version="1.1" xmlns="http://www.w3.org/2000/svg" width="31" height="32" viewBox="0 0 31 32">
<title>get-pocket</title>
<path d="M27.936 2.272c1.568 0 2.784 1.248 2.784 2.784v9.28c0 8.544-6.848 15.392-15.328 15.392-8.544 0-15.392-6.848-15.392-15.392v-9.28c0-1.504 1.28-2.784 2.784-2.784h25.152zM15.392 21.28c0.512 0 1.056-0.224 1.44-0.576l7.232-6.944c0.416-0.384 0.64-0.928 0.64-1.504 0-1.184-0.928-2.112-2.080-2.112-0.576 0-1.088 0.224-1.472 0.576l-5.76 5.536-5.792-5.536c-0.384-0.352-0.896-0.576-1.44-0.576-1.152 0-2.112 0.928-2.112 2.112 0 0.576 0.224 1.12 0.64 1.504l7.232 6.944c0.384 0.352 0.928 0.576 1.472 0.576z"></path>
</svg>
