<!-- Generated by IcoMoon.io -->
<svg version="1.1" xmlns="http://www.w3.org/2000/svg" width="32" height="32" viewBox="0 0 32 32">
<title>gg-circle</title>
<path d="M12.8 24.16l4.832-4.832-4.96-4.96-1.568 1.568 3.424 3.392-1.728 1.728-4.992-4.992 4.992-4.992 0.704 0.736 1.568-1.568-2.272-2.272-8.096 8.096zM19.2 24.032l8.096-8.096-8.096-8.128-4.832 4.864 4.96 4.96 1.6-1.568-3.456-3.392 1.728-1.728 4.992 4.992-4.992 4.96-0.704-0.704-1.568 1.568zM32 16c0 8.832-7.168 16-16 16s-16-7.168-16-16 7.168-16 16-16 16 7.168 16 16z"></path>
</svg>
