<!-- Generated by IcoMoon.io -->
<svg version="1.1" xmlns="http://www.w3.org/2000/svg" width="32" height="32" viewBox="0 0 32 32">
<title>gimp</title>
<path d="M16 0.032c-8.832 0-15.968 7.136-15.968 15.968s7.136 15.968 15.968 15.968c8.832 0 15.968-7.136 15.968-15.968s-7.136-15.968-15.968-15.968zM22.56 7.456c0 0 0.032 0 0.032 0v0c0.096 0 0.192 0.032 0.288 0.096 0.256 0.192 0.256 0.384 0.288 0.576s0.096 0.448 0.128 0.672c0.096 0.736 0.192 2.624 0 4.736-0.192 2.048-0.64 4.288-1.792 5.792 1.024 0.48 1.888 0.992 2.464 1.472 0.032-0.032 0.032-0.032 0.064-0.064 0.256-0.192 0.608-0.256 0.928-0.224s0.672 0.192 0.96 0.512c0.224 0.224 0.288 0.512 0.352 0.8s0.096 0.64 0.128 0.96c0.032 0.608 0.032 1.184 0.032 1.184v0.576l-0.544-0.16c0 0-0.48-0.128-1.024-0.384s-1.152-0.608-1.376-1.28c-0.064-0.256-0.096-0.512-0.064-0.768-0.832-0.128-1.888-0.48-3.040-1.024-0.128-0.064-0.288-0.128-0.416-0.192-0.896 0.576-1.92 0.928-3.008 1.024-1.76 0.16-3.648-0.256-5.632-1.088-0.928-0.416-1.856-1.024-2.432-1.504-0.32 0-0.608-0.032-0.896-0.16-0.672-0.224-1.28-0.704-1.76-1.376-0.448-0.64-0.704-1.376-0.672-2.080 0-0.672 0.288-1.344 0.832-1.728 0.288-0.192 0.608-0.288 0.96-0.288s0.672 0.032 0.992 0.16c0.256 0.096 0.512 0.224 0.736 0.384 0.096-0.288 0.224-0.576 0.384-0.832v-4.192l0.8 1.184c0 0 1.44 2.048 3.264 2.208 0.512-0.416 1.12-0.672 1.824-0.672 0.512 0 0.992 0.16 1.408 0.384 2.080-0.416 4.128-1.728 4.8-3.488 0.16-0.416 0.288-0.704 0.448-0.896 0.064-0.096 0.128-0.192 0.288-0.288 0.064-0.032 0.16-0.032 0.256-0.032zM22.432 8.928c-0.032 0.032-0.032 0.032-0.064 0.064-0.736 1.952-2.72 3.296-4.8 3.872 0.384 0.48 0.608 1.088 0.608 1.76 0 1.536-1.28 2.816-2.816 2.816-0.928 0-1.728-0.448-2.272-1.12-0.416 0.416-0.992 0.672-1.664 0.672-0.224 0-0.448-0.032-0.64-0.096 0 0.096 0 0.16 0 0.256 0 0.672-0.288 1.344-0.832 1.696 0.512 0.352 1.12 0.736 1.728 1.024 1.856 0.8 3.648 1.152 5.184 1.024 0.8-0.096 1.568-0.288 2.24-0.672-0.384-0.224-0.704-0.448-1.024-0.64-1.792 0.224-4.704-0.832-4.704-0.832s5.184 0.288 5.184-0.736c0-0.48-0.384-1.024-0.384-1.024s1.376 0.64 1.312 1.504c0.352 0.128 0.768 0.256 1.184 0.448 0.032-0.032 0.064-0.064 0.096-0.096 0.992-1.216 1.472-3.392 1.664-5.408s0.064-3.904 0-4.512zM10.336 11.616v0.864c0.224-0.096 0.416-0.16 0.672-0.224-0.256-0.192-0.48-0.416-0.672-0.64zM15.36 12.64v0.032c-1.088 0-1.984 0.864-1.984 1.952s0.896 1.952 1.984 1.952c0.096 0 0.224-0.032 0.352-0.032-0.576-0.128-1.024-0.672-1.024-1.28 0-0.48 0.256-0.864 0.64-1.088-0.128 0.096-0.192 0.256-0.192 0.448 0 0.352 0.288 0.64 0.64 0.64s0.672-0.288 0.672-0.64c0-0.32-0.256-0.608-0.544-0.64 0.032 0 0.064-0.032 0.096-0.032 0.608 0 1.152 0.448 1.28 1.024 0-0.128 0.032-0.224 0.032-0.352 0-1.088-0.864-1.984-1.952-1.984zM11.424 13.088c-0.832 0-1.504 0.672-1.504 1.536 0 0.096 0 0.16 0.032 0.256 0.032 0.064 0.096 0.128 0.128 0.192 0.192 0.224 0.32 0.48 0.416 0.736 0 0 0 0 0 0 0.032 0.032 0.032 0.032 0.032 0.032v0 0h0.032c0.224 0.192 0.544 0.288 0.864 0.288 0.096 0 0.16 0 0.256 0-0.512-0.096-0.896-0.544-0.896-1.088 0-0.384 0.192-0.736 0.512-0.928-0.096 0.128-0.16 0.256-0.16 0.384 0 0.32 0.256 0.544 0.544 0.544s0.544-0.224 0.544-0.544c0-0.256-0.192-0.48-0.448-0.512 0.032-0.032 0.064-0.032 0.096-0.032 0.256 0 0.48 0.096 0.672 0.256 0.032-0.16 0.064-0.32 0.128-0.48-0.288-0.384-0.736-0.64-1.248-0.64v0zM7.488 14.4c-0.032 0-0.064 0-0.064 0v0c-0.032 0-0.032 0-0.032 0 0.448 0.064 0.768 0.512 0.768 1.088 0 0 0 0 0 0 0 0.608-0.384 1.088-0.864 1.088 0 0 0 0 0 0-0.448 0-0.832-0.448-0.864-1.024 0 0 0 0 0 0.032 0 0.448 0.16 1.024 0.544 1.568 0.352 0.512 0.864 0.896 1.312 1.056s0.864 0.128 1.152-0.064c0.288-0.192 0.448-0.544 0.48-0.992 0-0.48-0.16-1.056-0.544-1.6s-0.864-0.896-1.312-1.056c-0.224-0.064-0.416-0.096-0.576-0.096zM24.832 21.344c-0.128 0-0.224 0.032-0.288 0.096-0.192 0.16-0.384 0.48-0.224 1.024 0.064 0.192 0.48 0.544 0.928 0.768 0.16 0.064 0.16 0.032 0.288 0.096 0-0.192 0-0.224 0-0.48-0.032-0.288-0.064-0.608-0.128-0.832s-0.16-0.416-0.128-0.416c-0.16-0.16-0.288-0.224-0.416-0.256v0c0 0-0.032 0-0.032 0z"></path>
</svg>
