<!-- Generated by IcoMoon.io -->
<svg version="1.1" xmlns="http://www.w3.org/2000/svg" width="27" height="32" viewBox="0 0 27 32">
<title>git-square</title>
<path d="M10.4 23.36c0 0.96-0.896 1.184-1.664 1.184s-1.92-0.128-1.92-1.152c0-0.96 0.96-1.12 1.76-1.12 0.736 0 1.824 0.128 1.824 1.088zM9.76 15.040c0 0.896-0.352 1.504-1.344 1.504-0.96 0-1.376-0.576-1.376-1.504s0.384-1.6 1.376-1.6c0.928 0 1.344 0.768 1.344 1.6zM12.704 13.696v-2.24c-0.768 0.288-1.568 0.512-2.4 0.512-0.576-0.32-1.28-0.512-1.952-0.512-2.048 0-3.648 1.504-3.648 3.584 0 1.088 0.736 2.624 1.824 3.008v0.064c-0.576 0.256-0.672 0.928-0.672 1.504 0 0.608 0.224 1.088 0.736 1.376v0.064c-1.216 0.384-2.016 1.152-2.016 2.464 0 2.272 2.144 2.912 4.064 2.912 2.272 0 4-0.832 4-3.36 0-1.76-1.632-2.304-3.136-2.56-0.48-0.096-1.344-0.448-1.344-1.088 0-0.576 0.32-0.832 0.864-0.928 1.824-0.352 3.008-1.76 3.008-3.648 0-0.32-0.096-0.608-0.192-0.928 0.288-0.064 0.576-0.128 0.864-0.224zM13.76 21.184h2.464c-0.032-0.48-0.032-0.992-0.032-1.472v-6.912c0-0.416 0-0.832 0.032-1.248h-2.464c0.064 0.416 0.064 0.864 0.064 1.28v7.008c0 0.448 0 0.896-0.064 1.344zM22.848 20.896v-2.176c-0.352 0.256-0.768 0.384-1.216 0.384-0.8 0-0.928-0.8-0.928-1.472v-4h0.928c0.32 0 0.608 0.032 0.928 0.032v-2.112h-1.856c0-0.576-0.032-1.184 0.032-1.792h-2.496c0.064 0.32 0.096 0.64 0.096 0.96v0.832h-1.088v2.112c0.224-0.032 0.448-0.064 0.672-0.064 0.128 0 0.256 0.032 0.416 0.032v0.032h-0.064v3.872c0 1.92 0.288 3.776 2.656 3.776 0.672 0 1.344-0.096 1.92-0.416zM16.512 8.288c0-0.832-0.64-1.632-1.504-1.632s-1.536 0.768-1.536 1.632c0 0.832 0.672 1.568 1.536 1.568s1.504-0.768 1.504-1.568zM27.424 7.424v17.152c0 2.848-2.304 5.152-5.152 5.152h-17.12c-2.848 0-5.152-2.304-5.152-5.152v-17.152c0-2.848 2.304-5.152 5.152-5.152h17.12c2.848 0 5.152 2.304 5.152 5.152z"></path>
</svg>
