<!-- Generated by IcoMoon.io -->
<svg version="1.1" xmlns="http://www.w3.org/2000/svg" width="32" height="32" viewBox="0 0 32 32">
<title>git</title>
<path d="M10.624 27.040c0-1.568-1.728-1.792-2.944-1.792-1.28 0-2.816 0.256-2.816 1.856s1.824 1.792 3.072 1.792c1.312 0 2.688-0.32 2.688-1.856zM9.568 13.536c0-1.312-0.64-2.528-2.112-2.528-1.664 0-2.208 1.088-2.208 2.592 0 1.472 0.64 2.4 2.208 2.4 1.536 0 2.112-0.992 2.112-2.464zM14.368 7.776v3.584c-0.448 0.16-0.928 0.288-1.408 0.416 0.192 0.48 0.288 0.96 0.288 1.472 0 3.040-1.856 5.344-4.832 5.888-0.864 0.192-1.408 0.544-1.408 1.536 0 2.72 7.232 0.864 7.232 5.888 0 4.096-2.784 5.44-6.496 5.44-3.040 0-6.528-1.024-6.528-4.704 0-2.144 1.312-3.36 3.264-4v-0.096c-0.832-0.48-1.216-1.28-1.216-2.24 0-0.896 0.192-2.048 1.12-2.432v-0.096c-1.792-0.608-2.976-3.072-2.976-4.896 0-3.328 2.592-5.76 5.888-5.76 1.12 0 2.208 0.288 3.2 0.832 1.312 0 2.656-0.352 3.872-0.832zM20.064 23.488h-3.968c0.064-0.8 0.064-1.568 0.064-2.4v-10.848c0-0.768 0.032-1.536-0.064-2.304h3.968c-0.096 0.736-0.096 1.504-0.096 2.208v10.944c0 0.832 0 1.6 0.096 2.4zM30.784 19.52v3.52c-0.928 0.512-2.048 0.704-3.104 0.704-3.808 0-4.256-3.040-4.256-6.144v-6.272h0.032v-0.064c-0.256 0-0.448-0.032-0.672-0.032-0.352 0-0.704 0.064-1.056 0.096v-3.392h1.728v-1.344c0-0.544-0.032-1.088-0.128-1.6h4.064c-0.128 0.992-0.096 1.984-0.096 2.944h3.040v3.392c-0.512 0-1.024-0.064-1.536-0.064h-1.504v6.528c0 1.056 0.224 2.336 1.536 2.336 0.704 0 1.376-0.192 1.952-0.608zM20.512 2.624c0 1.344-1.056 2.592-2.432 2.592-1.408 0-2.464-1.248-2.464-2.592 0-1.376 1.056-2.624 2.464-2.624s2.432 1.28 2.432 2.624z"></path>
</svg>
