<!-- Generated by IcoMoon.io -->
<svg version="1.1" xmlns="http://www.w3.org/2000/svg" width="27" height="32" viewBox="0 0 27 32">
<title>github-square</title>
<path d="M9.28 21.44v0c0.032-0.064 0-0.192-0.064-0.256-0.096-0.064-0.192-0.096-0.256-0.032-0.032 0.064 0 0.16 0.064 0.224 0.096 0.096 0.192 0.096 0.256 0.064zM8.768 20.704c-0.064-0.096-0.128-0.128-0.224-0.096-0.032 0.064-0.032 0.16 0 0.224 0.096 0.096 0.16 0.128 0.224 0.096v0c0.064-0.032 0.064-0.16 0-0.224zM8.032 19.968v0c0.032-0.032 0-0.096-0.096-0.128-0.032-0.032-0.128-0.032-0.128 0.032-0.032 0.064 0 0.096 0.064 0.128s0.16 0.032 0.16-0.032zM8.416 20.384v0c0.032-0.032 0.032-0.128-0.032-0.16-0.064-0.096-0.16-0.096-0.192-0.064-0.032 0.064-0.032 0.128 0.032 0.192 0.032 0.064 0.128 0.096 0.192 0.032zM9.952 21.728v0c0-0.064-0.064-0.16-0.16-0.192s-0.192 0-0.224 0.064c-0.032 0.064 0.032 0.16 0.16 0.192s0.192 0 0.224-0.064zM10.688 21.792v0c0-0.096-0.064-0.16-0.192-0.16s-0.192 0.064-0.192 0.16 0.096 0.128 0.192 0.128 0.192-0.064 0.192-0.128zM11.392 21.664v0c0-0.064-0.128-0.128-0.224-0.096s-0.192 0.096-0.16 0.16 0.096 0.128 0.192 0.096 0.192-0.096 0.192-0.16zM22.848 16c0-5.056-4.064-9.152-9.12-9.152s-9.152 4.096-9.152 9.152c0 4.032 2.624 7.456 6.24 8.672 0.48 0.096 0.64-0.192 0.64-0.448 0-0.224 0-0.928-0.032-1.696 0 0-2.528 0.544-3.072-1.088 0 0-0.416-1.056-1.024-1.312 0 0-0.8-0.576 0.096-0.576 0 0 0.896 0.064 1.376 0.96 0.8 1.408 2.144 0.992 2.656 0.736 0.096-0.576 0.32-0.992 0.608-1.216-2.048-0.224-4.192-1.024-4.192-4.512 0-0.992 0.352-1.824 0.96-2.464-0.096-0.224-0.416-1.152 0.096-2.432 0.768-0.224 2.496 0.96 2.496 0.96 0.736-0.224 1.504-0.288 2.304-0.288s1.536 0.064 2.272 0.288c0 0 1.76-1.184 2.528-0.96 0.48 1.28 0.16 2.208 0.096 2.432 0.576 0.64 0.928 1.472 0.928 2.464 0 3.52-2.144 4.288-4.16 4.512 0.32 0.288 0.608 0.832 0.608 1.696 0 1.216-0.032 2.208-0.032 2.496 0 0.256 0.192 0.544 0.64 0.448 3.616-1.216 6.24-4.64 6.24-8.672zM27.424 7.424v17.152c0 2.848-2.304 5.152-5.152 5.152h-17.12c-2.848 0-5.152-2.304-5.152-5.152v-17.152c0-2.848 2.304-5.152 5.152-5.152h17.12c2.848 0 5.152 2.304 5.152 5.152z"></path>
</svg>
