<!-- Generated by IcoMoon.io -->
<svg version="1.1" xmlns="http://www.w3.org/2000/svg" width="27" height="32" viewBox="0 0 27 32">
<title>github</title>
<path d="M13.728 2.272c7.552 0 13.696 6.144 13.696 13.728 0 6.048-3.936 11.2-9.376 13.024-0.704 0.128-0.928-0.32-0.928-0.672 0-0.448 0-1.92 0-3.776 0-1.28-0.416-2.112-0.928-2.528 3.072-0.352 6.272-1.504 6.272-6.752 0-1.504-0.544-2.72-1.408-3.68 0.128-0.384 0.608-1.76-0.128-3.648-1.152-0.352-3.776 1.408-3.776 1.408-1.088-0.32-2.272-0.48-3.424-0.48s-2.336 0.16-3.456 0.48c0 0-2.624-1.76-3.744-1.408-0.768 1.888-0.288 3.264-0.16 3.648-0.864 0.96-1.408 2.176-1.408 3.68 0 5.248 3.2 6.4 6.24 6.752-0.384 0.352-0.736 0.96-0.864 1.856-0.768 0.352-2.784 0.96-3.968-1.152-0.768-1.312-2.112-1.408-2.112-1.408-1.344-0.032-0.096 0.832-0.096 0.832 0.896 0.416 1.536 1.984 1.536 1.984 0.8 2.464 4.608 1.632 4.608 1.632 0 1.152 0.032 2.24 0.032 2.56 0 0.352-0.256 0.8-0.96 0.672-5.44-1.824-9.376-6.976-9.376-13.024 0-7.584 6.144-13.728 13.728-13.728zM5.184 21.984c0.064-0.064 0-0.16-0.096-0.224-0.128-0.032-0.224 0-0.256 0.032-0.032 0.064 0.032 0.16 0.128 0.224s0.192 0.032 0.224-0.032zM5.76 22.592c0.064-0.064 0.032-0.192-0.032-0.288-0.096-0.096-0.224-0.128-0.288-0.064-0.096 0.064-0.064 0.192 0.032 0.288s0.224 0.128 0.288 0.064zM6.272 23.392c0.096-0.064 0.096-0.224 0-0.352-0.064-0.128-0.192-0.16-0.288-0.096s-0.096 0.192 0 0.32 0.224 0.192 0.288 0.128zM7.040 24.128c0.064-0.064 0.032-0.224-0.064-0.32-0.128-0.128-0.288-0.16-0.352-0.064-0.096 0.064-0.064 0.224 0.064 0.352s0.288 0.128 0.352 0.032zM8.064 24.576c0.032-0.096-0.096-0.224-0.256-0.288-0.128-0.032-0.288 0.032-0.32 0.128s0.064 0.256 0.224 0.288c0.16 0.032 0.32 0 0.352-0.128zM9.184 24.672c0-0.128-0.16-0.224-0.32-0.192-0.16 0-0.288 0.096-0.288 0.192 0 0.128 0.128 0.224 0.32 0.192 0.16 0 0.288-0.096 0.288-0.192zM10.208 24.512c0-0.128-0.16-0.192-0.32-0.192-0.16 0.064-0.256 0.16-0.256 0.288 0.032 0.096 0.16 0.16 0.32 0.128s0.288-0.128 0.256-0.224z"></path>
</svg>
