<!-- Generated by IcoMoon.io -->
<svg version="1.1" xmlns="http://www.w3.org/2000/svg" width="30" height="32" viewBox="0 0 30 32">
<title>github-alt</title>
<path d="M11.424 21.696c0 1.312-0.672 3.456-2.272 3.456s-2.304-2.144-2.304-3.456 0.704-3.424 2.304-3.424 2.272 2.144 2.272 3.424zM22.848 21.696c0 1.312-0.672 3.456-2.272 3.456s-2.304-2.144-2.304-3.456 0.704-3.424 2.304-3.424 2.272 2.144 2.272 3.424zM25.728 21.696c0-2.72-1.664-5.12-4.576-5.12-1.184 0-2.304 0.192-3.488 0.352-0.928 0.16-1.856 0.224-2.816 0.224s-1.856-0.064-2.784-0.224c-1.184-0.16-2.304-0.352-3.488-0.352-2.912 0-4.576 2.4-4.576 5.12 0 5.472 4.992 6.336 9.344 6.336h3.008c4.352 0 9.376-0.864 9.376-6.336zM29.728 18.56c0 1.984-0.224 4.096-1.088 5.92-2.368 4.768-8.864 5.248-13.504 5.248-4.704 0-11.584-0.416-14.016-5.248-0.928-1.792-1.12-3.936-1.12-5.92 0-2.592 0.704-5.056 2.432-7.072-0.32-0.96-0.48-2.016-0.48-3.040 0-1.312 0.288-2.656 0.896-3.872 2.848 0 4.64 1.216 6.784 2.912 1.792-0.448 3.648-0.64 5.504-0.64 1.696 0 3.392 0.192 5.024 0.576 2.112-1.664 3.904-2.848 6.688-2.848 0.608 1.216 0.928 2.56 0.928 3.872 0 1.024-0.16 2.048-0.48 3.008 1.696 2.016 2.432 4.512 2.432 7.104z"></path>
</svg>
