<!-- Generated by IcoMoon.io -->
<svg version="1.1" xmlns="http://www.w3.org/2000/svg" width="27" height="32" viewBox="0 0 27 32">
<title>gittip</title>
<path d="M13.792 23.232l6.272-8.448c0.48-0.64 1.056-2.784-0.768-3.968-1.536-0.992-3.008-0.224-3.776 0.672-0.288 0.32-0.8 0.704-1.728 0.704s-1.408-0.384-1.696-0.704c-0.768-0.896-2.208-1.664-3.776-0.672-1.792 1.184-1.216 3.328-0.736 3.968zM27.424 16c0 7.552-6.144 13.728-13.696 13.728s-13.728-6.176-13.728-13.728 6.144-13.728 13.728-13.728 13.696 6.144 13.696 13.728z"></path>
</svg>
