<!-- Generated by IcoMoon.io -->
<svg version="1.1" xmlns="http://www.w3.org/2000/svg" width="27" height="32" viewBox="0 0 27 32">
<title>glide</title>
<path d="M15.456 9.184c0 0.576-0.128 1.12-0.224 1.696-0.384 1.792-0.736 3.552-1.12 5.344-0.032 0.256-0.032 0.256-0.32 0.288-0.16 0-0.352 0.032-0.544 0.032-1.536 0-1.952-1.664-1.952-2.912 0-1.856 0.736-4.352 2.464-5.344 0.288-0.128 0.576-0.224 0.896-0.224 0.736 0 0.8 0.512 0.8 1.12zM24.16 16.768c0-0.32-1.344-2.4-1.632-2.528-0.16-0.064-0.448-0.16-0.608-0.16-1.472 0-2.784 0.672-4.032 1.376l-0.032-0.032c0.256-1.92 0.928-3.616 0.928-5.6 0-2.816-1.536-4.16-4.352-4.16-0.384 0-0.8 0.064-1.184 0.128-3.52 0.608-5.664 4.64-5.664 7.936 0 3.488 2.016 5.44 5.504 5.44 0.064 0 0.416-0.032 0.416 0.032 0 0.032 0 0.064 0 0.096-0.064 0.672-0.288 1.44-0.48 2.080-0.256 0.992-1.184 2.688-2.368 2.688-0.544 0-0.768-0.352-0.768-0.832 0-1.568 1.792-2.496 1.824-2.56 0-0.096-0.096-0.16-0.128-0.192-0.544-0.512-1.472-0.928-2.208-0.928-1.344 0-2.080 2.208-2.080 3.296 0 2.080 1.28 3.52 3.392 3.52 3.072 0 5.344-3.264 6.016-5.952 0.224-0.768 0.352-1.568 0.544-2.368 0.032-0.16 0.096-0.224 0.256-0.32 1.28-0.64 2.592-1.056 4.064-1.056 0.768 0 1.472 0.128 2.24 0.32 0.032 0 0.064 0 0.096 0 0.096 0 0.256-0.128 0.256-0.224zM27.424 7.424v17.152c0 2.848-2.304 5.152-5.152 5.152h-17.12c-2.848 0-5.152-2.304-5.152-5.152v-17.152c0-2.848 2.304-5.152 5.152-5.152h17.12c2.848 0 5.152 2.304 5.152 5.152z"></path>
</svg>
