<!-- Generated by IcoMoon.io -->
<svg version="1.1" xmlns="http://www.w3.org/2000/svg" width="27" height="32" viewBox="0 0 27 32">
<title>glide-g</title>
<path d="M13.28 5.44c0-0.928-0.096-1.76-1.216-1.76-0.48 0-0.96 0.16-1.408 0.416-2.688 1.472-3.808 5.312-3.808 8.192 0 1.952 0.672 4.512 3.040 4.512 0.512 0 1.216 0.128 1.344-0.48 0.576-2.752 1.152-5.536 1.728-8.256 0.16-0.864 0.32-1.76 0.32-2.624zM26.752 17.152c0 0.192-0.224 0.352-0.416 0.352h-0.096c-1.216-0.192-2.304-0.512-3.52-0.512-2.24 0-4.288 0.672-6.272 1.664-0.256 0.128-0.288 0.224-0.384 0.48-0.32 1.216-0.512 2.464-0.832 3.68-1.056 4.16-4.544 9.184-9.312 9.184-3.264 0-5.248-2.208-5.248-5.408 0-1.728 1.12-5.12 3.2-5.12 0.736 0 3.616 0.96 3.616 1.696-0.032 0.16-2.784 1.568-2.784 4 0 0.736 0.352 1.28 1.152 1.28 2.848 0 4.16-5.152 4.416-7.36v-0.16c0-0.128-0.544-0.064-0.672-0.064-5.376 0-8.512-3.008-8.512-8.416 0-5.088 3.328-11.328 8.768-12.288 0.64-0.096 1.248-0.16 1.888-0.16 4.32 0 6.688 2.016 6.688 6.432 0 3.008-1.024 5.728-1.44 8.64l0.032 0.064c1.952-1.088 3.968-2.112 6.272-2.112 0.224 0 0.736 0.128 0.928 0.224 0.48 0.192 2.528 3.424 2.528 3.904z"></path>
</svg>
