<!-- Generated by IcoMoon.io -->
<svg version="1.1" xmlns="http://www.w3.org/2000/svg" width="27" height="32" viewBox="0 0 27 32">
<title>globe</title>
<path d="M13.728 2.272c7.552 0 13.696 6.144 13.696 13.728s-6.144 13.728-13.696 13.728-13.728-6.176-13.728-13.728 6.144-13.728 13.728-13.728zM18.624 11.584c-0.16 0.096-0.256 0.32-0.416 0.352 0.064-0.032 0.16-0.352 0.224-0.416 0.096-0.128 0.256-0.192 0.384-0.288 0.32-0.096 0.608-0.16 0.928-0.192 0.32-0.064 0.672-0.064 0.928 0.192-0.064-0.064 0.352-0.448 0.416-0.448 0.16-0.096 0.416-0.064 0.544-0.224 0.032-0.032 0.032-0.384 0.032-0.384-0.32 0.032-0.416-0.256-0.416-0.512 0 0.032-0.064 0.096-0.128 0.16 0.032-0.288-0.32-0.064-0.448-0.128-0.416-0.096-0.352-0.384-0.48-0.672-0.064-0.16-0.256-0.224-0.32-0.384-0.096-0.096-0.128-0.352-0.288-0.352-0.096-0.032-0.288 0.384-0.32 0.352-0.16-0.096-0.256 0.032-0.384 0.096-0.096 0.096-0.192 0.032-0.288 0.096 0.32-0.096-0.128-0.288-0.32-0.256 0.256-0.064 0.128-0.32 0-0.448h0.096c-0.032-0.16-0.544-0.32-0.704-0.416s-1.024-0.288-1.184-0.192c-0.224 0.128 0.032 0.48 0.032 0.672 0.032 0.224-0.192 0.256-0.192 0.448 0 0.288 0.544 0.256 0.416 0.672-0.096 0.224-0.416 0.288-0.576 0.48-0.128 0.192 0.032 0.512 0.16 0.64 0.16 0.096-0.256 0.288-0.288 0.32-0.32 0.128-0.544-0.32-0.608-0.576-0.064-0.192-0.096-0.416-0.288-0.544-0.128-0.032-0.448-0.096-0.512 0.032-0.128-0.288-0.512-0.384-0.736-0.48-0.384-0.128-0.672-0.128-1.056-0.064 0.128-0.032-0.032-0.576-0.32-0.48 0.064-0.192 0.032-0.384 0.064-0.544 0.064-0.16 0.128-0.288 0.224-0.416 0.032-0.064 0.448-0.48 0.32-0.512 0.288 0.032 0.64 0.064 0.896-0.192 0.16-0.16 0.224-0.416 0.384-0.608 0.224-0.256 0.512 0.064 0.768 0.096 0.352 0 0.32-0.384 0.128-0.544 0.256 0 0.032-0.416-0.096-0.48-0.16-0.064-0.768 0.096-0.416 0.224-0.096-0.032-0.512 0.864-0.768 0.416-0.064-0.096-0.096-0.448-0.256-0.48-0.16 0-0.256 0.16-0.288 0.256 0.096-0.224-0.512-0.384-0.64-0.384 0.288-0.192 0.064-0.384-0.128-0.48-0.16-0.096-0.608-0.16-0.736-0.032-0.32 0.416 0.384 0.48 0.544 0.576 0.064 0.032 0.288 0.16 0.16 0.256-0.128 0.032-0.448 0.128-0.48 0.192-0.096 0.16 0.128 0.352-0.032 0.512-0.16-0.16-0.16-0.416-0.288-0.608 0.16 0.192-0.64 0.096-0.608 0.096-0.288 0-0.704 0.16-0.896-0.096-0.032-0.064-0.032-0.48 0.064-0.384-0.16-0.128-0.256-0.256-0.384-0.32-0.576 0.192-1.12 0.448-1.664 0.736 0.064 0 0.128 0 0.192-0.032 0.16-0.064 0.288-0.128 0.416-0.224 0.192-0.064 0.576-0.288 0.768-0.128 0-0.032 0.064-0.064 0.096-0.064 0.096 0.128 0.224 0.288 0.352 0.448-0.16-0.096-0.384-0.064-0.544-0.032-0.128 0.032-0.352 0.064-0.384 0.224 0.032 0.096 0.128 0.224 0.064 0.32-0.224-0.16-0.384-0.448-0.704-0.48-0.16 0-0.288 0-0.416 0.032-1.696 0.928-3.136 2.304-4.192 3.968 0.064 0.064 0.16 0.128 0.224 0.128 0.16 0.064 0 0.576 0.32 0.32 0.128 0.064 0.128 0.192 0.064 0.32 0.032 0 0.736 0.448 0.8 0.48 0.128 0.128 0.32 0.256 0.352 0.384 0.064 0.128-0.064 0.256-0.16 0.32-0.032-0.032-0.288-0.288-0.32-0.224-0.064 0.096 0 0.576 0.192 0.544-0.288 0.032-0.16 1.12-0.224 1.344 0 0.032 0.032 0.032 0.032 0.032-0.064 0.192 0.128 1.024 0.48 0.96-0.224 0.032 0.416 0.864 0.48 0.928 0.256 0.16 0.512 0.256 0.672 0.48 0.192 0.256 0.192 0.64 0.448 0.832-0.096 0.224 0.352 0.448 0.352 0.768-0.032 0.032-0.064 0.032-0.096 0.032 0.096 0.256 0.416 0.256 0.544 0.48 0.064 0.16 0 0.48 0.224 0.416 0.064-0.384-0.224-0.8-0.416-1.12-0.096-0.16-0.224-0.32-0.288-0.512-0.096-0.16-0.128-0.352-0.192-0.544 0.064 0.032 0.448 0.192 0.416 0.224-0.128 0.352 0.576 0.992 0.768 1.216 0.064 0.064 0.48 0.608 0.256 0.608 0.224 0 0.544 0.352 0.672 0.512 0.16 0.288 0.128 0.608 0.224 0.896 0.096 0.352 0.608 0.512 0.896 0.672 0.256 0.128 0.448 0.32 0.704 0.416 0.384 0.128 0.48 0 0.8-0.032 0.448-0.096 0.512 0.416 0.896 0.64 0.224 0.128 0.736 0.288 0.96 0.192-0.096 0.032 0.384 0.768 0.416 0.8 0.16 0.224 0.48 0.32 0.64 0.544 0.064-0.032 0.128-0.096 0.128-0.16-0.064 0.192 0.288 0.576 0.448 0.544 0.192-0.032 0.256-0.416 0.256-0.576-0.352 0.192-0.672 0.032-0.864-0.32-0.032-0.096-0.32-0.576-0.096-0.576 0.352 0 0.128-0.288 0.096-0.544s-0.288-0.384-0.416-0.608c-0.096 0.224-0.48 0.16-0.576-0.032 0 0.064-0.064 0.16-0.064 0.224-0.064 0-0.16 0.032-0.256-0.032 0.032-0.192 0.064-0.48 0.096-0.704 0.096-0.32 0.704-0.928-0.064-0.896-0.288 0-0.384 0.128-0.48 0.352s-0.064 0.416-0.288 0.512c-0.16 0.064-0.704 0.032-0.864-0.064-0.352-0.192-0.576-0.8-0.576-1.152-0.032-0.512 0.224-0.928 0-1.376 0.096-0.096 0.224-0.256 0.32-0.352 0.128-0.064 0.256 0.064 0.288-0.16-0.032-0.032-0.096-0.096-0.128-0.096 0.256 0.096 0.768-0.192 0.992 0 0.16 0.096 0.32 0.128 0.384-0.064 0.032-0.032-0.096-0.256-0.032-0.384 0.032 0.288 0.256 0.352 0.512 0.16 0.096 0.096 0.384 0.064 0.576 0.16 0.224 0.128 0.256 0.32 0.48 0.064 0.128 0.224 0.16 0.224 0.224 0.416 0.032 0.192 0.16 0.704 0.32 0.8 0.384 0.224 0.288-0.384 0.256-0.608-0.032-0.032-0.032-0.608-0.032-0.608-0.576-0.128-0.352-0.576-0.032-0.864 0.032-0.064 0.448-0.192 0.64-0.32 0.16-0.16 0.352-0.416 0.256-0.64 0.096 0 0.16-0.064 0.192-0.16-0.032-0.032-0.256-0.192-0.288-0.192 0.128-0.064 0.096-0.16 0.032-0.288 0.192-0.096 0.096-0.288 0.256-0.352 0.224 0.256 0.608-0.032 0.416-0.256 0.16-0.256 0.576-0.128 0.672-0.352 0.288 0.064 0.096-0.288 0.224-0.48 0.128-0.16 0.352-0.16 0.512-0.256 0 0.032 0.448-0.224 0.288-0.256 0.32 0.032 0.928-0.288 0.448-0.544 0.064-0.16-0.16-0.224-0.32-0.288 0.128-0.032 0.288 0.064 0.384-0.032 0.256-0.16 0.096-0.224-0.096-0.288-0.256-0.064-0.576 0.096-0.768 0.224zM15.712 27.264c2.432-0.448 4.608-1.664 6.24-3.392-0.096-0.096-0.288-0.064-0.448-0.128-0.128-0.064-0.224-0.128-0.416-0.16 0.032-0.352-0.352-0.48-0.608-0.672-0.224-0.16-0.384-0.352-0.704-0.288-0.032 0-0.384 0.128-0.32 0.224-0.256-0.224-0.352-0.32-0.64-0.416-0.288-0.064-0.48-0.448-0.768-0.128-0.16 0.16-0.096 0.384-0.16 0.512-0.224-0.192 0.224-0.416 0.032-0.64-0.192-0.256-0.576 0.16-0.768 0.256-0.096 0.096-0.224 0.128-0.288 0.256-0.096 0.096-0.128 0.288-0.192 0.384-0.064-0.128-0.352-0.096-0.384-0.192 0.064 0.416 0.064 0.864 0.16 1.28 0.064 0.256 0 0.672-0.224 0.864s-0.48 0.416-0.512 0.736c-0.032 0.192 0.032 0.384 0.224 0.448 0 0.256-0.288 0.48-0.288 0.768 0 0 0.032 0.192 0.064 0.288z"></path>
</svg>
