<!-- Generated by IcoMoon.io -->
<svg version="1.1" xmlns="http://www.w3.org/2000/svg" width="32" height="32" viewBox="0 0 32 32">
<title>gmail</title>
<path d="M30.016 8.224v-0.672c0-1.248-1.056-2.304-2.304-2.304v0 0 0h-23.552c-1.248 0-2.304 1.056-2.304 2.304v15.776c0 1.248 1.056 2.304 2.304 2.304h22.656c2.432-0.032 3.136-0.64 3.2-2.304v-15.104zM25.984 5.824l-10.080 7.424-10.016-7.424h20.096zM5.568 11.584l9.344 6.464-9.344 6.496v-12.96zM5.824 25.056l9.6-6.688 0.16 0.128c0.096 0.064 0.192 0.096 0.32 0.096 0.096 0 0.48-0.224 0.48-0.224l9.632 6.688h-20.192zM26.24 24.544l-9.344-6.496 9.344-6.464v12.96z"></path>
</svg>
