<!-- Generated by IcoMoon.io -->
<svg version="1.1" xmlns="http://www.w3.org/2000/svg" width="32" height="32" viewBox="0 0 32 32">
<title>gnu</title>
<path d="M10.016 7.584c-0.672 0-1.44 0.096-2.24 0.512-0.896 0.48-1.504 0.992-2.016 1.952s-0.608 1.696-0.512 2.848 0.448 1.984 1.12 2.816c0.672 0.832 1.344 1.248 2.592 1.408l0.256-1.152-0.48 0.672 0.032-0.736-0.416 0.512-0.192-0.704-0.352 0.576-0.16-0.768-0.48 0.384 0.16-0.64-0.672 0.064 0.32-0.448h-0.608l0.352-0.608-0.512-0.064 0.416-0.544-0.64-0.192 0.512-0.512-0.512-0.416 0.416-0.32-0.384-0.512 0.416-0.48-0.16-0.64 0.352-0.288 0.096-0.704 0.384-0.192 0.32-0.576 0.64-0.064 0.288-0.512 0.64 0.032 0.576-0.32 0.608 0.16 0.704-0.224 0.512 0.128 0.672 0.096 0.64 0.512-0.992-0.352-0.512 0.256-0.416-0.256-0.256 0.192-0.512 0.064-0.448-0.032-0.32 0.384h-0.672l-0.256 0.544-0.576 0.224-0.064 0.608-0.416 0.32 0.128 0.608-0.352 0.608 0.256 0.512-0.256 0.48 0.352 0.256-0.064 0.768 0.512 0.128 0.096 0.576 0.576-0.032 0.352 0.384 0.416-0.416c0.8-0.384 1.12-0.608 1.728-1.28 0.704-0.736 1.088-1.44 2.016-1.952 0.672-0.384 1.216-0.512 1.952-0.384 0.704 0.128 0.928 0.544 1.44 0.992 0.064-0.096 0.064-0.128 0.16-0.192-0.032 0.128-0.064 0.256-0.064 0.384-0.032 0.192 0 0.512 0.032 0.736 0.064 0.224 0.128 0.352 0.32 0.512 0.352 0.256 0.576 0.224 0.864 0.384 0.128 0.064 0.288 0.192 0.352 0.32s-0.032 0.288-0.128 0.32c0.16 0.032 0.384-0.16 0.288-0.352-0.032-0.128-0.224-0.16-0.288-0.256s-0.064-0.192-0.032-0.32c0.032-0.16 0.416-0.352 0.544-0.48 0.192-0.224 0.256-0.416 0.16-0.704-0.16-0.416-0.768-0.736-1.152-0.896-0.16-0.064-0.256-0.096-0.384-0.128 0.288 0.16 0.544 0.288 0.704 0.64 0.096 0.288 0 0.384 0 0.64 0 0.128 0.16 0.192 0.224 0.256s0.064 0.128 0.032 0.224c-0.032-0.096-0.064-0.16-0.128-0.192-0.096-0.064-0.192-0.064-0.256-0.224-0.096-0.224 0.096-0.416-0.096-0.672-0.16-0.192-0.32-0.416-0.576-0.416-0.128 0-0.224 0-0.32 0.064l-0.192-0.224c-0.32-0.288-0.576-0.544-1.056-0.768s-0.704-0.256-1.248-0.224c-0.544 0-1.088 0.032-1.728 0.576-0.032 0.064-0.064 0.096-0.128 0.128 0 0 0 0 0 0-0.704 0.704-2.144 2.528-2.528 2.784s-0.48 0.352-0.96 0.352c-0.512 0-1.28-0.704-1.312-1.568s-0.032-1.184 0.576-2.24 1.696-1.376 2.528-1.472c0.8-0.128 1.28 0.16 1.888 0.16s1.216-0.096 1.376-0.576c-0.064 0.064-0.192 0.096-0.512 0.096s-0.768-0.384-1.28-0.64c-0.512-0.256-1.056-0.288-1.792-0.288-0.096 0-0.192 0-0.288 0zM22.208 7.68c-0.064 0-0.096 0-0.16 0-0.48 0-0.768 0.096-1.056 0.192-0.48 0.192-0.864 0.544-1.344 0.736-0.16 0.064-0.288 0.064-0.416 0 0.096 0.256 0.256 0.352 0.544 0.448 0.224 0.064 0.768 0.032 1.12 0 0.416-0.032 0.608-0.16 1.152-0.16 0.512 0.032 0.928 0.224 1.152 0.352 0.48 0.256 0.8 0.544 1.088 1.024 0.16 0.256 0.288 0.544 0.352 0.864s0.128 0.608 0.128 0.896c0 0.288-0.032 0.576-0.096 0.832-0.16 0.608-0.544 1.216-1.28 1.12-0.448-0.064-1.152-0.928-1.376-1.248-0.48-0.64-0.96-1.344-1.568-1.856-0.192-0.192-0.448-0.352-0.704-0.448 0 0 0 0 0 0l-0.224-0.096c-0.032 0-0.032 0-0.032 0-0.128-0.032-0.256-0.064-0.352-0.064-0.928-0.096-1.184 0.096-1.856 0.64 0.128 0.064 0.256 0.096 0.416 0.16 0.288 0.128 0.576 0.32 0.832 0.544 0.288 0.256 0.384 0.416 0.416 0.768 0 0.224-0.192 0.416-0.384 0.576-0.096 0.128-0.256 0.224-0.32 0.288-0.128 0.096-0.288 0.224-0.128 0.416 0.064 0.064 0.16 0.096 0.224 0.16 0.128 0.096 0.064 0.448-0.096 0.544-0.224 0.128-0.48 0.096-0.64-0.064 0.224-0.032 0.352-0.064 0.352-0.256 0-0.096-0.128-0.192-0.256-0.256-0.32-0.128-0.576-0.096-0.896-0.352-0.32-0.224-0.32-0.352-0.416-0.704-0.16 0-0.288 0-0.512 0.096-0.192 0.064-0.416 0.224-0.608 0.256-0.48 0.096-0.576 0.064-0.832 0-0.48-0.096-1.056 0.096-1.664 0.288-0.096 0.032-0.48 0-0.736 0.096-0.416 0.128-1.024 0.48-1.344 0.768-0.512 0.416-1.184 1.696-1.568 3.168-0.032 0.448 0.096 0.768-0.192 0.992s-0.256 0.768-0.352 0.928c-0.096 0.16-0.224 0.064-0.416 0.288s-0.32 0.192-0.32 0.608c0.192-0.128 0.448-0.256 0.672-0.256 0.192 0 0.192 0.256 0.736-0.256 0.256-0.256 0.8-0.288 1.152-0.384 0.384-0.128 1.024-0.384 1.696-1.12s0.992-1.536 1.12-2.656c0 0.192 0.032 0.416-0.032 0.992s-0.288 1.152 0.096 1.888l0.256 0.48c-0.128-0.192-0.416-0.512-0.512-0.736l-0.192-0.544c-0.448 0.704-0.544 0.8-1.152 1.312-0.032 0.288-0.032 0.608 0.064 0.896s-0.032 0.576 0 0.768l0.032 0.064c0.096 0.192 0.256 0.096 0.32 0.288 0.032 0.192-0.032 0.576 0.032 0.768s0.32 0.064 0.416 0.128c0.128 0.064 0.16 0.16 0.192 0.224s0 0.288 0.096 0.352c0.128 0.032 0.32 0 0.416 0.064s0.16 0.192 0.128 0.32c-0.032 0.128-0.16 0.192-0.224 0.32s-0.064 0.224 0.032 0.352c0.064 0.096 0.192 0.16 0.352 0.224s0.352 0.032 0.512 0.128c0.16 0.064 0.288 0.224 0.384 0.352 0.064 0.128 0.096 0.224 0.096 0.352s-0.064 0.256-0.128 0.384c-0.064 0.128-0.224 0.288 0 0.512 0.256 0.224 0.224 0.128 0.384 0.288-0.032-0.256-0.128-0.48-0.064-0.672 0.096-0.224 0.32-0.256 0.448-0.32s0.192-0.224 0.288-0.32c0 0.128 0.032 0.288 0 0.384-0.032 0.192-0.096 0.384 0.224 0.416 0.128 0.032 0.288-0.064 0.416-0.128-0.064 0.128-0.192 0.256-0.224 0.416s0 0.352 0.128 0.512c0.096 0.16 0.288 0.288 0.448 0.384 0.128 0.096 0.224 0.096 0.32 0.16 0.032 0.16 0 0.32 0 0.48s0.064 0.288 0.16 0.416c0.096 0.128 0.224 0.192 0.352 0.288v0c-0.064-0.16-0.224-0.32-0.224-0.512s0.064-0.288 0.256-0.48 0.576-0.288 0.768-0.448c0.192-0.16 0.256-0.224 0.32-0.384s0.064-0.384 0.064-0.544c0.064 0.192 0.064 0.256 0.096 0.448s-0.128 0.48-0.16 0.64c0.224-0.128 0.384-0.32 0.448-0.48 0.064 0.032 0.032 0.096 0.064 0.256 0.064-0.064 0.16-0.128 0.256-0.224 0.096-0.064 0.16-0.16 0.224-0.256 0.032-0.128 0.032-0.224 0-0.352s-0.192-0.288-0.256-0.416c-0.096-0.16 0-0.288 0-0.48-0.16 0-0.288-0.096-0.48-0.064-0.16 0.032-0.384 0.224-0.544 0.224s-0.288-0.16-0.448-0.224c-0.16-0.032-0.32-0.032-0.448-0.064 0.192-0.16 0.928-0.256 1.44-0.352 0.448-0.064 0.896-0.096 1.344-0.096 0.192-0.032 0.448 0.064 0.608 0 0.128-0.032 0.096-0.128 0.128-0.224 0.128-0.288 0.064-0.544 0-0.864-0.384-0.032-0.832-0.096-1.216-0.064-0.416 0.032-0.896 0.224-1.312 0.224-0.352 0.032-0.896-0.064-1.184-0.256-0.384-0.224-0.672-0.704-0.768-0.864-0.192-0.256-0.384-0.768-0.512-0.992-0.128-0.256-0.16-0.32-0.288-0.416s-0.256-0.096-0.384-0.128c0.16 0 0.32-0.032 0.448 0.032 0.224 0.128 0.448 0.576 0.544 0.8 0.16-0.448 0.128-0.608 0.512-0.864-0.32 0.352-0.32 0.608-0.416 1.024 0.256 0.416 0.64 1.088 1.088 1.248 0.16 0.064 0.448 0.128 0.64 0.16 0.576 0.064 1.12-0.128 1.664-0.256 0.416-0.096 0.832-0.064 1.312-0.032 0.192 0 0.576-0.096 0.672-0.256 0.032-0.096 0.032-0.224-0.032-0.32s-0.224-0.128-0.32-0.224-0.16-0.192-0.224-0.288c-0.384 0.064-0.704 0.096-0.96 0.096 0.192-0.064 0.384-0.128 0.608-0.192s0.448-0.224 0.608-0.32c0.16-0.128 0.288-0.192 0.384-0.32 0.128-0.128 0.288-0.256 0.384-0.416s0.096-0.352 0.096-0.544c0-0.128 0-0.32-0.032-0.48l-0.032-0.096c0-0.032 0-0.032 0-0.064-0.096-0.16-0.224-0.192-0.352-0.224s-0.192 0.064-0.32 0.064c-0.128 0-0.224 0.096-0.416 0s-0.384-0.256-0.544-0.512c-0.192-0.224-0.32-0.64-0.512-0.96-0.288-0.544-0.704-1.056-1.056-1.568-0.032-0.128-0.096-0.288-0.096-0.448-0.032-0.288-0.032-0.608 0.064-0.896 0.064-0.224 0.16-0.448 0.384-0.544 0.096-0.032 0.224-0.032 0.288 0 0.096 0.032 0.16 0.096 0.128 0.224s-0.096 0.128-0.16 0.16c-0.096 0.128-0.128 0.192-0.16 0.32 0.096 0 0.224 0 0.32 0 0.096 0.032 0.192 0.096 0.256 0.256-0.128-0.096-0.192-0.16-0.352-0.16-0.064 0-0.16 0.032-0.256 0.032-0.032 0.096-0.032 0.224-0.096 0.288s-0.128 0.064-0.16 0.16c-0.032 0.096-0.032 0.224 0 0.352 0.224-0.096 0.416-0.16 0.672-0.192 0.096 0 0.256 0.032 0.352 0.032 0.064-0.128 0.192-0.224 0.224-0.384 0.032-0.096 0-0.512-0.032-0.64-0.128-0.32-0.256-0.352-0.448-0.544-0.128-0.128-0.16-0.32-0.192-0.576 0-0.096-0.064-0.192-0.064-0.288-0.256-0.032-0.512-0.032-0.8-0.032 0.128-0.128 0.288-0.256 0.32-0.448s0-0.448-0.096-0.608-0.288-0.32-0.48-0.48c-0.16-0.128-0.384-0.256-0.544-0.352 0.192-0.096 0.416-0.192 0.608-0.224 0.512-0.096 0.96 0.032 1.44 0.352 0.288 0.16 0.544 0.32 0.832 0.64s0.672 0.896 0.96 1.248 0.544 0.608 0.768 0.8c0.256 0.224 0.512 0.256 0.736 0.384l0.384 0.416 0.288-0.384 0.512 0.064 0.096-0.544 0.448-0.128-0.064-0.736 0.32-0.224-0.256-0.48 0.256-0.512-0.32-0.576 0.128-0.544-0.384-0.32-0.032-0.576-0.544-0.224-0.192-0.512h-0.608l-0.256-0.384-0.416 0.032-0.416-0.032-0.256-0.192-0.352 0.224-0.448-0.224-0.864 0.352 0.544-0.512 0.608-0.096 0.448-0.096 0.608 0.192 0.512-0.128 0.512 0.288 0.544-0.032 0.288 0.48 0.544 0.064 0.288 0.544 0.32 0.192 0.096 0.672 0.32 0.288-0.128 0.608 0.352 0.448-0.352 0.48 0.352 0.288-0.448 0.416 0.48 0.48-0.576 0.192 0.352 0.512-0.448 0.064 0.32 0.576h-0.544l0.288 0.416-0.576-0.064 0.128 0.608-0.416-0.352-0.16 0.736-0.288-0.544-0.16 0.672-0.352-0.48v0.704l-0.416-0.64c0.096 0.352 0.064 0.736 0.32 1.088 0.704-0.096 1.184-0.288 1.76-0.832 0.256-0.224 0.512-0.608 0.768-0.992 0-0.032 0-0.032 0-0.032l0.224-0.416c0 0 0 0 0 0 0.128-0.256 0.224-0.512 0.256-0.704 0.192-0.736 0.192-2.080 0.032-2.816-0.192-0.736-0.416-1.088-0.832-1.664-0.384-0.416-0.768-0.864-1.28-1.152-0.672-0.416-1.536-0.544-2.336-0.544zM20.064 13.152c-0.128 0.064-0.256 0.096-0.288 0.224s0.032 0.288 0.128 0.384c0.128 0.16 0.352 0.32 0.448 0.576 0.032 0.128 0.064 0.64 0 0.8-0.032 0.128-0.16 0.224-0.256 0.32 0.064 0.032 0.096 0.032 0.128 0.064s0.16 0.096 0.224 0.224c0.032 0.096 0.032 0.288 0.032 0.352-0.032 0-0.096 0-0.16-0.032-0.032-0.032-0.064-0.128-0.128-0.16s-0.096-0.032-0.16-0.032c0.032 0.064 0.032 0.16 0.032 0.256-0.032 0.192-0.16 0.288-0.32 0.32-0.096 0-0.192-0.032-0.288-0.032 0.032 0.064 0.096 0.128 0.128 0.192 0.16-0.032 0.256-0.032 0.352-0.064s0.16-0.128 0.256-0.16c0.096-0.032 0.192-0.032 0.32-0.032-0.096 0.064-0.16 0.128-0.256 0.224 0.096 0.192 0.16 0.384 0.224 0.576 0.128 0.064 0.256 0.128 0.416 0.224 0.192 0.096 0.384 0.288 0.64 0.416s0.352 0.16 0.576 0.192c0.256 0.064 0.448 0.256 0.672 0.288s0.672 0.032 0.864 0c0.192 0 0.448-0.128 0.48-0.352-0.16 0.064-0.416 0-0.576-0.32-0.032-0.128-0.032-0.384-0.096-0.576-0.096-0.16-0.224-0.224-0.384-0.416s-0.384-0.544-0.512-0.832c-0.16-0.288-0.192-0.608-0.288-0.832-0.128-0.256-0.288-0.48-0.448-0.672-0.288-0.416-0.512-0.704-1.024-0.896-0.224-0.128-0.48-0.16-0.736-0.224zM14.688 13.376c0 0.288 0 0.512-0.096 0.8-0.128 0.32-0.256 0.512-0.576 0.704-0.128 0.064-0.256 0.064-0.352 0.128 0.064-0.096 0.16-0.128 0.192-0.256s0-0.352 0-0.448 0.032-0.128 0.032-0.16c-0.224-0.064-0.32 0.096-0.48 0.384-0.032 0.096 0 0.16-0.032 0.224-0.064 0.064-0.16 0.064-0.256 0.128s-0.16 0.192-0.256 0.256c-0.16 0.16-0.416 0.256-0.608 0.352 0.128-0.128 0.384-0.256 0.48-0.416 0.064-0.064 0.032-0.224 0.128-0.288 0.064-0.064 0.096-0.128 0.192-0.128s0.032-0.128 0.064-0.224c0.032-0.096 0.096-0.128 0.16-0.224s0.128-0.224 0.256-0.256c0.128-0.064 0.32 0 0.416-0.032s0.032-0.096 0.096-0.128c0.096-0.032 0.224-0.032 0.32-0.064 0.16-0.096 0.224-0.224 0.32-0.352zM16.064 13.76c0.128 0.064 0.288 0.16 0.416 0.16s0.16-0.096 0.224-0.128c0.096 0.352 0.224 0.736 0.416 1.056 0.064 0.128 0.096 0.064 0.16 0.192s0.096 0.416 0.16 0.576c0.032 0.16 0.096 0.288 0.16 0.448-0.16-0.224-0.352-0.544-0.448-0.704-0.096-0.192-0.032-0.224-0.096-0.384s-0.224-0.48-0.32-0.704c-0.096 0-0.192 0.032-0.256 0s-0.032-0.064-0.096-0.128c-0.032-0.032-0.128 0-0.224-0.064s-0.096-0.224-0.096-0.32zM15.744 14.624c0.064 0 0.128 0 0.192 0.032s0.096 0.064 0.128 0.128c0.16 0.224 0.16 0.416 0.224 0.704 0.032 0.064 0.064 0.096 0.128 0.16 0.032 0.096 0.032 0.192 0.064 0.288-0.064-0.064-0.032-0.16-0.16-0.192-0.128-0.064-0.288 0-0.448 0 0.096 0.096 0.16 0.16 0.16 0.352 0 0.224-0.16 0.384-0.352 0.384-0.256 0.032-0.416-0.032-0.512-0.256-0.032-0.096 0-0.224 0-0.32-0.32 0.032-0.32 0-0.544 0.192 0.128 0.192 0.192 0.288 0.416 0.416 0.096 0.064 0.224 0.128 0.384 0.128 0.128 0.032 0.384 0.064 0.512 0.032 0.16-0.032 0.256-0.064 0.352-0.16 0.128-0.096 0.128-0.256 0.16-0.384 0 0.128 0 0.256-0.064 0.352-0.128 0.256-0.32 0.32-0.608 0.32-0.256 0-0.544-0.064-0.8-0.16-0.16-0.064-0.48-0.288-0.576-0.48-0.032-0.128 0-0.288 0-0.448 0.256-0.16 0.32-0.128 0.64-0.16 0.128-0.032 0.192-0.064 0.32-0.096 0.128 0 0.288 0.032 0.416 0.032s0.192-0.032 0.288-0.064c-0.032-0.16 0-0.48-0.16-0.608-0.128-0.064-0.544-0.032-0.64 0-0.256 0.064-0.544 0.224-0.8 0.32 0.224-0.192 0.448-0.32 0.704-0.416 0.128-0.032 0.384-0.096 0.576-0.096zM19.392 15.744c-0.16 0-0.192 0-0.32 0.096 0.064 0.096 0.128 0.224 0.192 0.32 0-0.224 0.032-0.256 0.128-0.416zM16.704 16.416c0 0.224 0.032 0.416-0.064 0.576s-0.256 0.096-0.416 0.16c0.128-0.096 0.256-0.128 0.32-0.256s0.128-0.32 0.16-0.48zM20.16 16.672c-0.064 0.032-0.096 0.064-0.16 0.096s-0.16 0.064-0.256 0.064c0.128 0.224 0.256 0.448 0.384 0.672s0.256 0.448 0.384 0.704c0-0.16 0-0.288-0.032-0.416 0-0.128-0.064-0.224-0.128-0.416s-0.128-0.448-0.192-0.704zM17.472 18.176c0.224 0 0.544 0.032 0.768 0.128 0.192 0.096 0.352 0.256 0.544 0.384 0.192 0.096 0.32 0.16 0.48 0.288 0.288 0.192 0.448 0.416 0.64 0.544 0.096 0.064 0.224 0.032 0.32 0.064-0.096 0.032-0.192 0.064-0.32 0.032-0.096-0.032-0.288-0.16-0.384-0.224-0.192-0.16-0.256-0.224-0.448-0.352-0.128-0.064-0.32-0.128-0.448-0.224-0.096-0.064-0.32-0.256-0.448-0.32-0.16-0.064-0.416-0.096-0.608-0.096-0.224 0-0.544 0.032-0.736 0.192-0.192 0.192-0.256 0.32-0.192 0.544 0.064-0.096 0.096-0.192 0.16-0.256 0.16-0.096 0.32-0.128 0.48-0.096 0.192 0.032 0.288 0.128 0.352 0.32-0.032-0.032-0.128-0.096-0.192-0.128-0.128-0.032-0.256-0.032-0.384 0.064-0.16 0.064-0.128 0.192-0.16 0.352 0 0.064-0.032 0.128-0.032 0.192-0.064-0.032-0.128-0.064-0.16-0.096 0 0.064-0.032 0.128 0 0.192 0 0.096 0.032 0.16 0.064 0.256-0.096-0.128-0.224-0.224-0.288-0.384-0.096-0.128-0.128-0.288-0.128-0.448 0.032-0.32 0.128-0.576 0.384-0.704 0.16-0.096 0.352-0.192 0.576-0.224 0.032 0 0.096 0 0.16 0zM17.696 19.328c0.064 0 0.096 0 0.128 0 0.128 0.032 0.256 0.064 0.352 0.096 0.096 0.064 0.16 0.096 0.256 0.192 0.192 0.192 0.32 0.416 0.384 0.672 0.032 0.16 0.032 0.384 0.064 0.576-0.064-0.16-0.096-0.352-0.192-0.512-0.128-0.288-0.32-0.512-0.608-0.64-0.096-0.032-0.128-0.032-0.192-0.032 0.032 0.032 0.064 0.064 0.064 0.128s0 0.16-0.096 0.192c-0.16 0.096-0.32 0.032-0.448-0.064-0.096-0.096-0.128-0.288-0.064-0.416 0.032-0.128 0.192-0.16 0.352-0.192zM14.72 19.776c0.128 0 0.288 0.032 0.448 0.064-0.16 0.032-0.32 0.064-0.48 0.096-0.032 0.064 0 0.128-0.064 0.16-0.032 0.064-0.096 0.064-0.128 0.096 0-0.128-0.064-0.288 0.032-0.352 0.032-0.032 0.128-0.064 0.192-0.064zM32 16c0 8.832-7.168 16-16 16s-16-7.168-16-16c0-8.832 7.168-16 16-16s16 7.168 16 16z"></path>
</svg>
