<!-- Generated by IcoMoon.io -->
<svg version="1.1" xmlns="http://www.w3.org/2000/svg" width="41" height="32" viewBox="0 0 41 32">
<title>google-plus</title>
<path d="M25.664 16.288c0 7.488-5.024 12.8-12.576 12.8-7.232 0-13.088-5.856-13.088-13.088s5.856-13.088 13.088-13.088c3.552 0 6.496 1.28 8.768 3.424l-3.552 3.424c-0.96-0.928-2.656-2.016-5.216-2.016-4.448 0-8.096 3.68-8.096 8.256s3.648 8.256 8.096 8.256c5.184 0 7.136-3.712 7.424-5.632h-7.424v-4.512h12.352c0.128 0.672 0.224 1.344 0.224 2.176zM41.152 14.112v3.744h-3.744v3.744h-3.744v-3.744h-3.744v-3.744h3.744v-3.712h3.744v3.712h3.744z"></path>
</svg>
