<!-- Generated by IcoMoon.io -->
<svg version="1.1" xmlns="http://www.w3.org/2000/svg" width="32" height="32" viewBox="0 0 32 32">
<title>google-play</title>
<path d="M4.576 1.28l13.856 13.76 3.776-3.808-16.8-9.696c-0.256-0.16-0.576-0.256-0.832-0.256zM3.392 1.92c-0.128 0.224-0.192 0.48-0.192 0.768v26.752c0 0.224 0.032 0.416 0.128 0.576l14.176-14.080-14.112-14.016zM23.392 11.904l-4.064 4.032 4.064 4.032 4.96-2.848c0.704-0.416 0.8-0.928 0.8-1.216-0.032-0.448-0.32-0.864-0.8-1.12-0.416-0.224-3.552-2.048-4.96-2.88zM18.432 16.832l-13.984 13.856c0.224 0 0.48-0.064 0.704-0.192 0.544-0.32 11.616-6.72 11.616-6.72l5.472-3.136-3.808-3.808z"></path>
</svg>
