<!-- Generated by IcoMoon.io -->
<svg version="1.1" xmlns="http://www.w3.org/2000/svg" width="27" height="32" viewBox="0 0 27 32">
<title>google-plus-square</title>
<path d="M16.384 16.16c0-0.448-0.064-0.8-0.128-1.152h-6.464v2.368h3.904c-0.16 0.992-1.184 2.944-3.904 2.944-2.336 0-4.256-1.92-4.256-4.32s1.92-4.32 4.256-4.32c1.344 0 2.24 0.544 2.752 1.056l1.856-1.824c-1.216-1.088-2.752-1.76-4.608-1.76-3.776 0-6.848 3.072-6.848 6.848s3.072 6.848 6.848 6.848c3.968 0 6.592-2.784 6.592-6.688zM22.528 16.992h1.952v-1.984h-1.952v-1.952h-1.952v1.952h-1.952v1.984h1.952v1.952h1.952v-1.952zM27.424 7.424v17.152c0 2.848-2.304 5.152-5.152 5.152h-17.12c-2.848 0-5.152-2.304-5.152-5.152v-17.152c0-2.848 2.304-5.152 5.152-5.152h17.12c2.848 0 5.152 2.304 5.152 5.152z"></path>
</svg>
