<!-- Generated by IcoMoon.io -->
<svg version="1.1" xmlns="http://www.w3.org/2000/svg" width="32" height="32" viewBox="0 0 32 32">
<title>google-wallet</title>
<path d="M7.872 12c0.352 0 0.704 0.16 0.928 0.448 3.136 4.288 5.312 8.864 6.464 13.824h-7.968c-1.408-4.96-3.52-9.504-6.56-13.376-0.256-0.352 0-0.896 0.48-0.896h6.656zM17.856 18.368c-0.576 2.4-1.344 4.768-2.24 7.008-0.928-3.712-2.464-7.232-4.576-10.592 0.48-2.592 0.736-5.248 0.8-8.032 2.528 4.064 4.512 7.936 6.016 11.616zM19.616 5.696c5.344 7.36 9.312 16.448 10.176 26.304h-8.064c-0.576-9.536-4.992-18.56-9.856-26.304h7.744zM32 16c0 4.96-0.672 10.176-1.792 14.496-0.8-6.592-2.976-13.184-6.432-19.328-0.288-3.616-0.928-7.104-1.888-10.432-0.096-0.384 0.192-0.736 0.576-0.736h6.4c0.48 0 0.96 0.32 1.088 0.832 1.344 4.8 2.048 9.92 2.048 15.168z"></path>
</svg>
