<!-- Generated by IcoMoon.io -->
<svg version="1.1" xmlns="http://www.w3.org/2000/svg" width="27" height="32" viewBox="0 0 27 32">
<title>google-plus-circle</title>
<path d="M16.384 16.16c0-0.384-0.032-0.768-0.128-1.152h-6.464v2.368h3.904c-0.288 1.888-2.080 2.944-3.904 2.944-2.368 0-4.256-1.952-4.256-4.32s1.888-4.32 4.256-4.32c1.024 0 2.016 0.32 2.752 1.056l1.856-1.824c-1.28-1.152-2.848-1.76-4.608-1.76-3.776 0-6.848 3.072-6.848 6.848s3.072 6.848 6.848 6.848c3.968 0 6.592-2.784 6.592-6.688zM22.528 16.992h1.952v-1.984h-1.952v-1.952h-1.952v1.952h-1.952v1.984h1.952v1.952h1.952v-1.952zM27.424 16c0 7.552-6.144 13.728-13.696 13.728s-13.728-6.176-13.728-13.728 6.144-13.728 13.728-13.728 13.696 6.144 13.696 13.728z"></path>
</svg>
