<!-- Generated by IcoMoon.io -->
<svg version="1.1" xmlns="http://www.w3.org/2000/svg" width="32" height="32" viewBox="0 0 32 32">
<title>grav</title>
<path d="M23.040 8.512c-0.544-0.672-1.472 0.416-0.992 1.024 0.48 0.576 2.080 0.16 0.992-1.024zM15.968 12.896c-0.192 0.192-0.48 0.192-0.672 0s-0.192-0.48 0-0.672c0.192-0.192 0.48-0.192 0.672 0s0.192 0.48 0 0.672zM18.944 14.208l-0.64 0.64c-0.288 0.288-0.768 0.288-1.056 0l-0.704-0.704c-0.288-0.288-0.288-0.768 0-1.056l0.64-0.64c0.288-0.288 0.768-0.288 1.056 0l0.704 0.704c0.256 0.288 0.256 0.768 0 1.056zM16.992 11.904c-0.192 0.16-0.48 0.16-0.672 0-0.192-0.224-0.192-0.512 0-0.704s0.48-0.192 0.672 0c0.192 0.192 0.192 0.48 0 0.704zM24.192 10.144c-0.8 1.504-2.912 2.144-4.224 1.216-1.28-0.928-2.176-2.784-0.768-4.384s2.656-1.12 3.872 0.064c0.768 0.736 1.888 1.6 1.12 3.104zM27.776 18.752c0.16-1.056-1.312-1.088-1.664-1.664-0.864-1.568-1.76-2.368-3.488-1.952 0.736-0.544 1.504-0.416 1.504-0.416 0.032-0.416 0-0.832-0.608-1.6 0.256-0.8 0.032-1.44 0.032-1.44 0.992-0.544 1.728-1.568 1.856-2.784 0.224-2.016-1.216-3.84-3.2-4.064-1.44-0.16-2.816 0.512-3.52 1.664-1.504 2.592 0.096 4.576 1.472 5.248-0.96-0.096-2.24-0.768-2.592-2.208-0.448-1.664 0.16-3.232 0.544-3.968 0 0-0.256-0.384-0.512-0.576 0 0-0.896 0-1.568 0.352 0.768-0.992 1.6-0.928 1.6-0.928 0-0.416-0.032-0.96-0.224-1.408-0.352-0.736-1.6-0.832-2.080 0.288 0-0.064 0.032-0.096 0.064-0.128-0.32 0.768-0.064 3.584 1.088 5.6-0.16 0.096-0.576 0.416-0.832 0.672-1.408 0.608-3.616 3.872-3.616 3.872-1.824 0.704-5.024 3.296-4.576 5.152v0c0 0.192 0.096 0.352 0.192 0.48-0.192 0.128-0.352 0.32-0.544 0.544-0.768 0.896-0.32 2.272 1.152 1.568 1.024-0.48 1.92-1.312 2.368-1.984 0 0-0.384-0.32-1.088-0.288 1.792-0.416 2.24-0.576 3.008-0.576 0.512 0.256 0.512-2.208 0.512-2.208 0-0.96-0.128-2.016-0.704-2.688 0.8 0.8 1.856 2.112 1.792 3.904-0.064 1.184-0.992 1.504-0.992 1.504-0.576 1.056-2.784 4.256-1.952 6.816 0 0-0.64-0.96-0.672-1.408-1.12 1.248-3.008 3.36-1.6 4.16 1.728 0.928 7.040-5.728 8.16-9.184 2.24-1.344 3.584-3.040 4.128-4.192 1.44 2.848 6.176 6.112 6.56 3.84zM32.032 16c0 8.832-7.168 16-16 16s-16.032-7.168-16.032-16 7.168-16 16.032-16 16 7.168 16 16z"></path>
</svg>
