<!-- Generated by IcoMoon.io -->
<svg version="1.1" xmlns="http://www.w3.org/2000/svg" width="88" height="32" viewBox="0 0 88 32">
<title>haiku</title>
<path d="M23.136 21.952c9.024 8.672 18.4 11.2 27.648 9.6-1.504-1.12-2.24-2.496-2.848-3.616 10.336 5.888 15.488-1.44 18.656-3.776-1.088-0.896-2.432-0.192-4.608-2.88 2.816 0.384 4.64 0.224 7.232 0.224 1.632-1.504 4.096-2.688 5.6-4.48 1.888-2.208 4.256-5.248 6.208-7.776-1.248-0.768-1.504-1.44-1.984-2.368 1.152 0.256 2.304 0.416 3.456 0.384 1.536-2.912 3.968-4.736 5.6-5.504-6.816-2.368-15.584-2.048-21.92-0.768-2.112 1.824-2.016 4.16-2.72 8.032-1.312-1.728-1.92-3.904-1.152-6.912-4.448 1.408-8.8 3.296-12.96 5.28-1.632 0.736-5.632 3.584-7.968 4.48-1.088 1.664-2.016 3.232-2.752 4.768-0.064-1.408-0.288-2.784-0.16-4.224-7.68 1.216-11.84 3.264-16.64 7.52-10.24 0.032-21.696-4.352-21.6-5.952l-0.224 3.712c0 0 12.768 4.832 23.168 4.256v0z"></path>
</svg>
