<!-- Generated by IcoMoon.io -->
<svg version="1.1" xmlns="http://www.w3.org/2000/svg" width="27" height="32" viewBox="0 0 27 32">
<title>imdb</title>
<path d="M16.48 14.24v3.232c0 0.64 0.096 1.248-0.704 1.216v-5.504c0.8 0 0.704 0.416 0.704 1.056zM22.112 15.936v2.176c0 0.352 0.096 0.928-0.416 0.928-0.096 0-0.192-0.032-0.256-0.16-0.128-0.32-0.064-2.912-0.064-2.944 0-0.256-0.064-0.832 0.32-0.832 0.48 0 0.416 0.48 0.416 0.832zM3.2 20.16h2.208v-8.416h-2.208v8.416zM10.976 20.16h1.888v-8.416h-2.848l-0.512 3.936c-0.16-1.312-0.352-2.656-0.544-3.936h-2.848v8.416h1.92v-5.568l0.8 5.568h1.376l0.768-5.696v5.696zM18.56 14.72c0-0.544 0-1.12-0.096-1.632-0.288-1.472-2.080-1.344-3.232-1.344h-1.632v8.416c5.696 0 4.96 0.384 4.96-5.44zM24.224 18.24v-2.4c0-1.12-0.064-1.984-1.472-1.984-0.576 0-0.992 0.192-1.376 0.608v-2.72h-2.080v8.416h1.952l0.128-0.544c0.384 0.448 0.8 0.64 1.376 0.64 1.312 0 1.472-0.992 1.472-2.016zM27.424 5.152v21.696c0 1.568-1.28 2.88-2.848 2.88h-21.728c-1.568 0-2.848-1.312-2.848-2.88v-21.696c0-1.6 1.28-2.88 2.848-2.88h21.728c1.568 0 2.848 1.28 2.848 2.88z"></path>
</svg>
