<!-- Generated by IcoMoon.io -->
<svg version="1.1" xmlns="http://www.w3.org/2000/svg" width="32" height="32" viewBox="0 0 32 32">
<title>inkscape</title>
<path d="M17.792 3.072l4.352 4.416c0.416 0.448 0.416 1.248 0.16 1.504l-2.144-1.76-0.448 2.592-1.792-0.96-2.912 1.824-0.96-3.872-1.536 2.688h-2.4c-0.96 0-1.088-1.216-0.192-2.112 1.536-1.632 3.296-3.328 4.256-4.32s2.656-0.96 3.616 0zM10.752 19.584c0.288 0.16 4.736 1.088 5.824 1.248 0.384 0.096 0.128 0.48-0.384 0.736-1.184 0.32-6.88-1.984-5.44-1.984zM13.376 2.272l-11.008 11.296c-3.744 4.608 2.528 4.064 5.216 5.408 0.96 0.96-3.68 1.696-2.72 2.688s5.824 1.888 6.784 2.88c0.96 0.992-1.984 2.016-1.024 3.008s3.2 0.064 3.616 2.336c0.288 1.6 4 0.672 5.824-0.64 0.96-0.992-1.824-0.896-0.864-1.888 2.368-2.432 4.608-0.896 5.44-3.328 0.384-1.216-3.52-1.888-2.56-2.848 2.752-1.632 12.32-2.688 7.776-7.232l-11.424-11.68c-1.376-1.344-3.712-1.344-5.056 0zM26.048 24.032c0 0.544 4.128 0.928 4.128-0.128-0.576-1.728-3.648-1.6-4.128 0.128zM7.488 27.008c0.96 0.832 2.464-0.224 2.912-1.408-0.928-1.248-4.48 0.064-2.912 1.408zM25.536 25.184c-1.248 1.12 0.128 2.272 1.376 1.536 0.288-0.288 0-1.28-1.376-1.536z"></path>
</svg>
