<!-- Generated by IcoMoon.io -->
<svg version="1.1" xmlns="http://www.w3.org/2000/svg" width="27" height="32" viewBox="0 0 27 32">
<title>instagram</title>
<path d="M18.272 16c0-2.528-2.048-4.576-4.544-4.576s-4.576 2.048-4.576 4.576 2.048 4.576 4.576 4.576 4.544-2.048 4.544-4.576zM20.736 16c0 3.904-3.136 7.040-7.008 7.040s-7.040-3.136-7.040-7.040 3.136-7.040 7.040-7.040 7.008 3.136 7.008 7.040zM22.688 8.672c0 0.928-0.736 1.632-1.664 1.632s-1.632-0.704-1.632-1.632 0.736-1.632 1.632-1.632 1.664 0.736 1.664 1.632zM13.728 4.736c-2.016 0-6.304-0.16-8.096 0.576-0.64 0.224-1.088 0.544-1.568 1.024s-0.8 0.96-1.056 1.568c-0.704 1.792-0.544 6.080-0.544 8.096s-0.16 6.272 0.544 8.096c0.256 0.608 0.576 1.088 1.056 1.568s0.928 0.768 1.568 1.024c1.792 0.736 6.080 0.576 8.096 0.576s6.272 0.16 8.064-0.576c0.64-0.256 1.088-0.544 1.6-1.024s0.768-0.96 1.024-1.568c0.704-1.824 0.544-6.112 0.544-8.096s0.16-6.304-0.544-8.096c-0.256-0.608-0.544-1.088-1.024-1.568s-0.96-0.8-1.6-1.024c-1.792-0.736-6.080-0.576-8.064-0.576zM27.424 16c0 1.888 0.032 3.776-0.096 5.664-0.096 2.176-0.608 4.128-2.208 5.76s-3.552 2.080-5.728 2.208c-1.92 0.096-3.776 0.096-5.664 0.096s-3.776 0-5.664-0.096c-2.208-0.128-4.16-0.608-5.76-2.208s-2.112-3.584-2.208-5.76c-0.128-1.888-0.096-3.776-0.096-5.664s-0.032-3.776 0.096-5.664c0.096-2.208 0.608-4.128 2.208-5.76s3.552-2.112 5.76-2.208c1.888-0.096 3.744-0.096 5.664-0.096s3.744 0 5.664 0.096c2.176 0.096 4.128 0.608 5.728 2.208s2.112 3.552 2.208 5.76c0.128 1.888 0.096 3.776 0.096 5.664z"></path>
</svg>
