<!-- Generated by IcoMoon.io -->
<svg version="1.1" xmlns="http://www.w3.org/2000/svg" width="32" height="32" viewBox="0 0 32 32">
<title>internet-explorer</title>
<path d="M32 16.736c0 0.608-0.032 1.248-0.128 1.856h-20.544c0 3.552 3.136 6.112 6.56 6.112 2.304 0 4.544-1.152 5.728-3.168h7.552c-2.016 5.76-7.456 9.6-13.536 9.6-2.208 0-4.384-0.544-6.368-1.504-1.984 1.024-4.8 2.080-7.040 2.080-2.976 0-4.224-1.824-4.224-4.704 0-1.664 0.352-3.328 0.8-4.896 0.288-1.056 1.44-3.136 1.952-4.096 2.208-4 5.088-7.808 8.48-10.816-2.72 1.184-5.696 4.128-7.616 6.304 1.504-6.528 7.328-11.136 14.016-11.136 0.256 0 0.544 0 0.8 0 2.208-1.024 5.312-2.080 7.744-2.080 2.88 0 5.376 1.088 5.376 4.384 0 1.696-0.672 3.552-1.344 5.088 1.184 2.144 1.792 4.544 1.792 6.976zM30.752 5.312c0-2.016-1.44-3.232-3.392-3.232-1.504 0-3.2 0.608-4.544 1.248 2.912 1.12 5.376 3.2 7.040 5.824 0.416-1.184 0.896-2.592 0.896-3.84zM2.272 27.392c0 2.080 1.248 3.2 3.296 3.2 1.568 0 3.36-0.704 4.736-1.472-2.912-1.728-5.152-4.448-6.272-7.648-0.832 1.696-1.76 4-1.76 5.92zM11.296 14.656h12.992c-0.128-3.456-3.168-5.92-6.496-5.92-3.36 0-6.368 2.464-6.496 5.92z"></path>
</svg>
