<!-- Generated by IcoMoon.io -->
<svg version="1.1" xmlns="http://www.w3.org/2000/svg" width="37" height="32" viewBox="0 0 37 32">
<title>ioxhost</title>
<path d="M26.112 14.848c0 0.832-0.672 1.536-1.536 1.536h-12.512c-0.864 0-1.536-0.704-1.536-1.536s0.672-1.536 1.536-1.536h12.512c0.864 0 1.536 0.704 1.536 1.536zM29.952 14.848c0-1.056-0.16-2.048-0.416-3.040h-17.536c-0.864 0-1.536-0.672-1.536-1.504 0-0.864 0.672-1.536 1.536-1.536h16.224c-2.048-3.328-5.728-5.568-9.92-5.568-6.432 0-11.648 5.216-11.648 11.648 0 1.056 0.128 2.048 0.384 3.040h17.536c0.864 0 1.536 0.672 1.536 1.504 0 0.864-0.672 1.536-1.536 1.536h-16.192c2.048 3.36 5.728 5.568 9.92 5.568 6.4 0 11.648-5.216 11.648-11.648zM36.576 10.304c0 0.832-0.672 1.504-1.536 1.504h-2.336c0.192 0.992 0.288 2.016 0.288 3.040 0 8.128-6.592 14.72-14.688 14.72-5.952 0-11.072-3.552-13.376-8.64h-3.392c-0.864 0-1.536-0.672-1.536-1.536 0-0.832 0.672-1.504 1.536-1.504h2.368c-0.192-0.992-0.32-1.984-0.32-3.040 0-8.096 6.592-14.72 14.72-14.72 5.92 0 11.040 3.552 13.376 8.64h3.36c0.864 0 1.536 0.672 1.536 1.536z"></path>
</svg>
