<!-- Generated by IcoMoon.io -->
<svg version="1.1" xmlns="http://www.w3.org/2000/svg" width="32" height="32" viewBox="0 0 32 32">
<title>javascript</title>
<path d="M19.040 26.4c0.896 1.76 2.688 3.104 5.472 3.104 2.88 0 4.992-1.504 4.992-4.192 0-2.528-1.44-3.648-4-4.736l-0.736-0.32c-1.28-0.576-1.856-0.928-1.856-1.824 0-0.736 0.576-1.28 1.44-1.28s1.408 0.352 1.92 1.28l2.368-1.504c-0.992-1.76-2.368-2.4-4.288-2.4-2.688 0-4.416 1.696-4.416 3.968 0 2.432 1.44 3.616 3.616 4.512l0.768 0.32c1.376 0.608 2.176 0.992 2.176 2.016 0 0.864-0.8 1.472-2.048 1.472-1.472 0-2.304-0.768-2.944-1.824l-2.464 1.408zM8.416 26.752c0.704 1.504 2.112 2.752 4.512 2.752 2.656 0 4.48-1.44 4.48-4.544v-10.272h-3.008v10.208c0 1.504-0.608 1.92-1.6 1.92-1.024 0-1.472-0.736-1.92-1.568l-2.464 1.504zM0 0h32v32h-32z"></path>
</svg>
