<!-- Generated by IcoMoon.io -->
<svg version="1.1" xmlns="http://www.w3.org/2000/svg" width="32" height="32" viewBox="0 0 32 32">
<title>java</title>
<path d="M15.776 16.608c-0.672-1.088-1.152-1.984-1.824-3.648-1.12-2.816 6.88-5.376 3.616-10.304 1.408 3.392-5.024 5.504-5.632 8.32-0.544 2.592 3.84 5.632 3.84 5.632zM15.936 11.52c-0.128 1.664 1.472 2.56 1.504 3.776 0.064 0.992-0.96 1.824-0.96 1.824s1.824-0.352 2.4-1.856c0.64-1.696-1.216-2.848-1.024-4.192 0.16-1.312 4-3.712 4-3.712s-5.632 0.384-5.92 4.16zM21.376 16.704c1.184-0.256 2.176 0.48 2.176 1.344 0 1.92-2.688 3.744-2.688 3.744s4.16-0.48 4.16-3.648c0-2.112-2.048-2.624-3.648-1.44zM19.424 18.272c0 0 1.28-0.928 1.632-1.28-3.168 0.672-10.432 0.768-10.432 0.192 0-0.544 2.336-1.12 2.336-1.12s-5.184-0.064-5.184 1.472c0 1.6 6.784 1.696 11.648 0.736zM18.624 19.712c-3.008 0.992-8.544 0.672-6.912-0.672-0.8 0-1.984 0.64-1.984 1.28 0 1.216 5.984 2.176 10.432 0.384zM12.448 21.824c-1.088 0-1.792 0.704-1.792 1.216 0 1.6 6.528 1.76 9.088 0.128l-1.632-1.088c-1.92 0.864-6.752 0.96-5.664-0.256zM24.192 24.416c0-0.608-0.704-0.928-0.96-1.056 1.472 3.584-14.88 3.296-14.88 1.184 0-0.48 1.216-0.96 2.336-0.736l-0.96-0.544c-2.208-0.352-3.712 0.608-3.712 1.408 0 3.68 18.176 3.488 18.176-0.256zM26.016 25.728c-2.784 2.752-9.792 3.744-16.832 2.048 7.040 3.008 16.8 1.312 16.832-2.048z"></path>
</svg>
