<!-- Generated by IcoMoon.io -->
<svg version="1.1" xmlns="http://www.w3.org/2000/svg" width="27" height="32" viewBox="0 0 27 32">
<title>joomla</title>
<path d="M19.104 19.168l-2.848 2.848-2.688 2.72-0.544 0.512c-1.568 1.568-3.776 2.112-5.76 1.6-0.384 1.664-1.856 2.88-3.616 2.88-2.016 0-3.648-1.664-3.648-3.712 0-1.728 1.184-3.168 2.816-3.552-0.512-2.016 0.032-4.224 1.6-5.792l0.224-0.224 2.688 2.72-0.192 0.192c-0.896 0.864-0.896 2.304 0 3.2 0.864 0.864 2.304 0.864 3.168 0l0.544-0.544 2.688-2.72 2.88-2.848zM13.024 6.976l0.224 0.224-2.72 2.72-0.224-0.224c-0.864-0.864-2.304-0.864-3.168 0s-0.896 2.304 0 3.2l6.080 6.080-2.688 2.72-2.88-2.848-2.688-2.72-0.544-0.544c-1.632-1.632-2.144-3.968-1.536-6.048-1.632-0.352-2.848-1.824-2.848-3.584 0-2.016 1.664-3.68 3.68-3.68 1.824 0 3.328 1.344 3.616 3.072 1.984-0.448 4.128 0.096 5.696 1.632zM27.424 26.016c0 2.048-1.632 3.712-3.648 3.712-1.792 0-3.264-1.28-3.616-2.976v0c-2.080 0.672-4.448 0.16-6.080-1.504l-0.192-0.192 2.688-2.72 0.224 0.224c0.864 0.864 2.304 0.864 3.168 0s0.864-2.304 0-3.2l-6.112-6.112 2.72-2.688 5.568 5.568 0.512 0.544c1.568 1.536 2.112 3.744 1.6 5.728 1.792 0.256 3.168 1.76 3.168 3.616zM27.392 5.952c0 1.856-1.376 3.392-3.168 3.648 0.576 2.048 0.064 4.352-1.568 5.984l-0.192 0.224-2.72-2.72 0.224-0.224c0.864-0.864 0.864-2.304 0-3.168s-2.304-0.864-3.168 0l-6.112 6.112-2.72-2.72 2.88-2.848 2.72-2.72 0.512-0.544c1.632-1.632 3.936-2.144 6.016-1.536 0.256-1.792 1.792-3.168 3.648-3.168 2.016 0 3.648 1.664 3.648 3.68z"></path>
</svg>
