<!-- Generated by IcoMoon.io -->
<svg version="1.1" xmlns="http://www.w3.org/2000/svg" width="32" height="32" viewBox="0 0 32 32">
<title>jquery</title>
<path d="M2.144 7.872c-2.816 4.032-2.464 9.28-0.32 13.568 0.064 0.096 0.128 0.192 0.16 0.288 0.032 0.064 0.064 0.128 0.096 0.192s0.064 0.096 0.064 0.128 0.096 0.128 0.128 0.192c0.064 0.128 0.128 0.224 0.192 0.352 0.032 0.064 0.096 0.128 0.128 0.192 0.064 0.128 0.16 0.256 0.224 0.384 0.032 0.032 0.064 0.096 0.096 0.128 0.128 0.192 0.224 0.352 0.352 0.512 0 0 0 0 0 0 0.032 0.032 0.064 0.064 0.064 0.096 0.096 0.128 0.224 0.288 0.32 0.416 0.032 0.032 0.096 0.096 0.128 0.16 0.096 0.096 0.192 0.224 0.288 0.352 0.032 0.032 0.064 0.064 0.096 0.128 0.128 0.16 0.288 0.288 0.416 0.448 0 0 0 0 0 0 0 0.032 0 0.032 0.032 0.032 0.128 0.16 0.256 0.288 0.384 0.448 0.064 0.032 0.096 0.064 0.128 0.128 0.128 0.096 0.224 0.192 0.352 0.32 0.032 0.032 0.096 0.064 0.128 0.128 0.16 0.128 0.288 0.256 0.448 0.384 0 0.032 0 0.032 0 0.032 0.032 0 0.064 0.032 0.096 0.064 0.128 0.096 0.256 0.224 0.384 0.352 0.064 0.032 0.128 0.064 0.192 0.128 0.096 0.096 0.224 0.16 0.32 0.256 0.064 0.032 0.128 0.096 0.192 0.128 0.128 0.096 0.256 0.192 0.384 0.288 0.032 0.032 0.096 0.064 0.128 0.096 0.032 0 0.032 0.032 0.032 0.032 0.128 0.064 0.256 0.16 0.384 0.224 0.064 0.064 0.096 0.096 0.16 0.128 0.192 0.128 0.384 0.224 0.576 0.352 0.064 0.032 0.096 0.064 0.16 0.096 0.16 0.064 0.288 0.16 0.448 0.224 0.064 0.064 0.16 0.096 0.224 0.128 0.096 0.064 0.224 0.128 0.32 0.16 0.032 0.032 0.032 0.032 0.064 0.032 0.032 0.032 0.096 0.064 0.128 0.064 0.16 0.096 0.32 0.16 0.512 0.224 0.032 0.032 0.064 0.032 0.096 0.064 0.192 0.064 0.384 0.16 0.576 0.224 0.032 0.032 0.096 0.064 0.128 0.064 0.192 0.064 0.352 0.128 0.544 0.192 0.032 0.032 0.064 0.032 0.064 0.032 0.192 0.064 0.416 0.128 0.608 0.192 0.064 0.032 0.096 0.032 0.16 0.064 0.192 0.064 0.416 0.128 0.608 0.16 13.568 2.464 17.504-8.16 17.504-8.16-3.296 4.32-9.184 5.472-14.752 4.192-0.192-0.032-0.416-0.096-0.608-0.16-0.064-0.032-0.096-0.032-0.16-0.064-0.192-0.064-0.384-0.128-0.608-0.192 0 0-0.032-0.032-0.064-0.032-0.192-0.064-0.352-0.128-0.544-0.192-0.032-0.032-0.096-0.032-0.128-0.064-0.192-0.064-0.384-0.16-0.576-0.224-0.032-0.032-0.064-0.032-0.128-0.064-0.16-0.064-0.32-0.128-0.48-0.224-0.032 0-0.064-0.032-0.128-0.064-0.128-0.064-0.256-0.128-0.384-0.192-0.064-0.032-0.16-0.064-0.224-0.128-0.16-0.064-0.32-0.16-0.448-0.256-0.064 0-0.096-0.032-0.16-0.064-0.192-0.128-0.384-0.256-0.576-0.352-0.064-0.032-0.096-0.064-0.16-0.128-0.128-0.064-0.288-0.16-0.416-0.256-0.032-0.032-0.096-0.064-0.128-0.096-0.128-0.096-0.256-0.192-0.384-0.288-0.064-0.032-0.128-0.096-0.192-0.128-0.096-0.096-0.224-0.192-0.352-0.288-0.032-0.032-0.096-0.064-0.128-0.096-0.16-0.128-0.32-0.256-0.448-0.384-0.032 0-0.032-0.032-0.064-0.032-0.16-0.16-0.288-0.288-0.448-0.416-0.032-0.064-0.096-0.096-0.128-0.128-0.128-0.128-0.224-0.224-0.32-0.32-0.064-0.064-0.096-0.096-0.128-0.128-0.16-0.16-0.288-0.288-0.416-0.448 0 0-0.032 0-0.032-0.032-0.128-0.128-0.256-0.288-0.416-0.448-0.032-0.064-0.064-0.096-0.096-0.128-0.096-0.128-0.192-0.256-0.288-0.384-0.032-0.032-0.096-0.064-0.128-0.128-0.096-0.16-0.224-0.288-0.32-0.448-3.104-4.224-4.224-10.048-1.76-14.816zM10.848 4.48c-2.016 2.912-1.92 6.816-0.32 9.92 0.256 0.512 0.544 1.024 0.896 1.504 0.288 0.416 0.64 0.928 1.024 1.28 0.16 0.16 0.32 0.32 0.48 0.48 0.032 0.032 0.064 0.064 0.096 0.128 0.16 0.128 0.32 0.288 0.48 0.416 0 0 0 0.032 0 0.032s0.032 0 0.032 0c0.16 0.16 0.352 0.288 0.544 0.448 0.032 0.032 0.064 0.064 0.096 0.096 0.192 0.128 0.384 0.288 0.576 0.416 0 0 0 0 0.032 0 0.064 0.064 0.16 0.128 0.256 0.192 0.032 0 0.064 0.032 0.128 0.064 0.128 0.096 0.256 0.192 0.416 0.256 0 0.032 0.032 0.032 0.064 0.032 0.096 0.096 0.224 0.16 0.352 0.224 0.064 0.032 0.096 0.032 0.128 0.064 0.096 0.032 0.192 0.096 0.256 0.128 0.032 0 0.032 0.032 0.064 0.032 0.16 0.064 0.352 0.16 0.544 0.256 0.032 0 0.064 0.032 0.096 0.032 0.16 0.064 0.32 0.128 0.448 0.192 0.064 0.032 0.128 0.032 0.192 0.064 0.16 0.064 0.288 0.096 0.416 0.128 0.064 0.032 0.128 0.064 0.192 0.064 0.192 0.064 0.384 0.16 0.576 0.192 10.496 1.728 12.896-6.336 12.896-6.336-2.176 3.136-6.4 4.64-10.912 3.456-0.192-0.032-0.384-0.096-0.576-0.16-0.064-0.032-0.128-0.032-0.192-0.064-0.128-0.032-0.256-0.096-0.416-0.128-0.064-0.032-0.128-0.064-0.192-0.096-0.128-0.032-0.288-0.096-0.416-0.16-0.064-0.032-0.096-0.032-0.128-0.064-0.192-0.064-0.384-0.16-0.544-0.256-0.096-0.032-0.192-0.096-0.288-0.128-0.064-0.032-0.096-0.064-0.16-0.096-0.096-0.064-0.224-0.128-0.352-0.192-0.032 0-0.032-0.032-0.064-0.032-0.16-0.096-0.288-0.16-0.416-0.256-0.064-0.032-0.096-0.064-0.128-0.096-0.096-0.064-0.192-0.128-0.288-0.16-0.192-0.16-0.384-0.288-0.576-0.416-0.032-0.032-0.064-0.064-0.096-0.128-1.984-1.536-3.552-3.68-4.288-6.080-0.768-2.496-0.608-5.312 0.736-7.584zM18.176 1.952c-1.184 1.76-1.312 3.936-0.48 5.888 0.864 2.048 2.656 3.68 4.768 4.448 0.064 0.032 0.16 0.064 0.256 0.096 0.032 0 0.064 0 0.096 0.032 0.128 0.032 0.256 0.064 0.384 0.096 5.792 1.12 7.36-2.976 7.776-3.584-1.376 1.984-3.68 2.464-6.528 1.792-0.224-0.064-0.48-0.16-0.672-0.224-0.288-0.096-0.544-0.224-0.832-0.352-0.48-0.224-0.96-0.512-1.408-0.864-2.56-1.92-4.128-5.6-2.464-8.576z"></path>
</svg>
