<!-- Generated by IcoMoon.io -->
<svg version="1.1" xmlns="http://www.w3.org/2000/svg" width="37" height="32" viewBox="0 0 37 32">
<title>jsfiddle</title>
<path d="M32.16 13.792c2.56 1.056 4.416 3.584 4.416 6.528 0 3.936-3.232 7.104-7.2 7.104-0.128 0-0.256 0-0.384 0h-21.728c-4-0.256-7.264-3.296-7.264-7.264 0-2.656 1.44-4.992 3.616-6.24-0.16-0.48-0.224-0.96-0.224-1.472 0-2.752 2.24-4.96 5.024-4.96 1.152 0 2.208 0.416 3.072 1.056 1.76-3.616 5.472-6.112 9.792-6.112 6.016 0 10.88 4.8 10.88 10.72 0 0.192 0 0.416 0 0.64zM8.352 18.528c0 3.008 2.368 4.704 5.216 4.704 1.76 0 3.008-0.544 4.288-1.76-0.512-0.64-1.088-1.248-1.632-1.92-0.736 0.736-1.536 1.184-2.56 1.184-1.28 0-2.368-0.832-2.368-2.176 0-1.312 1.088-2.144 2.336-2.144 3.936 0 4.768 6.848 10.464 6.848 2.784 0 5.152-1.76 5.152-4.672 0-2.976-2.368-4.704-5.184-4.704-1.76 0-3.072 0.512-4.32 1.728 0.576 0.64 1.12 1.28 1.664 1.92 0.704-0.672 1.536-1.12 2.528-1.12 1.184 0 2.368 0.832 2.368 2.080 0 1.376-0.992 2.24-2.336 2.24-3.808 0-4.832-6.848-10.4-6.848-2.752 0-5.216 1.696-5.216 4.64z"></path>
</svg>
