<!-- Generated by IcoMoon.io -->
<svg version="1.1" xmlns="http://www.w3.org/2000/svg" width="34" height="32" viewBox="0 0 34 32">
<title>laptop</title>
<path d="M7.424 22.848c-1.568 0-2.848-1.28-2.848-2.848v-12.576c0-1.568 1.28-2.848 2.848-2.848h19.424c1.568 0 2.88 1.28 2.88 2.848v12.576c0 1.568-1.312 2.848-2.88 2.848h-19.424zM6.848 7.424v12.576c0 0.288 0.288 0.576 0.576 0.576h19.424c0.32 0 0.576-0.288 0.576-0.576v-12.576c0-0.288-0.256-0.576-0.576-0.576h-19.424c-0.288 0-0.576 0.288-0.576 0.576zM31.424 24h2.848v1.696c0 0.96-1.28 1.728-2.848 1.728h-28.576c-1.568 0-2.848-0.768-2.848-1.728v-1.696h31.424zM18.56 25.696c0.16 0 0.288-0.096 0.288-0.256s-0.128-0.288-0.288-0.288h-2.848c-0.16 0-0.288 0.096-0.288 0.288s0.128 0.256 0.288 0.256h2.848z"></path>
</svg>
