<!-- Generated by IcoMoon.io -->
<svg version="1.1" xmlns="http://www.w3.org/2000/svg" width="27" height="32" viewBox="0 0 27 32">
<title>lastfm-square</title>
<path d="M25.568 18.784c0-2.528-2.016-3.648-4.16-4.256-0.992-0.288-1.792-0.512-2.144-1.6-0.032-0.064-0.128-0.416-0.128-0.48 0-0.864 0.672-1.472 1.536-1.472 0.384 0 0.928-0.032 1.248 0.256v0c0.32 0.256 0.48 0.544 0.704 0.896l1.632-1.248c-0.256-0.384-0.512-0.832-0.864-1.152v0c-0.832-0.736-1.632-0.864-2.72-0.864-1.888 0-3.648 1.536-3.648 3.456 0 0.16 0 0.288 0.032 0.416 0.384 2.432 1.632 3.2 3.808 3.808 1.056 0.32 2.592 0.8 2.592 2.112v0.096c0.032 1.408-1.184 2.272-2.496 2.272-1.472 0-2.432-1.376-3.008-2.56-2.048-4.256-2.368-9.6-8.512-9.6-3.712 0-7.040 3.392-6.912 7.072v0c0.128 3.84 2.752 7.2 6.784 7.2 1.92 0 3.712-0.448 4.992-1.952v0c0.224-0.288 0.416-0.608 0.544-0.928l-1.056-1.952c-0.992 1.92-2.24 2.72-4.384 2.72-2.816 0-4.768-2.496-4.768-5.184 0-2.496 2.304-4.864 4.8-4.864 2.848 0 3.872 1.472 4.896 4.032 1.184 3.072 2.464 8.128 6.624 8.128 2.464 0 4.608-1.792 4.608-4.352zM27.424 7.424v17.152c0 2.848-2.304 5.152-5.152 5.152h-17.12c-2.848 0-5.152-2.304-5.152-5.152v-17.152c0-2.848 2.304-5.152 5.152-5.152h17.12c2.848 0 5.152 2.304 5.152 5.152z"></path>
</svg>
