<!-- Generated by IcoMoon.io -->
<svg version="1.1" xmlns="http://www.w3.org/2000/svg" width="32" height="32" viewBox="0 0 32 32">
<title>lastfm</title>
<path d="M23.072 12.576c0 0.096 0.128 0.608 0.192 0.736 0.48 1.44 1.6 1.76 2.944 2.144 2.976 0.832 5.792 2.4 5.792 5.92 0 3.552-2.976 6.048-6.432 6.048-5.76 0-7.52-7.040-9.184-11.328-1.376-3.52-2.816-5.6-6.816-5.6-3.52 0-6.624 3.392-6.624 6.88 0 3.68 2.752 7.136 6.592 7.136 1.696 0 3.456-0.384 4.608-1.728v0c0.544-0.608 1.088-1.28 1.472-2.048l1.504 2.72c-0.192 0.448-0.48 0.864-0.768 1.248v0c-1.792 2.080-4.256 2.72-6.912 2.72-5.408 0-9.44-4.768-9.44-10.016 0-5.088 4.416-9.824 9.568-9.824 8.544 0 8.96 7.392 11.872 13.344 0.768 1.632 2.112 3.584 4.16 3.584 1.856 0 3.488-1.216 3.488-3.168 0-4.256-7.808-1.376-8.896-8.352-0.032-0.192-0.064-0.384-0.064-0.576 0-2.656 2.496-4.928 5.12-4.832 1.568 0.064 2.496 0.096 3.744 1.216v0c0.48 0.448 0.832 1.056 1.216 1.568l-2.304 1.76c-0.288-0.48-0.512-0.896-0.96-1.248v0c-0.448-0.416-1.216-0.384-1.76-0.384-1.152 0-2.112 0.864-2.112 2.080z"></path>
</svg>
