<!-- Generated by IcoMoon.io -->
<svg version="1.1" xmlns="http://www.w3.org/2000/svg" width="37" height="32" viewBox="0 0 37 32">
<title>leanpub</title>
<path d="M33.792 7.008l2.784 22.72c-1.664 0-3.104-0.352-4.608-1.024-2.208-1.024-4.544-1.632-7.008-1.632-2.528 0-4.864 0.832-6.688 2.656-1.792-1.824-4.128-2.656-6.656-2.656-2.464 0-4.8 0.608-7.040 1.632-1.44 0.64-2.88 1.024-4.48 1.024h-0.096l2.784-22.72c2.528-1.472 5.632-2.272 8.608-2.272 2.4 0 4.864 0.48 6.88 1.888 2.048-1.408 4.512-1.888 6.912-1.888 2.976 0 6.080 0.8 8.608 2.272zM24.96 24.608c3.392 0 5.728 0.928 8.8 2.176l-2.208-18.208c-2.016-0.928-4.384-1.408-6.592-1.408-2.496 0-4.832 0.8-6.688 2.528-1.824-1.728-4.16-2.528-6.656-2.528-2.208 0-4.576 0.48-6.592 1.408l-2.208 18.208c3.072-1.248 5.408-2.176 8.8-2.176 2.432 0 4.608 0.64 6.656 1.952 2.080-1.312 4.256-1.952 6.688-1.952zM25.696 24l-0.992-16.192c-2.592 0.064-4.608 0.928-6.432 2.784-1.856-1.92-4-2.784-6.656-2.784-2.016 0-4.16 0.416-6.016 1.184l-2.016 16.8c2.688-1.088 5.056-1.792 8.032-1.792 2.336 0 4.64 0.576 6.656 1.824 2.048-1.248 4.352-1.888 6.688-1.824z"></path>
</svg>
