<!-- Generated by IcoMoon.io -->
<svg version="1.1" xmlns="http://www.w3.org/2000/svg" width="27" height="32" viewBox="0 0 27 32">
<title>linkedin</title>
<path d="M6.24 11.168v17.696h-5.888v-17.696h5.888zM6.624 5.696c0 1.696-1.28 3.040-3.328 3.040v0h-0.032c-1.984 0-3.264-1.344-3.264-3.040 0-1.728 1.312-3.072 3.328-3.072s3.264 1.344 3.296 3.072zM27.424 18.72v10.144h-5.856v-9.472c0-2.368-0.864-4-3.008-4-1.6 0-2.592 1.088-3.008 2.144-0.128 0.384-0.192 0.896-0.192 1.44v9.888h-5.888c0.096-16.032 0-17.696 0-17.696h5.888v2.56h-0.032c0.768-1.216 2.144-2.976 5.344-2.976 3.872 0 6.752 2.528 6.752 7.968z"></path>
</svg>
