<!-- Generated by IcoMoon.io -->
<svg version="1.1" xmlns="http://www.w3.org/2000/svg" width="27" height="32" viewBox="0 0 27 32">
<title>linkedin-square</title>
<path d="M4.224 25.248h4.128v-12.384h-4.128v12.384zM8.64 9.024c-0.032-1.216-0.896-2.144-2.304-2.144s-2.368 0.928-2.368 2.144c0 1.184 0.896 2.144 2.304 2.144v0c1.472 0 2.368-0.96 2.368-2.144zM19.072 25.248h4.128v-7.104c0-3.808-2.048-5.568-4.736-5.568-2.24 0-3.2 1.216-3.744 2.080h0.032v-1.792h-4.128s0.064 1.152 0 12.384v0h4.128v-6.944c0-0.352 0.032-0.704 0.128-0.992 0.288-0.736 0.992-1.504 2.112-1.504 1.504 0 2.080 1.12 2.080 2.816v6.624zM27.424 7.424v17.152c0 2.848-2.304 5.152-5.152 5.152h-17.12c-2.848 0-5.152-2.304-5.152-5.152v-17.152c0-2.848 2.304-5.152 5.152-5.152h17.12c2.848 0 5.152 2.304 5.152 5.152z"></path>
</svg>
