<!-- Generated by IcoMoon.io -->
<svg version="1.1" xmlns="http://www.w3.org/2000/svg" width="27" height="32" viewBox="0 0 27 32">
<title>linode</title>
<path d="M5.888 27.424l3.616 3.808-0.608-4.224-3.872-3.808zM9.92 31.456l4.896-3.904-0.192-4.384-5.344 3.84zM4.384 20.064l4.032 3.776-0.832-5.824-4.384-3.648zM8.832 24.064l5.664-3.84-0.256-5.792-6.272 3.584zM15.040 24.256l1.696 1.408-0.032-4.256-1.824-1.408c0 0.128 0.064 0.384-0.064 0.512l-1.408 0.928 1.536 1.248c0.16 0.128 0.096 1.344 0.096 1.568zM2.464 10.816l4.576 3.584-1.216-8.32-4.992-3.072zM20.96 22.656l0.256-4.192-4.096 2.944 0.032 4.288zM7.456 14.528l6.656-3.456-0.352-7.872-7.552 2.912zM22.688 21.056l0.352-4.16-4.032-2.528-0.032 1.856 2.56 1.696c0.064 0.032 0.096 0.096 0.064 0.16l-0.128 2.144zM26.080 18.56l0.544-3.968-3.2 2.304-0.352 4.064zM22.72 21.536l-1.248-0.864-0.16 2.080c0 0.064 0 0.128-0.064 0.16l-4.16 3.328c-0.096 0.064-0.192 0.064-0.256 0l-1.76-1.472 0.128 2.88c0 0.032-0.032 0.096-0.064 0.128l-5.248 4.192c-0.032 0-0.064 0.032-0.096 0.032-0.064-0.032-0.096-0.032-0.16-0.064l-4.064-4.32c-0.096-0.096-0.96-4.48-1.056-4.928 0-0.096 0.032-0.16 0.096-0.224l1.088-0.64c-0.224-0.192-1.664-1.472-1.696-1.664l-1.28-6.24c-0.032-0.096 0-0.16 0.096-0.224l1.696-0.8c-0.288-0.224-2.368-1.728-2.432-1.92l-1.696-8.352c-0.032-0.096 0.032-0.192 0.128-0.224l7.712-2.4c0.032 0 0.096 0 0.16 0l5.664 2.752c0.032 0.032 0.096 0.096 0.096 0.16l0.352 8.256c0 0.064-0.032 0.16-0.096 0.192l-2.112 1.088 2.24 1.504c0.064 0.032 0.096 0.096 0.096 0.16l0.096 2.176 2.144-1.312c0.064-0.032 0.16-0.032 0.224 0l1.472 0.992 0.064-1.952c0-0.064 0.032-0.128 0.096-0.16l3.68-2.24c0.064-0.064 0.128-0.064 0.192 0l4.384 2.4c0.032 0.032 0.064 0.064 0.064 0.128 0.064 0.128-0.544 4.128-0.576 4.544 0 0.064-0.064 0.096-0.096 0.128l-3.392 2.72c-0.096 0.064-0.16 0.064-0.256 0z"></path>
</svg>
