<!-- Generated by IcoMoon.io -->
<svg version="1.1" xmlns="http://www.w3.org/2000/svg" width="29" height="32" viewBox="0 0 29 32">
<title>linux</title>
<path d="M11.84 7.328v0c-0.352 0.032-0.224 0.352-0.416 0.352-0.192 0.032-0.16-0.384 0.416-0.352zM13.408 7.584c-0.192 0.064-0.224-0.288-0.544-0.192v0c0.544-0.224 0.704 0.128 0.544 0.192zM7.136 15.2c-0.16-0.032-0.128 0.288-0.288 0.544-0.128 0.224-0.448 0.384-0.192 0.416v0c0.064 0.032 0.32-0.192 0.448-0.416 0.064-0.32 0.16-0.48 0.032-0.544zM22.4 21.632c0-0.32-0.704-0.64-0.992-0.768 0.48-1.6 0.288-2.24-0.064-3.776-0.224-1.12-1.28-2.688-2.112-3.168 0.224 0.192 0.608 0.704 1.024 1.472 0.704 1.344 1.44 3.328 0.96 4.992-0.192 0.64-0.608 0.704-0.896 0.736-1.248 0.128-0.512-1.504-1.024-3.744-0.608-2.496-1.216-2.656-1.344-2.848-0.736-3.264-1.536-2.944-1.76-4.16-0.224-1.088 0.928-1.984-0.608-2.272-0.48-0.096-1.184-0.576-1.44-0.608s-0.416-1.824 0.576-1.856c0.992-0.096 1.184 1.088 0.992 1.568-0.288 0.448 0.032 0.64 0.512 0.48 0.384-0.128 0.128-1.152 0.224-1.312-0.256-1.504-0.864-1.696-1.504-1.824-2.464 0.192-1.376 2.912-1.632 2.656-0.352-0.384-1.376-0.032-1.376-0.288 0-1.376-0.448-2.176-1.088-2.208-0.736 0-0.992 0.992-1.056 1.568-0.032 0.512 0.32 1.664 0.576 1.568 0.192-0.064 0.48-0.416 0.16-0.384-0.16 0-0.416-0.416-0.448-0.864 0-0.48 0.16-0.928 0.768-0.928 0.704 0.032 0.704 1.408 0.64 1.472-0.224 0.16-0.512 0.48-0.544 0.512-0.256 0.384-0.704 0.48-0.864 0.64-0.32 0.32-0.384 0.704-0.16 0.8 0.832 0.48 0.576 1.024 1.696 1.056 0.768 0.032 1.312-0.128 1.824-0.288 0.416-0.096 1.664-0.384 1.952-0.832 0.096-0.192 0.256-0.192 0.352-0.16 0.16 0.096 0.192 0.448-0.256 0.544-0.608 0.192-1.248 0.512-1.792 0.736-0.576 0.224-0.736 0.32-1.28 0.416-1.152 0.192-2.048-0.448-1.248 0.32 0.256 0.256 0.512 0.416 1.184 0.416 1.504-0.064 3.168-1.856 3.328-1.056 0.032 0.16-0.48 0.384-0.864 0.576-1.376 0.672-2.368 2.048-3.264 1.568-0.8-0.416-1.6-2.4-1.6-1.504 0.032 1.376-1.792 2.592-0.96 4.16-0.544 0.128-1.792 2.752-1.952 4.128-0.096 0.768 0.064 1.728-0.128 2.272-0.256 0.8-1.472-0.736-1.088-2.624 0.064-0.32 0-0.384-0.096-0.224-0.48 0.864-0.224 2.112 0.192 2.944 0.16 0.384 0.576 0.544 0.864 0.864 0.64 0.736 3.104 2.528 3.52 2.976 0.544 0.544 0.384 1.76-0.736 1.888v0c0.576 1.088 1.152 1.184 1.12 3.008 0.704-0.352 0.416-1.152 0.128-1.632-0.192-0.384-0.448-0.544-0.384-0.608 0.032-0.064 0.384-0.384 0.576-0.128 0.608 0.672 1.76 0.8 2.976 0.64s2.56-0.576 3.168-1.568c0.288-0.448 0.48-0.608 0.608-0.544 0.128 0.096 0.192 0.416 0.16 0.928 0 0.576-0.224 1.184-0.416 1.664-0.16 0.544-0.192 0.928 0.352 0.928 0.128-0.992 0.416-1.984 0.48-2.976 0.096-1.152-0.736-3.232 0.16-4.288 0.224-0.288 0.512-0.32 0.928-0.32 0.032-1.44 2.24-1.344 2.976-0.736zM11.168 6.848c0.096-0.448-0.128-0.768-0.224-0.8-0.224-0.064-0.192 0.256-0.096 0.224v0c0.096 0 0.16 0.128 0.128 0.288-0.032 0.192 0 0.352 0.16 0.352 0 0 0.032 0 0.032-0.064zM18.656 10.368c-0.064-0.352-0.32-0.224-0.608-0.384-0.32-0.224-0.416-0.576-0.544-0.448v0c-0.352 0.416 0.48 1.248 0.832 1.344 0.224 0.032 0.384-0.256 0.32-0.512zM15.488 6.56c0-0.416-0.352-0.64-0.448-0.608-0.224 0-0.16 0.128-0.064 0.16v0c0.16 0.032 0.288 0.288 0.32 0.544 0 0.032 0.192-0.032 0.192-0.096zM16.448 2.4c0.032-0.096-0.224-0.192-0.384-0.32-0.128-0.128-0.288-0.256-0.416-0.256-0.352 0.032-0.192 0.416-0.224 0.576v0c-0.096 0.192-0.352 0.352-0.16 0.512 0.16 0.128 0.256-0.192 0.608-0.32 0.064-0.032 0.48 0 0.576-0.192zM26.528 26.368c2.208 1.344-0.8 2.464-2.112 3.136-1.024 0.512-2.368 1.664-2.88 2.144-0.384 0.352-1.92 0.544-2.816 0.096-0.992-0.544-0.48-1.344-2.048-1.408-0.768 0-1.536 0-2.304 0-0.672 0-1.376 0.032-2.048 0.064-2.368 0.032-2.592 1.568-4.128 1.504-1.024-0.032-2.336-0.864-4.576-1.312-1.568-0.32-3.104-0.416-3.424-1.12s0.384-1.472 0.448-2.144c0.064-0.928-0.672-2.144-0.128-2.624 0.448-0.416 1.44-0.096 2.080-0.448 0.672-0.416 0.96-0.704 0.96-1.536 0.256 0.832 0 1.536-0.576 1.888-0.32 0.224-0.96 0.32-1.472 0.256-0.416-0.032-0.672 0.032-0.768 0.192-0.16 0.192-0.096 0.544 0.096 1.024s0.416 0.768 0.384 1.344c-0.032 0.544-0.672 1.248-0.544 1.728 0.032 0.16 0.192 0.32 0.64 0.448 0.736 0.192 2.016 0.384 3.296 0.704 1.408 0.352 2.88 0.992 3.776 0.864 2.72-0.352 1.184-3.264 0.736-3.968v0c-2.304-3.616-3.808-5.984-5.024-5.056-0.32 0.256-0.32-0.608-0.32-0.928 0.064-1.184 0.64-1.6 1.024-2.528 0.672-1.728 1.184-3.712 2.208-4.736 0.768-0.992 1.984-2.624 2.24-3.488-0.224-1.856-0.256-3.808-0.288-5.536-0.032-1.824 0.224-3.424 2.304-4.544 0.512-0.288 1.152-0.384 1.856-0.384 1.248-0.032 2.624 0.32 3.488 0.992 1.408 1.024 2.272 3.232 2.176 4.8-0.096 1.216 0.128 2.496 0.512 3.808 0.48 1.568 1.216 2.656 2.4 3.904 1.408 1.504 2.496 4.448 2.816 6.304 0.288 1.76-0.096 2.848-0.48 2.912-0.576 0.064-0.928 1.888-2.72 1.824-1.12-0.064-1.248-0.736-1.568-1.344-0.512-0.896-1.024-0.608-1.216 0.352-0.128 0.48-0.032 1.184 0.128 1.728 0.32 1.12 0.192 2.176 0 3.488-0.384 2.464 1.728 2.912 3.136 1.76 1.408-1.184 1.696-1.344 3.456-1.952 2.656-0.928 1.76-1.728 0.352-2.208-1.28-0.416-1.344-2.592-0.896-3.008 0.128 2.336 1.344 2.656 1.824 3.008z"></path>
</svg>
