<!-- Generated by IcoMoon.io -->
<svg version="1.1" xmlns="http://www.w3.org/2000/svg" width="32" height="32" viewBox="0 0 32 32">
<title>medium</title>
<path d="M10.656 7.52v20.928c0 0.576-0.256 1.088-0.864 1.088-0.224 0-0.416-0.064-0.608-0.128l-8.288-4.192c-0.512-0.224-0.896-0.896-0.896-1.408v-20.352c0-0.448 0.224-0.864 0.704-0.864 0.288 0 0.544 0.128 0.768 0.256l9.152 4.576c0 0.032 0.032 0.064 0.032 0.096zM11.808 9.312l9.536 15.456-9.536-4.736v-10.72zM32 9.632v18.816c0 0.608-0.352 1.024-0.928 1.024-0.288 0-0.576-0.096-0.832-0.256l-7.872-3.904zM31.936 7.488c0 0.064-9.216 15.072-9.92 16.192l-6.976-11.296 5.792-9.408c0.192-0.352 0.544-0.512 0.928-0.512 0.16 0 0.32 0.032 0.448 0.096l9.664 4.832c0.032 0 0.064 0.064 0.064 0.096z"></path>
</svg>
