<!-- Generated by IcoMoon.io -->
<svg version="1.1" xmlns="http://www.w3.org/2000/svg" width="34" height="32" viewBox="0 0 34 32">
<title>meetup</title>
<path d="M23.808 22.016c-0.192-1.28-2.528-0.256-2.688-1.696-0.192-1.984 2.752-6.304 2.496-8-0.192-1.472-1.216-1.792-2.080-1.824-0.832-0.032-1.056 0.128-1.344 0.288-0.16 0.096-0.416 0.288-0.736-0.032-0.384-0.352-0.672-0.736-1.216-0.8-0.768-0.128-1.088 0.128-1.664 0.608-0.192 0.192-0.736 0.8-1.248 0.576-0.192-0.096-0.96-0.48-1.472-0.704-1.024-0.448-2.528 0.288-3.040 1.248-0.8 1.408-2.4 7.072-2.624 7.808-0.544 1.664 0.672 3.040 2.304 2.944 0.704-0.032 1.152-0.288 1.6-1.088 0.256-0.448 2.592-6.72 2.784-7.040 0.128-0.192 0.544-0.48 0.896-0.32 0.384 0.224 0.448 0.608 0.384 0.96-0.064 0.608-1.76 4.416-1.792 4.864-0.224 1.408 1.664 1.664 2.4 0.256 0.224-0.448 2.848-5.792 3.104-6.144 0.256-0.416 0.448-0.544 0.704-0.512 0.224 0 0.544 0.064 0.448 0.672-0.064 0.608-2.176 4.512-2.4 5.472-0.288 1.312 0.384 2.592 1.536 3.168 0.704 0.352 3.904 0.992 3.648-0.704zM6.848 25.888c0.064 0.352-0.16 0.704-0.512 0.768-0.32 0.064-0.672-0.128-0.736-0.512-0.096-0.32 0.128-0.672 0.48-0.768s0.704 0.16 0.768 0.512zM17.024 30.592c0.288 0.416 0.16 0.96-0.224 1.248-0.416 0.288-0.96 0.192-1.248-0.224-0.256-0.416-0.16-0.96 0.224-1.248 0.416-0.288 0.96-0.192 1.248 0.224zM3.168 16.096c-0.448 0.64-1.28 0.8-1.92 0.352-0.608-0.448-0.768-1.312-0.352-1.92 0.416-0.672 1.28-0.832 1.92-0.384 0.608 0.448 0.768 1.312 0.352 1.952zM26.208 28.192c0.448 0.64 0.288 1.568-0.384 2.016s-1.568 0.288-2.016-0.384-0.256-1.568 0.384-2.016c0.64-0.48 1.536-0.288 2.016 0.384zM28.192 17.376c1.664 2.72 0.96 6.272-1.632 8.096-1.088 0.768-2.336 1.088-3.552 1.056-0.768 2.944-4.352 4.032-6.592 2.048-0.064 0.064-0.16 0.096-0.224 0.16-2.432 1.696-5.76 1.088-7.456-1.376-0.608-0.896-0.928-1.92-0.96-2.944-4.064-0.672-5.6-5.856-2.56-8.736-1.76-2.912 0.032-6.688 3.328-7.168 1.568-4.128 6.752-6.112 10.24-3.392 4.224-1.376 8.512 1.856 8.192 6.336 2.56 0.768 3.296 4.16 1.216 5.92zM8.128 5.6c0.32 0.48 0.224 1.152-0.256 1.472s-1.152 0.224-1.472-0.256-0.192-1.152 0.288-1.472c0.448-0.32 1.12-0.224 1.44 0.256zM10.976 0.576c0.064 0.416-0.16 0.8-0.576 0.896s-0.768-0.16-0.864-0.576c-0.064-0.384 0.192-0.8 0.576-0.896s0.768 0.16 0.864 0.576zM32.16 17.504c0.096 0.48-0.224 0.96-0.672 1.056-0.48 0.096-0.928-0.192-1.024-0.672s0.192-0.96 0.672-1.056c0.448-0.096 0.928 0.224 1.024 0.672zM20.288 1.568c0.384 0.64 0.192 1.504-0.48 1.888-0.64 0.384-1.472 0.192-1.856-0.448-0.384-0.672-0.192-1.536 0.448-1.92s1.504-0.192 1.888 0.48zM33.6 13.28c0.096 0.352-0.128 0.704-0.48 0.8-0.352 0.064-0.704-0.16-0.768-0.512s0.16-0.704 0.512-0.8c0.32-0.064 0.672 0.16 0.736 0.512zM30.208 8.992c0.352 0.512 0.224 1.248-0.288 1.632-0.544 0.352-1.28 0.224-1.632-0.32s-0.224-1.248 0.288-1.632c0.544-0.384 1.28-0.224 1.632 0.32z"></path>
</svg>
