<!-- Generated by IcoMoon.io -->
<svg version="1.1" xmlns="http://www.w3.org/2000/svg" width="41" height="32" viewBox="0 0 41 32">
<title>mixcloud</title>
<path d="M29.376 19.616c0-1.44-0.896-2.656-2.176-3.136-0.064 0.544-0.224 1.12-0.384 1.632-0.192 0.576-0.736 0.928-1.312 0.928-0.128 0-0.256 0-0.416-0.032-0.736-0.256-1.12-1.024-0.864-1.76 0.256-0.8 0.416-1.664 0.416-2.528 0-4.48-3.648-8.128-8.128-8.128-3.232 0-6.112 1.92-7.392 4.768 1.248 0.32 2.4 0.96 3.36 1.888 0.512 0.544 0.512 1.44 0 1.952s-1.44 0.544-1.952 0c-0.864-0.832-2.016-1.344-3.232-1.344-2.496 0-4.576 2.048-4.576 4.576s2.080 4.544 4.576 4.544h18.688c1.888 0 3.392-1.504 3.392-3.36zM32.096 19.616c0 3.36-2.752 6.080-6.112 6.080h-18.688c-4.032 0-7.296-3.264-7.296-7.264 0-3.68 2.72-6.688 6.24-7.2 1.472-4.352 5.6-7.36 10.272-7.36 5.6 0 10.272 4.288 10.784 9.792 2.752 0.576 4.8 3.040 4.8 5.952zM36.576 19.616c0 2.016-0.608 4-1.728 5.696-0.288 0.384-0.704 0.576-1.152 0.576v0c-0.256 0-0.544-0.064-0.768-0.224-0.608-0.416-0.768-1.28-0.352-1.888 0.832-1.248 1.28-2.688 1.28-4.16 0-1.504-0.448-2.944-1.28-4.16-0.416-0.64-0.256-1.472 0.352-1.92s1.472-0.224 1.92 0.384c1.12 1.696 1.728 3.648 1.728 5.696zM41.152 19.616c0 2.816-0.832 5.568-2.4 7.904-0.256 0.384-0.704 0.608-1.152 0.608v0c-0.256 0-0.512-0.064-0.736-0.224-0.64-0.448-0.8-1.28-0.384-1.92 1.248-1.888 1.92-4.096 1.92-6.368s-0.672-4.512-1.92-6.4c-0.416-0.608-0.256-1.472 0.384-1.888 0.608-0.416 1.472-0.256 1.888 0.384 1.568 2.304 2.4 5.056 2.4 7.904z"></path>
</svg>
