<!-- Generated by IcoMoon.io -->
<svg version="1.1" xmlns="http://www.w3.org/2000/svg" width="14" height="32" viewBox="0 0 14 32">
<title>mobile</title>
<path d="M8.288 25.152c0-0.8-0.64-1.44-1.44-1.44s-1.408 0.64-1.408 1.44 0.64 1.408 1.408 1.408 1.44-0.64 1.44-1.408zM12 22.272v-12.576c0-0.288-0.256-0.544-0.576-0.544h-9.152c-0.288 0-0.544 0.256-0.544 0.544v12.576c0 0.32 0.256 0.576 0.544 0.576h9.152c0.32 0 0.576-0.256 0.576-0.576zM8.576 7.136c0-0.16-0.128-0.288-0.288-0.288h-2.848c-0.16 0-0.288 0.128-0.288 0.288s0.128 0.288 0.288 0.288h2.848c0.16 0 0.288-0.128 0.288-0.288zM13.728 6.848v18.304c0 1.248-1.056 2.272-2.304 2.272h-9.152c-1.248 0-2.272-1.024-2.272-2.272v-18.304c0-1.248 1.024-2.272 2.272-2.272h9.152c1.248 0 2.304 1.024 2.304 2.272z"></path>
</svg>
