<!-- Generated by IcoMoon.io -->
<svg version="1.1" xmlns="http://www.w3.org/2000/svg" width="29" height="32" viewBox="0 0 29 32">
<title>nodejs</title>
<path d="M13.216 0.416c0.8-0.48 1.824-0.48 2.624 0 3.968 2.24 7.936 4.48 11.904 6.72 0.736 0.416 1.248 1.248 1.248 2.112v13.504c0 0.896-0.544 1.728-1.344 2.144-3.936 2.24-7.904 4.48-11.872 6.72-0.8 0.448-1.856 0.416-2.624-0.096-1.184-0.672-2.368-1.376-3.552-2.048-0.256-0.16-0.544-0.256-0.704-0.512 0.16-0.192 0.416-0.224 0.64-0.288 0.512-0.16 0.96-0.416 1.408-0.672 0.128-0.064 0.256-0.032 0.352 0.032 1.024 0.576 2.048 1.184 3.040 1.76 0.224 0.128 0.448-0.064 0.64-0.16 3.872-2.208 7.776-4.384 11.648-6.592 0.16-0.064 0.224-0.224 0.224-0.352 0-4.48 0-8.928 0-13.376 0-0.192-0.096-0.352-0.256-0.416-3.936-2.208-7.872-4.448-11.84-6.656-0.064-0.064-0.128-0.096-0.224-0.096s-0.16 0.032-0.224 0.096c-3.936 2.208-7.904 4.448-11.84 6.656-0.16 0.064-0.256 0.224-0.256 0.416 0 4.448 0 8.896 0 13.376 0 0 0 0 0 0.032 0 0.128 0.096 0.256 0.224 0.32 1.056 0.608 2.112 1.184 3.168 1.792 0.576 0.32 1.312 0.512 1.952 0.256 0.608-0.192 0.992-0.8 0.992-1.408 0-4.416 0-8.832 0-13.28-0.032-0.192 0.16-0.352 0.352-0.32 0.512 0 1.024-0.032 1.536 0 0.192 0 0.352 0.192 0.32 0.384 0 4.48 0 8.928 0 13.376 0 1.184-0.48 2.464-1.6 3.072-1.344 0.704-3.008 0.544-4.352-0.128-1.152-0.576-2.272-1.248-3.392-1.888-0.8-0.416-1.344-1.248-1.344-2.144v-13.504c0-0.896 0.512-1.728 1.28-2.144 3.968-2.24 7.936-4.48 11.872-6.688zM16.672 9.76c1.728-0.128 3.584-0.064 5.12 0.768 1.216 0.672 1.888 2.016 1.888 3.36-0.032 0.192-0.192 0.288-0.384 0.288-0.512-0.032-0.992 0-1.504-0.032-0.192 0.032-0.32-0.16-0.352-0.352-0.16-0.64-0.512-1.28-1.088-1.6-0.928-0.448-2.016-0.416-3.008-0.416-0.736 0.032-1.536 0.096-2.144 0.544-0.48 0.32-0.64 0.96-0.448 1.504 0.16 0.384 0.576 0.512 0.96 0.608 2.080 0.544 4.288 0.512 6.304 1.216 0.864 0.288 1.696 0.864 1.984 1.76 0.352 1.184 0.192 2.592-0.64 3.552-0.704 0.768-1.696 1.184-2.688 1.44-1.312 0.288-2.688 0.288-4.032 0.16-1.248-0.128-2.56-0.48-3.552-1.344-0.832-0.704-1.216-1.824-1.184-2.912 0-0.192 0.192-0.32 0.352-0.32 0.512 0 1.024 0 1.536 0 0.192 0 0.352 0.16 0.352 0.352 0.096 0.608 0.32 1.248 0.864 1.6 1.024 0.672 2.304 0.64 3.456 0.64 0.992-0.032 2.080-0.032 2.88-0.704 0.416-0.352 0.544-0.96 0.416-1.504-0.128-0.448-0.576-0.64-0.992-0.768-2.048-0.672-4.288-0.416-6.304-1.152-0.832-0.288-1.632-0.864-1.952-1.696-0.448-1.216-0.224-2.688 0.704-3.616 0.896-0.896 2.208-1.248 3.456-1.376z"></path>
</svg>
