<!-- Generated by IcoMoon.io -->
<svg version="1.1" xmlns="http://www.w3.org/2000/svg" width="32" height="32" viewBox="0 0 32 32">
<title>oculus</title>
<path d="M24.192 18.592c-0.448 0.288-0.896 0.48-1.408 0.544-0.512 0.096-1.024 0.096-1.536 0.096h-10.496c-0.512 0-1.024 0-1.536-0.096-0.512-0.064-0.96-0.256-1.408-0.544-0.832-0.608-1.376-1.568-1.376-2.592 0-1.056 0.544-2.016 1.376-2.592 0.416-0.32 0.896-0.48 1.408-0.576s0.992-0.064 1.536-0.064h10.496c0.48 0 1.024-0.032 1.504 0.032s0.992 0.288 1.408 0.544c0.864 0.576 1.344 1.568 1.344 2.624s-0.512 1.984-1.376 2.592zM28.416 8.512c-1.12-0.896-2.432-1.504-3.808-1.856-0.8-0.192-1.632-0.288-2.432-0.32-0.608 0-1.216 0-1.824 0h-8.672c-0.608 0-1.216 0-1.824 0-0.832 0.032-1.632 0.128-2.432 0.32-1.408 0.352-2.72 0.96-3.84 1.856-2.272 1.824-3.584 4.576-3.584 7.488s1.312 5.664 3.584 7.456c1.12 0.928 2.432 1.536 3.808 1.888 0.832 0.192 1.632 0.288 2.432 0.288 0.608 0.032 1.216 0.032 1.824 0.032h8.672c0.608 0 1.216 0 1.824-0.032 0.8 0 1.6-0.096 2.4-0.288 1.408-0.352 2.688-0.96 3.84-1.888 2.304-1.792 3.616-4.544 3.616-7.456s-1.312-5.664-3.584-7.488z"></path>
</svg>
