<!-- Generated by IcoMoon.io -->
<svg version="1.1" xmlns="http://www.w3.org/2000/svg" width="27" height="32" viewBox="0 0 27 32">
<title>odnoklassniki-square</title>
<path d="M16.544 10.368c0 1.568-1.248 2.816-2.816 2.816s-2.848-1.248-2.848-2.816 1.28-2.848 2.848-2.848 2.816 1.248 2.816 2.848zM20.384 16.832c-0.32-0.64-1.248-1.184-2.432-0.256 0 0-1.632 1.28-4.224 1.28s-4.256-1.28-4.256-1.28c-1.184-0.928-2.080-0.384-2.432 0.256-0.544 1.152 0.096 1.696 1.536 2.656 1.216 0.768 2.944 1.088 4.032 1.184l-0.896 0.928c-1.312 1.28-2.56 2.528-3.424 3.392-0.512 0.512-0.512 1.376 0 1.888l0.16 0.16c0.512 0.512 1.344 0.512 1.888 0l3.392-3.424c1.28 1.312 2.528 2.56 3.424 3.424 0.512 0.512 1.344 0.512 1.856 0l0.16-0.16c0.544-0.512 0.544-1.376 0-1.888l-4.32-4.32c1.088-0.096 2.784-0.416 4-1.184 1.472-0.96 2.112-1.504 1.536-2.656zM19.488 10.368c0-3.2-2.56-5.792-5.76-5.792s-5.792 2.592-5.792 5.792 2.592 5.76 5.792 5.76 5.76-2.592 5.76-5.76zM27.424 7.424v17.152c0 2.848-2.304 5.152-5.152 5.152h-17.12c-2.848 0-5.152-2.304-5.152-5.152v-17.152c0-2.848 2.304-5.152 5.152-5.152h17.12c2.848 0 5.152 2.304 5.152 5.152z"></path>
</svg>
