<!-- Generated by IcoMoon.io -->
<svg version="1.1" xmlns="http://www.w3.org/2000/svg" width="23" height="32" viewBox="0 0 23 32">
<title>odnoklassniki</title>
<path d="M11.424 16.192c-4.448 0-8.096-3.616-8.096-8.096s3.648-8.096 8.096-8.096 8.128 3.616 8.128 8.096c0 4.48-3.648 8.096-8.128 8.096zM11.424 4.096c-2.176 0-3.968 1.792-3.968 4s1.792 4 3.968 4 4-1.792 4-4c0-2.208-1.792-4-4-4zM20.768 17.184c0.8 1.6-0.096 2.368-2.144 3.68-1.696 1.088-4.064 1.536-5.632 1.696l1.312 1.28 4.768 4.768c0.704 0.736 0.704 1.92 0 2.624l-0.224 0.224c-0.736 0.736-1.888 0.736-2.624 0-1.216-1.216-2.944-2.944-4.768-4.768l-4.768 4.768c-0.736 0.736-1.92 0.736-2.624 0l-0.224-0.224c-0.736-0.704-0.736-1.888 0-2.624 1.216-1.216 2.944-2.976 4.768-4.768l1.28-1.28c-1.536-0.16-3.936-0.576-5.664-1.696-2.016-1.312-2.912-2.080-2.144-3.68 0.48-0.928 1.728-1.696 3.424-0.352 0 0 2.272 1.792 5.92 1.792s5.92-1.792 5.92-1.792c1.696-1.344 2.976-0.576 3.424 0.352z"></path>
</svg>
