<!-- Generated by IcoMoon.io -->
<svg version="1.1" xmlns="http://www.w3.org/2000/svg" width="32" height="32" viewBox="0 0 32 32">
<title>onenote</title>
<path d="M18.464 0l-18.464 3.52v24.928l18.464 3.552v-32zM19.68 3.68v3.648h4.96v2.528h-4.96v2.432h4.928v2.464h-4.928v2.464h4.928v2.464h-4.928v2.464h4.928v2.464h-4.928v3.712h7.584c0.576 0 1.056-0.512 1.056-1.088v-16.16h2.656c0.544 0 1.024-0.48 1.024-1.088v-5.216c0-0.608-0.48-1.088-1.024-1.088h-11.296zM3.68 9.76h2.656l4.352 7.552c0.192 0.32 0.384 0.704 0.544 1.024h0.032c-0.032-0.288-0.064-0.864-0.064-1.728v-6.848h2.336v12.384h-2.496l-4.512-7.776c-0.256-0.448-0.416-0.8-0.512-1.024h-0.064c0.064 0.448 0.096 1.088 0.096 1.984v6.816h-2.368v-12.384zM29.536 12.288v7.392h1.44c0.544 0 1.024-0.48 1.024-1.056v-5.248c0-0.576-0.48-1.088-1.024-1.088h-1.44zM29.536 20.928v7.392h1.44c0.544 0 1.024-0.512 1.024-1.088v-5.248c0-0.576-0.48-1.056-1.024-1.056h-1.44z"></path>
</svg>
