<!-- Generated by IcoMoon.io -->
<svg version="1.1" xmlns="http://www.w3.org/2000/svg" width="49" height="32" viewBox="0 0 49 32">
<title>opencart</title>
<path d="M27.2 27.872c0 1.632-1.28 2.944-2.912 2.944s-2.944-1.312-2.944-2.944 1.312-2.944 2.944-2.944 2.912 1.312 2.912 2.944zM13.856 27.872c0 1.632-1.344 2.944-2.976 2.944s-2.912-1.312-2.912-2.944 1.312-2.944 2.912-2.944 2.976 1.312 2.976 2.944zM0 1.184c5.28 5.568 10.208 6.368 29.632 6.368s10.912 4.352-1.088 15.040c3.808-6.592 16.864-12.448-4.576-12.128-20.544 0.288-21.76-5.952-23.968-9.28z"></path>
</svg>
