<!-- Generated by IcoMoon.io -->
<svg version="1.1" xmlns="http://www.w3.org/2000/svg" width="32" height="32" viewBox="0 0 32 32">
<title>openbsd</title>
<path d="M22.592 14.656c0 0.16-0.128 0.288-0.288 0.288s-0.288-0.128-0.288-0.288c0-0.16 0.128-0.288 0.288-0.288s0.288 0.128 0.288 0.288zM15.68 23.936l0.032 0.032zM19.36 23.904l0.032 0.032zM20.704 23.84l0.032 0.032zM20.64 23.84v0zM17.824 23.84v0zM20.672 23.84l0.064 0.064zM20.512 23.68v0zM19.232 23.808l0.032 0.032zM17.856 23.68l0.032 0.032zM20.32 23.488v0zM20.576 23.584l0.032 0.032zM20.256 23.424v0zM20.288 23.456l0.032 0.032zM16.224 23.232l0.032 0.032zM20.192 23.2l0.032 0.032zM15.968 23.168l0.032 0.032zM19.008 23.136v0zM14.304 23.168l0.032 0.032zM19.648 23.072l0.032 0.032zM22.208 23.040v0zM22.272 23.040l0.032 0.032zM19.904 22.976v0zM19.84 23.008v0.032zM15.136 22.944v0zM16.672 22.976l0.032 0.032zM13.152 22.912l0.032 0.032zM18.688 22.848v0zM18.912 22.848l0.032 0.032zM17.216 22.848l0.032 0.032zM20.384 22.784v0.032zM14.72 22.784v0zM17.856 22.784l0.032 0.032zM20.416 22.784h0.032zM18.656 22.784h0.032zM17.888 22.784v0zM20.576 22.688l0.032 0.032zM16.576 22.656v0zM17.728 22.656v0.032zM20.768 22.624h0.032zM17.952 22.592l0.032 0.032zM21.984 22.56v0.032zM20.896 22.56l0.032 0.032zM14.784 22.432l0.032 0.032zM14.016 22.080v0zM17.728 22.112v0zM13.184 22.144v0zM18.496 22.144v0zM13.28 22.208v0zM18.336 22.24v0zM14.688 22.272v0zM18.592 22.272v0zM14.656 22.304v0zM13.536 22.336v0zM13.888 22.336v0zM18.624 22.336v0zM13.632 22.368v0zM16.48 22.4v0.032zM21.408 22.080h0.032zM17.184 22.080h0.032zM15.552 22.080h0.032zM11.68 22.080h0.032zM21.376 22.048l0.032 0.032zM12.992 22.016l0.032 0.032zM18.176 21.984l0.032 0.032zM19.84 21.952v0.032zM17.664 21.92v0zM12.96 21.952v0.032zM20.032 21.92h0.032zM16.224 21.888v0zM11.776 21.92h0.032zM19.712 21.76v0zM12.832 21.888l0.032 0.032zM15.744 21.76l0.032 0.032zM11.872 21.76l0.032 0.032zM20.992 21.728v0zM19.264 21.728v0zM19.328 21.728v0.032zM15.168 21.664l0.032 0.032zM12.512 21.664l0.032 0.032zM20.896 21.632l0.032 0.032zM15.776 21.632l0.032 0.032zM19.616 21.6l0.032 0.032zM15.104 21.6l0.032 0.032zM12.064 21.568v0.032zM22.624 21.568h0.032zM17.504 21.536l0.032 0.032zM20.704 21.504l0.032 0.032zM17.28 21.408v0zM17.44 21.408v0zM17.312 21.472v0zM17.472 21.472v0zM15.84 21.504v0zM15.968 21.504l0.032 0.032zM22.336 21.376h0.032zM17.248 21.376h0.032zM15.904 21.376h0.032zM10.4 21.376h0.032zM12.608 21.344l0.032 0.032zM10.464 21.344v0.032zM17.216 21.312l0.032 0.032zM16.096 21.28l0.032 0.032zM19.552 21.248l0.032 0.032zM17.344 21.216l0.032 0.032zM16.128 21.216v0.032zM12.384 21.216l0.032 0.032zM22.496 21.184v0.032zM21.568 21.184l0.032 0.032zM19.328 21.184v0zM12.416 21.184v0.032zM15.968 21.184v0zM16.128 21.184h0.032zM17.92 21.12v0zM12.416 21.184h0.032zM10.72 21.088l0.032 0.032zM22.592 21.056l0.032 0.032zM17.952 21.056l0.032 0.032zM14.048 21.056l0.032 0.032zM19.2 21.024v0zM12 21.056l0.032 0.032zM15.328 21.024l0.032 0.032zM21.472 21.024h0.032zM17.152 21.024h0.032zM17.056 21.024c0.32 0.608 0.544 1.152 0.704 1.824 0.192-0.096 0.16-0.288 0.16-0.48 0-0.448 0.192-0.896 0.16-1.344-0.128 0.064-0.16 0.192-0.192 0.32-0.032 0.288-0.064 0.608-0.128 0.896-0.128-0.352-0.256-1.152-0.704-1.216zM11.648 21.024v0zM13.664 21.024h0.032zM19.328 20.992v0.032zM19.296 20.96l0.032 0.032zM16.192 20.96l0.032 0.032zM19.744 20.928l0.032 0.032zM13.76 20.896v0zM16.128 20.928v0.032zM22.72 20.864l0.032 0.032zM19.040 20.864l0.032 0.032zM13.632 20.864l0.032 0.032zM12.064 20.864v0.032zM11.488 20.864l0.032 0.032zM19.008 20.832l0.032 0.032zM13.632 20.832l0.032 0.032zM18.976 20.8v0zM18.976 20.832h0.032zM15.232 20.736l-0.032 0.032c0.128 0.352 0.256 0.672 0.32 1.056 0.032 0.192 0 0.416 0.16 0.544 0.16-0.288 0.224-0.64 0.352-0.928 0.064-0.16 0.192-0.32 0.16-0.512-0.256 0.128-0.416 0.704-0.48 0.992-0.128-0.384-0.096-0.992-0.48-1.184zM13.12 20.736l0.032 0.032zM19.072 20.704l0.032 0.032zM22.048 20.672l0.032 0.032zM11.872 20.672l0.032 0.032zM14.016 20.544v0zM18.176 20.576l0.032 0.032zM23.2 20.48l0.032 0.032zM18.112 20.48v0zM19.68 20.48l0.032 0.032zM11.104 20.48l0.032 0.032zM13.536 20.48h0.032zM22.72 20.448l0.032 0.032zM12 20.416l0.032 0.032zM21.728 20.384l0.032 0.032zM14.176 20.384v0zM18.048 20.384l0.032 0.032zM22.592 20.352v0zM22.944 20.352l0.032 0.032zM16.32 20.32l0.032 0.032zM14.688 20.32l0.032 0.032zM23.2 20.32h0.032zM19.68 20.32h0.032zM20.416 20.288l0.032 0.032zM14.336 20.288v0zM16.32 20.288v0.032zM14.176 20.288l0.032 0.032zM21.6 20.256l0.032 0.032zM19.744 20.256c-0.192 0.32 0.096 1.024 0.128 1.408h-0.032c-0.128-0.32-0.416-0.576-0.672-0.832-0.032-0.032-0.192-0.288-0.256-0.192s0.256 0.352 0.32 0.416c0.192 0.256 0.416 0.544 0.576 0.864 0.096 0.16 0.16 0.384 0.352 0.48-0.128-0.704-0.352-1.44-0.352-2.144zM18.112 20.256l0.032 0.032zM12.064 20.224v0.032zM12.064 20.128v0zM16.128 20.128v0zM17.888 20.16v0.032zM23.328 20.064l0.032 0.032zM21.6 20.064l0.032 0.032zM17.76 20.064l0.032 0.032zM23.36 20.032l0.032 0.032zM10.752 20.032l0.032 0.032zM23.392 20v0.032zM23.232 20l0.032 0.032zM21.952 20l0.032 0.032zM20.16 20l0.032 0.032zM16.608 19.968v0zM14.944 20l0.032 0.032zM10.688 19.968h0.032zM21.344 19.936l0.032 0.032zM15.040 19.904v0zM17.696 19.904l0.032 0.032zM20.192 19.872l0.032 0.032zM20 19.808v0zM20.192 19.84v0.032zM15.968 19.808l0.032 0.032zM20.288 19.776l0.032 0.032zM16.128 19.776h0.032zM23.648 19.744l0.032 0.032zM21.664 19.744l0.032 0.032zM18.208 20.32l-0.64-0.448c0.032 0.096 0.128 0.128 0.224 0.224 0.16 0.16 0.288 0.512 0.512 0.544l0.064-0.896c-0.224 0.064-0.16 0.384-0.16 0.576zM23.68 19.712l0.032 0.032zM23.040 19.712v0.032zM15.232 19.712l0.032 0.032zM13.6 19.712c0 0.544-0.064 1.024-0.224 1.536 0.192 0 0.288-0.192 0.384-0.32 0.224-0.256 0.416-0.576 0.736-0.704v-0.032c-0.32-0.032-0.736 0.448-0.832 0.704h-0.032c0.096-0.352 0.16-0.832 0.032-1.184zM10.656 19.712v0.032zM16.128 19.68l-0.192 0.032c0.064 0.16 0.16 0.288 0.224 0.416 0.064 0.192 0 0.448 0.192 0.544 0.096-0.192 0.288-0.512 0.256-0.704-0.16 0.064-0.224 0.224-0.256 0.384h-0.032zM12.064 19.616v0zM12.032 19.616l0.032 0.032zM10.72 19.616h0.032zM21.6 19.584l0.032 0.032zM20.352 19.488l0.032 0.032zM11.936 19.456l0.032 0.032zM10.816 19.456l0.032 0.032zM17.12 19.424l0.032 0.032zM10.88 19.424v0zM10.848 19.424l0.032 0.032zM22.592 19.392l0.032 0.032zM13.92 19.392v0zM15.072 19.392v0.032zM10.912 19.392l0.032 0.032zM24.064 19.36l0.032 0.032zM10.944 19.36v0zM20.192 19.36l0.032 0.032zM24.096 19.328v0.032zM15.136 19.328l0.032 0.032zM24.096 19.296l0.032 0.032zM23.072 19.296l0.032 0.032zM12.448 19.296l0.032 0.032zM22.432 19.264l0.032 0.032zM21.632 19.264c-0.16 0.352 0.192 0.704 0.32 1.024-0.352-0.192-0.672-0.48-1.088-0.512v0.128c0.608 0.032 0.928 0.672 1.408 0.928 0-0.48-0.448-1.056-0.608-1.568zM13.6 19.264l0.032 0.032zM22.976 19.264h0.032zM12.608 19.264h0.032zM14.848 19.232l0.032 0.032zM14.208 19.232l0.032 0.032zM8.992 19.232l0.032 0.032zM14.88 19.2l0.032 0.032zM10.464 19.168l0.032 0.032zM13.664 19.136v0zM14.048 19.136l0.032 0.032zM12.224 19.136v0.032zM24.288 19.104l0.032 0.032zM23.264 19.104l0.032 0.032zM14.304 19.104l0.032 0.032zM13.728 19.104v0zM13.824 19.104v0.032zM12.416 19.104v0.032zM9.056 19.104l0.032 0.032zM8.352 19.104l0.032 0.032zM24.32 19.072l0.032 0.032zM23.648 19.072l0.032 0.032zM23.136 19.072h0.032zM20.192 19.072l0.16 0.896c-0.192-0.128-0.704-0.832-0.928-0.576 0.512 0.16 0.704 0.736 1.12 0.992l-0.128-0.512-0.16-0.8zM15.168 19.072h0.032zM14.176 19.072h0.032zM13.824 19.072h0.032zM8.448 19.072h0.032zM15.168 19.008v0zM23.072 19.008v0zM12.288 19.040v0zM23.104 19.040l0.032 0.032zM8.512 19.008l0.032 0.032zM14.88 18.976v0zM15.104 18.976l0.032 0.032zM14.368 18.976l0.032 0.032zM10.112 18.976l0.032 0.032zM17.184 18.944l0.032 0.032zM13.504 18.944l0.032 0.032zM22.624 18.912l0.032 0.032zM14.464 18.912l0.032 0.032zM18.656 18.912h0.032zM17.248 18.912l-0.128 0.352h-0.032l-0.224-0.32 0.192 0.64h0.032c0.064-0.192 0.32-0.512 0.16-0.672zM13.216 18.912v0zM14.88 18.912v0zM24.512 18.88l0.032 0.032zM15.584 18.88l0.032 0.032zM14.496 18.88l0.032 0.032zM14.24 18.88l0.032 0.032zM13.888 18.88l0.032 0.032zM10.944 18.88l0.032 0.032zM15.392 18.848v0zM18.912 18.848l0.032 0.032zM9.216 18.816l0.032 0.032zM15.456 18.72v0zM24.128 18.72v0zM18.784 18.784v0zM22.912 18.784l0.032 0.032zM14.368 18.72v0.032zM8.704 18.72v0zM8.768 18.72l0.032 0.032zM21.216 18.72h0.032zM13.472 18.72v0zM8.768 18.72h0.032zM25.856 18.688l0.032 0.032zM24.416 18.688l0.032 0.032zM12.768 18.624v0zM14.592 18.624v0zM12.544 18.688v0zM24.16 18.688l0.032 0.032zM24.448 18.592v0zM25.28 18.592l0.032 0.032zM21.44 18.592v0.032zM14.624 18.592h0.032zM11.136 18.56v0zM12.608 18.56v0.032zM25.088 18.528l0.032 0.032zM13.664 18.528v0.032zM26.368 18.528h0.032zM21.536 18.496l0.032 0.032zM10.912 18.496v0zM15.616 18.496v0zM15.84 18.496v0zM19.040 18.496l0.032 0.032zM24.256 18.464l0.032 0.032zM16.256 18.72l-0.032-0.16h-0.096l0.032 0.352c0.16 0 0.32-0.288 0.352-0.448zM9.888 18.464v0zM10.464 18.464v0.032zM25.728 18.432l0.032 0.032zM18.784 18.848c-0.096-0.128-0.224-0.288-0.384-0.256l0.512 0.64 0.128-0.8c-0.192 0.032-0.192 0.256-0.256 0.416zM20.128 18.4l0.032 0.032zM8.256 18.4l0.032 0.032zM15.712 18.368l0.032 0.032zM8.288 18.368l0.032 0.032zM10.208 18.368h0.032zM15.968 18.336l0.032 0.032zM26.048 18.304l0.032 0.032zM22.688 18.272v0zM24.288 18.304v0.032zM21.472 18.24l0.032 0.032zM12.736 18.24l0.032 0.032zM8.384 18.208v0zM8.512 18.208v0.032zM15.904 18.176l0.032 0.032zM14.144 18.176l0.032 0.032zM12.768 18.176c-0.096 0.416-0.384 0.8-0.64 1.088-0.128 0.16-0.32 0.32-0.384 0.512 0.448-0.128 0.96-0.608 1.44-0.544-0.128-0.256-0.704 0.096-0.928 0.128 0.192-0.256 0.416-0.48 0.544-0.8 0.032-0.128 0.064-0.288-0.032-0.384zM22.688 18.176v0zM11.104 18.176l0.032 0.032zM8.064 18.176h0.032zM16.192 18.144l0.032 0.032zM21.824 18.080l0.032 0.032zM17.568 18.016v0zM19.904 18.016l0.032 0.032zM8.064 18.016l0.032 0.032zM16.384 18.016h0.032zM8.16 18.016v0zM16.16 18.016h0.032zM21.696 17.984l0.032 0.032zM17.536 17.952v0zM25.856 17.952v0zM13.952 17.984l0.032 0.032zM21.76 17.888v0zM21.952 17.92l0.032 0.032zM16.32 17.888v0.032zM12.48 17.888l0.032 0.032zM10.112 17.888v0.032zM8.384 17.856l0.032 0.032zM21.792 17.824h0.032zM12.608 17.792v0zM13.056 17.792v0zM12.576 17.824h0.032zM17.376 17.728l0.288 0.32 0.128-0.32-0.128 0.224-0.288-0.224zM20.096 17.728l-0.032 0.416-0.256-0.16c-0.032 0.16 0.256 0.384 0.384 0.448l-0.032-0.704zM14.432 17.728l0.032 0.032zM10.048 17.728l0.032 0.032zM23.68 17.664l0.032 0.032zM21.888 17.664l0.032 0.032zM10.080 17.664l0.032 0.032zM12.8 17.664v0zM14.112 17.664h0.032zM14.528 17.6v0zM9.6 17.632v0zM9.728 17.632v0zM14.528 17.632v0.032zM11.904 17.6l0.032 0.032zM25.056 17.568l0.032 0.032zM22.496 17.568l0.032 0.032zM14.56 17.568l0.032 0.032zM23.552 17.536v0.032zM12.768 17.536l0.032 0.032zM21.024 17.696l0.064-0.192c-0.096 0.032-0.16 0.096-0.064 0.192zM23.968 17.472h0.032zM16.224 17.472h0.032zM12.832 17.472v0zM14.304 17.472h0.032zM9.632 17.472h0.032zM10.336 17.408v0zM11.104 17.408v0zM14.848 17.408v0zM11.072 17.44l0.032 0.032zM9.664 17.408l0.032 0.032zM11.136 17.376v0zM12.992 17.376l0.032 0.032zM10.208 17.376l0.032 0.032zM14.4 17.344l0.032 0.032zM7.648 17.344l0.032 0.032zM19.232 17.312l0.032 0.032zM23.712 17.312h0.032zM16 17.312h0.032zM9.6 17.312v0.16l0.096-0.16zM24.064 17.248v0zM23.584 17.28v0zM23.968 17.28l0.032 0.032zM12.48 17.984c0.192-0.032 0.8 0 0.896-0.128l-0.608-0.064 0.352-0.64c-0.224 0.064-0.544 0.64-0.64 0.832zM14.688 20.32c0.192-0.096 0.448-0.448 0.576-0.672-0.224 0.064-0.32 0.288-0.48 0.448l-0.064-0.576c0.608-0.064 0.896-0.736 1.28-1.152 0.224-0.256 0.512-0.384 0.8-0.544-0.192-0.192-0.416 0.032-0.576 0.16-0.416 0.32-0.672 0.736-1.056 1.088l0.224-0.544h-0.032c-0.128 0.256-0.256 0.576-0.544 0.736l0.096-0.384h-0.032c-0.096 0.256-0.224 0.384-0.512 0.384l0.256-0.608h-0.032l-0.352 0.608-0.096-0.032 0.256-0.512h-0.032c-0.128 0.192-0.256 0.512-0.544 0.448l0.224-0.448c-0.128 0.096-0.192 0.352-0.352 0.416-0.064 0.032-0.192-0.032-0.192-0.128 0.064-0.128 0.256-0.256 0.352-0.352 0.256-0.384 0.48-0.96 0.896-1.184 0.352-0.192 0.864 0.032 1.216 0.032 0.224 0 0.448-0.064 0.512-0.288-0.16-0.032-0.32 0.096-0.512 0.096-0.448 0-1.184-0.224-1.568 0.096-0.384 0.256-0.384 0.64-0.608 0.992-0.128 0.192-0.32 0.288-0.48 0.416-0.032 0.064-0.16 0.128-0.128 0.224s0.224 0.16 0.288 0.192c0.224 0.096 0.448 0.16 0.672 0.224 0.096 0.032 0.288 0.032 0.384 0.096 0.192 0.128 0.128 0.576 0.16 0.768zM22.848 17.12v0.032h0.096zM19.168 17.12l-0.032 0.384-0.224-0.16c0.032 0.16 0.128 0.256 0.288 0.288l0.032-0.512zM24.224 17.088l0.032 0.032zM24.256 17.056v0zM23.104 17.088l0.032 0.032zM11.456 17.056l0.032 0.032zM23.232 17.024l0.032 0.032zM14.24 16.992v0zM11.488 17.024l0.032 0.032zM7.456 16.992v0.032zM14.336 17.152l0.032-0.192c-0.096 0.032-0.16 0.128-0.032 0.192zM23.456 16.928v0zM22.656 16.96h0.032zM22.688 16.928v0.032zM23.488 16.896l0.032 0.032zM8 16.864v0.032zM11.84 16.832l0.032 0.032zM24.384 16.8l0.032 0.032zM25.024 16.768h0.032zM24.416 16.736l0.032 0.032zM22.848 16.736v0.032zM13.536 16.64v0zM18.304 16.64v0zM20.832 16.672l0.032 0.032zM7.264 16.64l0.032 0.032zM23.904 16.608l0.032 0.032zM21.088 16.608l0.032 0.032zM10.848 16.608v0zM18.112 16.608v0zM18.336 16.608l0.032 0.032zM18.144 16.608l0.032 0.288c0.128-0.064 0.192-0.16 0.256-0.288l-0.192 0.128zM13.376 16.608v0zM16.864 16.608h0.032zM23.84 16.576l0.032 0.032zM13.568 16.576l0.032 0.032zM22.816 16.544l0.032 0.032zM21.088 16.544v0.032zM24.448 16.512l0.032 0.032zM10.336 16.48v0zM15.776 16.512v0.032zM7.136 16.48l0.032 0.032zM20.8 16.416v0zM11.872 16.448v0.032zM9.92 16.416l0.032 0.032zM16.864 16.64l0.16 0.032v-0.256c-0.096 0.032-0.128 0.128-0.16 0.224zM13.536 16.384v0zM15.744 16.384v0zM20.736 16.384v0zM10.304 16.416v0zM11.904 16.384c-0.16 0.352-0.416 0.672-0.704 0.928-0.16 0.16-0.416 0.32-0.48 0.544l1.184-0.256 0.64-0.128c-0.384-0.256-1.024 0.032-1.376 0.192 0.224-0.48 0.704-0.672 0.832-1.248l-0.032-0.032zM7.072 16.384l0.032 0.032zM13.472 16.352v0zM13.568 16.352v0zM15.776 16.352v0.032zM23.136 16.32v0zM24.448 16.32v0.032zM15.776 16.32v0zM15.936 16.32v0zM20.768 16.32l0.032 0.032zM24.896 16.288v0zM7.008 16.32l0.032 0.032zM24.448 16.288v0.032zM8.736 16.288l0.032 0.032zM13.6 16.256l-0.32 0.32c0.128 0.032 0.416 0.192 0.512 0.064l-0.352-0.128 0.16-0.256zM20.608 16.256l0.384 0.32v0.032l-0.352 0.192c0.192 0 0.352-0.064 0.48-0.192-0.096-0.16-0.288-0.288-0.512-0.352zM10.496 16.256v0zM13.568 16.256l0.032 0.032zM8.672 16.256v0zM9.216 16.256v0zM10.304 16.224v0zM14.56 16.224l0.032 0.032zM9.248 16.224l0.032 0.032zM24.384 16.192l0.032 0.032zM15.968 16.192l-0.32 0.384 0.384 0.128-0.256-0.16c0.032-0.128 0.256-0.224 0.192-0.352zM6.912 16.192l0.032 0.032zM10.4 16.16v0zM10.624 16.16l0.032 0.032zM8.544 16.16l0.032 0.032zM14.688 16.064v0zM10.496 16.064v0zM14.72 16.096v0.032zM7.648 16.064v0zM24.8 16.032v0.032zM8.352 16l0.032 0.032zM24.448 15.968l0.032 0.032zM9.696 16.512c0.032 0.192 0.224 0.096 0.384 0.096 0.192-0.032 0.576 0.032 0.704 0.224l0.192-0.032c-0.064-0.288-0.512-0.288-0.736-0.32 0.16-0.16 0.416-0.224 0.48-0.512zM6.848 15.968l0.032 0.032zM23.552 15.904l0.032 0.032zM14.592 16.256l0.32 0.096-0.16-0.192 0.096-0.256c-0.128 0.064-0.224 0.224-0.256 0.352zM18.688 15.872v0zM14.816 15.904h0.032zM23.392 15.776l0.032 0.032zM22.624 15.744l0.032 0.032zM18.72 15.744v0zM18.848 15.744v0zM19.904 15.744l0.032 0.032zM24.64 15.712l0.032 0.032zM23.552 15.712v0.032zM19.936 15.712v0.352c0.096-0.128 0.096-0.224 0-0.352zM12.736 15.712v0zM18.752 15.712v0zM18.88 15.712l0.032 0.032zM18.624 15.776v0.128l0.288-0.192zM16.704 15.584v0zM17.76 15.584l0.032 0.032zM6.784 15.584l0.032 0.032zM22.304 15.552l0.032 0.032zM7.904 15.552l0.032 0.032zM12.704 15.52l0.032 0.032zM23.84 15.488v0zM23.808 15.52h0.032zM22.784 15.488l0.032 0.032zM22.24 15.488l0.032 0.032zM12.416 15.488v0.032zM23.904 15.424l0.032 0.032zM22.496 15.424l0.032 0.032zM17.824 15.616l0.064-0.192c-0.096 0.032-0.192 0.096-0.064 0.192zM16.736 15.424l0.032 0.032zM16.672 15.424v0.192c0.064-0.064 0.096-0.096 0.064-0.192zM12.544 15.424l0.032 0.032zM23.936 15.392v0.032zM9.664 15.392l0.032 0.032zM7.712 15.392l0.032 0.032zM6.208 15.392l0.032 0.032zM22.528 15.36l0.032 0.032zM21.792 15.36l0.032 0.032zM10.304 15.36l0.032 0.032zM23.712 15.36h0.032zM12.352 15.36h0.032zM21.728 15.328l0.032 0.032zM7.616 15.328l0.032 0.032zM10.848 15.296l0.032 0.032zM15.712 15.456l0.064-0.192c-0.096 0.032-0.192 0.096-0.064 0.192zM10.24 15.264l0.032 0.032zM23.68 15.2l0.032 0.032zM22.912 15.168v0zM7.456 15.2v0.032zM11.136 15.104v0zM12.896 15.104v0zM22.656 15.136v0zM23.68 15.136v0zM11.040 15.168h0.032zM24.096 15.072v0.032zM11.264 15.008v0zM12.768 15.040v0zM12.96 15.040v0zM24.096 15.040v0zM10.336 15.072l0.032 0.032zM21.568 15.008h0.032zM20.928 15.008v0zM11.872 15.264v0.064l0.608 0.192 0.352 0.256c-0.032-0.288-0.352-0.32-0.544-0.48 0.256-0.064 0.608-0.064 0.704-0.32zM21.44 14.944v0.032zM22.688 14.912v0zM23.744 14.912v0.032zM10.208 14.912l0.032 0.032zM23.744 14.88v0.032h0.064zM10.752 15.36v0.064l0.768 0.288c0-0.224-0.256-0.288-0.448-0.32l0.544-0.48c-0.288-0.032-0.64 0.32-0.864 0.448zM21.216 14.848l0.032 0.032zM10.112 14.816l0.032 0.032zM23.936 14.816h0.032zM23.936 14.816v0.032zM10.048 14.752l0.032 0.032zM12.224 14.688v0zM16.512 14.688v0zM10.016 14.72v0zM14.976 14.72l0.032 0.032zM22.496 14.688v0zM24 14.656l0.032 0.032zM12.256 14.656v0zM13.472 14.656h0.032zM14.88 14.56l0.032 0.032zM14.976 14.528l0.032 0.032zM13.472 14.624l0.384 0.448-0.192-0.384 0.32-0.032-0.032-0.128zM16.704 14.496l0.032 0.032zM18.368 14.464l0.032 0.032zM9.728 14.464l0.032 0.032zM15.264 14.464v0zM16.608 14.464h0.032zM14.88 14.464c0.032 0.16 0.096 0.32 0.256 0.416l-0.16-0.352 0.32 0.032c-0.064-0.16-0.288-0.096-0.416-0.096zM22.496 14.432v0zM23.52 14.432l0.032 0.032zM18.144 14.752l0.128-0.256 0.16 0.128c-0.096-0.32-0.288-0.096-0.288 0.128zM16.64 14.4l0.032 0.032zM23.616 14.368l0.064 0.064v-0.064h-0.064zM23.744 14.368l0.032 0.032zM16.544 14.368l0.032 0.032zM16.48 14.368c0 0.128 0 0.288 0.128 0.352v-0.256l0.32 0.096zM12.192 14.368l0.032 0.032zM23.776 14.336l0.032 0.032zM23.744 14.336l0.032 0.032zM9.536 14.336l0.032 0.032zM9.44 14.304h0.032zM22.688 14.272l0.032 0.032zM20.704 14.24v0zM13.504 14.272l0.032 0.032zM9.376 14.24l0.032 0.032zM22.688 14.208v0zM23.968 14.208l0.032 0.032zM12.096 14.208v0zM19.392 14.208v0zM20.736 14.208l0.032 0.032zM9.28 14.176l0.032 0.032zM22.656 14.144l0.032 0.032zM19.328 14.144v0.032zM9.6 14.144l0.032 0.032zM21.088 14.112v0zM22.624 14.112v0zM13.536 14.112v0zM19.52 14.112l0.032 0.032zM9.44 14.112h0.032zM19.456 14.080l0.032 0.032zM10.176 14.080l0.032 0.032zM24.224 14.048l0.032 0.032zM22.592 14.048l0.032 0.032zM24.064 14.016v0zM24.224 14.016l-0.032 0.064zM23.072 14.016l0.032 0.032zM19.616 13.984l-0.48 0.352 0.416-0.224-0.064 0.352c0.128-0.096 0.16-0.352 0.128-0.48zM24.16 13.952h0.032zM11.584 13.856v0zM13.344 13.888l0.032 0.032zM22.528 13.792l0.032 0.032zM22.048 13.76l0.032 0.032zM20.896 13.76l0.032 0.032zM11.84 13.76v0zM13.44 13.76v0zM13.312 13.76v0.032zM10.048 13.76h0.032zM15.744 13.664v0zM16.864 13.696l0.032 0.032zM20.96 13.632l0.032 0.032zM11.328 13.632l0.032 0.032zM10.080 13.632l0.032 0.032zM16.928 13.408v0zM13.568 13.44v0zM13.408 13.504v0zM18.624 13.504v0zM23.808 13.504v0zM17.024 13.536v0zM23.84 13.536v0zM11.84 13.568v0zM23.872 13.568v0zM11.232 13.6v0zM17.152 13.6h0.032zM10.112 13.408h0.032zM22.464 13.376l0.032 0.032zM13.056 13.376v0zM13.44 13.376l0.032 0.032zM23.552 13.344l0.032 0.032zM20.128 13.344l0.032 0.032zM17.024 13.344l-0.256 0.448 0.256-0.288 0.16 0.256zM16.128 13.344l0.032 0.032zM20.928 13.312l0.032 0.032zM22.624 13.28l0.032 0.032zM12.96 13.248v0zM18.112 13.248v0zM20.16 13.248v0zM13.312 13.28v0zM18.080 13.28l0.032 0.032zM10.976 13.248c0 0.224 0.192 0.288 0.384 0.416 0.224 0.192 0.416 0.384 0.608 0.608 0.096 0.128 0.192 0.384 0.32 0.512-0.032-0.416-0.256-0.864-0.64-1.024v-0.032c0.384 0.064 0.768 0.224 1.152 0.032v-0.032l-0.448-0.032zM18.304 13.216l0.032 0.032zM21.28 13.184v0.032zM23.296 13.152l0.032 0.032zM18.272 13.12v0zM18.496 13.12v0zM20.096 13.12v0zM13.152 13.152v0zM15.872 13.152l0.032 0.032zM10.176 13.12l0.032 0.032zM22.496 13.088v0.032zM21.12 13.088l0.032 0.032zM15.968 13.088v0.032zM22.208 13.056l0.032 0.032zM21.504 12.96v0zM16 13.024v0zM12.8 13.056v0zM16.032 13.056l0.032 0.032zM18.528 12.896l-0.512 0.512 0.48-0.352 0.096 0.512c0.096-0.16 0.032-0.544-0.064-0.672zM12.768 12.992v0.032c0.256 0.224 0.416 0.544 0.576 0.832 0.064 0.16 0.064 0.352 0.224 0.448 0-0.32-0.16-0.576-0.256-0.864 0.192 0.128 0.448 0.288 0.672 0.224v-0.064c-0.32-0.128-0.544-0.256-0.832-0.448-0.096-0.096-0.224-0.224-0.384-0.16zM20.192 12.864v0zM22.048 12.864l0.032 0.032zM19.584 12.864h0.032zM15.872 12.832l-0.16 0.832c0.128-0.096 0.16-0.416 0.192-0.608l0.224 0.288c0-0.192-0.128-0.384-0.256-0.512zM21.44 12.8v0.032zM19.968 12.8l0.032 0.032zM21.536 12.704v0zM9.984 12.736l0.032 0.032zM15.168 12.704v0zM15.232 12.704v0zM19.808 12.704l0.032 0.032zM20.192 12.672v0.032zM15.040 12.608v0zM15.328 12.64l0.032 0.032zM20.064 12.576l0.032 0.032zM9.856 12.576l0.032 0.032zM14.912 12.512v0zM13.472 12.544v0zM15.104 12.544l0.032 0.032zM9.76 12.512h0.032zM22.144 12.48v0.032zM20.256 12.448v0zM20.416 12.48l0.032 0.032zM13.312 12.352v0zM13.408 12.352v0zM16.192 12.352v0zM11.488 12.384l0.032 0.032zM23.040 12.352v0zM11.328 12.352h0.032zM16.768 12.32l0.032 0.032zM9.856 12.32l0.032 0.032zM20.416 12.256l0.032 0.032zM14.784 12.224v0zM11.712 12.256v0zM16.064 12.256v0zM18.592 12.256l0.032 0.032zM20.512 12.192c-0.288 0.288-0.544 0.48-0.928 0.608v0.064c0.224 0.064 0.448-0.064 0.64-0.192-0.032 0.16-0.224 0.576-0.064 0.672l0.256-0.8zM19.872 12.16v0zM19.936 12.16h0.032zM13.28 12.096v0zM17.856 12.128v0zM13.184 12.16v0zM16.128 12.16v0zM14.528 12.032l0.16 1.152h0.032v-0.832c0.16 0.128 0.416 0.448 0.64 0.352-0.096-0.096-0.224-0.128-0.32-0.224-0.192-0.128-0.256-0.416-0.512-0.448zM13.088 12v0zM18.080 12l0.032 0.032zM22.848 11.968l0.032 0.032zM13.344 11.968l0.032 0.032zM23.008 11.872l0.032 0.032zM14.912 11.744v0zM16.384 11.776v0zM18.336 11.776v0zM12.992 11.872l0.032 0.032zM21.664 11.68l0.032 0.032zM13.28 11.68v0zM14.88 11.68v0.032zM11.936 11.648v0zM11.264 11.68l0.032 0.032zM12.8 11.616v0zM18.208 11.648h0.032zM19.84 11.52v0.032zM19.136 11.456v0zM13.088 11.52l0.032 0.032zM11.040 11.456l0.032 0.032zM19.136 11.456h0.032zM18.272 11.456v0zM18.432 11.456h0.032zM11.52 11.456v0zM11.008 11.456h0.032zM11.872 11.424v0zM19.168 11.424l0.032 0.032zM11.008 11.424v0.032zM23.264 11.392l0.032 0.032zM10.976 11.392l0.032 0.032zM16.352 11.36c-0.064 0.288-0.32 0.8-0.224 1.056h0.064l0.192-0.64h0.032c0.064 0.224 0.128 0.608 0.416 0.64l-0.416-1.056zM15.552 11.36l0.032 0.032zM10.944 11.36l0.032 0.032zM19.456 11.296v0zM19.424 11.328l0.032 0.032zM11.296 11.296l0.032 0.032zM23.392 11.296v0zM12.8 11.296h0.032zM23.392 11.264l0.032 0.032zM12.608 11.264v0zM19.488 11.264l0.032 0.032zM23.424 11.232l0.032 0.032zM19.52 11.232l0.032 0.032zM15.424 11.232v0.032zM23.456 11.2l0.032 0.032zM23.232 11.2l0.032 0.032zM21.792 11.2v0.032zM23.488 11.168l0.032 0.032zM23.52 11.136l0.032 0.032zM12.608 11.136c0.064 0.672 0.96 1.12 0.864 1.856 0.128-0.096 0.096-0.256 0.032-0.384-0.096-0.288-0.256-0.544-0.384-0.8 0.288 0.224 0.672 0.48 1.024 0.352l-0.576-0.256zM23.552 11.104v0.032zM22.24 11.104l0.032 0.032zM18.432 11.104c-0.16 0.384-0.256 0.704-0.576 0.96v0.064c0.224 0.064 0.384-0.256 0.448-0.448h0.032c0.032 0.192 0.032 0.576 0.256 0.64l-0.128-0.64zM15.328 11.104l0.032 0.032zM23.552 11.104h0.032zM19.648 11.104h0.032zM23.52 11.072v0zM23.584 11.072l0.032 0.032zM23.616 11.040l0.032 0.032zM19.68 11.040l0.032 0.032zM15.456 11.040l0.032 0.032zM23.616 11.008l0.032 0.032zM22.144 11.008l0.032 0.032zM15.424 10.944v0.032zM20.896 10.944h0.032zM14.976 10.912l0.032 0.032zM21.664 10.848l0.032 0.032zM14.848 10.816l0.032 0.032zM19.904 10.72l0.032 0.032zM21.504 10.688l0.032 0.032zM21.248 10.688l0.032 0.032zM19.936 10.688l0.032 0.032zM15.072 10.656l0.032 0.032zM11.872 10.624v0.032zM21.632 10.56v0zM21.632 10.592v0zM10.304 10.624v0.032zM12.16 10.56l0.032 0.032zM14.368 10.528l0.032 0.032zM19.872 10.496l0.032 0.032zM14.368 10.496v0.032zM14.336 10.464l0.032 0.032zM19.168 10.4l0.032 0.032zM14.080 10.4l0.032 0.032zM20 10.368l0.032 0.032zM21.856 10.304l0.032 0.032zM15.040 10.304l0.032 0.032zM21.856 10.272v0zM11.712 10.304v0.032zM20.192 10.24l0.032 0.032zM14.912 10.112v0zM13.44 10.176v0zM13.248 10.208v0zM13.856 10.208v0zM17.472 10.208v0zM17.248 10.24l0.032 0.032zM13.216 10.080l0.032 0.032zM20.192 10.048c-0.288 0.448-0.64 1.12-1.088 1.44v0.032c0.32-0.064 0.704-0.48 0.8-0.8h0.032c0 0.48-0.224 0.992-0.032 1.44h0.032c0.16-0.48 0.064-1.056 0.192-1.568 0.032-0.16 0.192-0.416 0.064-0.544zM18.336 10.016l0.032 0.032zM20.992 9.952l0.032 0.032zM14.816 9.92v0zM16.608 9.952l0.032 0.032zM18.496 9.856v0zM18.336 9.888v0zM18.464 9.888l0.032 0.032zM20.832 9.856h0.032zM17.184 9.856v0zM18.528 9.856h0.032zM18.432 9.792v0.032zM14.72 9.76v0.032zM13.568 9.76l0.032 0.032zM14.656 9.728c0 0.704 0.352 1.344 0.224 2.048 0.128-0.096 0.128-0.288 0.128-0.416 0-0.32-0.064-0.64-0.064-0.96h0.032c0.096 0.32 0.352 0.96 0.736 1.024-0.064-0.192-0.192-0.32-0.288-0.48-0.224-0.32-0.416-0.992-0.768-1.216zM16.32 9.408v0zM14.016 9.472v0zM13.888 9.568v0zM13.76 9.632v0zM17.216 9.696l0.032 0.032zM17.312 9.376l-0.448 1.952c0.352-0.192 0.416-0.928 0.448-1.28h0.032c0.064 0.288 0.064 0.608 0.192 0.896 0.064 0.128 0.128 0.288 0.256 0.288l-0.352-1.216zM13.12 9.216v0zM13.28 9.216v0zM13.312 9.28v0.032zM21.088 8.992v0zM14.176 8.992h0.032zM12.992 8.864v0zM18.56 8.864l0.032 0.032zM21.12 8.864v0zM21.12 8.8l0.032 0.032zM14.4 8.8v0zM16.832 8.8l0.032 0.032zM17.248 8.64v0zM17.216 8.64v0zM17.856 8.672v0zM14.144 8.704v0zM17.888 8.704v0zM12.992 8.736v0zM14.336 8.736v0zM17.952 8.736l0.032 0.032zM12.928 8.64h0.032zM17.376 8.416l0.032 0.032zM19.104 8.384l0.032 0.032zM17.408 8.32l0.032 0.032zM19.136 8.288v0zM15.904 8.096v0zM15.872 8.16l0.032 0.032zM17.536 6.688c-0.192 0.448-0.128 0.928-0.288 1.376-0.032 0.096-0.128 0.384-0.256 0.384-0.32-0.064-0.16-0.608-0.512-0.64l0.128 0.832c-0.512 0.064-0.448-0.736-0.672-1.056-0.224-0.384-0.288 0.16-0.288 0.352 0.032 0.096 0.032 0.192 0.064 0.32 0 0.192 0.032 0.352 0 0.544-0.512-0.032-0.32-0.672-0.672-0.768l0.032 0.768c-0.576 0-0.8-0.48-1.056-0.896-0.096-0.192-0.224-0.512-0.48-0.416 0.128 0.48 0.384 0.96 0.416 1.472 0 0.128-0.128 0.448-0.288 0.384-0.448-0.128-0.384-0.896-0.736-1.088-0.064-0.064-0.192 0-0.256 0 0 0.384 0.192 0.896 0.32 1.248 0.032 0.096 0.128 0.384-0.064 0.384-0.32 0-0.384-0.64-0.704-0.544 0.032 0.16 0.128 0.288 0.192 0.448 0.032 0.096 0.096 0.192 0.096 0.288 0.064 0.224-0.224 0.256-0.384 0.192-0.352-0.096-0.576-0.384-0.832-0.608-0.064-0.064-0.256-0.32-0.352-0.224-0.128 0.128 0.096 0.352 0.192 0.416 0.192 0.256 0.416 0.544 0.512 0.864 0.064 0.128 0.064 0.32-0.064 0.416s-0.352-0.096-0.448-0.16c-0.32-0.192-0.64-0.576-1.056-0.576l-0.096 0.224 0.256 0.352 0.672 0.768-0.8-0.32c0.032 0.192 0.544 0.448 0.448 0.672-0.064 0.096-0.352 0.128-0.448 0.096-0.416-0.064-0.704-0.352-1.056-0.448s-0.288 0.16-0.096 0.288c0.064 0.064 0.128 0.128 0.192 0.16 0.096 0.096 0.224 0.192 0.32 0.32 0.16 0.16 0.32 0.32 0.48 0.512l-0.8-0.032v0.064l0.768 0.352-0.16 0.544c-0.192 0-0.384-0.064-0.576-0.16-0.128-0.064-0.288-0.16-0.448-0.16-0.16 0.032-0.288 0.192-0.16 0.352 0.192 0.224 0.544 0.384 0.8 0.544 0.096 0.064 0.224 0.192 0.096 0.32-0.192 0.224-0.736-0.064-0.992 0v0.064c0.224 0.16 0.736 0.224 0.896 0.48 0.096 0.224-0.224 0.704-0.448 0.672-0.192 0-0.384-0.256-0.544-0.352-0.352-0.288-0.736-0.64-1.152-0.832-0.736-0.352-1.44 0.192-2.016 0.544 0.064 0.224 0.352 0 0.544 0.032 0.256 0.064 0.416 0.288 0.576 0.448 0.768 0.864 1.408 1.856 1.664 3.008 0.096 0.288 0.224 0.64 0 0.896-0.064 0.064-0.16 0.096-0.224 0.16-0.032 0.032-0.032 0.096 0.032 0.128 0.128 0.032 0.288-0.032 0.416-0.064 0.416-0.096 0.864-0.32 1.024-0.704 0.128-0.256 0.16-0.704 0.448-0.8 0.064 0.256 0.352 0.608 0.32 0.864-0.032 0.224-0.256 0.48-0.416 0.672-0.032 0.064-0.16 0.192-0.096 0.288 0.064 0.064 0.224-0.096 0.256-0.16 0.224-0.192 0.672-0.48 0.8-0.064 0.096 0.416-0.256 1.024-0.416 1.376-0.032 0.096-0.256 0.384-0.192 0.48 0.096 0.128 0.32-0.192 0.352-0.256 0.192-0.224 0.768-0.864 1.088-0.64 0.384 0.288 0.256 0.512 0.128 0.896-0.064 0.096-0.192 0.384-0.096 0.512 0.096 0.096 0.224 0 0.288-0.096 0.096-0.192 0.32-0.704 0.576-0.576 0.16 0.096 0.416 0.224 0.48 0.384 0.16 0.256 0.032 0.736 0 0.992-0.032 0.16-0.192 0.64-0.064 0.736 0.128 0.128 0.224-0.192 0.288-0.256 0.128-0.288 0.288-0.544 0.48-0.768 0.064-0.096 0.16-0.224 0.288-0.192 0.64 0.128 0 0.736 0.256 1.056 0.032 0.064 0.192 0.064 0.256 0.064l0.32-0.832c0.16 0.064 0.416 0.096 0.544 0.224 0.096 0.128 0.128 0.32 0.128 0.448 0.096 0.416 0.16 0.832 0.096 1.248 0.064 0.032 0.128 0.096 0.192 0.064 0.096-0.064 0.096-0.288 0.128-0.384 0.096-0.288 0.256-0.576 0.384-0.864 0.096-0.192 0.32-0.384 0.512-0.128s0.096 0.736 0.224 1.024c0.288-0.128 0.32-0.736 0.32-1.024l0.384 0.064 0.224 0.448 0.384 1.152c0.224-0.064 0.16-0.48 0.192-0.672 0.032-0.256 0.064-0.8 0.256-0.992 0.096-0.064 0.256-0.064 0.352-0.128 0.096 0.288 0.16 0.608 0.32 0.896 0.032 0.096 0.16 0.192 0.288 0.128s0.128-0.192 0.096-0.32-0.096-0.544-0.128-0.832c0.544-0.032 0.864 0.416 1.216 0.768 0.128 0.128 0.224 0.32 0.416 0.384l-0.256-0.832-0.16-0.736c0.192-0.096 0.608-0.48 0.8-0.416 0.32 0.064 0.544 0.928 0.928 0.736 0.16-0.096 0.064-0.256 0-0.352-0.128-0.16-0.448-0.576-0.416-0.8 0.032-0.16 0.288-0.32 0.448-0.32 0.352 0 0.96 0.256 1.152 0.544l0.256-0.032c-0.032-0.48-0.768-0.704-0.864-1.184-0.032-0.064-0.032-0.096 0-0.16 0.064-0.32 0.256-0.16 0.448-0.096 0.064 0.032 0.192 0.096 0.256 0.032 0.032-0.096-0.064-0.192-0.096-0.256-0.064-0.16-0.128-0.32-0.096-0.48 0.256 0.064 0.416 0.224 0.608 0.384 0.064 0.032 0.16 0.096 0.224 0.064 0.064-0.064-0.032-0.16-0.064-0.192-0.096-0.128-0.384-0.384-0.352-0.544 0.032-0.096 0.192-0.224 0.288-0.288 0.256-0.256 0.512-0.512 0.736-0.8h0.032c0.48 0.576 1.952 0.16 1.76-0.672-0.096 0-0.224 0.096-0.352 0.064-0.512-0.192-0.384-1.024-0.992-1.056-0.032-0.544-0.256-1.088-0.544-1.6-0.128-0.192-0.384-0.416-0.448-0.64-0.064-0.128-0.064-0.32-0.064-0.448 0.32-0.064 0.16-0.384 0.032-0.544-0.128-0.192-0.256-0.448-0.416-0.608-0.192-0.192-0.512-0.32-0.48-0.672 0.032-0.32 0.576-0.288 0.672-0.576-0.16 0-0.32 0.064-0.48 0.096-0.416 0.064-0.48-0.096-0.288-0.448 0.16-0.32 0.416-0.544 0.64-0.8 0.096-0.096 0.32-0.288 0.192-0.416-0.096-0.096-0.256 0.064-0.32 0.128-0.32 0.192-0.64 0.352-0.992 0.448-0.096 0.032-0.384 0.16-0.416-0.032-0.064-0.256 0.416-0.288 0.352-0.576-0.192 0.064-0.544 0.352-0.736 0.224-0.224-0.192 0.096-0.608 0.128-0.8s-0.128-0.192-0.224-0.064c-0.032 0.032-0.064 0.096-0.128 0.128-0.032 0.096-0.096 0.16-0.128 0.256-0.448-0.256 0.384-0.576 0.224-0.8-0.064-0.096-0.16 0-0.192 0.032-0.128 0.096-0.512 0.544-0.608 0.224-0.096-0.384 0.096-0.832 0.192-1.184 0.032-0.064 0.16-0.32 0.032-0.384-0.16-0.096-0.224 0.224-0.256 0.32-0.128 0.288-0.32 0.544-0.576 0.768-0.064 0.064-0.192 0.192-0.32 0.16-0.16-0.064-0.16-0.512-0.16-0.672 0-0.064 0.032-0.16-0.032-0.224s-0.128 0.064-0.128 0.128c-0.032 0.192-0.16 0.768-0.48 0.384-0.256-0.32 0.16-1.024-0.384-1.184l-0.288 0.96c-0.384-0.064-0.288-0.576-0.192-0.864l-0.16-0.064c-0.032 0.128-0.064 0.224-0.128 0.32-0.128 0.416-0.32 0.512-0.48 0.032-0.096-0.352-0.064-0.704-0.128-1.088-0.032-0.128-0.032-0.288-0.16-0.352zM17.536 7.52c0.16 0.32 0 0.736 0.224 1.056s0.64 0.16 0.928 0.352c0.096 0.064 0 0.224 0 0.32-0.096 0.32-0.256 0.544-0.448 0.8 0.608-0.288 0.8-1.152 0.896-1.76v0c0 0.544 0 1.088 0 1.6 0.032 0.256-0.032 0.544 0.256 0.576v-1.248c0.288 0.096 0.736 0.448 1.056 0.352 0.16-0.064 0.288-0.256 0.416-0.384 0.064-0.096 0.16-0.192 0.224-0.288v0l-0.096 0.864-0.256-0.064 0.576 0.448 0.256 0.192-0.192 0.256-0.8 0.576c0.576-0.096 0.864-0.512 1.28-0.832-0.128 0.576-0.448 1.12-0.288 1.728h0.032l0.32-1.312c0.256 0.128 0.32 0.448 0.576 0.576 0.32 0.224 0.8-0.192 1.12-0.288-0.192 0.288-0.512 0.48-0.576 0.864l-0.224-0.096c0.192 0.544 0.448 1.056 0.544 1.632 0.096 0.544-0.032 1.088 0.032 1.6 0 0.256 0.096 0.48 0.16 0.704-0.512 0.192-0.608 0.896-1.088 1.12 0.032-0.16 0.096-0.352 0.096-0.512 0-0.128-0.064-0.256-0.032-0.384 0.064-0.256 0.288-0.448 0.384-0.704 0.128-0.384 0.032-0.736-0.032-1.152l0.288 0.032-0.672-1.056-0.352-0.512 0.128-0.352c-0.704 0.544-1.696 1.088-1.696 2.080l0.256-0.096 0.064 0.608-0.352 0.032v0.064c0.32 0.096 0.64 0.128 0.928 0.288 0.224 0.096 0.48 0.224 0.608 0.416 0.512 0.64 0.128 1.632-0.256 2.208-0.192 0.32-0.544 0.576-0.672 0.896 0.352-0.064 0.512-0.384 0.704-0.672 0.096-0.096 0.16-0.256 0.288-0.32 0.224-0.064 0.288 0.32 0.352 0.448 0.064 0.192 0.192 0.512 0.16 0.704-0.064 0.352-0.384 0.576-0.32 0.992 0.16-0.192 0.192-0.544 0.448-0.64 0.16-0.032 0.32 0.096 0.448 0.128 0.32 0.032 0.672-0.096 0.896-0.32 0.256-0.224 0.448-0.608 0.384-0.96-0.032-0.224-0.16-0.416-0.16-0.64 0.032-0.192 0.128-0.32 0.192-0.48 0.16-0.384 0.16-0.832-0.224-1.088-0.096-0.064-0.192-0.096-0.32-0.128 0.032-0.192 0.224-0.64 0.48-0.352 0.16 0.16 0.256 0.48 0.352 0.704 0.352 0.832 0.352 1.824-0.16 2.592-0.352 0.544-0.896 0.992-1.376 1.44l-0.192-0.544h-0.064c-0.064 0.32 0.192 0.672 0.32 0.96-0.32-0.064-0.576-0.352-0.896-0.32 0.096 0.16 0.672 0.512 0.224 0.672 0 0.128-0.096 0.224-0.192 0.32-0.192 0.224-0.416 0.576-0.704 0.672l-0.512-1.376c0.064 0.608 0.256 1.184 0.544 1.728 0.128 0.256 0.352 0.544 0.448 0.832-0.16-0.16-0.288-0.384-0.416-0.544-0.256-0.288-0.544-0.576-0.864-0.8-0.192-0.16-0.416-0.352-0.672-0.32 0.32 0.288 0.768 0.448 0.736 0.96 0 0.16-0.16 0.224-0.288 0.256-0.288 0.16-0.608 0.288-0.928 0.416-0.064 0-0.224 0.096-0.32 0.064s-0.096-0.256-0.096-0.32c-0.032-0.256 0.096-0.928-0.16-1.056-0.128 0.928 0.128 1.76 0.192 2.656h-0.032c-0.16-0.672-0.384-1.408-0.768-1.984-0.096-0.16-0.288-0.544-0.512-0.512l0.576 0.992v0.416l-0.416 0.064-1.152 0.032c0.032-0.32 0.096-0.672 0.16-0.992 0.032-0.064 0.096-0.288-0.064-0.288-0.128 0-0.16 0.352-0.16 0.448-0.096 0.48-0.192 0.992-0.192 1.472h-0.032c0-0.8-0.352-1.536-0.704-2.272-0.096 0.16 0.032 0.352 0.096 0.512 0.064 0.32 0.096 0.64 0.064 0.992-0.576-0.096-1.152-0.256-1.664-0.48 0.128-0.32 0.512-0.8 0.512-1.152-0.512 0.512-0.736 1.216-0.992 1.856v0l0.096-1.312-0.192-1.12c-0.128 0.128-0.064 0.352-0.032 0.512 0.032 0.256 0 0.64-0.16 0.832-0.096 0.096-0.224 0-0.32-0.032-0.288-0.128-0.512-0.32-0.8-0.512-0.064-0.064-0.256-0.128-0.224-0.288 0-0.384 0.576-0.576 0.576-0.896-0.64 0.256-0.928 0.96-1.44 1.408 0.16-0.704 0.704-1.536 0.576-2.304-0.16 0.096-0.16 0.288-0.192 0.416-0.064 0.32-0.192 0.576-0.352 0.864-0.352-0.192-0.64-0.544-0.864-0.896-0.064-0.096-0.224-0.224-0.224-0.352 0-0.096 0.128-0.224 0.224-0.32 0.192-0.224 0.48-0.416 0.768-0.544-0.224-0.128-0.64 0.192-0.864 0.256 0.16-0.352 0.576-0.672 0.448-1.056-0.352 0.256-0.576 0.864-0.832 1.248h-0.032l-0.512-1.152 0.672 0.256c0.032-0.256-0.32-0.352-0.512-0.384 0.128-0.288 0.448-0.512 0.352-0.864h-0.032c-0.096 0.256-0.256 0.672-0.544 0.768l-0.064-0.448h-0.032c-0.096 0.224 0.032 0.416-0.032 0.608-0.032 0.128-0.192 0.096-0.256 0.224s-0.064 0.32-0.16 0.48c-0.128 0.352-0.448 0.608-0.8 0.768l-0.032-0.48 0.416-0.448-0.448 0.32c-0.032-0.16-0.16-0.416-0.096-0.576 0.064-0.128 0.224-0.224 0.32-0.32l-0.416 0.224c-0.16-0.384 0.096-0.288 0.256-0.544-0.096 0.064-0.288 0.16-0.416 0.096-0.16-0.064-0.352-0.576-0.416-0.736l0.448-0.064v-0.032c-0.224 0.032-0.544 0.096-0.576-0.192h0.544v-0.032l-0.64-0.064-0.16-0.224-0.384-0.512c0.224-0.064 0.608-0.064 0.832 0-0.32-0.32-0.896 0.192-1.184-0.384l0.672-0.16c-0.192 0-0.608 0.096-0.768 0-0.064 0-0.096-0.064-0.128-0.096-0.352-0.384 0.416-0.416 0.672-0.384 0.512 0.064 0.896 0.384 1.248 0.736 0.16 0.192 0.416 0.48 0.672 0.544 0.256 0.032 0.448-0.128 0.64-0.256 0 0.192 0 0.384 0.128 0.544 0-0.384 0-0.8 0.064-1.152 0.032-0.128 0.096-0.32 0.256-0.352 0.192-0.032 0.48 0.288 0.608 0.416 0-0.224-0.16-0.384-0.288-0.544-0.352-0.416-0.928-0.832-1.408-1.056v-0.032c0.736 0.128 1.28 0.544 2.080 0.352v-0.064l-0.928-0.128c0.032-0.288 0.256-0.672 0.192-0.96-0.096-0.384-0.512-0.576-0.672-0.928 0.288 0.128 0.576 0.288 0.864 0.288 0.16 0 0.32-0.096 0.448-0.128 0.448-0.096 0.704 0.096 0.992 0.384 0.064-0.256-0.128-0.48-0.288-0.704-0.192-0.192-0.32-0.416-0.512-0.576-0.256-0.224-0.608-0.48-0.736-0.768 0.224 0.032 0.416 0.224 0.608 0.352 0.32 0.224 0.64 0.448 0.992 0.64 0.192 0.096 0.544 0.224 0.704 0.032l-0.864-0.32c0.064-0.096 0.128-0.16 0.192-0.256 0.128-0.288-0.096-0.512-0.192-0.768 0.192 0.064 0.32 0.192 0.512 0.224 0.416 0.064 0.64-0.416 0.96-0.576l0.224 1.024c0.192-0.16 0.096-0.448 0.064-0.64-0.096-0.608-0.448-1.12-0.512-1.728v0c0.352 0.736 0.768 1.536 1.44 1.984l-0.256-0.32-0.416-0.64c0.096-0.032 0.16-0.064 0.256-0.128 0.448-0.384 0.064-0.928 0-1.376h0.032c0.032 0.128 0.096 0.288 0.192 0.416 0.416 0.576 0.928 0.48 1.536 0.416l-0.16 1.216h0.032c0.064-0.256 0.224-0.48 0.256-0.736 0.128-0.48 0-0.992 0-1.472h0.032c0.032 0.288 0.16 0.576 0.256 0.832 0.128 0.448 0.256 0.928 0.576 1.248l-0.288-1.216c0.864 0 1.088-0.576 1.088-1.344zM21.856 12.768c0 0 0.032 0 0.032 0 0.128 0 0.224 0.16 0.288 0.256 0.224 0.256 0.448 0.512 0.544 0.832-0.608-0.128-1.312-0.032-1.92 0.096 0.128-0.352 0.416-0.736 0.704-0.992 0.096-0.064 0.224-0.192 0.352-0.192zM23.584 13.312c0.256 0.096 0.544 0.48 0.64 0.736l-0.608-0.096zM22.336 13.984c0.064 0 0.128 0 0.16 0.032 0.352 0.128 0.256 0.8 0.192 1.056-0.064 0.224-0.16 0.448-0.352 0.544-0.16-0.256-0.384-0.448-0.672-0.576-0.128-0.064-0.352-0.096-0.448-0.224s-0.192-0.576-0.064-0.704c0.128-0.128 0.512-0.096 0.672-0.096 0.128 0 0.288-0.032 0.448-0.032 0.032 0 0.032 0 0.064 0zM23.584 14.144c0.096 0.032 0.32 0 0.416 0.096 0.288 0.32 0.128 1.12-0.256 1.28l-0.096-0.576c0.032 0 0.032 0 0.032 0 0.096 0 0.192-0.032 0.224-0.128 0.16-0.128 0.096-0.384-0.096-0.416 0-0.032 0-0.032 0-0.032-0.032 0-0.064 0-0.128 0-0.032 0-0.064 0-0.096 0.032v-0.256zM23.712 15.872c0.416 0 0.832 0.352 0.736 0.768-0.064 0.256-0.224 0.544-0.48 0.64-0.128 0.064-0.416 0.032-0.448-0.16 0-0.16 0.352-0.416 0.416-0.608-0.48 0.384-0.8 0.704-1.472 0.608v0c0.384-0.32 0.576-0.8 0.96-1.12 0.096-0.064 0.192-0.096 0.288-0.128zM22.976 17.312c0.192 0 0.416 0.032 0.544 0.192s0.096 0.384 0.16 0.576c0.032-0.192 0.032-0.928 0.416-0.512 0.32 0.32 0.224 1.056-0.064 1.344-0.192 0.192-0.672 0.32-0.896 0.128-0.352-0.256-0.448-0.832-0.544-1.216-0.032-0.096-0.128-0.32-0.064-0.416 0.032-0.096 0.16-0.096 0.256-0.096 0.064 0 0.128 0 0.192 0zM25.344 17.472c0.512 0.096 0.576 0.832 1.024 1.056v0.032c-0.256 0.128-0.352 0-0.512-0.192l0.192 0.352c-0.224-0.032-0.256-0.224-0.384-0.352l0.192 0.384c-0.32 0-0.448-0.032-0.576-0.352h-0.032l0.064 0.256-0.192-0.128 0.096-0.352zM10.72 20.512c0.192 0.064 0.32 0.192 0.32 0.416l-0.608 0.448zM22.784 21.216l0.416 0.608-0.608-0.256zM12.992 22.432c0.576 0.064 0.192 0.608-0.032 0.864zM20.448 23.104l0.256 0.736c-0.224-0.128-0.448-0.352-0.544-0.576zM15.52 23.52l0.288 0.032-0.224 0.864h-0.032l-0.064-0.672zM18.080 23.648c0.032 0 0.096 0.032 0.128 0.064 0.16 0.128-0.032 0.736-0.128 0.864l-0.288-0.864c0.064 0 0.192-0.064 0.288-0.064zM32 16c0 8.832-7.168 16-16 16s-16-7.168-16-16c0-8.832 7.168-16 16-16s16 7.168 16 16z"></path>
</svg>
