<!-- Generated by IcoMoon.io -->
<svg version="1.1" xmlns="http://www.w3.org/2000/svg" width="32" height="32" viewBox="0 0 32 32">
<title>opera</title>
<path d="M26.656 4.064c-1.856-1.248-4.064-1.952-6.4-1.952-3.808 0-7.168 1.952-9.536 4.864-1.696 2.144-2.912 5.184-2.976 8.64v0.768c0.064 3.456 1.28 6.496 2.976 8.64 2.368 2.912 5.728 4.864 9.536 4.864 2.336 0 4.544-0.704 6.4-1.952-2.816 2.528-6.56 4.064-10.656 4.064-0.256 0-0.512 0-0.768-0.032-8.48-0.384-15.232-7.392-15.232-15.968 0-8.832 7.168-16 16-16h0.064c4.064 0 7.776 1.536 10.592 4.064zM32 16c0 4.672-1.984 8.832-5.184 11.776-1.216 0.736-2.56 1.12-3.968 1.12-1.632 0-3.2-0.544-4.544-1.504 3.616-1.312 6.304-5.92 6.304-11.392s-2.656-10.048-6.272-11.392c1.344-0.96 2.88-1.472 4.512-1.472 1.472 0 2.816 0.384 4.032 1.152 3.168 2.912 5.12 7.072 5.12 11.712z"></path>
</svg>
