<!-- Generated by IcoMoon.io -->
<svg version="1.1" xmlns="http://www.w3.org/2000/svg" width="32" height="32" viewBox="0 0 32 32">
<title>osvr</title>
<path d="M17.184 17.76v5.312h1.248v-2.24h2.4l1.152 2.144 0.032 0.096h1.344l-0.128-0.224-1.088-2.080c0.352-0.064 0.672-0.192 0.832-0.384 0.256-0.256 0.352-0.576 0.352-0.928v-0.352c0-0.384-0.128-0.736-0.416-0.992s-0.736-0.352-1.312-0.352h-4.288zM18.432 18.784h3.168c0.192 0 0.32 0.032 0.384 0.096s0.096 0.096 0.096 0.224v0.384c0 0.096-0.032 0.16-0.096 0.224s-0.192 0.096-0.384 0.096h-3.168zM7.456 17.76l0.128 0.224 3.392 5.088h0.832l0.064-0.064 3.456-5.248h-1.376l-0.064 0.064-2.464 3.872-2.56-3.936h-1.152zM18.816 9.184c-0.608 0-1.024 0.128-1.312 0.352s-0.416 0.608-0.416 0.992v0.288c0 0.416 0.128 0.768 0.416 0.992s0.704 0.384 1.312 0.384h2.944c0.192 0 0.32 0.032 0.384 0.096s0.096 0.096 0.096 0.224v0.64c0 0.096-0.032 0.16-0.096 0.224s-0.192 0.096-0.384 0.096h-4.512v1.024h4.672v-0.032c0.48 0 0.896-0.128 1.152-0.352 0.288-0.224 0.416-0.576 0.416-0.96v-0.64c0-0.384-0.128-0.736-0.416-0.992s-0.704-0.352-1.312-0.352h-2.944c-0.192 0-0.32-0.032-0.416-0.096s-0.096-0.128-0.096-0.224v-0.32c0-0.128 0.032-0.192 0.096-0.224s0.224-0.096 0.416-0.096h4.384v-1.024h-0.128zM9.728 9.184c-0.608 0-1.024 0.128-1.312 0.352s-0.416 0.608-0.416 0.992v2.624c0 0.384 0.128 0.736 0.416 0.96s0.704 0.384 1.312 0.384h3.328c0.576 0 0.992-0.128 1.28-0.384s0.416-0.576 0.416-0.96v-2.624c0-0.384-0.128-0.736-0.416-0.992s-0.704-0.352-1.28-0.352zM9.728 10.208h3.328c0.192 0 0.32 0.032 0.384 0.096s0.096 0.096 0.096 0.224v2.624c0 0.096-0.032 0.16-0.096 0.224s-0.192 0.096-0.384 0.096h-3.328c-0.192 0-0.32-0.032-0.384-0.096s-0.128-0.128-0.128-0.224v-2.624c0-0.128 0.032-0.192 0.128-0.224s0.192-0.096 0.384-0.096zM28.288 25.632c0 0.768-0.64 1.408-1.408 1.408h-21.76c-0.768 0-1.408-0.64-1.408-1.408v-19.264c0-0.768 0.64-1.408 1.408-1.408h21.76c0.768 0 1.408 0.64 1.408 1.408z"></path>
</svg>
