<!-- Generated by IcoMoon.io -->
<svg version="1.1" xmlns="http://www.w3.org/2000/svg" width="32" height="32" viewBox="0 0 32 32">
<title>outlook</title>
<path d="M0 3.616v24.48l18.624 3.904v-32zM12.48 20c-0.8 1.024-1.824 1.536-3.104 1.536-1.216 0-2.24-0.512-3.008-1.504s-1.152-2.304-1.152-3.936c0-1.696 0.384-3.072 1.184-4.128s1.824-1.568 3.136-1.568c1.216 0 2.208 0.512 2.976 1.504 0.768 1.024 1.12 2.336 1.12 4 0.032 1.696-0.384 3.040-1.152 4.096zM9.472 12.48c-0.672 0-1.216 0.32-1.632 0.96s-0.576 1.504-0.576 2.528c0 1.088 0.192 1.92 0.576 2.56 0.416 0.608 0.928 0.928 1.6 0.928 0.64 0 1.184-0.32 1.568-0.928s0.608-1.44 0.608-2.496c0-1.12-0.192-1.984-0.576-2.624-0.384-0.608-0.896-0.928-1.568-0.928zM19.808 15.36l1.984 1.376c0.288 0.224 0.64 0 0.64 0-0.352 0.224 9.216-6.144 9.216-6.144v11.52c0 1.248-0.8 1.76-1.696 1.76h-10.144v-8.512zM19.808 6.784v6.272l2.176 1.376c0.064 0 0.192 0 0.256 0l9.408-6.368c0-0.736-0.704-1.28-1.088-1.28z"></path>
</svg>
