<!-- Generated by IcoMoon.io -->
<svg version="1.1" xmlns="http://www.w3.org/2000/svg" width="27" height="32" viewBox="0 0 27 32">
<title>paypal</title>
<path d="M27.136 11.52v0c0.224 1.088 0.16 2.304-0.096 3.648-1.152 5.888-5.056 7.936-10.080 7.936h-0.768c-0.608 0-1.12 0.448-1.216 1.056l-0.096 0.352-0.96 6.176-0.032 0.256c-0.128 0.608-0.64 1.056-1.248 1.056h-4.48c-0.512 0-0.832-0.416-0.736-0.896 0.32-2.016 0.608-4 0.928-6.016s0.64-4 0.96-5.984c0.064-0.416 0.352-0.672 0.768-0.672 0.736 0 1.44 0 2.336 0 1.312 0.032 2.784-0.032 4.224-0.352 1.92-0.448 3.68-1.216 5.12-2.592 1.312-1.216 2.176-2.72 2.784-4.384 0.256-0.8 0.48-1.568 0.608-2.368 0.032-0.224 0.096-0.192 0.224-0.096 0.992 0.736 1.536 1.728 1.76 2.88zM24.064 6.496c0 1.472-0.352 2.848-0.832 4.224-0.928 2.688-2.688 4.608-5.376 5.6-1.472 0.544-2.976 0.736-4.512 0.768-1.088 0-2.144 0-3.232 0-1.152 0-1.888 0.576-2.080 1.696-0.256 1.376-1.248 7.68-1.536 9.472 0 0.128-0.064 0.192-0.224 0.192h-5.248c-0.544 0-0.928-0.48-0.864-0.992l4.16-26.272c0.096-0.672 0.704-1.184 1.408-1.184h10.656c0.768 0 2.56 0.32 3.744 0.8 2.528 0.992 3.936 2.976 3.936 5.696z"></path>
</svg>
