<!-- Generated by IcoMoon.io -->
<svg version="1.1" xmlns="http://www.w3.org/2000/svg" width="27" height="32" viewBox="0 0 27 32">
<title>phone-square</title>
<path d="M22.848 21.312c0-0.096 0-0.224-0.032-0.288-0.096-0.32-2.72-1.664-3.2-1.952-0.352-0.192-0.768-0.576-1.152-0.576-0.8 0-1.952 2.336-2.656 2.336-0.352 0-0.8-0.32-1.12-0.512-2.368-1.312-4-2.944-5.312-5.28-0.192-0.32-0.512-0.768-0.512-1.12 0-0.704 2.336-1.856 2.336-2.656 0-0.416-0.384-0.832-0.576-1.152-0.288-0.512-1.6-3.104-1.92-3.232-0.096-0.032-0.192-0.032-0.288-0.032-0.48 0-1.376 0.224-1.792 0.384-1.184 0.544-2.048 2.784-2.048 4.032 0 1.184 0.48 2.272 0.896 3.392 1.408 3.904 5.664 8.16 9.568 9.6 1.12 0.416 2.208 0.896 3.424 0.896s3.456-0.864 4-2.048c0.192-0.416 0.384-1.344 0.384-1.792zM27.424 7.424v17.152c0 2.848-2.304 5.152-5.152 5.152h-17.12c-2.848 0-5.152-2.304-5.152-5.152v-17.152c0-2.848 2.304-5.152 5.152-5.152h17.12c2.848 0 5.152 2.304 5.152 5.152z"></path>
</svg>
