<!-- Generated by IcoMoon.io -->
<svg version="1.1" xmlns="http://www.w3.org/2000/svg" width="32" height="32" viewBox="0 0 32 32">
<title>php</title>
<path d="M9.856 13.6h-1.664l-0.672 3.488h1.536c0 0 1.888 0.064 1.952-2.272 0.096-1.312-1.152-1.216-1.152-1.216zM23.936 13.6h-1.632l-0.704 3.488h1.568c0 0 1.856 0.064 1.952-2.272 0.096-1.312-1.184-1.216-1.184-1.216zM16 7.744c-8.672 0-15.68 3.68-15.68 8.256s7.008 8.256 15.68 8.256c8.672 0 15.68-3.712 15.68-8.256 0-4.576-7.008-8.256-15.68-8.256zM8.992 18.4l-1.696-0.032-0.448 2.208h-1.792l1.6-8.256c0 0 2.304 0.032 3.808 0s2.976 1.024 2.272 3.424c-0.832 2.88-3.744 2.656-3.744 2.656zM17.024 18.4c0 0 0.416-1.92 0.608-3.264 0.096-0.544 0.416-1.472-0.48-1.472-0.736 0-1.856 0-1.856 0l-0.96 4.736h-1.76l1.664-8.32h1.792l-0.448 2.24h1.856c0 0 2.496-0.192 2.208 1.824s-0.864 4.256-0.864 4.256h-1.76zM26.848 15.744c-0.832 2.88-3.776 2.656-3.776 2.656l-1.664-0.032-0.48 2.208h-1.792l1.632-8.256c0 0 2.272 0.032 3.776 0s2.976 1.024 2.304 3.424z"></path>
</svg>
