<!-- Generated by IcoMoon.io -->
<svg version="1.1" xmlns="http://www.w3.org/2000/svg" width="32" height="32" viewBox="0 0 32 32">
<title>pi</title>
<path d="M26.336 14.528l-0.256-0.384c0-2.944-1.344-4.064-2.816-4.928 0.48-0.128 0.992-0.224 1.12-0.864 0.864-0.224 0.96-0.608 1.088-0.96 0.256-0.128 0.864-0.512 0.864-1.248 0.384-0.256 0.608-0.608 0.512-1.088 0.352-0.512 0.48-0.864 0.352-1.248 0.48-0.608 0.256-0.992 0.128-1.344 0.352-0.736 0-1.472-0.992-1.376-0.352-0.608-1.344-0.48-1.472-0.48-0.128-0.256-0.384-0.352-0.992-0.256-0.608-0.352-1.088-0.352-1.6-0.096-0.608-0.512-0.992-0.128-1.344 0-0.736-0.256-0.864 0.096-1.248 0.224-0.736-0.128-0.96 0.256-1.344 0.608h-0.352c-1.12 0.64-1.728 2.112-1.984 2.72-0.256-0.736-0.736-2.080-1.952-2.72h-0.384c-0.384-0.352-0.608-0.736-1.344-0.608-0.384-0.128-0.512-0.48-1.248-0.224-0.224-0.128-0.48-0.256-0.864-0.256v0c-0.128 0-0.224 0.128-0.48 0.256-0.48-0.256-0.992-0.256-1.344 0.096-0.64-0.096-0.864 0.128-0.992 0.256-0.128 0-1.12-0.128-1.472 0.48-1.12-0.096-1.472 0.64-1.12 1.376-0.256 0.352-0.352 0.608 0.128 1.344-0.256 0.256-0.128 0.736 0.352 1.12-0.096 0.48 0 0.864 0.512 1.216-0.128 0.608 0.608 0.992 0.736 1.248 0.128 0.352 0.256 0.736 1.12 0.96 0.096 0.64 0.608 0.736 1.088 0.864-1.6 0.864-2.816 2.112-2.816 4.928l-0.256 0.384c-1.728 1.088-3.328 4.544-0.864 7.36 0.128 0.864 0.384 1.504 0.608 2.24 0.384 2.816 2.72 4.192 3.328 4.288 0.864 0.768 1.856 1.376 3.2 1.856 1.248 1.248 2.592 1.728 3.936 1.728 0 0 0 0 0 0 1.376 0 2.72-0.48 3.936-1.728 1.376-0.48 2.336-1.088 3.2-1.856 0.64-0.096 2.976-1.472 3.328-4.288 0.256-0.736 0.512-1.376 0.736-2.24 2.72-2.816 1.12-6.272-0.736-7.36zM24.736 14.016c-0.128 1.248-6.016-4.064-5.056-4.16 2.848-0.512 5.184 1.088 5.056 4.16zM18.208 1.856c0 0.224 0.128 0.352 0.128 0.48 0.384-0.384 0.608-0.736 0.992-1.12 0 0.256-0.128 0.384 0.128 0.64 0.224-0.384 0.48-0.64 0.992-0.864-0.256 0.352 0 0.48 0.096 0.608 0.384-0.256 0.64-0.512 1.248-0.736-0.128 0.224-0.384 0.352-0.128 0.608 0.384-0.256 0.608-0.384 1.472-0.608-0.128 0.224-0.48 0.352-0.352 0.608 0.352-0.128 0.864-0.256 1.344-0.384-0.256 0.256-0.48 0.384-0.256 0.512 0.512-0.128 0.992-0.384 1.6-0.128l-0.352 0.384c0 0 0.864 0 1.472 0-0.256 0.352-0.512 0.608-0.608 1.088 0 0 0.352 0 0.608 0-0.256 0.736-0.736 0.864-0.864 1.12 0.128 0.128 0.352 0.128 0.736 0-0.256 0.48-0.608 0.736-0.992 1.088 0.128 0.128 0.256 0.128 0.608 0-0.352 0.384-0.736 0.64-1.088 0.992 0.128 0.128 0.352 0.128 0.608 0.128-0.352 0.384-0.992 0.608-1.472 0.864 0.128 0.256 0.352 0.128 0.48 0.128-0.352 0.224-0.96 0.48-1.472 0.608 0.128 0.128 0.256 0.256 0.512 0.256-0.64 0.352-1.504 0.128-1.728 0.352 0 0.128 0.224 0.256 0.352 0.384-0.992 0-3.552 0-4.064-1.984 0.992-1.088 2.72-2.336 5.792-3.936-2.336 0.864-4.544 1.856-6.272 3.328-1.984-0.992-0.608-3.456 0.48-4.416zM16 8.992c1.472 0 3.328 1.088 3.328 2.208 0 0.992-1.344 1.728-3.328 1.728s-3.328-0.992-3.328-1.856c0-0.864 1.6-2.080 3.328-2.080v0zM8.48 8.256c0.256 0 0.384-0.128 0.512-0.256-0.608-0.256-1.248-0.384-1.6-0.736 0.256 0 0.352 0 0.608-0.128-0.48-0.256-0.992-0.48-1.472-0.864 0.256 0 0.48 0 0.608-0.128-0.352-0.256-0.736-0.608-1.088-0.864 0.352 0 0.48 0 0.608 0-0.384-0.48-0.736-0.736-0.992-1.216 0.256 0.128 0.48 0.128 0.736 0-0.128-0.256-0.736-0.384-0.992-0.992 0.256 0 0.64 0 0.64 0-0.128-0.48-0.384-0.864-0.512-1.12 0.608 0 1.472 0 1.472 0l-0.352-0.48c0.608-0.128 1.216 0 1.6 0.128 0.224-0.128 0-0.384-0.256-0.512 0.48 0.128 0.992 0.256 1.344 0.384 0.256-0.256-0.096-0.384-0.352-0.608 0.864 0.128 1.088 0.352 1.472 0.608 0.256-0.256 0-0.384-0.128-0.608 0.608 0.224 0.864 0.48 1.248 0.736 0.096-0.128 0.224-0.256 0.096-0.608 0.256 0.224 0.64 0.48 0.864 0.864 0.256-0.128 0.128-0.384 0.128-0.64 0.384 0.384 0.736 0.736 0.992 1.12 0.128 0 0.128-0.256 0.128-0.48 0.992 0.96 2.464 3.424 0.352 4.416-1.696-1.472-3.936-2.592-6.272-3.328 3.072 1.6 4.8 2.848 5.792 3.936-0.48 1.984-3.072 2.112-4.064 1.984 0.256-0.128 0.384-0.256 0.384-0.384-0.128-0.128-0.864 0-1.504-0.224zM11.936 9.728c0.992 0.128-4.928 5.408-5.056 4.16-0.096-2.944 2.24-4.672 5.056-4.16zM5.664 21.408c-1.472-1.216-1.984-4.544 0.736-6.144 1.6-0.512 0.608 6.624-0.736 6.144zM11.328 27.584c-0.864 0.48-2.848 0.224-4.192-1.728-0.992-1.728-0.864-3.456-0.128-3.968 0.992-0.608 2.592 0.256 3.712 1.6 0.96 1.12 1.472 3.328 0.608 4.096zM9.728 20.064c-1.472-0.992-1.728-3.2-0.608-5.056 1.216-1.728 3.328-2.464 4.8-1.472s1.728 3.2 0.608 5.056c-1.12 1.824-3.328 2.464-4.8 1.472zM16 31.008c-1.856 0.128-3.552-1.472-3.552-1.952 0-0.736 2.208-1.376 3.68-1.376 1.472-0.096 3.456 0.512 3.456 1.248 0 0.48-1.856 2.080-3.584 2.080zM19.68 23.136c0 1.856-1.6 3.328-3.552 3.328s-3.68-1.472-3.68-3.328c0 0 0 0 0 0 0-1.856 1.6-3.328 3.552-3.328 2.080 0 3.68 1.472 3.68 3.328 0 0 0 0 0 0zM17.472 18.464c-1.216-1.728-0.864-4.064 0.608-5.056s3.712-0.352 4.8 1.472 0.864 4.064-0.608 5.056c-1.472 0.864-3.68 0.256-4.8-1.472zM24.864 25.856c-1.6 2.208-3.68 2.208-4.416 1.6-0.864-0.768-0.256-3.2 0.96-4.576v0c1.248-1.472 2.72-2.464 3.584-1.728 0.608 0.864 0.992 3.2-0.128 4.704zM25.984 21.28c-1.376 0.608-2.464-6.528-0.736-6.144 2.688 1.472 2.208 4.928 0.736 6.144z"></path>
</svg>
