<!-- Generated by IcoMoon.io -->
<svg version="1.1" xmlns="http://www.w3.org/2000/svg" width="23" height="32" viewBox="0 0 23 32">
<title>pinterest-p</title>
<path d="M0 10.656c0-6.592 6.048-10.656 12.16-10.656 5.6 0 10.688 3.84 10.688 9.76 0 5.568-2.816 11.712-9.152 11.712-1.504 0-3.392-0.736-4.128-2.144-1.344 5.376-1.248 6.176-4.256 10.304l-0.224 0.096-0.16-0.192c-0.128-1.12-0.288-2.24-0.288-3.36 0-3.648 1.696-8.928 2.496-12.448-0.448-0.896-0.576-2.016-0.576-3.008 0-1.824 1.248-4.096 3.296-4.096 1.504 0 2.304 1.152 2.304 2.56 0 2.304-1.568 4.48-1.568 6.752 0 1.536 1.28 2.592 2.752 2.592 4.096 0 5.376-5.92 5.376-9.088 0-4.224-3.008-6.528-7.072-6.528-4.704 0-8.352 3.392-8.352 8.16 0 2.304 1.408 3.488 1.408 4.064 0 0.448-0.32 2.080-0.928 2.080-0.064 0-0.192-0.032-0.288-0.032-2.56-0.768-3.488-4.192-3.488-6.528z"></path>
</svg>
