<!-- Generated by IcoMoon.io -->
<svg version="1.1" xmlns="http://www.w3.org/2000/svg" width="27" height="32" viewBox="0 0 27 32">
<title>pinterest-square</title>
<path d="M22.272 2.272c2.848 0 5.152 2.304 5.152 5.152v17.152c0 2.848-2.304 5.152-5.152 5.152h-12.928c0.576-0.864 1.536-2.304 1.92-3.776 0 0 0.16-0.608 0.96-3.712 0.48 0.896 1.856 1.696 3.328 1.696 4.352 0 7.296-4 7.296-9.312 0-4.032-3.392-7.776-8.576-7.776-6.464 0-9.696 4.64-9.696 8.48 0 2.336 0.896 4.416 2.784 5.184 0.288 0.128 0.576 0 0.672-0.352 0.064-0.224 0.192-0.832 0.288-1.088 0.064-0.32 0.032-0.448-0.224-0.736-0.512-0.672-0.896-1.472-0.896-2.688 0-3.424 2.592-6.464 6.688-6.464 3.648 0 5.664 2.208 5.664 5.184 0 3.904-1.76 7.232-4.32 7.232-1.408 0-2.496-1.184-2.144-2.624 0.416-1.728 1.184-3.584 1.184-4.832 0-1.088-0.576-2.016-1.792-2.016-1.472 0-2.624 1.504-2.624 3.488 0 0 0 1.28 0.416 2.176-1.472 6.272-1.728 7.392-1.728 7.392-0.384 1.632-0.224 3.552-0.128 4.544h-3.264c-2.848 0-5.152-2.304-5.152-5.152v-17.152c0-2.848 2.304-5.152 5.152-5.152h17.12z"></path>
</svg>
