<!-- Generated by IcoMoon.io -->
<svg version="1.1" xmlns="http://www.w3.org/2000/svg" width="27" height="32" viewBox="0 0 27 32">
<title>pinterest</title>
<path d="M27.424 16c0 7.552-6.144 13.728-13.696 13.728-1.376 0-2.656-0.224-3.904-0.576 0.512-0.832 1.12-1.888 1.376-2.944 0 0 0.192-0.608 0.992-3.776 0.448 0.928 1.856 1.728 3.328 1.728 4.416 0 7.424-4.032 7.424-9.408 0-4.064-3.456-7.872-8.704-7.872-6.496 0-9.792 4.672-9.792 8.576 0 2.368 0.896 4.48 2.816 5.248 0.288 0.128 0.576 0 0.672-0.352 0.064-0.224 0.224-0.832 0.288-1.088 0.096-0.352 0.032-0.48-0.192-0.768-0.576-0.672-0.928-1.504-0.928-2.688 0-3.488 2.592-6.592 6.752-6.592 3.68 0 5.728 2.272 5.728 5.28 0 3.936-1.76 7.296-4.384 7.296-1.408 0-2.496-1.184-2.144-2.656 0.416-1.728 1.216-3.616 1.216-4.864 0-1.12-0.608-2.048-1.856-2.048-1.472 0-2.656 1.504-2.656 3.552 0 0 0 1.28 0.448 2.176-1.504 6.336-1.76 7.456-1.76 7.456-0.256 1.024-0.256 2.208-0.224 3.168-4.832-2.144-8.224-6.944-8.224-12.576 0-7.584 6.144-13.728 13.728-13.728s13.696 6.144 13.696 13.728z"></path>
</svg>
