<!-- Generated by IcoMoon.io -->
<svg version="1.1" xmlns="http://www.w3.org/2000/svg" width="41" height="32" viewBox="0 0 41 32">
<title>playstation</title>
<path d="M15.52 0.032v29.792l6.72 2.144v-24.992c0-1.184 0.544-1.952 1.376-1.696 1.12 0.32 1.312 1.376 1.312 2.56v9.984c4.224 2.048 7.52 0 7.52-5.376 0-5.472-1.92-7.936-7.648-9.888-2.24-0.768-6.432-2.016-9.28-2.528zM23.52 27.616l10.88-3.872c1.216-0.448 1.408-1.056 0.416-1.376-1.024-0.352-2.816-0.256-4.064 0.192l-7.232 2.56v-4.064l0.448-0.128c0 0 2.080-0.736 5.024-1.088 2.912-0.32 6.528 0.064 9.344 1.12 3.168 1.024 3.552 2.496 2.72 3.52-0.8 1.024-2.784 1.76-2.784 1.76l-14.752 5.28v-3.904zM3.136 27.2c-3.264-0.928-3.808-2.816-2.336-3.936 1.376-1.024 3.712-1.792 3.712-1.792l9.696-3.424v3.904l-6.976 2.496c-1.216 0.448-1.408 1.056-0.416 1.408 0.992 0.32 2.816 0.224 4.032-0.224l3.36-1.216v3.52c-0.224 0.032-0.448 0.064-0.672 0.096-3.36 0.576-6.912 0.32-10.4-0.832z"></path>
</svg>
