<!-- Generated by IcoMoon.io -->
<svg version="1.1" xmlns="http://www.w3.org/2000/svg" width="32" height="32" viewBox="0 0 32 32">
<title>powerpoint</title>
<path d="M18.464 0l-18.464 3.52v24.928l18.464 3.552v-32zM19.68 3.68v5.248c0.768-0.416 1.568-0.672 2.464-0.672v5.28h5.28c0 2.912-2.368 5.28-5.28 5.28-0.896 0-1.696-0.256-2.464-0.672v4h6.176v2.464h-6.176v3.712h11.296c0.544 0 1.024-0.512 1.024-1.088v-22.464c0-0.608-0.48-1.088-1.024-1.088h-11.296zM23.392 7.040c2.912 0 5.248 2.368 5.248 5.248h-5.248v-5.248zM4.768 9.76h4.384c3.136 0 4.736 1.312 4.736 3.968 0 1.248-0.448 2.304-1.344 3.072s-2.112 1.152-3.616 1.152h-1.344v4.288h-2.816v-12.48zM7.584 11.904v3.904h1.12c1.472 0 2.208-0.64 2.208-1.952s-0.736-1.952-2.208-1.952h-1.12z"></path>
</svg>
