<!-- Generated by IcoMoon.io -->
<svg version="1.1" xmlns="http://www.w3.org/2000/svg" width="32" height="32" viewBox="0 0 32 32">
<title>project</title>
<path d="M18.432 0l-17.92 3.392c-0.32 0.064-0.512 0.384-0.512 0.64v23.872c0 0.32 0.192 0.576 0.512 0.64l17.92 3.392h0.128c0.128 0 0.32-0.064 0.384-0.128 0.128-0.128 0.256-0.32 0.256-0.512v-30.656c0-0.192-0.064-0.384-0.256-0.512-0.128-0.128-0.32-0.128-0.512-0.128zM20.48 3.84v4.48h5.12v6.4h2.56l-3.2 3.2-3.2-3.2h2.56v-5.12h-3.84v8l2.88 2.88-2.88 2.88v4.8h9.6c0.704 0 1.28-0.576 1.28-1.28v-21.76c0-0.704-0.576-1.28-1.28-1.28h-9.6zM5.888 10.048h4.224c3.008 0 4.544 1.28 4.544 3.84-0.064 1.152-0.448 2.112-1.344 2.88s-2.048 1.088-3.456 1.088h-1.28v4.096h-2.688v-11.904zM8.512 12.096v3.712h1.088c1.408 0 2.176-0.64 2.176-1.856s-0.704-1.856-2.176-1.856h-1.088z"></path>
</svg>
