<!-- Generated by IcoMoon.io -->
<svg version="1.1" xmlns="http://www.w3.org/2000/svg" width="32" height="32" viewBox="0 0 32 32">
<title>publisher</title>
<path d="M18.464 0l-18.464 3.52v24.928l18.464 3.552v-32zM23.392 3.68c-0.896 0-0.672 0.8 0 1.12s6.144 3.36 6.144 3.36v13.984h2.464v-18.464h-8.608zM19.68 8.608v2.432h4.96v3.712h-4.96v2.464h4.928v1.248h-4.928v2.464h4.928v1.216h-4.928v2.464h4.928v1.248h-4.928v2.464h7.584c0.576 0 1.056-0.512 1.056-1.088v-17.536c0-0.608-0.48-1.088-1.056-1.088h-7.584zM4.768 9.76h4.384c3.136 0 4.736 1.312 4.736 3.968 0 1.248-0.448 2.304-1.344 3.072s-2.112 1.152-3.616 1.152h-1.344v4.288h-2.816v-12.48zM7.584 11.904v3.904h1.12c1.472 0 2.208-0.64 2.208-1.952s-0.736-1.952-2.208-1.952h-1.12z"></path>
</svg>
