<!-- Generated by IcoMoon.io -->
<svg version="1.1" xmlns="http://www.w3.org/2000/svg" width="25" height="32" viewBox="0 0 25 32">
<title>px</title>
<path d="M25.024 27.616l-0.096 0.128c-1.344 1.312-2.912 2.368-4.64 3.104-1.792 0.768-3.712 1.152-5.664 1.152s-3.872-0.384-5.664-1.152c-1.728-0.736-3.296-1.792-4.608-3.104-1.344-1.344-2.4-2.88-3.136-4.608-0.448-1.12-0.8-2.24-0.96-3.392v0c-0.064-0.512 0.608-0.608 0.864-0.64 0.544-0.096 0.928-0.064 0.992 0.352 0 0.032 0 0.032 0 0.064 0.096 0.384 0.256 1.44 0.832 2.848 0.608 1.472 1.504 2.816 2.72 4.032 1.152 1.184 2.528 2.080 4.032 2.72 1.568 0.672 3.232 0.992 4.928 0.992s3.36-0.32 4.928-0.992c1.504-0.64 2.848-1.536 4.032-2.72l0.096-0.096c0.128-0.128 0.256-0.16 0.448-0.096 0.16 0.032 0.352 0.16 0.576 0.384v0c0.576 0.576 0.448 0.864 0.32 1.024zM16.576 16.64l-1.152 1.184 1.12 1.12c0.128 0.128 0.352 0.384-0.128 0.864-0.192 0.192-0.384 0.32-0.576 0.32-0.128 0-0.224-0.064-0.352-0.192l-1.088-1.088-1.184 1.184c-0.032 0.032-0.128 0.096-0.256 0.096-0.16 0-0.384-0.096-0.576-0.288l-0.032-0.032c-0.128-0.128-0.32-0.32-0.32-0.512 0-0.128 0.064-0.224 0.16-0.32l1.152-1.152-1.152-1.184c-0.224-0.192-0.128-0.448 0.224-0.8 0.224-0.224 0.416-0.32 0.576-0.32 0.096 0 0.16 0.032 0.224 0.096l1.152 1.152 1.184-1.152c0.192-0.192 0.512-0.096 0.832 0.224 0.224 0.224 0.448 0.544 0.192 0.8zM24.992 17.664c0 1.408-0.288 2.784-0.8 4.064-0.544 1.248-1.312 2.368-2.272 3.328s-2.080 1.696-3.328 2.24c-1.28 0.576-2.656 0.832-4.064 0.832s-2.784-0.256-4.064-0.832c-1.28-0.544-2.4-1.28-3.36-2.24s-1.696-2.080-2.24-3.328c-0.096-0.224-0.256-0.672-0.256-0.704h-0.032c-0.16-0.512 0.576-0.736 0.768-0.8 0.544-0.16 0.928-0.224 1.088 0.224 0.416 1.152 1.088 2.24 1.728 2.976h0.032v-6.080c0.032-1.504 0.64-3.040 1.824-4.16 1.184-1.184 2.784-1.824 4.512-1.824 3.488 0 6.336 2.816 6.336 6.272 0 3.52-2.848 6.336-6.336 6.336-0.704 0-1.216-0.032-2.016-0.288-0.096-0.032-0.48-0.192-0.224-1.088 0.064-0.224 0.288-0.896 0.8-0.768 0.032 0 0.896 0.224 1.376 0.224 2.464 0 4.416-1.92 4.416-4.384 0-1.152-0.48-2.272-1.28-3.072-0.832-0.8-1.952-1.248-3.136-1.248-1.216 0-2.368 0.48-3.168 1.408-0.736 0.8-1.152 1.888-1.152 2.88v7.36c1.28 0.8 2.784 1.216 4.32 1.216 2.272 0 4.512-0.928 6.080-2.528 1.632-1.6 2.496-3.744 2.496-6.016 0-2.304-0.864-4.448-2.496-6.048-1.6-1.632-3.744-2.528-6.048-2.528s-4.48 0.896-6.080 2.528c-0.032 0-1.024 1.056-1.376 1.536l-0.032 0.032c-0.224 0.32-0.416 0.608-1.312 0.416-0.448-0.128-0.928-0.384-0.928-0.768v-12.16c0-0.32 0.256-0.672 0.672-0.672h15.68c0.512 0 0.512 0.736 0.512 0.992 0 0.224 0 0.96-0.512 0.96h-14.496v8.64h0.032c0.992-1.056 2.72-2.176 3.744-2.592 1.248-0.544 2.688-0.832 4.128-0.832 1.408 0 2.784 0.288 4.064 0.832 1.248 0.544 2.368 1.28 3.328 2.24s1.728 2.080 2.272 3.328c0.512 1.312 0.8 2.656 0.8 4.096zM24.448 7.296c0.352 0.288 0.096 0.608-0.224 0.992-0.224 0.224-0.448 0.48-0.704 0.48-0.096 0-0.192-0.032-0.288-0.128-1.28-1.12-2.432-1.856-3.68-2.368-1.568-0.672-3.232-1.024-4.928-1.024-1.536 0-3.2 0.32-4.704 0.896-0.448 0.16-0.704-0.448-0.8-0.672-0.096-0.288-0.16-0.512-0.128-0.672 0.032-0.192 0.128-0.288 0.288-0.352 1.44-0.64 3.456-1.024 5.344-1.024 1.92 0 3.84 0.384 5.632 1.152 1.632 0.672 2.976 1.536 4.192 2.72z"></path>
</svg>
