<!-- Generated by IcoMoon.io -->
<svg version="1.1" xmlns="http://www.w3.org/2000/svg" width="32" height="32" viewBox="0 0 32 32">
<title>python</title>
<path d="M16.192 32c8.16 0 7.68-3.552 7.68-3.552l-0.032-3.648h-7.776v-1.12h10.88c0 0 5.216 0.608 5.216-7.648s-4.544-7.936-4.544-7.936h-2.72v3.808c0 0 0.128 4.576-4.512 4.576s-7.712 0-7.712 0c0 0-4.352-0.064-4.352 4.192s0 7.072 0 7.072c0 0-0.64 4.256 7.872 4.256zM20.512 29.536c-0.8 0-1.408-0.64-1.408-1.408s0.608-1.408 1.408-1.408c0.768 0 1.376 0.64 1.376 1.408s-0.608 1.408-1.376 1.408zM15.968 0c-8.16 0-7.648 3.552-7.648 3.552v3.648h7.808v1.12h-10.912c0 0-5.216-0.608-5.216 7.648s4.576 7.936 4.576 7.936h2.72v-3.84c0 0-0.16-4.544 4.48-4.544s7.712 0 7.712 0c0 0 4.352 0.064 4.352-4.192s0-7.072 0-7.072c0 0 0.672-4.256-7.872-4.256zM11.68 2.464c0.768 0 1.408 0.64 1.408 1.408s-0.64 1.408-1.408 1.408c-0.768 0-1.408-0.64-1.408-1.408s0.64-1.408 1.408-1.408z"></path>
</svg>
