<!-- Generated by IcoMoon.io -->
<svg version="1.1" xmlns="http://www.w3.org/2000/svg" width="32" height="32" viewBox="0 0 32 32">
<title>qq</title>
<path d="M26.784 15.616c-0.096-1.216-0.32-2.656-0.928-3.52 0.576-7.648-4.608-12.192-9.856-12.096s-10.464 4.448-9.856 12.096c-0.608 0.864-0.832 2.304-0.928 3.52-1.536 2.336-3.232 5.952-1.344 9.44 0.96-0.448 1.728-1.344 1.984-2.464 0.736 1.792 1.824 3.488 3.264 4.8-2.080 0.416-3.552 1.376-3.488 2.464 0.064 1.312 2.4 2.272 5.216 2.144 2.368-0.128 4.32-0.96 4.864-1.984 0.064 0 0.512 0 0.576 0 0.544 1.024 2.496 1.856 4.832 1.984 2.848 0.128 5.184-0.832 5.248-2.144 0.064-1.088-1.408-2.048-3.488-2.464 1.44-1.312 2.528-3.008 3.264-4.8 0.256 1.12 1.024 2.048 1.984 2.464 1.888-3.488 0.192-7.072-1.344-9.44v0 0zM18.656 5.024c1.024 0.032 1.824 1.312 1.792 2.816-0.064 1.536-0.928 2.752-1.984 2.72-1.024-0.032-1.824-1.28-1.792-2.816 0.064-1.536 0.928-2.752 1.984-2.72zM13.184 4.864c1.088-0.064 1.984 1.184 2.048 2.784 0.032 1.568-0.768 2.88-1.856 2.912-1.056 0.032-1.984-1.216-2.016-2.784-0.064-1.6 0.768-2.912 1.824-2.912zM9.888 12.32c0.128-0.608 3.84-1.376 6.112-1.376s5.984 0.768 6.112 1.376c0.096 0.448-1.92 2.016-3.2 2.528-1.248 0.48-1.504 1.184-2.912 1.184s-1.696-0.704-2.912-1.184c-1.28-0.512-3.296-2.080-3.2-2.528zM16 29.248c-4.864-0.032-9.696-3.872-7.584-11.456 0.32 0.16 0.608 0.288 0.96 0.448-0.064 0.96-0.288 4.032-0.192 4.512 0.096 0.608 3.232 1.056 3.52 0.832 0.256-0.16 0.224-3.2 0.192-4.288 0.992 0.192 2.048 0.288 3.104 0.288 2.816 0 5.632-0.768 7.552-1.792 2.144 7.584-2.688 11.456-7.552 11.456zM13.824 6.368c-0.448 0-0.8 0.576-0.768 1.28 0 0.704 0.384 1.248 0.864 1.248 0.448-0.032 0.8-0.608 0.768-1.312-0.032-0.672-0.416-1.248-0.864-1.216zM14.080 8.032c-0.192 0-0.32-0.224-0.32-0.512-0.032-0.288 0.096-0.512 0.256-0.512 0.192 0 0.32 0.224 0.352 0.48s-0.128 0.544-0.288 0.544zM19.232 8.384v0c-0.128 0-0.224-0.096-0.192-0.192 0-0.224-0.032-0.768-0.288-1.024-0.096-0.096-0.224-0.16-0.352-0.16-0.704 0-0.704 1.024-0.704 1.056 0 0.128-0.096 0.192-0.224 0.192s-0.192-0.096-0.192-0.192c0-0.512 0.224-1.472 1.12-1.472 0.256 0 0.48 0.096 0.64 0.288 0.448 0.448 0.416 1.28 0.416 1.312 0 0.096-0.096 0.192-0.224 0.192zM16 15.328c0.256 0 0.384 0 0.608-0.064 0.48-0.096 0.992-0.544 1.472-0.832 1.024-0.64 1.216-0.512 2.848-1.952-1.088 0.864-2.112 1.344-3.2 1.664-0.288 0.096-0.992 0.16-1.728 0.16s-1.44-0.064-1.728-0.16c-1.088-0.32-2.112-0.768-3.2-1.696 1.632 1.472 1.824 1.344 2.848 1.984 0.48 0.288 0.992 0.768 1.504 0.832 0.16 0.064 0.32 0.064 0.576 0.064z"></path>
</svg>
