<!-- Generated by IcoMoon.io -->
<svg version="1.1" xmlns="http://www.w3.org/2000/svg" width="32" height="32" viewBox="0 0 32 32">
<title>quora</title>
<path d="M22.4 14.048c0-7.456-2.304-11.264-7.744-11.264-5.376 0-7.68 3.808-7.68 11.264 0 7.424 2.304 11.2 7.68 11.2 0.832 0 1.6-0.096 2.336-0.32v0c-1.12-2.176-2.432-4.352-4.96-4.352-0.48 0-0.96 0.064-1.408 0.288l-0.864-1.728c1.056-0.928 2.752-1.632 4.928-1.632 3.392 0 5.12 1.632 6.528 3.712 0.8-1.76 1.184-4.192 1.184-7.168zM29.376 25.344h2.080c0.128 1.28-0.512 6.656-6.336 6.656-3.552 0-5.408-2.048-6.816-4.448v0c-1.152 0.32-2.4 0.48-3.648 0.48-7.168 0-14.144-5.696-14.144-13.984 0-8.352 7.008-14.048 14.144-14.048 7.264 0 14.176 5.664 14.176 14.048 0 4.672-2.176 8.48-5.344 10.944 1.024 1.536 2.080 2.528 3.52 2.528 1.632 0 2.272-1.216 2.368-2.176z"></path>
</svg>
