<!-- Generated by IcoMoon.io -->
<svg version="1.1" xmlns="http://www.w3.org/2000/svg" width="39" height="32" viewBox="0 0 39 32">
<title>ravelry</title>
<path d="M20.416 30.944c-0.064-0.032-0.128-0.032-0.192-0.064 0 0-5.888-3.456-7.872-9.024-0.64-0.096-2.048-0.416-3.104-0.672v0c1.536 5.056 5.856 8.928 11.168 9.76zM8.96 20.128l3.008 0.48c-1.024-3.040-1.152-6.528-1.152-6.528-1.184 1.152-1.824 2.752-2.144 4v0c0.032 0.704 0.128 1.376 0.288 2.048zM10.944 9.248v0c-0.576 0.832-1.024 1.728-1.376 2.656 0.576-0.64 1.056-1.056 1.312-1.216-0.032-0.544 0.064-1.44 0.064-1.44zM36.576 16.992c0-7.776-6.272-14.112-13.984-14.112-3.584 0-6.816 1.376-9.312 3.584-0.352 0.736-0.608 1.664-0.8 2.88 3.808-3.232 10.592-2.432 10.592-2.432 1.696 0.064 1.504 1.568 1.472 2.016-6.176-0.512-9.216 1.28-12.192 3.808 0 0 0.576 5.728 1.92 8.032 7.84 0.384 13.792-3.872 13.792-3.872 0.736-0.544 1.408-0.608 1.536 0.32 0.128 0.768 0.16 1.792-0.672 2.176-2.624 1.216-5.504 1.984-8.352 2.4-1.856 0.256-2.88 0.32-5.664 0.288 2.656 6.144 9.248 7.808 9.248 7.808 2.080 0.352 3.648 0.064 4.704-0.256v0c4.576-2.336 7.712-7.104 7.712-12.64zM37.92 16.32c-0.128 1.216-0.32 2.656-0.736 3.808-1.6 4.768-3.84 7.872-8.928 10.72-0.448 0.32-0.96 0.608-1.44 0.768-0.928 0.32-1.888 0.416-2.912 0.288-0.448 0.032-0.864 0.064-1.312 0.064-6.816 0-12.544-4.64-14.272-10.976-0.064 0-0.128-0.032-0.16-0.032-0.416 3.2 1.952 7.552 1.952 7.552s0.128 0.224 0.96 1.472c-4.544-2.4-4.672-9.536-4.672-9.536-1.088-0.384-4.896-1.696-5.536-2.752 0 0 2.944 1.632 5.504 1.952 0 0 0.032-0.576 0.032-0.576 0.16-2.176 0.928-3.872 1.696-5.152 0.48-2.464 1.6-4.672 3.136-6.528 0.256-1.12 0.704-2.432 1.44-3.84 0.32-0.576 0.64-0.992 1.44-1.344 5.44-2.56 10.816-3.2 16.288-0.352v0c5.28 2.752 8.128 8.512 7.52 14.464z"></path>
</svg>
