<!-- Generated by IcoMoon.io -->
<svg version="1.1" xmlns="http://www.w3.org/2000/svg" width="32" height="32" viewBox="0 0 32 32">
<title>reddit</title>
<path d="M19.552 20.832c0.16 0.16 0.16 0.416 0 0.544-1.024 1.024-2.976 1.12-3.552 1.12s-2.528-0.096-3.552-1.12c-0.16-0.128-0.16-0.384 0-0.544 0.128-0.128 0.384-0.128 0.544 0 0.64 0.672 2.016 0.864 3.008 0.864s2.368-0.192 3.008-0.864c0.16-0.128 0.416-0.128 0.544 0zM14.080 17.6c0 0.864-0.736 1.6-1.6 1.6-0.896 0-1.6-0.736-1.6-1.6 0-0.896 0.704-1.6 1.6-1.6 0.864 0 1.6 0.704 1.6 1.6zM21.12 17.6c0 0.864-0.704 1.6-1.6 1.6-0.864 0-1.6-0.736-1.6-1.6 0-0.896 0.736-1.6 1.6-1.6 0.896 0 1.6 0.704 1.6 1.6zM25.6 15.456c0-1.184-0.96-2.112-2.144-2.112-0.608 0-1.12 0.256-1.536 0.64-1.44-0.992-3.392-1.664-5.536-1.728l1.12-5.056 3.584 0.8c0 0.896 0.704 1.6 1.568 1.6 0.896 0 1.6-0.736 1.6-1.6s-0.704-1.6-1.6-1.6c-0.608 0-1.152 0.352-1.408 0.896l-3.968-0.896c-0.192-0.032-0.384 0.096-0.448 0.288l-1.216 5.568c-2.144 0.096-4.064 0.736-5.536 1.728-0.384-0.384-0.928-0.64-1.536-0.64-1.184 0-2.144 0.928-2.144 2.112 0 0.864 0.48 1.568 1.216 1.92-0.064 0.32-0.128 0.672-0.128 1.024 0 3.392 3.84 6.144 8.544 6.144s8.512-2.752 8.512-6.144c0-0.352-0.032-0.704-0.128-1.024 0.704-0.352 1.184-1.088 1.184-1.92zM32 16c0 8.832-7.168 16-16 16s-16-7.168-16-16 7.168-16 16-16 16 7.168 16 16z"></path>
</svg>
