<!-- Generated by IcoMoon.io -->
<svg version="1.1" xmlns="http://www.w3.org/2000/svg" width="32" height="32" viewBox="0 0 32 32">
<title>reddit-alien</title>
<path d="M32 15.104c0 1.408-0.8 2.592-1.952 3.168 0.16 0.576 0.224 1.12 0.224 1.728 0 5.632-6.368 10.208-14.24 10.208-7.84 0-14.208-4.576-14.208-10.208 0-0.576 0.064-1.152 0.192-1.696-1.184-0.576-2.016-1.792-2.016-3.2 0-1.952 1.6-3.552 3.552-3.552 1.024 0 1.92 0.416 2.592 1.12 2.4-1.664 5.632-2.752 9.184-2.88l2.080-9.312c0.064-0.32 0.416-0.544 0.736-0.48l6.592 1.472c0.416-0.864 1.344-1.472 2.368-1.472 1.472 0 2.688 1.184 2.688 2.656s-1.216 2.688-2.688 2.688c-1.472 0-2.656-1.216-2.656-2.656l-5.952-1.344-1.856 8.448c3.584 0.096 6.816 1.184 9.248 2.848 0.64-0.672 1.568-1.088 2.56-1.088 1.952 0 3.552 1.6 3.552 3.552zM7.456 18.656c0 1.472 1.216 2.688 2.656 2.688 1.504 0 2.688-1.216 2.688-2.688s-1.184-2.656-2.688-2.656c-1.44 0-2.656 1.184-2.656 2.656zM21.92 24.992c0.288-0.256 0.288-0.672 0-0.928-0.224-0.256-0.64-0.256-0.896 0-1.088 1.088-3.392 1.472-5.024 1.472s-3.936-0.384-5.024-1.472c-0.256-0.256-0.64-0.256-0.896 0-0.288 0.256-0.288 0.672 0 0.928 1.696 1.696 4.96 1.824 5.92 1.824s4.224-0.128 5.92-1.824zM21.888 21.344c1.44 0 2.656-1.216 2.656-2.688s-1.216-2.656-2.656-2.656c-1.504 0-2.688 1.184-2.688 2.656s1.184 2.688 2.688 2.688z"></path>
</svg>
