<!-- Generated by IcoMoon.io -->
<svg version="1.1" xmlns="http://www.w3.org/2000/svg" width="27" height="32" viewBox="0 0 27 32">
<title>reddit-square</title>
<path d="M16.768 20.16c0.128 0.128 0.128 0.352 0 0.448-0.864 0.896-2.56 0.96-3.040 0.96s-2.176-0.064-3.072-0.96c-0.128-0.096-0.128-0.32 0-0.448 0.128-0.16 0.352-0.16 0.48 0 0.544 0.544 1.728 0.736 2.592 0.736s2.016-0.192 2.592-0.736c0.096-0.16 0.32-0.16 0.448 0zM12.064 17.376c0 0.736-0.608 1.376-1.376 1.376s-1.376-0.64-1.376-1.376c0-0.768 0.64-1.376 1.376-1.376s1.376 0.608 1.376 1.376zM18.112 17.376c0 0.736-0.64 1.376-1.376 1.376s-1.376-0.64-1.376-1.376c0-0.768 0.608-1.376 1.376-1.376s1.376 0.608 1.376 1.376zM21.952 15.52c0-0.992-0.832-1.824-1.856-1.824-0.48 0-0.96 0.224-1.28 0.576-1.248-0.864-2.944-1.408-4.768-1.472l0.96-4.352 3.040 0.704c0.032 0.768 0.64 1.376 1.376 1.376s1.376-0.64 1.376-1.376-0.608-1.376-1.376-1.376c-0.544 0-0.992 0.288-1.216 0.768l-3.392-0.768c-0.16-0.032-0.32 0.064-0.352 0.224l-1.088 4.8c-1.824 0.064-3.488 0.64-4.736 1.472-0.32-0.352-0.8-0.576-1.312-0.576-1.024 0-1.856 0.832-1.856 1.824 0 0.736 0.448 1.376 1.056 1.664-0.064 0.288-0.096 0.576-0.096 0.864 0 2.912 3.264 5.28 7.296 5.28s7.328-2.368 7.328-5.28c0-0.288-0.032-0.576-0.096-0.864 0.576-0.32 0.992-0.928 0.992-1.664zM27.424 7.424v17.152c0 2.848-2.304 5.152-5.152 5.152h-17.12c-2.848 0-5.152-2.304-5.152-5.152v-17.152c0-2.848 2.304-5.152 5.152-5.152h17.12c2.848 0 5.152 2.304 5.152 5.152z"></path>
</svg>
