<!-- Generated by IcoMoon.io -->
<svg version="1.1" xmlns="http://www.w3.org/2000/svg" width="27" height="32" viewBox="0 0 27 32">
<title>renren</title>
<path d="M20.224 28.032c-1.952 1.088-4.16 1.696-6.56 1.696-2.368 0-4.608-0.608-6.56-1.696 3.168-2.016 5.728-5.024 6.56-8.544 0.864 3.52 3.424 6.528 6.56 8.544zM11.392 2.528v8.672c0 6.112-3.36 11.36-8.16 13.664-2.016-2.4-3.232-5.472-3.232-8.832 0-6.784 4.928-12.416 11.392-13.504zM27.424 16.032c0 3.36-1.216 6.432-3.232 8.832-4.768-2.304-8.16-7.552-8.16-13.664v-8.672c6.464 1.088 11.392 6.72 11.392 13.504z"></path>
</svg>
