<!-- Generated by IcoMoon.io -->
<svg version="1.1" xmlns="http://www.w3.org/2000/svg" width="27" height="32" viewBox="0 0 27 32">
<title>rss-square</title>
<path d="M9.152 22.848c0-1.248-1.024-2.272-2.304-2.272s-2.272 1.024-2.272 2.272 1.024 2.304 2.272 2.304 2.304-1.024 2.304-2.304zM15.424 24.544c-0.32-5.536-4.704-9.952-10.24-10.24-0.16-0.032-0.32 0.064-0.448 0.16s-0.16 0.256-0.16 0.416v2.272c0 0.32 0.224 0.544 0.544 0.576 3.648 0.256 6.592 3.2 6.848 6.88 0.032 0.288 0.288 0.544 0.576 0.544h2.304c0.16 0 0.288-0.096 0.416-0.192s0.16-0.256 0.16-0.416zM22.272 24.544c-0.32-9.28-7.808-16.8-17.12-17.088-0.16-0.032-0.288 0.032-0.416 0.16-0.096 0.096-0.16 0.224-0.16 0.384v2.304c0 0.288 0.256 0.544 0.544 0.576 7.424 0.256 13.44 6.304 13.728 13.696 0 0.32 0.256 0.576 0.576 0.576h2.272c0.16 0 0.32-0.096 0.416-0.192 0.128-0.096 0.16-0.256 0.16-0.416zM27.424 7.424v17.152c0 2.848-2.304 5.152-5.152 5.152h-17.12c-2.848 0-5.152-2.304-5.152-5.152v-17.152c0-2.848 2.304-5.152 5.152-5.152h17.12c2.848 0 5.152 2.304 5.152 5.152z"></path>
</svg>
