<!-- Generated by IcoMoon.io -->
<svg version="1.1" xmlns="http://www.w3.org/2000/svg" width="32" height="32" viewBox="0 0 32 32">
<title>safari</title>
<path d="M16.96 15.936c0 0.608-0.416 1.152-1.056 1.152-0.576 0-1.12-0.416-1.12-1.024s0.416-1.152 1.024-1.152c0.576 0 1.152 0.416 1.152 1.024zM17.216 16.992l6.24-10.4c-0.832 0.8-8.64 8-8.864 8.384l-6.24 10.336c0.832-0.768 8.672-8 8.864-8.32zM28.768 16c0 2.336-0.64 4.64-1.856 6.624-0.192-0.096-0.928-0.64-1.056-0.64s-0.256 0.128-0.256 0.256c0 0.224 0.832 0.64 1.056 0.768-1.76 2.688-4.48 4.608-7.616 5.376l-0.256-1.184c-0.032-0.16-0.128-0.192-0.288-0.192-0.128 0-0.192 0.192-0.16 0.288l0.288 1.216c-0.864 0.16-1.76 0.256-2.624 0.256-2.336 0-4.64-0.672-6.656-1.888 0.128-0.16 0.8-1.152 0.8-1.28s-0.096-0.256-0.224-0.256c-0.256 0-0.8 1.088-0.96 1.28-2.688-1.76-4.64-4.544-5.376-7.712l1.216-0.256c0.16-0.032 0.192-0.128 0.192-0.256s-0.192-0.192-0.288-0.192l-1.216 0.256c-0.16-0.8-0.256-1.632-0.256-2.464 0-2.4 0.672-4.768 1.952-6.784 0.16 0.128 1.024 0.704 1.184 0.704 0.128 0 0.224-0.096 0.224-0.224 0-0.224-0.96-0.704-1.152-0.864 1.824-2.656 4.576-4.576 7.712-5.28l0.288 1.184c0.032 0.16 0.128 0.192 0.256 0.192s0.192-0.192 0.192-0.288l-0.288-1.184c0.8-0.128 1.6-0.224 2.4-0.224v0c2.4 0 4.736 0.672 6.784 1.952-0.128 0.16-0.704 1.024-0.704 1.152s0.096 0.224 0.192 0.224c0.256 0 0.736-0.928 0.864-1.12 2.656 1.76 4.544 4.512 5.28 7.616l-0.992 0.224c-0.16 0.032-0.192 0.128-0.192 0.256s0.192 0.224 0.256 0.192l1.024-0.224c0.16 0.8 0.256 1.664 0.256 2.496zM30.272 16c0-7.904-6.368-14.304-14.272-14.304s-14.272 6.4-14.272 14.304 6.368 14.272 14.272 14.272 14.272-6.368 14.272-14.272zM32 16c0 8.832-7.168 16-16 16s-16-7.168-16-16 7.168-16 16-16 16 7.168 16 16z"></path>
</svg>
