<!-- Generated by IcoMoon.io -->
<svg version="1.1" xmlns="http://www.w3.org/2000/svg" width="27" height="32" viewBox="0 0 27 32">
<title>scribd</title>
<path d="M26.784 27.648c0 2.144-1.696 3.872-3.84 3.872s-3.904-1.728-3.904-3.872c0-2.144 1.76-3.872 3.904-3.872s3.84 1.728 3.84 3.872zM22.624 22.624c-2.72 0.384-4.832 2.688-4.832 5.504 0 0.896 0.224 1.76 0.608 2.464-1.6 0.864-3.776 1.408-6.784 1.408-9.504 0-10.976-6.72-10.976-7.616s0.544-3.872 3.904-3.872 3.808 2.848 3.808 3.456c0 0 0 0.608-0.416 1.44 1.152 1.056 3.84 1.056 3.84 1.056 2.72 0 4.736-1.312 4.736-3.264 0-1.984-2.272-2.944-7.488-5.408s-7.168-4.256-7.168-8.736c0-4.512 2.976-9.056 10.464-9.056s10.304 4.192 10.304 7.072-2.432 3.584-3.36 3.584c-0.896 0-4.192 0.32-4.192-4.672-0.576-0.64-3.168-0.64-3.168-0.64-2.592 0-3.712 1.952-3.712 3.168 0 1.184 0.48 2.688 5.856 4.48 8.288 2.752 8.576 6.336 8.576 9.632z"></path>
</svg>
