<!-- Generated by IcoMoon.io -->
<svg version="1.1" xmlns="http://www.w3.org/2000/svg" width="32" height="32" viewBox="0 0 32 32">
<title>seamonkey</title>
<path d="M13.984 28.992c-0.96-0.16-2.016-0.416-2.624-0.64-0.864-0.288-2.464-1.056-2.88-1.376l-0.288-0.256 2.176-1.088c5.408-2.72 8.448-4.512 9.632-5.696 1.312-1.312 2.112-3.136 2.112-4.928 0-1.568-0.48-2.56-1.504-3.2l-0.576-0.352 0.544-0.544c0.448-0.48 0.544-0.64 0.544-1.056 0-0.384-0.096-0.576-0.416-0.864-0.544-0.544-0.96-0.672-1.952-0.672-0.928 0-1.856 0.352-2.368 0.896-0.32 0.384-0.384 0.512-1.664 4-1.088 2.976-1.76 4.416-3.104 6.528-1.664 2.624-3.168 4.448-4.512 5.376l-0.544 0.384-0.704-0.768c-4.736-5.024-4.608-12.8 0.256-17.664 3.744-3.776 9.12-5.056 14.304-3.424 3.904 1.248 7.264 4.48 8.544 8.256 0.64 1.92 0.832 4.48 0.48 6.432-0.8 4.096-3.456 7.52-7.264 9.376-2.016 0.992-3.232 1.248-5.76 1.312-1.152 0.032-2.272 0-2.432-0.032zM2.72 28.608c0-0.192 0.224-0.384 0.736-0.672 3.168-1.792 4.832-2.944 5.92-4.064 1.28-1.344 3.104-4.064 4.64-6.912 0.544-0.992 1.664-4.256 2.144-6.112 0.256-1.024 0.48-1.344 1.152-1.728 0.8-0.48 1.92-0.544 2.656-0.16 0.992 0.512 0.992 1.28 0.032 1.952-0.704 0.512-0.672 0.768 0.192 1.216 0.96 0.512 1.152 0.928 1.152 2.304 0 1.92-0.64 3.872-1.664 4.992-0.8 0.864-2.272 1.76-6.528 3.936-2.176 1.12-5.28 2.784-6.848 3.68s-3.040 1.696-3.232 1.728c-0.288 0.064-0.352 0.064-0.352-0.16zM17.024 21.088c1.6-0.928 2.4-1.568 2.912-2.368 1.152-1.76 1.632-5.024 0.832-5.92-0.256-0.288-1.6-0.96-1.92-0.96-0.16 0-0.224 0.192-0.288 1.216-0.096 1.568-0.384 2.368-1.376 3.872-1.44 2.176-3.936 4.736-7.008 7.2-0.672 0.544-1.184 0.992-1.184 1.024 0 0.096 6.816-3.36 8.032-4.064z"></path>
</svg>
