<!-- Generated by IcoMoon.io -->
<svg version="1.1" xmlns="http://www.w3.org/2000/svg" width="37" height="32" viewBox="0 0 37 32">
<title>sellsy</title>
<path d="M26.784 24.48v-13.088c0-0.512-0.416-0.928-0.896-0.928h-1.664c-0.48 0-0.896 0.416-0.896 0.928v13.088c0 0.48 0.416 0.896 0.896 0.896h1.664c0.48 0 0.896-0.416 0.896-0.896zM21.728 24.48v-9.472c0-0.48-0.416-0.896-0.896-0.896h-1.824c-0.48 0-0.896 0.416-0.896 0.896v9.472c0 0.48 0.416 0.896 0.896 0.896h1.824c0.48 0 0.896-0.416 0.896-0.896zM16.512 24.48v-7.648c0-0.512-0.416-0.896-0.896-0.896h-1.824c-0.48 0-0.864 0.384-0.864 0.896v7.648c0 0.48 0.384 0.896 0.864 0.896h1.824c0.48 0 0.896-0.416 0.896-0.896zM11.296 24.48v-6.464c0-0.48-0.416-0.896-0.896-0.896h-1.824c-0.48 0-0.864 0.416-0.864 0.896v6.464c0 0.48 0.384 0.896 0.864 0.896h1.824c0.48 0 0.896-0.416 0.896-0.896zM36.576 21.856c0 3.968-3.232 7.2-7.168 7.2h-22.24c-3.936 0-7.168-3.232-7.168-7.2 0-2.752 1.632-5.28 4.128-6.464-0.128-0.416-0.192-0.864-0.192-1.312 0-2.688 2.208-4.896 4.896-4.896 1.184 0 2.336 0.448 3.232 1.216 1.056-4.384 4.992-7.456 9.504-7.456 5.376 0 9.76 4.384 9.76 9.792 0 0.736-0.064 1.472-0.224 2.176 3.2 0.768 5.472 3.68 5.472 6.944z"></path>
</svg>
