<!-- Generated by IcoMoon.io -->
<svg version="1.1" xmlns="http://www.w3.org/2000/svg" width="32" height="32" viewBox="0 0 32 32">
<title>sharepoint</title>
<path d="M18.464 0l-18.464 3.52v24.928l18.464 3.552v-32zM20.928 4.928c-0.448 0-0.832 0.096-1.248 0.224v6.912c0.416 0.16 0.8 0.224 1.248 0.224 1.376 0 2.56-0.736 3.2-1.824 0.96 0.544 1.76 1.376 2.336 2.336-1.088 0.64-1.856 1.824-1.856 3.2s0.768 2.56 1.856 3.2c-0.576 0.96-1.376 1.76-2.336 2.336-0.64-1.088-1.824-1.856-3.2-1.856-0.448 0-0.832 0.096-1.248 0.224v6.944c0.416 0.128 0.8 0.224 1.248 0.224 1.984 0 3.616-1.568 3.68-3.552 1.664-0.8 3.040-2.176 3.84-3.84 1.984-0.064 3.552-1.696 3.552-3.68s-1.568-3.616-3.552-3.712c-0.8-1.664-2.176-3.008-3.84-3.84-0.064-1.952-1.696-3.52-3.68-3.52zM9.088 9.696c0.64 0 1.184 0.032 1.696 0.096 0.48 0.096 0.928 0.192 1.344 0.352v2.56c-0.224-0.16-0.416-0.288-0.672-0.416s-0.512-0.192-0.768-0.256c-0.256-0.064-0.48-0.128-0.736-0.16-0.224-0.032-0.48-0.032-0.704-0.032-0.32 0-0.608 0.032-0.864 0.064-0.256 0.064-0.48 0.192-0.64 0.288s-0.288 0.224-0.384 0.384c-0.096 0.16-0.16 0.32-0.16 0.512s0.032 0.352 0.16 0.512c0.096 0.16 0.256 0.32 0.448 0.48 0.192 0.128 0.448 0.288 0.736 0.416s0.608 0.288 0.96 0.416c0.48 0.224 0.928 0.416 1.312 0.672 0.384 0.224 0.704 0.48 0.992 0.768s0.48 0.608 0.608 0.992c0.16 0.384 0.224 0.8 0.224 1.312 0 0.672-0.096 1.216-0.384 1.696-0.256 0.448-0.576 0.832-1.024 1.12-0.448 0.256-0.96 0.48-1.536 0.608s-1.248 0.192-1.888 0.192c-0.672 0-1.28-0.032-1.888-0.16s-1.12-0.32-1.568-0.544v-2.688c0.48 0.416 1.024 0.704 1.6 0.928s1.152 0.288 1.728 0.288c0.352 0 0.672 0 0.928-0.064s0.48-0.16 0.672-0.256c0.16-0.128 0.288-0.256 0.384-0.384s0.096-0.352 0.096-0.512c0-0.224-0.032-0.48-0.192-0.64s-0.32-0.352-0.576-0.512c-0.224-0.16-0.512-0.32-0.832-0.448-0.32-0.16-0.672-0.32-1.056-0.48-0.928-0.384-1.632-0.864-2.112-1.408-0.448-0.576-0.672-1.28-0.672-2.080 0-0.64 0.128-1.216 0.384-1.664s0.576-0.832 1.024-1.12c0.448-0.288 0.928-0.512 1.504-0.64s1.216-0.192 1.856-0.192z"></path>
</svg>
