<!-- Generated by IcoMoon.io -->
<svg version="1.1" xmlns="http://www.w3.org/2000/svg" width="27" height="32" viewBox="0 0 27 32">
<title>share-square</title>
<path d="M22.848 21.344c0-2.112-1.696-3.84-3.808-3.84-0.992 0-1.888 0.416-2.56 1.056l-4.32-2.144c0.032-0.16 0.032-0.288 0.032-0.416s0-0.256-0.032-0.416l4.32-2.144c0.672 0.64 1.568 1.024 2.56 1.024 2.112 0 3.808-1.696 3.808-3.808 0-2.080-1.696-3.808-3.808-3.808-2.080 0-3.808 1.728-3.808 3.808 0 0.128 0.032 0.256 0.032 0.416l-4.288 2.144c-0.704-0.64-1.6-1.024-2.592-1.024-2.112 0-3.808 1.696-3.808 3.808s1.696 3.808 3.808 3.808c0.992 0 1.888-0.416 2.592-1.024l4.288 2.144c0 0.128-0.032 0.256-0.032 0.416 0 2.080 1.728 3.808 3.808 3.808 2.112 0 3.808-1.728 3.808-3.808zM27.424 7.424v17.152c0 2.848-2.304 5.152-5.152 5.152h-17.12c-2.848 0-5.152-2.304-5.152-5.152v-17.152c0-2.848 2.304-5.152 5.152-5.152h17.12c2.848 0 5.152 2.304 5.152 5.152z"></path>
</svg>
