<!-- Generated by IcoMoon.io -->
<svg version="1.1" xmlns="http://www.w3.org/2000/svg" width="27" height="32" viewBox="0 0 27 32">
<title>share</title>
<path d="M21.728 18.272c3.136 0 5.696 2.56 5.696 5.728s-2.56 5.728-5.696 5.728-5.728-2.56-5.728-5.728c0-0.192 0.032-0.416 0.032-0.608l-6.432-3.232c-1.024 0.96-2.4 1.536-3.872 1.536-3.168 0-5.728-2.528-5.728-5.696s2.56-5.728 5.728-5.728c1.472 0 2.848 0.608 3.872 1.536l6.432-3.2c0-0.192-0.032-0.416-0.032-0.608 0-3.168 2.56-5.728 5.728-5.728s5.696 2.56 5.696 5.728-2.56 5.696-5.696 5.696c-1.504 0-2.88-0.576-3.904-1.536l-6.432 3.232c0.032 0.192 0.032 0.416 0.032 0.608s0 0.416-0.032 0.608l6.432 3.2c1.024-0.928 2.4-1.536 3.904-1.536z"></path>
</svg>
