<!-- Generated by IcoMoon.io -->
<svg version="1.1" xmlns="http://www.w3.org/2000/svg" width="27" height="32" viewBox="0 0 27 32">
<title>shirtsinbulk</title>
<path d="M0 0h27.424v24.864l-13.856 6.016-13.568-6.016v-24.864zM25.632 23.68v-16.512h-23.84v16.512l11.808 5.28zM25.632 5.376v-3.584h-23.84v3.584h23.84zM3.232 10.688v2.048h-0.672v-2.048h0.672zM3.232 13.344v2.048h-0.672v-2.048h0.672zM3.232 15.968v2.048h-0.672v-2.048h0.672zM3.232 18.624v2.048h-0.672v-2.048h0.672zM3.232 21.248v2.080h-0.672v-2.080h0.672zM3.712 23.808l0.256-0.608 1.888 0.864-0.288 0.576zM6.112 24.896l0.288-0.608 1.856 0.8-0.256 0.608zM8.544 25.952l0.256-0.608 1.888 0.832-0.288 0.608zM10.976 27.008l0.256-0.576 1.856 0.832-0.256 0.608zM14.24 27.264l1.856-0.832 0.288 0.576-1.888 0.864zM16.64 26.176l1.888-0.832 0.256 0.608-1.856 0.832zM19.072 25.088l1.888-0.8 0.256 0.608-1.888 0.8zM21.472 24.064l1.888-0.864 0.256 0.608-1.856 0.832zM4.64 2.624v0.64h-2.048v-0.64h2.048zM7.52 2.624v0.64h-2.048v-0.64h2.048zM10.4 2.624v0.64h-2.048v-0.64h2.048zM13.28 2.624v0.64h-2.016v-0.64h2.016zM16.192 2.624v0.64h-2.048v-0.64h2.048zM19.072 2.624v0.64h-2.048v-0.64h2.048zM21.952 2.624v0.64h-2.048v-0.64h2.048zM24.832 2.624v0.64h-2.016v-0.64h2.016zM3.232 8.704v1.408h-0.672v-2.048h2.080v0.64h-1.408zM7.52 8.064v0.64h-2.048v-0.64h2.048zM10.4 8.064v0.64h-2.048v-0.64h2.048zM13.28 8.064v0.64h-2.016v-0.64h2.016zM16.192 8.064v0.64h-2.048v-0.64h2.048zM19.072 8.064v0.64h-2.048v-0.64h2.048zM21.952 8.064v0.64h-2.048v-0.64h2.048zM24.192 10.112v-1.408h-1.376v-0.64h2.048v2.048h-0.672zM24.192 12.736v-2.048h0.672v2.048h-0.672zM24.192 15.392v-2.048h0.672v2.048h-0.672zM24.192 18.016v-2.048h0.672v2.048h-0.672zM24.192 20.672v-2.048h0.672v2.048h-0.672zM24.192 23.328v-2.080h0.672v2.080h-0.672zM13.568 22.688c-3.072 0-5.6-2.496-5.6-5.6 0-3.072 2.528-5.568 5.6-5.568 3.104 0 5.6 2.496 5.6 5.568 0 3.104-2.496 5.6-5.6 5.6zM10.624 15.904c0 2.688 4.768 0.704 4.768 2.304 0 0.8-1.472 0.864-2.016 0.864-0.736 0-1.824-0.16-2.208-0.896h-0.032l-0.576 1.12c0.928 0.576 1.792 0.768 2.912 0.768 1.184 0 3.104-0.384 3.104-1.92 0-2.944-4.8-0.992-4.8-2.336 0-0.8 1.28-0.896 1.824-0.896 0.672 0 1.792 0.192 2.176 0.8h0.064l0.544-1.024c-0.928-0.384-1.696-0.736-2.72-0.736-1.248 0-3.040 0.384-3.040 1.952z"></path>
</svg>
