<!-- Generated by IcoMoon.io -->
<svg version="1.1" xmlns="http://www.w3.org/2000/svg" width="37" height="32" viewBox="0 0 37 32">
<title>simplybuilt</title>
<path d="M15.424 18.432c0-2.688-2.176-4.832-4.864-4.832-2.656 0-4.8 2.144-4.8 4.832 0 2.656 2.144 4.8 4.8 4.8 2.688 0 4.864-2.144 4.864-4.8zM30.816 18.4c0-2.656-2.144-4.8-4.8-4.8-2.688 0-4.864 2.144-4.864 4.8 0 2.688 2.176 4.832 4.864 4.832 2.656 0 4.8-2.144 4.8-4.832zM36.576 3.968v24.064c0 1.056-0.864 1.92-1.92 1.92h-32.736c-1.056 0-1.92-0.864-1.92-1.92v-24.064c0-1.056 0.864-1.92 1.92-1.92h7.712c1.056 0 1.92 0.864 1.92 1.92v2.88h13.472v-2.88c0-1.056 0.864-1.92 1.92-1.92h7.712c1.056 0 1.92 0.864 1.92 1.92z"></path>
</svg>
