<!-- Generated by IcoMoon.io -->
<svg version="1.1" xmlns="http://www.w3.org/2000/svg" width="37" height="32" viewBox="0 0 37 32">
<title>skyatlas</title>
<path d="M25.536 10.4c0 0-0.032 0 0 0v0zM30.176 14.048c3.456 0 6.4 2.592 6.4 6.112 0 3.776-3.008 6.56-6.72 6.56-9.472 0-11.232-14.272-20.544-14.272-3.616 0-6.24 2.304-6.24 5.984 0 3.84 2.848 6.144 6.56 6.144 2.432 0 5.184-1.024 7.168-2.432 0.32-0.224 0.96-0.928 1.28-0.928s0.64 0.288 0.64 0.608c0 0.448-0.768 1.088-1.088 1.376-2.336 2.048-5.728 3.52-8.832 3.52-4.768 0-8.8-3.392-8.8-8.288s3.872-8.512 8.736-8.512c10.592 0 12.704 14.048 20.672 14.048 2.4 0 4.192-1.568 4.192-4 0-2.272-1.728-4-4-4-0.992 0-1.984 0.672-2.656 0.672-0.48 0-0.928-0.416-0.928-0.896 0-0.672 0.32-1.344 0.32-2.080 0-3.808-2.912-6.528-6.688-6.528-3.040 0-4.576 2.080-5.088 2.080-0.352 0-0.64-0.288-0.64-0.64 0-0.32 0.256-0.576 0.448-0.8 1.44-1.664 3.712-2.496 5.888-2.496 4.544 0 7.936 3.328 7.936 7.872 0 0.384 0 0.768-0.064 1.152 0.672-0.16 1.376-0.256 2.048-0.256z"></path>
</svg>
