<!-- Generated by IcoMoon.io -->
<svg version="1.1" xmlns="http://www.w3.org/2000/svg" width="27" height="32" viewBox="0 0 27 32">
<title>skype</title>
<path d="M20.96 18.976c0-3.104-3.040-4.192-5.568-4.736l-1.856-0.448c-1.344-0.32-2.368-0.544-2.368-1.568 0-0.96 0.992-1.376 2.56-1.376 2.816 0 2.848 2.048 4.608 2.048 1.152 0 1.856-0.928 1.856-1.952 0-2.048-3.424-3.392-6.784-3.392-3.104 0-6.688 1.344-6.688 4.96 0 3.008 1.984 4.064 4.608 4.704l2.592 0.64c1.6 0.384 2.592 0.576 2.592 1.696 0 0.928-1.024 1.632-2.592 1.632-3.296 0-3.488-2.752-5.408-2.752-1.248 0-1.792 0.896-1.792 1.856 0 2.208 3.36 4 7.36 4 3.36 0 6.88-1.696 6.88-5.312zM27.424 22.848c0 3.776-3.072 6.88-6.848 6.88-1.568 0-3.008-0.544-4.192-1.44-0.832 0.16-1.76 0.288-2.656 0.288-6.944 0-12.576-5.632-12.576-12.576 0-0.928 0.096-1.824 0.288-2.688-0.896-1.152-1.44-2.592-1.44-4.16 0-3.808 3.072-6.88 6.848-6.88 1.568 0 3.040 0.544 4.192 1.44 0.864-0.192 1.76-0.288 2.688-0.288 6.944 0 12.544 5.632 12.544 12.576 0 0.896-0.096 1.824-0.256 2.688 0.864 1.152 1.408 2.592 1.408 4.16z"></path>
</svg>
