<!-- Generated by IcoMoon.io -->
<svg version="1.1" xmlns="http://www.w3.org/2000/svg" width="30" height="32" viewBox="0 0 30 32">
<title>slack</title>
<path d="M27.136 13.856c1.44 0 2.592 1.056 2.592 2.528 0 1.152-0.608 1.952-1.664 2.336l-3.072 1.056 0.992 2.976c0.096 0.256 0.128 0.544 0.128 0.832 0 1.408-1.152 2.592-2.56 2.592-1.12 0-2.112-0.704-2.464-1.76l-0.992-2.944-5.536 1.888 0.992 2.912c0.064 0.288 0.128 0.576 0.128 0.864 0 1.376-1.152 2.592-2.56 2.592-1.152 0-2.112-0.704-2.464-1.792l-0.992-2.912-2.72 0.96c-0.288 0.096-0.608 0.16-0.896 0.16-1.472 0-2.56-1.088-2.56-2.528 0-1.088 0.736-2.112 1.792-2.464l2.784-0.928-1.888-5.6-2.784 0.96c-0.288 0.096-0.576 0.16-0.864 0.16-1.408 0-2.528-1.12-2.528-2.528 0-1.12 0.704-2.112 1.76-2.464l2.816-0.96-0.96-2.816c-0.064-0.288-0.128-0.576-0.128-0.864 0-1.408 1.152-2.592 2.56-2.592 1.12 0 2.112 0.704 2.464 1.792l0.96 2.848 5.536-1.888-0.96-2.848c-0.096-0.256-0.128-0.544-0.128-0.832 0-1.408 1.152-2.592 2.56-2.592 1.12 0 2.144 0.704 2.496 1.76l0.928 2.88 2.912-0.992c0.224-0.064 0.48-0.096 0.768-0.096 1.376 0 2.592 1.024 2.592 2.464 0 1.12-0.864 2.048-1.856 2.368l-2.816 0.96 1.888 5.664 2.912-1.024c0.256-0.064 0.544-0.128 0.832-0.128zM12.96 18.528l5.536-1.856-1.888-5.632-5.536 1.888z"></path>
</svg>
