<!-- Generated by IcoMoon.io -->
<svg version="1.1" xmlns="http://www.w3.org/2000/svg" width="32" height="32" viewBox="0 0 32 32">
<title>slideshare</title>
<path d="M15.584 13.216c0 1.984-1.728 3.616-3.84 3.616s-3.872-1.632-3.872-3.616c0-2.016 1.728-3.616 3.872-3.616s3.84 1.6 3.84 3.616zM24.544 13.216c0 1.984-1.696 3.616-3.84 3.616s-3.872-1.632-3.872-3.616c0-2.016 1.728-3.616 3.872-3.616s3.84 1.6 3.84 3.616zM28.576 16.416v-11.904c0-2.048-0.672-2.848-2.56-2.848h-19.84c-1.984 0-2.56 0.672-2.56 2.848v12.032c4.256 2.208 7.872 1.824 9.856 1.728 0.832 0 1.376 0.16 1.696 0.48 0.032 0.064 0.096 0.128 0.16 0.16 0.384 0.384 0.736 0.64 1.088 0.928 0.096-0.992 0.64-1.6 2.112-1.568 2.016 0.096 5.728 0.48 10.048-1.856zM31.488 16.32c-1.152 1.44-3.328 3.168-6.656 4.512 3.52 12-8.576 13.888-8.384 7.744 0 0.128-0.032-3.296-0.032-5.824-0.256-0.064-0.512-0.128-0.832-0.192 0 2.528-0.032 6.144-0.032 6.016 0.192 6.144-11.904 4.256-8.384-7.744-3.328-1.344-5.504-3.072-6.656-4.512-0.576-0.832 0.064-1.76 0.992-1.088 0.128 0.096 0.288 0.16 0.416 0.256v-12.384c0-1.728 1.28-3.104 2.88-3.104h22.432c1.6 0 2.88 1.376 2.88 3.104v12.384l0.384-0.256c0.928-0.672 1.568 0.256 0.992 1.088z"></path>
</svg>
