<!-- Generated by IcoMoon.io -->
<svg version="1.1" xmlns="http://www.w3.org/2000/svg" width="27" height="32" viewBox="0 0 27 32">
<title>snapchat</title>
<path d="M22.848 20.512c0-0.256-0.16-0.448-0.384-0.512-1.632-0.352-2.88-1.472-3.552-2.976-0.064-0.128-0.128-0.288-0.128-0.448 0-0.8 2.24-0.64 2.24-1.792 0-0.48-0.608-0.768-1.024-0.768s-0.736 0.288-1.12 0.288c-0.064 0-0.16-0.032-0.224-0.032 0.032-0.672 0.096-1.376 0.096-2.048 0-0.608-0.032-1.472-0.288-2.016-0.864-1.888-2.528-2.976-4.576-2.976-2.24 0-3.936 0.832-4.896 2.976-0.288 0.544-0.32 1.408-0.32 2.016 0 0.672 0.064 1.376 0.096 2.048-0.064 0.032-0.16 0.032-0.256 0.032-0.416 0-0.736-0.288-1.088-0.288-0.448 0-1.024 0.288-1.024 0.8 0 1.12 2.24 0.96 2.24 1.76 0 0.16-0.064 0.32-0.128 0.448-0.704 1.504-1.888 2.624-3.52 2.976-0.256 0.064-0.416 0.256-0.416 0.512 0 0.8 1.92 1.12 2.464 1.184 0.16 0.448 0.096 1.184 0.736 1.184 0.448 0 0.896-0.16 1.376-0.16 1.856 0 2.368 1.696 4.544 1.696 2.272 0 2.688-1.696 4.576-1.696 0.512 0 0.928 0.16 1.408 0.16 0.64 0 0.544-0.768 0.704-1.184 0.576-0.064 2.464-0.384 2.464-1.184zM27.424 16c0 7.552-6.144 13.728-13.696 13.728s-13.728-6.176-13.728-13.728 6.144-13.728 13.728-13.728 13.696 6.144 13.696 13.728z"></path>
</svg>
