<!-- Generated by IcoMoon.io -->
<svg version="1.1" xmlns="http://www.w3.org/2000/svg" width="27" height="32" viewBox="0 0 27 32">
<title>snapchat-square</title>
<path d="M22.848 20.512c0-0.256-0.128-0.448-0.384-0.512-1.632-0.32-2.848-1.472-3.52-2.976-0.096-0.128-0.128-0.288-0.128-0.448 0-0.8 2.208-0.64 2.208-1.792 0-0.48-0.608-0.768-1.024-0.768-0.384 0-0.704 0.288-1.12 0.288-0.064 0-0.16-0.032-0.224-0.032 0.064-0.672 0.096-1.376 0.096-2.048 0-0.608-0.032-1.472-0.288-2.048-0.864-1.856-2.528-2.944-4.576-2.944-2.24 0-3.936 0.832-4.896 2.944-0.288 0.576-0.32 1.44-0.32 2.048 0 0.672 0.032 1.376 0.096 2.048-0.096 0-0.192 0.032-0.256 0.032-0.416 0-0.736-0.288-1.12-0.288-0.448 0-0.992 0.288-0.992 0.8 0 1.12 2.24 0.96 2.24 1.76 0 0.16-0.064 0.32-0.128 0.448-0.704 1.504-1.888 2.624-3.552 2.976-0.256 0.064-0.384 0.256-0.384 0.512 0 0.832 1.888 1.12 2.464 1.216 0.16 0.416 0.096 1.184 0.704 1.184 0.48 0 0.928-0.192 1.376-0.192 1.888 0 2.4 1.696 4.576 1.696 2.272 0 2.688-1.696 4.608-1.696 0.48 0 0.928 0.16 1.408 0.16 0.608 0 0.544-0.736 0.672-1.152 0.576-0.096 2.464-0.384 2.464-1.216zM27.424 7.424v17.152c0 2.848-2.304 5.152-5.152 5.152h-17.12c-2.848 0-5.152-2.304-5.152-5.152v-17.152c0-2.848 2.304-5.152 5.152-5.152h17.12c2.848 0 5.152 2.304 5.152 5.152z"></path>
</svg>
