<!-- Generated by IcoMoon.io -->
<svg version="1.1" xmlns="http://www.w3.org/2000/svg" width="30" height="32" viewBox="0 0 30 32">
<title>snapchat-ghost</title>
<path d="M15.136 2.272c3.232-0.032 5.888 1.792 7.232 4.672 0.416 0.864 0.48 2.24 0.48 3.2 0 1.152-0.096 2.272-0.16 3.392 0.128 0.096 0.32 0.128 0.48 0.128 0.64 0 1.184-0.48 1.824-0.48 0.608 0 1.504 0.448 1.504 1.152 0 1.728-3.616 1.408-3.616 2.88 0 0.288 0.128 0.544 0.224 0.768 0.864 1.888 2.496 3.68 4.416 4.48 0.448 0.224 0.928 0.32 1.44 0.416 0.32 0.096 0.48 0.32 0.48 0.64 0 1.216-3.072 1.696-3.904 1.824-0.352 0.576-0.096 1.856-1.024 1.856-0.736 0-1.472-0.224-2.272-0.224-0.352 0-0.736 0.032-1.088 0.096-2.144 0.352-2.848 2.656-6.336 2.656-3.36 0-4.16-2.304-6.24-2.656-0.352-0.064-0.736-0.096-1.12-0.096-0.8 0-1.568 0.288-2.208 0.288-0.992 0-0.704-1.344-1.056-1.92-0.832-0.128-3.936-0.608-3.936-1.824 0-0.32 0.192-0.544 0.512-0.64 0.512-0.096 0.96-0.192 1.44-0.416 1.888-0.768 3.552-2.592 4.416-4.48 0.096-0.224 0.192-0.48 0.192-0.768 0-1.472-3.616-1.216-3.616-2.848 0-0.704 0.832-1.152 1.472-1.152 0.544 0 1.088 0.448 1.792 0.448 0.192 0 0.384-0.032 0.576-0.128-0.064-1.12-0.16-2.24-0.16-3.392 0-0.96 0.064-2.336 0.48-3.2 1.568-3.392 4.224-4.64 7.776-4.672z"></path>
</svg>
