<!-- Generated by IcoMoon.io -->
<svg version="1.1" xmlns="http://www.w3.org/2000/svg" width="41" height="32" viewBox="0 0 41 32">
<title>soundcloud</title>
<path d="M14.016 24.512l0.256-4.32-0.256-9.344c-0.032-0.224-0.224-0.416-0.448-0.416s-0.416 0.192-0.416 0.416l-0.224 9.344 0.224 4.32c0.032 0.224 0.192 0.384 0.416 0.384s0.416-0.16 0.448-0.384zM19.296 23.968l0.192-3.744-0.224-10.464c0-0.192-0.096-0.352-0.224-0.448-0.096-0.032-0.192-0.096-0.288-0.096s-0.192 0.064-0.288 0.096c-0.128 0.096-0.224 0.256-0.224 0.448l-0.032 0.096-0.16 10.336s0 0.032 0.192 4.224v0c0 0.128 0.032 0.224 0.096 0.32 0.128 0.128 0.256 0.192 0.416 0.192 0.128 0 0.256-0.064 0.352-0.16s0.16-0.224 0.16-0.352zM0.64 17.92l0.352 2.272-0.352 2.24c-0.032 0.096-0.096 0.16-0.16 0.16s-0.16-0.064-0.16-0.16l-0.32-2.24 0.32-2.272c0-0.096 0.064-0.16 0.16-0.16s0.128 0.064 0.16 0.16zM2.176 16.512l0.448 3.68-0.448 3.616c-0.032 0.096-0.096 0.16-0.192 0.16s-0.16-0.064-0.16-0.16l-0.416-3.616 0.416-3.68c0-0.096 0.064-0.192 0.16-0.192s0.16 0.096 0.192 0.192zM7.168 24.576v0 0zM3.808 15.808l0.448 4.384-0.448 4.224c0 0.128-0.096 0.192-0.192 0.192s-0.192-0.064-0.224-0.192l-0.384-4.224 0.384-4.384c0.032-0.128 0.096-0.192 0.224-0.192s0.192 0.064 0.192 0.192zM5.472 15.68l0.416 4.512-0.416 4.352c0 0.16-0.128 0.224-0.224 0.224s-0.256-0.064-0.256-0.224l-0.352-4.352 0.352-4.512c0-0.128 0.128-0.224 0.256-0.224s0.224 0.096 0.224 0.224zM7.168 16l0.384 4.192-0.384 4.384c-0.032 0.16-0.16 0.288-0.288 0.288s-0.256-0.128-0.256-0.288l-0.384-4.384 0.384-4.192c0-0.128 0.096-0.256 0.256-0.256s0.256 0.128 0.288 0.256zM14.016 24.512v0 0zM8.832 13.408l0.384 6.784-0.384 4.384c0 0.192-0.128 0.32-0.288 0.32-0.192 0-0.32-0.128-0.32-0.32l-0.32-4.384 0.32-6.784c0-0.192 0.128-0.32 0.32-0.32 0.16 0 0.288 0.128 0.288 0.32zM10.528 11.872l0.32 8.352-0.32 4.352c0 0.192-0.16 0.352-0.352 0.352s-0.32-0.16-0.352-0.352l-0.288-4.352 0.288-8.352c0.032-0.192 0.16-0.352 0.352-0.352s0.352 0.16 0.352 0.352zM12.256 11.168l0.32 9.024-0.32 4.32c0 0.224-0.16 0.384-0.384 0.384-0.192 0-0.352-0.16-0.384-0.384l-0.288-4.32 0.288-9.024c0-0.224 0.192-0.416 0.384-0.416 0.224 0 0.384 0.192 0.384 0.416zM19.264 24.416v0 0 0 0 0 0zM15.744 11.072l0.256 9.12-0.256 4.256c0 0.256-0.192 0.448-0.448 0.448s-0.448-0.192-0.448-0.448l-0.256-4.256 0.256-9.12c0-0.224 0.192-0.448 0.448-0.448s0.448 0.224 0.448 0.448zM17.504 11.424l0.256 8.8-0.256 4.192c0 0.288-0.224 0.48-0.48 0.48s-0.48-0.192-0.512-0.48l-0.192-4.192 0.192-8.8c0.032-0.288 0.224-0.512 0.512-0.512s0.448 0.224 0.48 0.512zM21.28 20.224l-0.256 4.096c0 0.32-0.224 0.576-0.544 0.576s-0.544-0.256-0.576-0.576l-0.096-2.016-0.096-2.080 0.192-11.36v-0.064c0.032-0.16 0.096-0.32 0.224-0.416 0.096-0.096 0.224-0.128 0.352-0.128 0.096 0 0.192 0.032 0.256 0.064 0.192 0.096 0.288 0.288 0.288 0.48zM41.152 19.872c0 2.784-2.272 5.024-5.056 5.024h-14.048c-0.288-0.032-0.544-0.256-0.544-0.576v-16.064c0-0.288 0.096-0.448 0.512-0.576 0.96-0.384 2.080-0.608 3.232-0.608 4.64 0 8.48 3.552 8.864 8.128 0.608-0.256 1.28-0.416 1.984-0.416 2.784 0 5.056 2.272 5.056 5.088z"></path>
</svg>
