<!-- Generated by IcoMoon.io -->
<svg version="1.1" xmlns="http://www.w3.org/2000/svg" width="27" height="32" viewBox="0 0 27 32">
<title>spotify</title>
<path d="M20.128 21.6c0-0.512-0.192-0.704-0.544-0.896-2.304-1.376-4.96-2.080-7.968-2.080-1.76 0-3.424 0.256-5.12 0.608-0.416 0.096-0.768 0.384-0.768 0.928 0 0.448 0.352 0.896 0.896 0.896 0.16 0 0.416-0.096 0.64-0.16 1.408-0.288 2.848-0.48 4.352-0.48 2.624 0 5.088 0.64 7.072 1.856 0.224 0.128 0.352 0.192 0.608 0.192 0.448 0 0.832-0.352 0.832-0.864zM21.856 17.76c0-0.48-0.192-0.832-0.64-1.088-2.72-1.632-6.208-2.528-9.792-2.528-2.304 0-3.872 0.32-5.408 0.768-0.576 0.16-0.864 0.544-0.864 1.152s0.48 1.056 1.088 1.056c0.256 0 0.384-0.064 0.64-0.128 1.28-0.352 2.752-0.608 4.512-0.608 3.392 0 6.464 0.896 8.704 2.208 0.192 0.128 0.384 0.256 0.672 0.256 0.608 0 1.088-0.48 1.088-1.088zM23.776 13.344c0-0.672-0.288-1.024-0.736-1.248-3.072-1.824-7.296-2.656-11.328-2.656-2.4 0-4.576 0.256-6.528 0.832-0.48 0.16-0.96 0.576-0.96 1.344 0 0.704 0.576 1.28 1.28 1.28 0.288 0 0.544-0.064 0.736-0.128 1.728-0.48 3.616-0.672 5.472-0.672 3.712 0 7.584 0.832 10.048 2.304 0.256 0.16 0.448 0.224 0.736 0.224 0.672 0 1.28-0.544 1.28-1.28zM27.424 16c0 7.552-6.144 13.728-13.696 13.728s-13.728-6.176-13.728-13.728 6.144-13.728 13.728-13.728 13.696 6.144 13.696 13.728z"></path>
</svg>
