<!-- Generated by IcoMoon.io -->
<svg version="1.1" xmlns="http://www.w3.org/2000/svg" width="32" height="32" viewBox="0 0 32 32">
<title>steam</title>
<path d="M28.256 10.4c0 2.4-1.984 4.352-4.352 4.352-2.432 0-4.352-1.952-4.352-4.352s1.92-4.384 4.352-4.384c2.368 0 4.352 1.952 4.352 4.384zM14.496 23.648c0-2.496-1.984-4.48-4.448-4.48-0.32 0-0.64 0.032-0.96 0.128l1.856 0.736c1.792 0.736 2.688 2.784 1.984 4.608s-2.816 2.72-4.64 1.952c-0.736-0.288-1.472-0.576-2.208-0.864 0.768 1.408 2.24 2.368 3.968 2.368 2.464 0 4.448-1.984 4.448-4.448zM29.312 10.4c0-3.008-2.432-5.44-5.44-5.44s-5.472 2.432-5.472 5.44c0 3.040 2.464 5.44 5.472 5.44s5.44-2.4 5.44-5.44zM32 10.4c0 4.512-3.648 8.128-8.128 8.128l-7.808 5.696c-0.288 3.072-2.88 5.504-6.016 5.504-2.912 0-5.344-2.080-5.952-4.8l-4.096-1.632v-7.68l6.944 2.816c0.928-0.576 1.984-0.864 3.104-0.864 0.192 0 0.416 0.032 0.608 0.032l5.088-7.264c0.032-4.448 3.68-8.064 8.128-8.064 4.48 0 8.128 3.648 8.128 8.128z"></path>
</svg>
