<!-- Generated by IcoMoon.io -->
<svg version="1.1" xmlns="http://www.w3.org/2000/svg" width="27" height="32" viewBox="0 0 27 32">
<title>steam-square</title>
<path d="M22.176 11.552c0-1.888-1.536-3.456-3.456-3.456-1.888 0-3.456 1.568-3.456 3.456 0 1.92 1.568 3.456 3.456 3.456 1.92 0 3.456-1.536 3.456-3.456zM11.296 22.048c0 1.952-1.568 3.552-3.552 3.552-1.344 0-2.528-0.768-3.104-1.92 0.576 0.256 1.152 0.48 1.728 0.736 1.44 0.576 3.072-0.128 3.68-1.568 0.576-1.44-0.128-3.072-1.568-3.648l-1.472-0.608c0.224-0.032 0.48-0.064 0.736-0.064 1.984 0 3.552 1.568 3.552 3.52zM27.424 7.424v17.152c0 2.848-2.304 5.152-5.152 5.152h-17.12c-2.848 0-5.152-2.304-5.152-5.152v-2.752l3.072 1.248c0.48 2.144 2.4 3.776 4.672 3.776 2.496 0 4.576-1.92 4.8-4.32l6.144-4.512c3.584 0 6.464-2.88 6.464-6.432 0-3.584-2.88-6.432-6.464-6.432-3.52 0-6.368 2.848-6.432 6.368l-4 5.728c-0.16 0-0.32 0-0.512 0-0.896 0-1.728 0.224-2.432 0.672l-5.312-2.144v-8.352c0-2.848 2.304-5.152 5.152-5.152h17.12c2.848 0 5.152 2.304 5.152 5.152zM23.008 11.584c0 2.368-1.92 4.32-4.32 4.32-2.368 0-4.288-1.952-4.288-4.32 0-2.4 1.92-4.32 4.288-4.32 2.4 0 4.32 1.92 4.32 4.32z"></path>
</svg>
