<!-- Generated by IcoMoon.io -->
<svg version="1.1" xmlns="http://www.w3.org/2000/svg" width="34" height="32" viewBox="0 0 34 32">
<title>stumbleupon</title>
<path d="M18.976 12.704v-2.112c0-0.992-0.832-1.824-1.824-1.824s-1.824 0.832-1.824 1.824v10.944c0 4.16-3.456 7.552-7.68 7.552s-7.648-3.424-7.648-7.648v-4.768h5.856v4.672c0 1.024 0.832 1.824 1.824 1.824s1.824-0.8 1.824-1.824v-11.072c0-4.064 3.488-7.36 7.648-7.36s7.648 3.296 7.648 7.424v2.432l-3.488 1.024zM28.416 16.672h5.856v4.768c0 4.224-3.424 7.648-7.648 7.648s-7.648-3.392-7.648-7.584v-4.8l2.336 1.088 3.488-1.024v4.832c0 0.992 0.8 1.792 1.824 1.792s1.792-0.8 1.792-1.792v-4.928z"></path>
</svg>
