<!-- Generated by IcoMoon.io -->
<svg version="1.1" xmlns="http://www.w3.org/2000/svg" width="27" height="32" viewBox="0 0 27 32">
<title>stumbleupon-circle</title>
<path d="M15.456 14.976l1.632-0.48v-1.12c0-1.888-1.632-3.392-3.52-3.392s-3.488 1.504-3.488 3.392v5.056c0 0.448-0.384 0.832-0.832 0.832s-0.832-0.384-0.832-0.832v-2.144h-2.688v2.176c0 1.952 1.568 3.488 3.52 3.488 1.888 0 3.488-1.536 3.488-3.424v-5.024c0-0.448 0.384-0.832 0.832-0.832s0.832 0.384 0.832 0.832v0.96zM21.408 18.464v-2.176h-2.688v2.24c0 0.48-0.352 0.832-0.832 0.832-0.448 0-0.8-0.352-0.8-0.832v-2.208l-1.632 0.48-1.056-0.512v2.208c0 1.92 1.568 3.456 3.52 3.456s3.488-1.536 3.488-3.488zM27.424 16c0 7.552-6.144 13.728-13.696 13.728s-13.728-6.176-13.728-13.728 6.144-13.728 13.728-13.728 13.696 6.144 13.696 13.728z"></path>
</svg>
