<!-- Generated by IcoMoon.io -->
<svg version="1.1" xmlns="http://www.w3.org/2000/svg" width="32" height="32" viewBox="0 0 32 32">
<title>svg</title>
<path d="M28.992 12.992c-0.864 0-1.664 0.384-2.24 0.992h-5.92l4.192-4.192c0.832 0.064 1.664-0.224 2.304-0.864 1.152-1.184 1.152-3.072 0-4.256s-3.072-1.152-4.256 0c-0.64 0.64-0.928 1.472-0.864 2.304l-4.192 4.192v-5.952c0.608-0.544 0.992-1.344 0.992-2.208 0-1.664-1.344-3.008-3.008-3.008s-3.008 1.344-3.008 3.008c0 0.864 0.384 1.664 1.024 2.208v5.952l-4.224-4.192c0.064-0.832-0.224-1.664-0.864-2.304-1.184-1.152-3.072-1.152-4.256 0-1.152 1.184-1.152 3.072 0 4.256 0.64 0.64 1.472 0.928 2.304 0.864l4.192 4.192h-5.92c-0.576-0.608-1.344-0.992-2.24-0.992-1.664 0-3.008 1.344-3.008 3.008s1.344 3.008 3.008 3.008c0.896 0 1.664-0.384 2.24-1.024h5.92l-4.192 4.224c-0.832-0.064-1.664 0.224-2.304 0.864-1.152 1.152-1.152 3.072 0 4.256 1.184 1.152 3.072 1.152 4.256 0 0.64-0.64 0.928-1.472 0.864-2.304l4.224-4.192v5.92c-0.64 0.576-1.024 1.344-1.024 2.24 0 1.664 1.344 3.008 3.008 3.008s3.008-1.344 3.008-3.008c0-0.896-0.384-1.664-0.992-2.24v-5.92l4.192 4.192c-0.064 0.832 0.224 1.664 0.864 2.304 1.184 1.152 3.072 1.152 4.256 0s1.152-3.104 0-4.256c-0.64-0.64-1.472-0.928-2.304-0.864l-4.192-4.224h5.92c0.576 0.64 1.376 1.024 2.24 1.024 1.664 0 3.008-1.344 3.008-3.008s-1.344-3.008-3.008-3.008z"></path>
</svg>
