<!-- Generated by IcoMoon.io -->
<svg version="1.1" xmlns="http://www.w3.org/2000/svg" width="32" height="32" viewBox="0 0 32 32">
<title>sway</title>
<path d="M18.592 0c-0.064 0-0.096 0-0.16 0l-17.92 3.392c-0.288 0.064-0.512 0.32-0.512 0.64v23.872c0 0.32 0.224 0.576 0.512 0.64l17.92 3.456c0.064 0 0.096 0 0.128 0 0.16 0 0.288-0.064 0.416-0.16s0.224-0.288 0.224-0.48v-30.72c0-0.192-0.096-0.384-0.224-0.512-0.128-0.064-0.256-0.128-0.384-0.128zM20.48 3.84v4.864l0.832-0.832c0.256-0.256 0.64-0.256 0.896 0l5.344 5.568h-7.072v3.2h1.92v1.28h-1.92v1.92h1.92v1.28h-1.92v1.92h1.92v1.28h-1.92v3.84h9.6c0.704 0 1.28-0.576 1.28-1.28v-21.76c0-0.704-0.576-1.28-1.28-1.28h-9.6zM27.52 7.040c0.352 0 0.64 0.288 0.64 0.64s-0.288 0.64-0.64 0.64c-0.352 0-0.64-0.288-0.64-0.64s0.288-0.64 0.64-0.64zM24.928 8.32c0.192 0 0.352 0.064 0.48 0.192l4.704 4.928h-1.536l-4.416-4.608 0.32-0.32c0.128-0.128 0.288-0.192 0.448-0.192zM9.344 9.856c0.64 0 1.152 0.064 1.6 0.128s0.896 0.192 1.28 0.32v2.496c-0.192-0.128-0.384-0.256-0.64-0.384s-0.448-0.192-0.704-0.256c-0.256-0.064-0.512-0.128-0.704-0.128-0.256-0.064-0.448-0.064-0.704-0.064-0.32 0-0.576 0-0.832 0.064s-0.448 0.128-0.64 0.256c-0.192 0.128-0.32 0.256-0.384 0.384s-0.128 0.32-0.128 0.512c0 0.192 0.064 0.384 0.128 0.512 0.128 0.128 0.256 0.32 0.448 0.448s0.448 0.256 0.704 0.384c0.256 0.128 0.576 0.256 0.896 0.384 0.448 0.192 0.896 0.384 1.28 0.64 0.384 0.192 0.704 0.448 0.96 0.768 0.256 0.256 0.448 0.576 0.64 0.96 0.128 0.384 0.192 0.768 0.192 1.216-0.064 0.704-0.192 1.216-0.384 1.664-0.256 0.448-0.576 0.832-1.024 1.088s-0.896 0.448-1.472 0.576c-0.576 0.128-1.152 0.192-1.792 0.192s-1.28-0.064-1.856-0.192c-0.576-0.064-1.088-0.256-1.472-0.448v-2.624c0.448 0.384 0.96 0.704 1.536 0.896s1.088 0.32 1.664 0.32c0.32 0 0.64 0 0.896-0.064s0.448-0.128 0.64-0.256c0.192-0.128 0.32-0.256 0.384-0.384s0.128-0.32 0.128-0.448c0-0.256-0.064-0.448-0.192-0.64s-0.32-0.32-0.512-0.512c-0.256-0.128-0.512-0.32-0.832-0.448s-0.64-0.256-1.024-0.448c-0.896-0.384-1.6-0.832-2.048-1.408s-0.704-1.216-0.704-1.984c0-0.64 0.128-1.152 0.384-1.6s0.576-0.768 1.024-1.088c0.448-0.256 0.896-0.512 1.472-0.64s1.152-0.192 1.792-0.192zM23.68 16.64h5.12v1.28h-5.12v-1.28zM23.68 19.84h5.12v1.28h-5.12v-1.28zM23.68 23.040h5.12v1.28h-5.12v-1.28z"></path>
</svg>
