<!-- Generated by IcoMoon.io -->
<svg version="1.1" xmlns="http://www.w3.org/2000/svg" width="21" height="32" viewBox="0 0 21 32">
<title>tablet</title>
<path d="M11.424 25.152c0-0.64-0.512-1.152-1.152-1.152s-1.12 0.512-1.12 1.152 0.512 1.12 1.12 1.12 1.152-0.512 1.152-1.12zM18.272 22.272v-17.12c0-0.32-0.256-0.576-0.544-0.576h-14.88c-0.288 0-0.576 0.256-0.576 0.576v17.12c0 0.32 0.288 0.576 0.576 0.576h14.88c0.288 0 0.544-0.256 0.544-0.576zM20.576 5.152v19.424c0 1.568-1.28 2.848-2.848 2.848h-14.88c-1.568 0-2.848-1.28-2.848-2.848v-19.424c0-1.6 1.28-2.88 2.848-2.88h14.88c1.568 0 2.848 1.28 2.848 2.88z"></path>
</svg>
