<!-- Generated by IcoMoon.io -->
<svg version="1.1" xmlns="http://www.w3.org/2000/svg" width="32" height="32" viewBox="0 0 32 32">
<title>telegram</title>
<path d="M21.248 23.328l2.624-12.352c0.224-1.12-0.416-1.536-1.12-1.28l-15.424 5.952c-1.056 0.416-1.056 1.024-0.192 1.28l3.968 1.216 9.152-5.76c0.416-0.288 0.832-0.128 0.48 0.16l-7.392 6.688-0.288 4.096c0.416 0 0.576-0.192 0.8-0.416l1.92-1.856 4 2.944c0.736 0.416 1.248 0.224 1.472-0.672zM32 16c0 8.832-7.168 16-16 16s-16-7.168-16-16 7.168-16 16-16 16 7.168 16 16z"></path>
</svg>
