<!-- Generated by IcoMoon.io -->
<svg version="1.1" xmlns="http://www.w3.org/2000/svg" width="23" height="32" viewBox="0 0 23 32">
<title>tencent-weibo</title>
<path d="M15.040 10.208c0 1.888-1.568 3.456-3.456 3.456-0.736 0-1.408-0.224-1.984-0.64-0.64 0.704-1.344 1.568-2.048 2.624-2.912 4.352-4.128 9.536-3.616 15.328 0.032 0.512-0.32 0.96-0.832 1.024h-0.096c-0.448 0-0.864-0.352-0.928-0.832-0.672-7.84 1.792-13.376 4-16.64 0.8-1.184 1.6-2.144 2.336-2.944-0.192-0.416-0.256-0.896-0.256-1.376 0-1.92 1.536-3.456 3.424-3.456s3.456 1.536 3.456 3.456zM21.856 10.4c0 5.728-4.672 10.4-10.432 10.4-0.768 0-1.568-0.096-2.336-0.256-0.512-0.128-0.8-0.608-0.704-1.12 0.128-0.48 0.608-0.8 1.12-0.704 0.608 0.16 1.28 0.256 1.92 0.256 4.736 0 8.544-3.84 8.544-8.576s-3.808-8.544-8.544-8.544-8.544 3.84-8.544 8.544c0 1.376 0.32 2.688 0.928 3.904 0.224 0.448 0.064 1.024-0.384 1.248-0.48 0.224-1.024 0.064-1.248-0.416-0.768-1.44-1.152-3.072-1.152-4.736 0-5.728 4.672-10.4 10.4-10.4 5.76 0 10.432 4.672 10.432 10.4z"></path>
</svg>
