<!-- Generated by IcoMoon.io -->
<svg version="1.1" xmlns="http://www.w3.org/2000/svg" width="32" height="32" viewBox="0 0 32 32">
<title>themeisle</title>
<path d="M15.2 5.504c0 0.64-0.384 1.376-1.088 1.376s-1.12-0.736-1.12-1.376c0-0.608 0.416-1.344 1.12-1.344s1.088 0.736 1.088 1.344zM12.288 30.080v-2.016c0-0.704-0.544-1.312-1.28-1.312s-1.248 0.608-1.248 1.312v2.016c0 0.704 0.544 1.344 1.248 1.344s1.28-0.608 1.28-1.344zM15.36 30.080v-2.016c0-0.704-0.544-1.312-1.248-1.312s-1.28 0.608-1.28 1.312v2.016c0 0.704 0.576 1.344 1.28 1.344s1.248-0.64 1.248-1.344zM18.464 30.080v-2.016c0-0.704-0.544-1.312-1.28-1.312s-1.248 0.608-1.248 1.312v2.016c0 0.704 0.544 1.344 1.248 1.344s1.28-0.608 1.28-1.344zM21.568 30.080v-2.016c0-0.704-0.544-1.312-1.248-1.312s-1.28 0.608-1.28 1.312v2.016c0 0.704 0.544 1.344 1.28 1.344s1.248-0.64 1.248-1.344zM26.368 17.856c-1.952 3.712-5.664 6.432-9.92 6.432-6.048 0-10.048-5.28-10.048-11.040 0-1.056 0.128-2.080 0.384-3.104-1.248 2.112-1.856 4.544-1.856 6.944 0 3.776 1.568 7.616 4.48 10.080 0.32-0.608 0.928-1.024 1.6-1.024 0.64 0 1.216 0.352 1.536 0.896 0.352-0.544 0.928-0.896 1.568-0.896 0.608 0 1.216 0.352 1.536 0.896 0.32-0.544 0.928-0.896 1.536-0.896s1.216 0.352 1.568 0.896c0.32-0.544 0.896-0.896 1.536-0.896 0.672 0 1.312 0.416 1.6 0.992 2.72-2.272 4.288-5.76 4.48-9.28zM23.68 17.344c0-0.896-0.384-1.344-1.28-1.344-0.288 0-0.576 0.064-0.832 0.128-0.896 0.16-1.792 0.32-2.688 0.32-2.816 0-4.032-1.632-4.032-4.32 0-1.248 0.256-2.464 0.544-3.648-0.928 1.44-1.472 3.168-1.472 4.896 0 3.392 2.144 6.624 5.792 6.624 1.312 0 2.656-0.48 3.744-1.248 0.128-0.448 0.224-0.928 0.224-1.408zM15.776 5.6c0-1.152-0.768-2.304-2.016-2.304s-2.016 1.152-2.016 2.304c0 1.12 0.8 2.304 2.016 2.304s2.016-1.184 2.016-2.304zM27.008 11.648c0-3.36-2.144-6.624-5.76-6.624-1.92 0-3.68 0.96-4.928 2.304-0.448 1.504-0.864 3.232-0.864 4.8 0 2.368 0.928 3.744 3.424 3.744 0.864 0 1.696-0.16 2.56-0.352 0.32-0.032 0.608-0.096 0.928-0.096 1.248 0 1.856 0.704 1.856 1.92 0 0.288 0 0.576-0.064 0.832 1.792-1.632 2.848-4.096 2.848-6.528zM32 15.52c0 2.24-0.704 6.4-2.272 8.096-1.408 1.568-5.472 3.84-7.552 4.416l-0.064 0.032v2.016c0 1.024-0.8 1.92-1.824 1.92-0.64 0-1.216-0.352-1.536-0.896-0.352 0.544-0.928 0.896-1.568 0.896s-1.216-0.352-1.536-0.896c-0.32 0.544-0.928 0.896-1.536 0.896-0.64 0-1.216-0.352-1.568-0.896-0.32 0.544-0.896 0.896-1.536 0.896-1.152 0-1.824-0.992-1.824-2.048-1.024 0.768-2.24 1.216-3.552 1.216-1.376 0-2.688-0.512-3.744-1.44 0.64 0 1.28-0.128 1.888-0.352-1.312-0.352-2.464-1.184-3.264-2.272 0.416 0.096 0.832 0.128 1.28 0.128 1.024 0 2.048-0.288 2.912-0.832-1.376-1.376-3.52-3.68-4.288-5.472-0.352-0.832-0.416-1.952-0.416-2.848 0-3.104 1.28-9.984 5.408-9.984 0.64 0 1.152 0.288 1.44 0.928 0.224-0.352 0.48-0.672 0.736-0.96 0.128-0.16 0.352-0.352 0.448-0.544 0.512-0.768 0.736-1.312 1.376-2.112 2.016-2.56 5.088-4.352 8.416-4.352 0.384 0 0.736 0.032 1.12 0.096 0.672-0.736 1.6-1.152 2.592-1.152 0.928 0 1.856 0.384 2.496 1.024 0.064 0.032 0.096 0.128 0.096 0.192 0 0.256-0.64 0.864-0.8 1.024 0.256 0.096 0.992 0.448 0.992 0.768 0 0.16-0.192 0.32-0.288 0.448 1.952 1.728 3.072 4.192 3.52 6.752 0.256-0.352 0.64-0.544 1.056-0.544 0.672 0 1.312 0.448 1.792 0.864 1.312 1.152 1.6 3.328 1.6 4.992z"></path>
</svg>
