<!-- Generated by IcoMoon.io -->
<svg version="1.1" xmlns="http://www.w3.org/2000/svg" width="27" height="32" viewBox="0 0 27 32">
<title>trello</title>
<path d="M12.576 24v-18.304c0-0.32-0.256-0.544-0.576-0.544h-8.576c-0.32 0-0.576 0.224-0.576 0.544v18.304c0 0.32 0.256 0.576 0.576 0.576h8.576c0.32 0 0.576-0.256 0.576-0.576zM24.576 17.152v-11.456c0-0.32-0.256-0.544-0.576-0.544h-8.576c-0.32 0-0.576 0.224-0.576 0.544v11.456c0 0.32 0.256 0.544 0.576 0.544h8.576c0.32 0 0.576-0.224 0.576-0.544zM27.424 3.424v25.152c0 0.608-0.512 1.152-1.152 1.152h-25.12c-0.64 0-1.152-0.544-1.152-1.152v-25.152c0-0.64 0.512-1.152 1.152-1.152h25.12c0.64 0 1.152 0.512 1.152 1.152z"></path>
</svg>
