<!-- Generated by IcoMoon.io -->
<svg version="1.1" xmlns="http://www.w3.org/2000/svg" width="41" height="32" viewBox="0 0 41 32">
<title>tripadvisor</title>
<path d="M11.616 17.792c0 0.928-0.736 1.696-1.664 1.696s-1.664-0.768-1.664-1.696c0-0.896 0.736-1.664 1.664-1.664s1.664 0.768 1.664 1.664zM32.224 17.792c0 0.928-0.736 1.664-1.664 1.664s-1.696-0.736-1.696-1.664 0.768-1.664 1.696-1.664 1.664 0.736 1.664 1.664zM13.664 17.792c0-1.888-1.568-3.424-3.456-3.424s-3.424 1.536-3.424 3.424c0 1.92 1.536 3.456 3.424 3.456s3.456-1.536 3.456-3.456zM34.24 17.792c0-1.888-1.536-3.456-3.424-3.456s-3.456 1.568-3.456 3.456c0 1.888 1.568 3.424 3.456 3.424s3.424-1.536 3.424-3.424zM15.168 17.792c0 2.752-2.208 4.992-4.96 4.992s-4.96-2.24-4.96-4.992c0-2.72 2.208-4.96 4.96-4.96s4.96 2.24 4.96 4.96zM35.776 17.792c0 2.752-2.208 4.96-4.96 4.96s-4.96-2.208-4.96-4.96 2.208-4.96 4.96-4.96c2.752 0 4.96 2.208 4.96 4.96zM18.56 17.824c0-4.544-3.68-8.224-8.224-8.224s-8.256 3.68-8.256 8.224 3.712 8.256 8.256 8.256c4.544 0 8.224-3.68 8.224-8.256zM30.496 7.616c-2.944-1.312-6.272-1.984-9.92-1.984s-7.296 0.672-10.24 1.952c5.664 0.032 10.24 4.576 10.24 10.24 0-5.536 4.416-10.048 9.92-10.208zM39.040 17.824c0-4.544-3.648-8.224-8.224-8.224s-8.256 3.68-8.256 8.224 3.712 8.256 8.256 8.256 8.224-3.68 8.224-8.256zM34.304 7.744h6.848c-1.088 1.248-1.856 2.912-2.048 4.064 1.216 1.696 1.952 3.776 1.952 6.016 0 5.664-4.576 10.24-10.24 10.24-3.2 0-6.080-1.472-7.936-3.776 0 0-0.832 1.024-2.304 3.2-0.256-0.512-1.536-2.304-2.304-3.2-1.856 2.304-4.736 3.776-7.936 3.776-5.664 0-10.24-4.576-10.24-10.24 0-2.24 0.736-4.32 1.952-6.016-0.192-1.152-0.96-2.816-2.048-4.064h6.528c3.488-2.368 8.576-3.808 14.048-3.808s10.24 1.44 13.728 3.808z"></path>
</svg>
