<!-- Generated by IcoMoon.io -->
<svg version="1.1" xmlns="http://www.w3.org/2000/svg" width="27" height="32" viewBox="0 0 27 32">
<title>tumblr-square</title>
<path d="M20.288 26.080l-1.12-3.264c-0.416 0.224-1.216 0.384-1.824 0.384-1.824 0.064-2.208-1.248-2.208-2.24v-7.104h4.608v-3.456h-4.576v-5.824h-3.36c-0.064 0-0.16 0.032-0.16 0.16-0.192 1.792-1.024 4.928-4.512 6.176v2.944h2.336v7.456c0 2.56 1.856 6.208 6.848 6.112 1.696-0.032 3.552-0.736 3.968-1.344zM27.424 7.424v17.152c0 2.848-2.304 5.152-5.152 5.152h-17.12c-2.848 0-5.152-2.304-5.152-5.152v-17.152c0-2.848 2.304-5.152 5.152-5.152h17.12c2.848 0 5.152 2.304 5.152 5.152z"></path>
</svg>
