<!-- Generated by IcoMoon.io -->
<svg version="1.1" xmlns="http://www.w3.org/2000/svg" width="30" height="32" viewBox="0 0 30 32">
<title>twitter</title>
<path d="M28.928 7.296c-0.768 1.12-1.76 2.144-2.88 2.976 0 0.256 0 0.48 0 0.736 0 7.616-5.792 16.416-16.416 16.416-3.264 0-6.304-0.96-8.832-2.592 0.448 0.064 0.896 0.064 1.376 0.064 2.688 0 5.184-0.896 7.168-2.464-2.528-0.032-4.672-1.696-5.408-4 0.384 0.064 0.736 0.096 1.088 0.096 0.544 0 1.056-0.064 1.536-0.192-2.656-0.544-4.64-2.848-4.64-5.664v-0.064c0.768 0.416 1.664 0.704 2.624 0.736-1.568-1.056-2.592-2.816-2.592-4.8 0-1.088 0.288-2.080 0.8-2.912 2.848 3.488 7.104 5.76 11.904 6.016-0.096-0.416-0.16-0.864-0.16-1.312 0-3.168 2.592-5.76 5.76-5.76 1.664 0 3.168 0.704 4.224 1.824 1.312-0.256 2.56-0.736 3.68-1.408-0.448 1.344-1.344 2.464-2.56 3.168 1.184-0.096 2.304-0.416 3.328-0.864z"></path>
</svg>
