<!-- Generated by IcoMoon.io -->
<svg version="1.1" xmlns="http://www.w3.org/2000/svg" width="27" height="32" viewBox="0 0 27 32">
<title>twitter-square</title>
<path d="M22.848 10.88c-0.672 0.32-1.376 0.512-2.144 0.608 0.768-0.448 1.376-1.216 1.664-2.080-0.736 0.416-1.536 0.736-2.4 0.896-0.672-0.704-1.664-1.152-2.72-1.152-2.080 0-3.776 1.664-3.776 3.744 0 0.288 0.032 0.576 0.096 0.864-3.104-0.16-5.888-1.664-7.744-3.936-0.32 0.544-0.512 1.216-0.512 1.888 0 1.312 0.608 2.432 1.632 3.136-0.64-0.032-1.216-0.224-1.792-0.48v0.032c0 1.824 1.376 3.36 3.072 3.68-0.32 0.096-0.576 0.16-0.896 0.16-0.224 0-0.48-0.032-0.704-0.096 0.48 1.504 1.856 2.592 3.488 2.624-1.28 0.992-2.88 1.6-4.64 1.6-0.32 0-0.608 0-0.896-0.064 1.664 1.056 3.616 1.696 5.76 1.696 6.88 0 10.656-5.728 10.656-10.688 0-0.16 0-0.32 0-0.48 0.736-0.512 1.376-1.184 1.856-1.952zM27.424 7.424v17.152c0 2.848-2.304 5.152-5.152 5.152h-17.12c-2.848 0-5.152-2.304-5.152-5.152v-17.152c0-2.848 2.304-5.152 5.152-5.152h17.12c2.848 0 5.152 2.304 5.152 5.152z"></path>
</svg>
