<!-- Generated by IcoMoon.io -->
<svg version="1.1" xmlns="http://www.w3.org/2000/svg" width="27" height="32" viewBox="0 0 27 32">
<title>viadeo-square</title>
<path d="M18.752 18.592c0-0.896-0.16-1.792-0.512-2.624-0.448 0.288-0.96 0.48-1.504 0.608 0.288 0.64 0.384 1.344 0.384 2.016 0 2.752-2.016 5.024-4.8 5.024-2.816 0-4.864-2.272-4.864-5.024 0-2.688 2.048-5.056 4.864-5.056 0.608 0 1.184 0.096 1.728 0.32 0.064-0.512 0.224-1.056 0.48-1.536-0.704-0.256-1.44-0.384-2.208-0.384-3.712 0-6.464 2.976-6.464 6.656s2.784 6.56 6.464 6.56 6.432-2.912 6.432-6.56zM15.584 12.256c0.032 0.416 0.032 0.832 0.032 1.248 0 3.328-0.64 8.704-4.192 10.048 0.224 0.032 0.48 0.064 0.736 0.064h0.192c2.624-1.696 3.904-4.256 3.904-7.36 0-1.376-0.224-2.72-0.672-4zM15.584 12.256c-0.096-1.728-1.088-4.416-2.56-5.408 1.024 1.696 1.92 3.52 2.56 5.408zM21.568 10.368c0-1.088-0.288-2.208-0.928-3.104-0.416 0.896-1.216 1.664-2.208 1.952-1.408 0.384-2.656 1.056-2.656 2.72 0 0.48 0.16 0.96 0.416 1.376 1.696-0.384 3.52-1.632 4.224-3.232-0.096 1.408-2.784 3.136-3.808 3.712 0.512 0.512 1.184 0.928 1.952 0.928 1.312 0 2.24-1.152 2.688-2.272 0.224-0.512 0.32-1.536 0.32-2.080zM27.424 7.424v17.152c0 2.848-2.304 5.152-5.152 5.152h-17.12c-2.848 0-5.152-2.304-5.152-5.152v-17.152c0-2.848 2.304-5.152 5.152-5.152h17.12c2.848 0 5.152 2.304 5.152 5.152z"></path>
</svg>
