<!-- Generated by IcoMoon.io -->
<svg version="1.1" xmlns="http://www.w3.org/2000/svg" width="23" height="32" viewBox="0 0 23 32">
<title>viadeo</title>
<path d="M18.752 19.744c0 2.56-0.896 4.8-2.624 6.688-1.792 1.952-4.096 2.88-6.752 2.88s-4.96-0.896-6.752-2.88c-1.728-1.888-2.624-4.128-2.624-6.688 0-5.312 4-9.632 9.376-9.632 1.12 0 2.208 0.16 3.264 0.544-0.384 0.704-0.608 1.472-0.704 2.24-0.8-0.32-1.696-0.48-2.56-0.48-4.064 0-7.040 3.456-7.040 7.392 0 4 2.976 7.264 7.040 7.264s7.008-3.264 7.008-7.264c0-1.024-0.16-2.016-0.576-2.976 0.8-0.16 1.536-0.448 2.208-0.864 0.512 1.184 0.736 2.496 0.736 3.776zM15.104 16.384c0 4.48-1.824 8.224-5.664 10.656l-0.256 0.032c-0.384 0-0.768-0.032-1.12-0.096 5.184-1.952 6.112-9.792 6.112-14.592 0-0.608 0-1.216-0.064-1.824 0.672 1.856 0.992 3.84 0.992 5.824zM14.112 10.528v0.032c-0.928-2.752-2.208-5.376-3.648-7.872 2.24 1.536 3.456 5.216 3.648 7.84zM18.496 14.144c-1.12 0-2.112-0.608-2.88-1.344 1.824-0.992 4.128-2.56 5.184-4.416 0.128-0.256 0.352-0.704 0.384-0.992-1.024 2.304-3.68 4.128-6.144 4.704-0.384-0.608-0.64-1.28-0.64-2.016 0-0.864 0.448-1.984 1.088-2.624 0.736-0.704 1.824-1.056 2.784-1.312 1.44-0.384 2.592-1.504 3.232-2.848 0.928 1.312 1.312 2.944 1.312 4.512 0 0.8-0.128 2.272-0.416 3.040-0.672 1.6-2.016 3.296-3.904 3.296z"></path>
</svg>
