<!-- Generated by IcoMoon.io -->
<svg version="1.1" xmlns="http://www.w3.org/2000/svg" width="32" height="32" viewBox="0 0 32 32">
<title>vimeo</title>
<path d="M30.528 9.248c-0.128 2.816-2.112 6.688-5.952 11.616-3.936 5.12-7.264 7.712-10.016 7.712-1.696 0-3.136-1.568-4.288-4.704-0.8-2.848-1.568-5.728-2.368-8.608-0.864-3.136-1.792-4.672-2.784-4.672-0.224 0-0.96 0.448-2.272 1.344l-1.376-1.728c1.408-1.28 2.848-2.56 4.256-3.808 1.888-1.664 3.328-2.496 4.288-2.592 2.272-0.224 3.648 1.312 4.192 4.608 0.544 3.584 0.96 5.824 1.184 6.656 0.64 2.976 1.344 4.448 2.112 4.448 0.608 0 1.536-0.928 2.752-2.848 1.216-1.952 1.856-3.424 1.952-4.416 0.16-1.664-0.48-2.464-1.952-2.464-0.672 0-1.408 0.16-2.144 0.448 1.44-4.672 4.16-6.944 8.192-6.816 2.976 0.096 4.384 2.048 4.224 5.824z"></path>
</svg>
