<!-- Generated by IcoMoon.io -->
<svg version="1.1" xmlns="http://www.w3.org/2000/svg" width="27" height="32" viewBox="0 0 27 32">
<title>vimeo-square</title>
<path d="M23.072 11.392c0.128-2.592-0.832-3.904-2.88-3.968-2.752-0.096-4.608 1.472-5.568 4.672 0.512-0.224 0.992-0.352 1.472-0.352 0.992 0 1.44 0.576 1.312 1.728-0.064 0.672-0.48 1.664-1.312 2.976s-1.472 1.952-1.888 1.952c-0.512 0-0.992-0.992-1.472-3.008-0.128-0.608-0.384-2.112-0.8-4.544-0.352-2.272-1.28-3.328-2.848-3.168-0.64 0.064-1.632 0.64-2.912 1.792-0.992 0.832-1.92 1.696-2.912 2.56l0.928 1.184c0.896-0.608 1.408-0.928 1.568-0.928 0.672 0 1.312 1.088 1.888 3.2 0.544 1.984 1.088 3.904 1.632 5.888 0.8 2.112 1.76 3.2 2.912 3.2 1.856 0 4.16-1.76 6.848-5.248 2.592-3.36 3.968-6.016 4.032-7.936zM27.424 7.424v17.152c0 2.848-2.304 5.152-5.152 5.152h-17.12c-2.848 0-5.152-2.304-5.152-5.152v-17.152c0-2.848 2.304-5.152 5.152-5.152h17.12c2.848 0 5.152 2.304 5.152 5.152z"></path>
</svg>
