<!-- Generated by IcoMoon.io -->
<svg version="1.1" xmlns="http://www.w3.org/2000/svg" width="32" height="32" viewBox="0 0 32 32">
<title>visio</title>
<path d="M18.432 0l-17.92 3.424c-0.288 0.064-0.512 0.32-0.512 0.64v23.872c0 0.32 0.224 0.576 0.512 0.64l17.92 3.424h0.128c0.352 0 0.64-0.288 0.64-0.64v-30.72c0-0.192-0.096-0.384-0.224-0.512-0.16-0.128-0.352-0.16-0.544-0.128zM20.48 3.84v5.12h1.664l2.816-2.816 3.456 3.456-2.816 2.816v9.344h-2.56v1.92c0 0.352-0.288 0.64-0.64 0.64h-1.92v3.84h9.6c0.704 0 1.28-0.576 1.28-1.28v-21.76c0-0.704-0.576-1.28-1.28-1.28h-9.6zM24.96 7.936l-1.664 1.664 1.664 1.664 1.664-1.664-1.664-1.664zM14.048 9.344l-3.68 13.184-2.56-0.224-3.072-12.096 2.112-0.224 2.208 9.44h0.16l2.304-9.856 2.528-0.224zM20.48 10.24v7.68h1.92c0.352 0 0.64 0.288 0.64 0.64v1.92h1.28v-8.064l-2.176-2.176h-1.664zM20.48 19.2v3.84h1.28v-3.84h-1.28z"></path>
</svg>
