<!-- Generated by IcoMoon.io -->
<svg version="1.1" xmlns="http://www.w3.org/2000/svg" width="32" height="32" viewBox="0 0 32 32">
<title>vivaldi</title>
<path d="M24.736 5.728c-0.48 0-0.928 0.096-1.312 0.288-0.544 0.288-1.12 0.864-1.344 1.44-0.256 0.576-0.32 1.664-0.096 2.208 0.096 0.256 0.256 0.64 0.352 0.896 0.256 0.608 0.32 1.92 0.192 2.624-0.16 0.832-0.704 1.792-1.28 2.368-1.824 1.792-4.576 1.824-6.368 0.096-0.608-0.608-0.704-0.768-3.52-5.76-0.96-1.696-1.792-3.136-1.984-3.296-0.544-0.608-1.312-0.8-2.048-0.832-1.504 0-2.56 1.184-2.816 2.464-0.192 1.024-0.288 0.864 4.64 9.632 3.136 5.536 4.608 8.096 4.832 8.352 0.864 0.896 2.080 1.12 3.232 0.576 0.32-0.128 0.64-0.384 0.864-0.64 0.416-0.448 9.248-16.096 9.376-16.64 0.16-0.576 0.128-1.376-0.064-1.92-0.256-0.704-0.96-1.408-1.632-1.664-0.32-0.128-0.672-0.192-1.024-0.192zM1.984 0h28.032c1.088 0 1.984 0.896 1.984 1.984v28.032c0 1.088-0.896 1.984-1.984 1.984h-28.032c-1.088 0-1.984-0.896-1.984-1.984v-28.032c0-1.088 0.896-1.984 1.984-1.984z"></path>
</svg>
