<!-- Generated by IcoMoon.io -->
<svg version="1.1" xmlns="http://www.w3.org/2000/svg" width="37" height="32" viewBox="0 0 37 32">
<title>vive</title>
<path d="M15.776 0.032c-0.832 0-1.568 0.448-1.984 1.152l-13.376 23.168c-0.416 0.704-0.416 1.6 0 2.336l2.432 4.128c0.416 0.704 1.152 1.152 1.984 1.152h27.008c0.832 0 1.568-0.448 1.984-1.152l2.432-4.128c0.416-0.736 0.416-1.632 0-2.336l-13.376-23.168c-0.416-0.704-1.184-1.152-1.984-1.152zM18.336 8.416c4.416 0 11.744 11.36 9.12 15.84-1.28 2.24-5.216 3.040-9.12 3.040s-7.84-0.768-9.152-3.040c-2.592-4.544 4.736-15.84 9.152-15.84z"></path>
</svg>
