<!-- Generated by IcoMoon.io -->
<svg version="1.1" xmlns="http://www.w3.org/2000/svg" width="35" height="32" viewBox="0 0 35 32">
<title>vk</title>
<path d="M34.24 9.28c0.256 0.736-0.576 2.464-2.688 5.248-3.456 4.608-3.84 4.192-0.992 6.848 2.752 2.56 3.328 3.776 3.424 3.936 0 0 1.152 2.016-1.28 2.016l-4.544 0.096c-0.992 0.192-2.304-0.704-2.304-0.704-1.696-1.184-3.328-4.256-4.576-3.84 0 0-1.28 0.416-1.248 3.136 0.032 0.608-0.256 0.928-0.256 0.928s-0.32 0.352-0.96 0.384h-2.048c-4.512 0.288-8.512-3.872-8.512-3.872s-4.352-4.48-8.16-13.472c-0.256-0.608 0-0.896 0-0.896s0.288-0.32 1.024-0.32l4.896-0.032c0.48 0.064 0.8 0.32 0.8 0.32s0.288 0.192 0.416 0.576c0.8 1.984 1.856 3.808 1.856 3.808 1.76 3.68 2.976 4.32 3.68 3.936 0 0 0.928-0.544 0.704-4.992-0.064-1.632-0.512-2.368-0.512-2.368-0.416-0.544-1.184-0.704-1.504-0.768-0.288-0.032 0.16-0.672 0.768-0.96 0.864-0.416 2.432-0.448 4.256-0.416 1.44 0.032 1.856 0.096 2.4 0.224 1.696 0.416 1.152 1.984 1.152 5.76 0 1.216-0.256 2.912 0.64 3.488 0.352 0.256 1.28 0.032 3.584-3.872 0 0 1.056-1.856 1.92-4 0.128-0.416 0.448-0.576 0.448-0.576s0.256-0.16 0.672-0.096l5.12-0.032c1.568-0.192 1.824 0.512 1.824 0.512z"></path>
</svg>
