<!-- Generated by IcoMoon.io -->
<svg version="1.1" xmlns="http://www.w3.org/2000/svg" width="37" height="32" viewBox="0 0 37 32">
<title>wechat</title>
<path d="M10.368 8.224c0-0.992-0.64-1.632-1.632-1.632-0.96 0-1.952 0.64-1.952 1.632 0 0.96 0.992 1.6 1.952 1.6 0.992 0 1.632-0.64 1.632-1.6zM23.616 17.28c0-0.64-0.64-1.28-1.6-1.28-0.672 0-1.312 0.64-1.312 1.28 0 0.672 0.64 1.312 1.312 1.312 0.96 0 1.6-0.64 1.6-1.312zM19.424 8.224c0-0.992-0.64-1.632-1.632-1.632-0.96 0-1.92 0.64-1.92 1.632 0 0.96 0.96 1.6 1.92 1.6 0.992 0 1.632-0.64 1.632-1.6zM30.752 17.28c0-0.64-0.672-1.28-1.632-1.28-0.64 0-1.28 0.64-1.28 1.28 0 0.672 0.64 1.312 1.28 1.312 0.96 0 1.632-0.64 1.632-1.312zM26.016 10.208c-0.416-0.064-0.832-0.096-1.28-0.096-6.112 0-10.976 4.608-10.976 10.24 0 0.96 0.128 1.856 0.416 2.72-0.416 0.032-0.832 0.064-1.216 0.064-1.632 0-2.912-0.352-4.544-0.672l-4.512 2.272 1.28-3.872c-3.232-2.272-5.184-5.216-5.184-8.768 0-6.144 5.824-11.008 12.96-11.008 6.336 0 11.936 3.904 13.056 9.12zM36.576 20.224c0 2.912-1.92 5.472-4.544 7.424l0.992 3.232-3.552-1.92c-1.312 0.32-2.624 0.64-3.904 0.64-6.144 0-11.008-4.224-11.008-9.376s4.864-9.408 11.008-9.408c5.824 0 11.008 4.224 11.008 9.408z"></path>
</svg>
