<!-- Generated by IcoMoon.io -->
<svg version="1.1" xmlns="http://www.w3.org/2000/svg" width="32" height="32" viewBox="0 0 32 32">
<title>weibo</title>
<path d="M12.064 22.912c0.48-0.8 0.224-1.76-0.608-2.112-0.8-0.352-1.888 0.032-2.368 0.8-0.544 0.8-0.288 1.76 0.512 2.144 0.832 0.352 1.952 0 2.464-0.832zM13.728 20.768c0.192-0.32 0.064-0.672-0.256-0.8s-0.704 0.032-0.896 0.32c-0.16 0.32-0.064 0.672 0.256 0.8s0.736 0 0.896-0.32zM16.832 22.688c-1.056 2.4-4.16 3.744-6.816 2.88-2.56-0.832-3.616-3.328-2.528-5.6 1.12-2.208 3.968-3.456 6.464-2.816 2.624 0.672 3.968 3.136 2.88 5.536zM22.4 19.808c-0.32-3.488-4.896-5.856-10.208-5.344-5.312 0.544-9.312 3.776-8.96 7.232s4.928 5.888 10.208 5.376c5.312-0.544 9.312-3.776 8.96-7.264zM27.904 19.904c0 4-5.792 9.056-14.464 9.056-6.656 0-13.44-3.2-13.44-8.512 0-2.784 1.76-5.984 4.768-8.992 4.032-4.032 8.736-5.856 10.496-4.096 0.8 0.768 0.864 2.144 0.352 3.744-0.224 0.832 0.768 0.352 0.768 0.384 3.264-1.376 6.112-1.472 7.136 0.032 0.544 0.768 0.512 1.888 0 3.168-0.224 0.608 0.064 0.672 0.512 0.832 1.856 0.576 3.872 1.952 3.872 4.384zM26.592 8.736c1.024 1.12 1.312 2.688 0.864 4.032-0.192 0.576-0.768 0.864-1.344 0.704s-0.832-0.768-0.672-1.344v0c0.224-0.672 0.064-1.408-0.416-1.984s-1.248-0.768-1.92-0.608v0c-0.576 0.128-1.152-0.224-1.248-0.8-0.128-0.576 0.224-1.12 0.8-1.248 1.408-0.32 2.912 0.128 3.936 1.248zM29.824 5.824c2.112 2.336 2.656 5.504 1.76 8.288v0c-0.192 0.64-0.896 1.024-1.536 0.8s-0.992-0.896-0.8-1.536v0c0.64-1.984 0.256-4.256-1.248-5.888-1.504-1.664-3.68-2.304-5.728-1.856-0.672 0.128-1.312-0.288-1.472-0.96s0.288-1.312 0.96-1.44v0c2.88-0.608 5.952 0.256 8.064 2.592z"></path>
</svg>
