<!-- Generated by IcoMoon.io -->
<svg version="1.1" xmlns="http://www.w3.org/2000/svg" width="27" height="32" viewBox="0 0 27 32">
<title>whatsapp</title>
<path d="M17.6 17.376c0.288 0 3.2 1.536 3.328 1.76 0.032 0.064 0.032 0.192 0.032 0.256 0 0.448-0.128 0.928-0.288 1.344-0.416 1.024-2.080 1.664-3.104 1.664-0.864 0-2.624-0.768-3.392-1.12-2.56-1.152-4.128-3.136-5.664-5.408-0.704-0.992-1.312-2.24-1.28-3.456v-0.16c0.032-1.184 0.48-2.016 1.312-2.816 0.288-0.256 0.576-0.384 0.928-0.384 0.224 0 0.448 0.032 0.672 0.032 0.48 0 0.576 0.16 0.736 0.608 0.128 0.32 1.056 2.752 1.056 2.912 0 0.704-1.248 1.472-1.248 1.856 0 0.096 0.032 0.192 0.096 0.288 0.384 0.832 1.152 1.792 1.824 2.432 0.832 0.8 1.696 1.312 2.688 1.824 0.128 0.064 0.256 0.128 0.416 0.128 0.512 0 1.408-1.76 1.888-1.76zM13.952 26.848c6.208 0 11.232-5.024 11.232-11.2s-5.024-11.232-11.232-11.232-11.2 5.056-11.2 11.232c0 2.336 0.736 4.64 2.144 6.56l-1.408 4.16 4.32-1.376c1.824 1.216 3.968 1.856 6.144 1.856zM13.952 2.176c7.456 0 13.472 6.048 13.472 13.472s-6.016 13.472-13.472 13.472c-2.24 0-4.512-0.576-6.496-1.696l-7.456 2.4 2.432-7.232c-1.28-2.080-1.92-4.512-1.92-6.944 0-7.424 6.016-13.472 13.44-13.472z"></path>
</svg>
