<!-- Generated by IcoMoon.io -->
<svg version="1.1" xmlns="http://www.w3.org/2000/svg" width="41" height="32" viewBox="0 0 41 32">
<title>wikipedia-w</title>
<path d="M26.688 29.28l-5.28-12.416c-2.080 4.064-4.384 8.352-6.368 12.416-0.032 0-0.96 0-0.96-0.032-3.040-7.040-6.176-14.048-9.216-21.12-0.704-1.728-3.168-4.512-4.832-4.48 0-0.192-0.032-0.64-0.032-0.928h10.4v0.896c-1.216 0.064-3.392 0.864-2.784 2.208 1.408 3.2 6.656 15.424 8.096 18.56 0.96-1.92 3.712-7.040 4.832-9.184-0.896-1.824-3.776-8.608-4.672-10.304-0.64-1.12-2.336-1.248-3.616-1.248v-0.896h9.184v0.864c-1.248 0.032-2.464 0.48-1.888 1.664 1.184 2.56 1.952 4.384 3.072 6.72 0.352-0.672 2.24-4.448 3.104-6.464 0.544-1.312-0.256-1.856-2.496-1.888 0.032-0.256 0-0.672 0.032-0.896 2.848 0 7.136 0 7.904-0.032v0.896c-1.44 0.032-2.944 0.8-3.744 2.016l-3.808 7.904c0.416 1.024 4.096 9.184 4.448 10.080l7.872-18.176c-0.544-1.472-2.336-1.792-3.008-1.824v-0.896l8.192 0.064 0.032 0.064-0.032 0.768c-1.792 0.064-2.88 1.024-3.584 2.592-1.6 3.712-6.656 15.424-9.984 23.072h-0.864z"></path>
</svg>
