<!-- Generated by IcoMoon.io -->
<svg version="1.1" xmlns="http://www.w3.org/2000/svg" width="32" height="32" viewBox="0 0 32 32">
<title>word</title>
<path d="M18.464 0l-18.464 3.52v24.928l18.464 3.552v-32zM19.68 3.68v3.648h8.672v2.528h-8.672v2.432h8.64v2.464h-8.64v2.464h8.64v2.464h-8.64v2.464h8.64v2.464h-8.64v3.712h11.296c0.544 0 1.024-0.512 1.024-1.088v-22.464c0-0.608-0.48-1.088-1.024-1.088h-11.296zM2.432 9.76h2.336l1.376 8.32c0.064 0.352 0.096 0.832 0.128 1.408h0.032c0.032-0.448 0.096-0.928 0.192-1.44l1.76-8.288h2.336l1.6 8.384c0.064 0.32 0.096 0.736 0.16 1.312 0-0.448 0.064-0.928 0.16-1.376l1.344-8.32h2.176l-2.56 12.48h-2.4l-1.6-8c-0.096-0.416-0.16-0.896-0.16-1.408h-0.032c-0.064 0.576-0.096 1.024-0.16 1.408l-1.664 8h-2.496l-2.528-12.48z"></path>
</svg>
