<!-- Generated by IcoMoon.io -->
<svg version="1.1" xmlns="http://www.w3.org/2000/svg" width="32" height="32" viewBox="0 0 32 32">
<title>wordpress</title>
<path d="M2.272 16c0-1.984 0.416-3.872 1.184-5.6l6.56 17.952c-4.576-2.24-7.744-6.912-7.744-12.352zM25.28 15.296c0 1.184-0.48 2.528-1.056 4.448l-1.376 4.576-4.96-14.752s0.832-0.064 1.568-0.128c0.736-0.096 0.64-1.184-0.064-1.152-2.24 0.16-3.68 0.192-3.68 0.192s-1.344-0.032-3.616-0.192c-0.736-0.032-0.832 1.088-0.064 1.152 0.672 0.064 1.408 0.128 1.408 0.128l2.144 5.856-3.008 8.992-4.992-14.848s0.832-0.064 1.568-0.128c0.736-0.096 0.64-1.184-0.064-1.152-2.24 0.16-3.68 0.192-3.68 0.192-0.256 0-0.544-0.032-0.864-0.032 2.432-3.712 6.656-6.176 11.456-6.176 3.584 0 6.816 1.376 9.28 3.584h-0.192c-1.344 0-2.304 1.184-2.304 2.432 0 1.152 0.672 2.080 1.376 3.232 0.512 0.896 1.12 2.080 1.12 3.776zM16.224 17.184l4.256 11.552c0 0.096 0.032 0.16 0.064 0.224-1.408 0.48-2.944 0.768-4.544 0.768-1.344 0-2.656-0.192-3.872-0.576zM28.032 9.408c1.088 1.952 1.696 4.192 1.696 6.592 0 5.056-2.752 9.472-6.848 11.872l4.224-12.128c0.672-1.984 1.056-3.52 1.056-4.928 0-0.512-0.064-0.96-0.128-1.408zM16 0c8.832 0 16 7.168 16 16s-7.168 16-16 16-16-7.168-16-16 7.168-16 16-16zM16 31.264c8.416 0 15.264-6.848 15.264-15.264s-6.848-15.264-15.264-15.264-15.264 6.848-15.264 15.264 6.848 15.264 15.264 15.264z"></path>
</svg>
