<!-- Generated by IcoMoon.io -->
<svg version="1.1" xmlns="http://www.w3.org/2000/svg" width="32" height="32" viewBox="0 0 32 32">
<title>wpexplorer</title>
<path d="M16.928 18.368l2.912 5.856h-0.896l-3.136-6.24-3.072 6.24h-0.864l3.2-6.688-1.376-0.576 0.352-0.864 4.288 1.824-0.384 0.864zM10.048 7.776l5.44 2.336-2.336 5.408-5.408-2.304zM16.192 11.072l4.288 1.856-1.824 4.256-4.288-1.824zM21.216 13.76l3.424 1.44-1.472 3.392-3.392-1.44zM30.016 16c0-7.712-6.304-14.016-14.016-14.016s-13.984 6.304-13.984 14.016 6.272 13.984 13.984 13.984 14.016-6.272 14.016-13.984zM32 16c0 8.832-7.168 16-16 16s-16-7.168-16-16 7.168-16 16-16 16 7.168 16 16z"></path>
</svg>
