<!-- Generated by IcoMoon.io -->
<svg version="1.1" xmlns="http://www.w3.org/2000/svg" width="27" height="32" viewBox="0 0 27 32">
<title>wpforms</title>
<path d="M9.184 16.256v2.304h-4.48v-2.304h4.48zM9.184 11.712v2.272h-4.48v-2.272h4.48zM22.72 20.832v2.304h-6.080v-2.304h6.080zM22.72 16.256v2.304h-12v-2.304h12zM22.72 11.712v2.272h-12v-2.272h12zM25.152 27.072v-22.144c0-0.192-0.16-0.352-0.352-0.352h-0.576l-6.752 4.576-3.744-3.072-3.776 3.072-6.752-4.576h-0.544c-0.224 0-0.384 0.16-0.384 0.352v22.144c0 0.192 0.16 0.352 0.384 0.352h22.144c0.192 0 0.352-0.16 0.352-0.352zM9.888 7.232l3.296-2.656h-7.264zM17.568 7.232l3.936-2.656h-7.264zM27.424 4.928v22.144c0 1.472-1.184 2.656-2.624 2.656h-22.144c-1.472 0-2.656-1.184-2.656-2.656v-22.144c0-1.472 1.184-2.656 2.656-2.656h22.144c1.44 0 2.624 1.184 2.624 2.656z"></path>
</svg>
