<!-- Generated by IcoMoon.io -->
<svg version="1.1" xmlns="http://www.w3.org/2000/svg" width="32" height="32" viewBox="0 0 32 32">
<title>xbox</title>
<path d="M7.232 2.816c-0.032 0.032-0.032 0.032-0.064 0.032 0.096-0.096 0.224-0.192 0.32-0.256 2.464-1.6 5.344-2.464 8.512-2.464 2.976 0 5.76 0.832 8.128 2.24 0.192 0.128 0.64 0.448 0.896 0.736v0c-2.304-2.528-9.024 2.88-9.024 2.88-2.336-1.792-4.48-3.008-6.080-3.456-1.344-0.352-2.272-0.032-2.688 0.288zM27.616 5.216c-0.064-0.096-0.128-0.16-0.224-0.224-0.576-0.64-1.28-0.8-1.92-0.768-0.576 0.192-3.296 1.152-6.624 4.32 0 0 3.744 3.648 6.048 7.36s3.648 6.656 2.816 10.72c2.56-2.816 4.128-6.56 4.128-10.656 0-4.16-1.6-7.936-4.224-10.752zM21.888 17.504c-0.992-1.152-2.528-2.784-4.512-4.768-0.448-0.448-0.896-0.896-1.376-1.344 0 0-0.736 0.704-1.696 1.664v0c-1.216 1.248-2.784 2.848-3.648 3.776-1.568 1.664-6.048 6.88-6.304 9.824 0 0-0.992-2.336 1.216-7.68 1.408-3.52 5.728-8.768 7.52-10.496 0 0-1.664-1.792-3.712-3.040v0c0 0-0.032-0.032-0.064-0.032-0.992-0.608-2.080-1.056-3.136-1.12-1.056 0.064-1.728 0.864-1.728 0.864-2.656 2.816-4.288 6.624-4.288 10.816 0 8.736 7.104 15.84 15.84 15.84 4.64 0 8.832-2.016 11.712-5.184 0 0-0.32-2.080-2.464-5.088-0.48-0.704-2.336-2.88-3.36-4.032z"></path>
</svg>
