<!-- Generated by IcoMoon.io -->
<svg version="1.1" xmlns="http://www.w3.org/2000/svg" width="62" height="32" viewBox="0 0 62 32">
<title>xfce</title>
<path d="M47.84 10.56c0.416 1.792 1.088 2.368 3.008 2.304-2.464 2.272-3.968-1.632-3.008-2.304zM58.336 4.896c-0.16-0.192-0.992 4-0.608 4.192 0.32 0.224 0.896-3.968 0.608-4.192zM51.040 10.976c0 0.64-0.448 1.12-0.992 1.12s-0.992-0.48-0.992-1.12c0 0 0 0 0 0 0-0.608 0.448-1.12 0.992-1.12s0.992 0.512 0.992 1.12c0 0 0 0 0 0zM61.152 5.44c-0.32-0.256-2.752 3.616-2.208 4 0.32 0.256 2.368-3.872 2.208-4zM51.008 19.328c-0.352-0.192 2.24-3.2 2.88-2.88 0.928 0.928-2.944 2.976-2.88 2.88zM49.216 17.28c-0.064-0.224 3.68-2.496 4.224-1.952 0.992 0.352-4.192 2.208-4.224 1.952zM8.544 4.608c5.44 2.24 12.896 7.872 12.32 8.8-1.76 2.464-2.784 5.44-2.080 10.496 0.128 0.896-2.656 2.432-2.432 3.808 0.16 1.024 3.072-1.024 3.392-0.64 0.224 0.736-1.568 4.384-0.832 4.672 0.512 0.128 5.088-4.352 5.376-4.288 7.552 2.272 17.408 0.544 17.6 0.48-0.032-0.032 7.072 3.328 7.68 2.944 1.568-1.696-2.944-4.064-2.176-5.024 0.32-0.48 5.472 1.888 5.728 1.216 0.384-1.12-2.4-3.456-2.816-4.128-0.352-0.672-0.416-1.696 0.512-2.336s10.4-4.288 10.016-7.104c-0.704-5.088-12.032-5.408-12.224-5.856-0.096-0.192 0.48-7.296-2.816-5.984-2.048 0.768-0.384 5.28-0.256 5.856 0.128 0.544-0.896 0.48-1.088 0.256-0.448-0.544-1.856-5.248-3.552-4.416-2.368 1.312-0.128 5.376-0.608 5.504-0.864 0.512-0.832 1.696-1.536 2.656-1.152 1.664-9.792-0.768-12.608-0.928-2.048-0.128-4 1.536-4.192 1.344-2.496-2.496-7.648-6.848-13.312-8.288-3.168-0.864-7.872-3.36-8.064-3.328-0.32 0.16 2.56 2.048 7.968 4.288z"></path>
</svg>
