<!-- Generated by IcoMoon.io -->
<svg version="1.1" xmlns="http://www.w3.org/2000/svg" width="25" height="32" viewBox="0 0 25 32">
<title>xing</title>
<path d="M10.656 11.904c0 0-0.16 0.32-4.576 8.16-0.224 0.384-0.544 0.8-1.152 0.8h-4.288c-0.256 0-0.448-0.128-0.544-0.288s-0.128-0.416 0-0.64l4.512-8c0.032 0 0.032 0 0-0.032l-2.88-4.992c-0.128-0.224-0.128-0.48 0-0.64 0.096-0.192 0.32-0.288 0.544-0.288h4.288c0.64 0 0.96 0.448 1.184 0.8 2.912 5.12 2.912 5.12 2.912 5.12zM25.056 0.448c0.128 0.16 0.128 0.416 0 0.64l-9.44 16.704c0 0 0 0 0 0l6.016 11.008c0.128 0.224 0.128 0.48 0 0.64-0.128 0.192-0.32 0.288-0.544 0.288h-4.288c-0.64 0-0.992-0.448-1.184-0.832-6.048-11.072-6.048-11.104-6.048-11.104s0.32-0.544 9.472-16.8c0.256-0.416 0.512-0.832 1.152-0.832h4.32c0.224 0 0.448 0.096 0.544 0.288z"></path>
</svg>
