<!-- Generated by IcoMoon.io -->
<svg version="1.1" xmlns="http://www.w3.org/2000/svg" width="27" height="32" viewBox="0 0 27 32">
<title>xing-square</title>
<path d="M12.224 13.664c0 0 0-0.032-2.24-3.968-0.192-0.288-0.416-0.608-0.928-0.608h-3.296c-0.192 0-0.352 0.064-0.448 0.192-0.096 0.16-0.064 0.352 0 0.512l2.24 3.872-3.488 6.176c-0.128 0.192-0.096 0.384 0 0.512s0.224 0.224 0.416 0.224h3.296c0.48 0 0.736-0.32 0.896-0.64 3.424-6.048 3.552-6.272 3.552-6.272zM23.392 4.768c-0.096-0.128-0.256-0.192-0.448-0.192h-3.328c-0.48 0-0.704 0.288-0.896 0.608-7.104 12.608-7.328 13.024-7.328 13.024s0 0.032 4.672 8.576c0.16 0.32 0.416 0.64 0.928 0.64h3.296c0.192 0 0.352-0.064 0.448-0.224s0.096-0.32-0.032-0.48l-4.64-8.512 7.328-12.928c0.064-0.192 0.064-0.352 0-0.512zM27.424 7.424v17.152c0 2.848-2.304 5.152-5.152 5.152h-17.12c-2.848 0-5.152-2.304-5.152-5.152v-17.152c0-2.848 2.304-5.152 5.152-5.152h17.12c2.848 0 5.152 2.304 5.152 5.152z"></path>
</svg>
