<!-- Generated by IcoMoon.io -->
<svg version="1.1" xmlns="http://www.w3.org/2000/svg" width="27" height="32" viewBox="0 0 27 32">
<title>yahoo</title>
<path d="M15.328 17.088l0.256 12.64c-0.608-0.128-1.248-0.224-1.888-0.224-0.608 0-1.248 0.096-1.888 0.224l0.256-12.64c-3.328-5.728-6.464-11.584-10.112-17.088 0.608 0.16 1.248 0.256 1.92 0.256s1.344-0.128 1.984-0.256c2.496 4.416 5.216 8.736 7.84 13.088 2.656-4.32 5.44-8.64 7.84-13.088 0.64 0.16 1.28 0.256 1.92 0.256 0.672 0 1.376-0.096 2.016-0.256v0 0c-1.408 1.952-2.592 4.096-3.84 6.208-2.112 3.616-4.192 7.232-6.304 10.88z"></path>
</svg>
