<!-- Generated by IcoMoon.io -->
<svg version="1.1" xmlns="http://www.w3.org/2000/svg" width="32" height="32" viewBox="0 0 32 32">
<title>yandex</title>
<path d="M16 0c-8.832 0-16 7.168-16 16s7.168 16 16 16c8.832 0 16-7.168 16-16s-7.168-16-16-16zM16 0.768c0 0 0 0 0 0 8.416 0 15.232 6.816 15.232 15.232 0 0 0 0 0 0s0 0 0 0c0 8.416-6.816 15.232-15.232 15.232 0 0 0 0 0 0s0 0 0 0c-8.416 0-15.232-6.816-15.232-15.232 0 0 0 0 0 0s0 0 0 0c0-8.416 6.816-15.232 15.232-15.232 0 0 0 0 0 0zM26.304 9.408l-8.576 8.352v10.432c0 0.192-0.8 0.32-1.728 0.352v0c-0.896-0.032-1.728-0.16-1.728-0.352v-10.432l-8.576-8.352c-0.128-0.16 0.32-0.8 0.992-1.472s1.312-1.12 1.44-0.992l7.872 7.68 7.84-7.68c0.128-0.128 0.8 0.32 1.472 0.992s1.12 1.312 0.992 1.472z"></path>
</svg>
