<!-- Generated by IcoMoon.io -->
<svg version="1.1" xmlns="http://www.w3.org/2000/svg" width="27" height="32" viewBox="0 0 27 32">
<title>yelp</title>
<path d="M13.792 23.552v2.272c0 5.024 0 5.216-0.096 5.44-0.128 0.384-0.448 0.64-0.896 0.704-1.312 0.224-5.312-1.248-6.144-2.24-0.192-0.224-0.288-0.448-0.32-0.672 0-0.16 0.032-0.32 0.064-0.448 0.096-0.256 0.256-0.448 3.84-4.704 0 0 0.032 0 1.088-1.248 0.352-0.448 0.992-0.576 1.6-0.384 0.576 0.256 0.896 0.736 0.864 1.28zM11.136 19.072c-0.032 0.608-0.384 1.088-0.928 1.248l-2.144 0.704c-4.8 1.536-4.96 1.568-5.216 1.568-0.384-0.032-0.736-0.256-0.96-0.64-0.128-0.288-0.256-0.768-0.288-1.344-0.192-1.76 0.032-4.384 0.544-5.216 0.256-0.384 0.608-0.576 0.992-0.544 0.288 0 0.48 0.096 5.664 2.208 0 0 0 0 1.504 0.608 0.544 0.192 0.864 0.768 0.832 1.408zM25.888 24.384c-0.16 1.28-2.848 4.64-4.032 5.12-0.416 0.16-0.832 0.128-1.152-0.096-0.192-0.192-0.416-0.512-3.264-5.152l-0.864-1.376c-0.32-0.48-0.256-1.12 0.16-1.632 0.384-0.48 0.96-0.64 1.472-0.48 0 0 0.032 0.032 2.144 0.736 4.8 1.568 4.96 1.632 5.152 1.792 0.32 0.224 0.448 0.608 0.384 1.088zM13.888 13.088c0.096 1.856-0.704 2.080-0.96 2.176-0.256 0.064-1.024 0.288-2.048-1.28-6.56-10.368-6.72-10.656-6.72-10.656-0.096-0.384 0-0.8 0.32-1.12 0.992-1.024 6.336-2.528 7.712-2.144 0.448 0.096 0.768 0.384 0.896 0.8 0.064 0.448 0.704 10.048 0.8 12.224zM25.728 15.008c0.032 0.448-0.128 0.832-0.48 1.056-0.224 0.16-0.416 0.224-5.856 1.536-0.896 0.192-1.376 0.32-1.632 0.416v-0.032c-0.512 0.128-1.12-0.128-1.472-0.64s-0.32-1.12 0-1.568c0 0 0.032 0 1.344-1.824 2.912-4 3.072-4.192 3.296-4.32 0.32-0.256 0.736-0.256 1.152-0.032 1.152 0.544 3.488 4.032 3.648 5.376v0.032z"></path>
</svg>
