<!-- Generated by IcoMoon.io -->
<svg version="1.1" xmlns="http://www.w3.org/2000/svg" width="30" height="32" viewBox="0 0 30 32">
<title>yoast</title>
<path d="M6.048 3.904h12.352l-0.48 1.28h-11.872c-2.624 0-4.768 2.144-4.768 4.768v13.792c0 2.24 1.6 4.224 3.84 4.672 0.576 0.128 1.152 0.096 1.728 0.096v1.28h-0.8c-3.328 0-6.048-2.72-6.048-6.048v-13.792c0-3.328 2.72-6.048 6.048-6.048zM21.248 0h4.416l-8.608 23.104c-1.6 4.288-3.552 8.768-8.832 8.896v-3.488c1.984-0.32 3.232-1.408 3.936-3.264 0.224-0.576 0.352-1.216 0.352-1.856s-0.128-1.28-0.352-1.888l-5.12-13.088h4.096l3.328 10.432zM29.728 9.952v19.84h-14.208c0.288-0.416 0.576-0.832 0.8-1.28h12.096v-18.56c0-2.016-1.28-3.84-3.168-4.512l0.448-1.216c2.4 0.832 4.032 3.168 4.032 5.728z"></path>
</svg>
