<!-- Generated by IcoMoon.io -->
<svg version="1.1" xmlns="http://www.w3.org/2000/svg" width="32" height="32" viewBox="0 0 32 32">
<title>youtube</title>
<path d="M12.704 20.128l8.64-4.448-8.64-4.512v8.96zM16 4.736c6.72 0 11.2 0.32 11.2 0.32 0.608 0.096 1.984 0.096 3.2 1.376 0 0 0.992 0.96 1.28 3.168 0.352 2.592 0.32 5.184 0.32 5.184v2.432s0.032 2.592-0.32 5.184c-0.288 2.176-1.28 3.168-1.28 3.168-1.216 1.28-2.592 1.28-3.2 1.344 0 0-4.48 0.352-11.2 0.352v0c-8.32-0.096-10.88-0.352-10.88-0.352-0.704-0.128-2.304-0.064-3.52-1.344 0 0-0.992-0.992-1.28-3.168-0.352-2.592-0.32-5.184-0.32-5.184v-2.432s-0.032-2.592 0.32-5.184c0.288-2.208 1.28-3.168 1.28-3.168 1.216-1.28 2.592-1.28 3.2-1.376 0 0 4.48-0.32 11.2-0.32v0z"></path>
</svg>
