<!-- Generated by IcoMoon.io -->
<svg version="1.1" xmlns="http://www.w3.org/2000/svg" width="27" height="32" viewBox="0 0 27 32">
<title>youtube-square</title>
<path d="M5.152 2.272c-2.848 0-5.152 2.304-5.152 5.152v17.152c0 2.848 2.304 5.152 5.152 5.152h17.12c2.848 0 5.152-2.304 5.152-5.152v-17.152c0-2.848-2.304-5.152-5.152-5.152h-17.12zM13.728 10.432c3.36 0 5.6 0.16 5.6 0.16 0.288 0.032 0.992 0.032 1.6 0.672 0 0 0.48 0.48 0.64 1.6 0.16 1.312 0.16 2.592 0.16 2.592v1.216c0 0 0 1.28-0.16 2.592-0.16 1.088-0.64 1.568-0.64 1.568-0.608 0.64-1.312 0.64-1.6 0.672 0 0-2.24 0.192-5.6 0.192-4.16-0.032-5.44-0.16-5.44-0.16-0.352-0.064-1.184-0.064-1.792-0.704 0 0-0.48-0.48-0.608-1.568-0.192-1.312-0.16-2.592-0.16-2.592v-1.216c0 0-0.032-1.28 0.16-2.592 0.128-1.12 0.608-1.6 0.608-1.6 0.608-0.64 1.312-0.64 1.632-0.672 0 0 2.208-0.16 5.6-0.16zM12.064 13.632v4.512l4.32-2.24-4.32-2.272z"></path>
</svg>
